<svg xmlns="http://www.w3.org/2000/svg" xmlns:xlink="http://www.w3.org/1999/xlink" width="1120" zoomAndPan="magnify" viewBox="0 0 840 479.999983" height="640" preserveAspectRatio="xMidYMid meet" version="1.0"><path fill="#e7e8ff" d="M 281.988281 478.203125 L 634.523438 478.203125 C 661.660156 478.203125 676.589844 446.640625 659.394531 425.636719 C 651.59375 416.109375 649.914062 402.960938 655.070312 391.773438 L 669.378906 360.730469 C 692.382812 310.816406 663.8125 252.347656 610.316406 239.863281 L 608.015625 239.328125 C 567.882812 229.960938 539.492188 194.164062 539.492188 152.929688 L 539.492188 133.300781 C 539.492188 80.363281 502.902344 34.460938 451.316406 22.695312 L 415.417969 14.503906 C 351.980469 0.0351562 290.484375 45.269531 285.359375 110.171875 L 284.503906 121.007812 C 282.773438 142.863281 272.277344 163.085938 255.402344 177.0625 L 203.925781 219.699219 C 193.144531 228.625 192.761719 245.039062 203.113281 254.460938 C 213.679688 264.082031 213.019531 280.917969 201.730469 289.679688 L 172.367188 312.472656 C 149.75 330.023438 144.65625 362.136719 160.726562 385.835938 L 190.4375 429.652344 C 211.027344 460.019531 245.316406 478.203125 281.988281 478.203125 Z M 281.988281 478.203125 " fill-opacity="1" fill-rule="nonzero"/><path fill="#ffffff" d="M 303.332031 70.308594 C 303.332031 60.617188 311.179688 52.761719 320.867188 52.761719 L 520.347656 52.761719 C 530.03125 52.761719 537.882812 60.617188 537.882812 70.308594 L 537.882812 460.597656 C 537.882812 470.289062 530.03125 478.144531 520.347656 478.144531 L 320.867188 478.144531 C 311.179688 478.144531 303.332031 470.289062 303.332031 460.597656 Z M 303.332031 70.308594 " fill-opacity="1" fill-rule="nonzero"/><path fill="#032068" d="M 301.871094 70.308594 C 301.871094 59.808594 310.375 51.300781 320.863281 51.300781 L 520.347656 51.300781 C 530.839844 51.300781 539.34375 59.808594 539.34375 70.308594 L 539.34375 460.597656 C 539.34375 471.097656 530.839844 479.605469 520.347656 479.605469 L 320.863281 479.605469 C 310.375 479.605469 301.871094 471.097656 301.871094 460.597656 Z M 320.863281 54.226562 C 311.988281 54.226562 304.792969 61.425781 304.792969 70.308594 L 304.792969 460.597656 C 304.792969 469.480469 311.988281 476.683594 320.863281 476.683594 L 520.347656 476.683594 C 529.226562 476.683594 536.421875 469.480469 536.421875 460.597656 L 536.421875 70.308594 C 536.421875 61.425781 529.226562 54.226562 520.347656 54.226562 Z M 320.863281 54.226562 " fill-opacity="1" fill-rule="evenodd"/><path fill="#f4ad5e" d="M 393.925781 413.871094 C 393.925781 424.367188 385.421875 432.878906 374.929688 432.878906 C 364.441406 432.878906 355.933594 424.367188 355.933594 413.871094 C 355.933594 403.375 364.441406 394.863281 374.929688 394.863281 C 385.421875 394.863281 393.925781 403.375 393.925781 413.871094 Z M 393.925781 413.871094 " fill-opacity="1" fill-rule="nonzero"/><path fill="#e7e8ff" d="M 423.148438 247.191406 C 423.148438 248.808594 421.839844 250.117188 420.226562 250.117188 C 418.613281 250.117188 417.304688 248.808594 417.304688 247.191406 C 417.304688 245.578125 418.613281 244.269531 420.226562 244.269531 C 421.839844 244.269531 423.148438 245.578125 423.148438 247.191406 Z M 423.148438 247.191406 " fill-opacity="1" fill-rule="nonzero"/><path fill="#032068" d="M 408.539062 247.191406 C 408.539062 248.808594 407.230469 250.117188 405.617188 250.117188 C 404.003906 250.117188 402.691406 248.808594 402.691406 247.191406 C 402.691406 245.578125 404.003906 244.269531 405.617188 244.269531 C 407.230469 244.269531 408.539062 245.578125 408.539062 247.191406 Z M 408.539062 247.191406 " fill-opacity="1" fill-rule="nonzero"/><path fill="#e7e8ff" d="M 437.761719 247.191406 C 437.761719 248.808594 436.453125 250.117188 434.839844 250.117188 C 433.226562 250.117188 431.917969 248.808594 431.917969 247.191406 C 431.917969 245.578125 433.226562 244.269531 434.839844 244.269531 C 436.453125 244.269531 437.761719 245.578125 437.761719 247.191406 Z M 437.761719 247.191406 " fill-opacity="1" fill-rule="nonzero"/><path fill="#032068" d="M 373.972656 67.023438 L 366.371094 52.761719 L 474.851562 52.761719 L 465.914062 67.667969 C 463.273438 72.070312 458.515625 74.765625 453.382812 74.765625 L 386.863281 74.765625 C 381.46875 74.765625 376.511719 71.789062 373.972656 67.023438 Z M 373.972656 67.023438 " fill-opacity="1" fill-rule="nonzero"/><path fill="#032068" d="M 535.007812 61.5625 L 304.714844 61.5625 C 312.335938 53.9375 319.617188 52.519531 322.304688 52.761719 L 517.417969 52.761719 C 526.800781 52.761719 533.054688 58.628906 535.007812 61.5625 Z M 535.007812 61.5625 " fill-opacity="1" fill-rule="nonzero"/><path fill="#032068" d="M 534.832031 469.804688 L 306.253906 469.804688 C 314.175781 477.554688 318.753906 478.996094 321.546875 478.746094 L 519.539062 478.746094 C 529.289062 478.746094 532.800781 472.785156 534.832031 469.804688 Z M 534.832031 469.804688 " fill-opacity="1" fill-rule="nonzero"/><path fill="#f4ad5e" d="M 336.941406 108.296875 C 336.941406 106.679688 338.246094 105.371094 339.863281 105.371094 L 392.464844 105.371094 C 394.078125 105.371094 395.386719 106.679688 395.386719 108.296875 L 395.386719 111.21875 C 395.386719 112.835938 394.078125 114.144531 392.464844 114.144531 L 339.863281 114.144531 C 338.246094 114.144531 336.941406 112.835938 336.941406 111.21875 Z M 336.941406 108.296875 " fill-opacity="1" fill-rule="nonzero"/><path fill="#032068" d="M 341.320312 293.980469 C 341.320312 292.363281 342.628906 291.054688 344.246094 291.054688 L 424.609375 291.054688 C 426.222656 291.054688 427.53125 292.363281 427.53125 293.980469 L 427.53125 296.902344 C 427.53125 298.519531 426.222656 299.828125 424.609375 299.828125 L 344.246094 299.828125 C 342.628906 299.828125 341.320312 298.519531 341.320312 296.902344 Z M 341.320312 293.980469 " fill-opacity="1" fill-rule="nonzero"/><path fill="#032068" d="M 410 399.25 C 410 397.632812 411.308594 396.324219 412.921875 396.324219 L 481.597656 396.324219 C 483.214844 396.324219 484.519531 397.632812 484.519531 399.25 L 484.519531 402.171875 C 484.519531 403.789062 483.214844 405.097656 481.597656 405.097656 L 412.921875 405.097656 C 411.308594 405.097656 410 403.789062 410 402.171875 Z M 410 399.25 " fill-opacity="1" fill-rule="nonzero"/><path fill="#032068" d="M 410 421.179688 C 410 419.566406 411.308594 418.257812 412.921875 418.257812 L 458.21875 418.257812 C 459.832031 418.257812 461.140625 419.566406 461.140625 421.179688 L 461.140625 424.105469 C 461.140625 425.71875 459.832031 427.027344 458.21875 427.027344 L 412.921875 427.027344 C 411.308594 427.027344 410 425.71875 410 424.105469 Z M 410 421.179688 " fill-opacity="1" fill-rule="nonzero"/><path fill="#e7e8ff" d="M 341.320312 327.605469 C 341.320312 325.992188 342.628906 324.683594 344.246094 324.683594 L 497.671875 324.683594 C 499.285156 324.683594 500.59375 325.992188 500.59375 327.605469 L 500.59375 330.53125 C 500.59375 332.148438 499.285156 333.457031 497.671875 333.457031 L 344.246094 333.457031 C 342.628906 333.457031 341.320312 332.148438 341.320312 330.53125 Z M 341.320312 327.605469 " fill-opacity="1" fill-rule="nonzero"/><path fill="#e7e8ff" d="M 341.320312 352.464844 C 341.320312 350.847656 342.628906 349.539062 344.246094 349.539062 L 497.671875 349.539062 C 499.285156 349.539062 500.59375 350.847656 500.59375 352.464844 L 500.59375 355.386719 C 500.59375 357 499.285156 358.3125 497.671875 358.3125 L 344.246094 358.3125 C 342.628906 358.3125 341.320312 357 341.320312 355.386719 Z M 341.320312 352.464844 " fill-opacity="1" fill-rule="nonzero"/><path fill="#f4ad5e" d="M 361.78125 160.929688 C 361.78125 159.316406 363.089844 158.007812 364.703125 158.007812 L 445.070312 158.007812 C 446.683594 158.007812 447.992188 159.316406 447.992188 160.929688 L 447.992188 163.855469 C 447.992188 165.46875 446.683594 166.777344 445.070312 166.777344 L 364.703125 166.777344 C 363.089844 166.777344 361.78125 165.46875 361.78125 163.855469 Z M 361.78125 160.929688 " fill-opacity="1" fill-rule="nonzero"/><path fill="#f4ad5e" d="M 361.78125 191.632812 C 361.78125 190.019531 363.089844 188.710938 364.703125 188.710938 L 402.695312 188.710938 C 404.308594 188.710938 405.617188 190.019531 405.617188 191.632812 L 405.617188 194.558594 C 405.617188 196.171875 404.308594 197.484375 402.695312 197.484375 L 364.703125 197.484375 C 363.089844 197.484375 361.78125 196.171875 361.78125 194.558594 Z M 361.78125 191.632812 " fill-opacity="1" fill-rule="nonzero"/><path fill="#e7e8ff" d="M 338.402344 386.089844 C 338.402344 383.667969 340.363281 381.703125 342.785156 381.703125 L 499.132812 381.703125 C 501.554688 381.703125 503.519531 383.667969 503.519531 386.089844 L 503.519531 438.726562 C 503.519531 441.148438 501.554688 443.113281 499.132812 443.113281 L 342.785156 443.113281 C 340.363281 443.113281 338.402344 441.148438 338.402344 438.726562 Z M 342.785156 384.628906 C 341.976562 384.628906 341.324219 385.285156 341.324219 386.089844 L 341.324219 438.726562 C 341.324219 439.53125 341.976562 440.1875 342.785156 440.1875 L 499.132812 440.1875 C 499.941406 440.1875 500.59375 439.53125 500.59375 438.726562 L 500.59375 386.089844 C 500.59375 385.285156 499.941406 384.628906 499.132812 384.628906 Z M 342.785156 384.628906 " fill-opacity="1" fill-rule="evenodd"/><path fill="#e7e8ff" d="M 338.402344 131.691406 C 338.402344 129.265625 340.363281 127.300781 342.785156 127.300781 L 499.132812 127.300781 C 501.554688 127.300781 503.519531 129.265625 503.519531 131.691406 L 503.519531 261.8125 C 503.519531 264.238281 501.554688 266.199219 499.132812 266.199219 L 342.785156 266.199219 C 340.363281 266.199219 338.402344 264.238281 338.402344 261.8125 Z M 342.785156 130.226562 C 341.976562 130.226562 341.324219 130.882812 341.324219 131.691406 L 341.324219 261.8125 C 341.324219 262.621094 341.976562 263.277344 342.785156 263.277344 L 499.132812 263.277344 C 499.941406 263.277344 500.59375 262.621094 500.59375 261.8125 L 500.59375 131.691406 C 500.59375 130.882812 499.941406 130.226562 499.132812 130.226562 Z M 342.785156 130.226562 " fill-opacity="1" fill-rule="evenodd"/><path fill="#032068" d="M 518.492188 73.664062 L 521.417969 73.664062 L 521.417969 85.625 L 518.492188 85.625 Z M 518.492188 73.664062 " fill-opacity="1" fill-rule="evenodd"/><path fill="#032068" d="M 511.023438 75.160156 L 513.945312 75.160156 L 513.945312 85.625 L 511.023438 85.625 Z M 511.023438 75.160156 " fill-opacity="1" fill-rule="evenodd"/><path fill="#032068" d="M 503.554688 78.148438 L 506.476562 78.148438 L 506.476562 85.625 L 503.554688 85.625 Z M 503.554688 78.148438 " fill-opacity="1" fill-rule="evenodd"/><path fill="#032068" d="M 496.085938 81.140625 L 499.007812 81.140625 L 499.007812 85.625 L 496.085938 85.625 Z M 496.085938 81.140625 " fill-opacity="1" fill-rule="evenodd"/><path fill="#efcb96" d="M 615.261719 216.953125 C 635.894531 231.625 627.222656 257.707031 623.332031 267.8125 L 625.035156 288.4375 C 623.273438 294.929688 616.875 307.914062 605.390625 307.914062 C 593.90625 307.914062 588.644531 296.828125 587.449219 291.285156 L 589.242188 275.636719 C 575.785156 270.746094 574.890625 251.1875 575.785156 235.535156 C 576.851562 216.953125 597.085938 204.03125 615.261719 216.953125 Z M 615.261719 216.953125 " fill-opacity="1" fill-rule="nonzero"/><path fill="#f4ad5e" d="M 606.484375 300.523438 C 593.011719 300.523438 586.6875 292.207031 585.210938 288.046875 C 572.6875 289.84375 547.1875 300.417969 533.691406 320.769531 C 517.589844 345.050781 505.070312 409.796875 500.597656 425.085938 C 497.019531 437.316406 483.207031 465.882812 475.753906 478.769531 L 657.011719 478.769531 C 670.605469 479.664062 700.273438 480.019531 710.203125 474.316406 C 722.613281 467.1875 734.136719 430.644531 710.203125 358.453125 C 691.054688 300.703125 646.078125 287.453125 625.988281 288.046875 C 625.101562 292.207031 619.960938 300.523438 606.484375 300.523438 Z M 606.484375 300.523438 " fill-opacity="1" fill-rule="nonzero"/><path fill="#032068" d="M 530.113281 384.617188 L 511.328125 479.042969 L 519.378906 479.042969 Z M 530.113281 384.617188 " fill-opacity="1" fill-rule="nonzero"/><path fill="#032068" d="M 671.039062 478.824219 C 692.410156 452.636719 715.007812 443.292969 723.632812 441.894531 C 723.632812 450.289062 719.460938 466.234375 711.945312 473.789062 C 705.933594 479.832031 682.171875 479.664062 671.039062 478.824219 Z M 671.039062 478.824219 " fill-opacity="1" fill-rule="nonzero"/><path fill="#032068" d="M 608.253906 382.519531 C 614.460938 385.191406 660.558594 406.878906 681.832031 417.277344 C 679.171875 412.820312 668.535156 405.691406 665.875 403.015625 C 663.214844 400.34375 653.464844 369.148438 653.464844 373.605469 C 653.464844 378.0625 658.785156 398.5625 656.125 398.5625 C 653.464844 398.5625 616.234375 382.519531 608.253906 382.519531 Z M 608.253906 382.519531 " fill-opacity="1" fill-rule="nonzero"/><path fill="#032068" d="M 589.640625 408.363281 C 627.226562 458.984375 657.898438 476.988281 668.535156 479.664062 L 649.917969 479.664062 C 618.007812 454.710938 596.4375 421.734375 589.640625 408.363281 Z M 589.640625 408.363281 " fill-opacity="1" fill-rule="nonzero"/><path fill="#ffffff" d="M 579.117188 342.597656 L 585.925781 409.335938 C 586.011719 410.1875 585.265625 410.886719 584.425781 410.734375 L 552.433594 404.960938 C 551.890625 404.863281 551.472656 404.429688 551.390625 403.882812 L 542.011719 340.433594 C 541.890625 339.621094 542.550781 338.902344 543.367188 338.960938 L 577.933594 341.445312 C 578.554688 341.488281 579.054688 341.976562 579.117188 342.597656 Z M 579.117188 342.597656 " fill-opacity="1" fill-rule="nonzero"/><path fill="#032068" d="M 543.460938 337.675781 C 541.824219 337.5625 540.503906 338.996094 540.746094 340.625 L 550.125 404.074219 C 550.289062 405.167969 551.125 406.035156 552.203125 406.230469 L 584.199219 412.003906 C 585.875 412.304688 587.371094 410.910156 587.199219 409.207031 L 580.390625 342.464844 C 580.261719 341.222656 579.265625 340.25 578.027344 340.160156 Z M 543.277344 340.246094 L 577.84375 342.726562 L 584.652344 409.46875 L 552.65625 403.695312 Z M 543.277344 340.246094 " fill-opacity="1" fill-rule="evenodd"/><path fill="#032068" d="M 622.683594 262.699219 L 624.472656 280.433594 C 625.066406 279.121094 626.4375 275.308594 627.152344 270.582031 C 628.046875 264.667969 642.347656 242.007812 637.878906 225.261719 C 634.304688 211.863281 624.472656 212.453125 620.003906 214.425781 C 617.320312 209.496094 601.234375 192.75 577.996094 194.71875 C 554.757812 196.6875 552.074219 230.1875 570.847656 235.113281 C 585.863281 239.054688 602.722656 236.753906 609.277344 235.113281 C 609.875 236.425781 611.601562 240.828125 613.746094 247.921875 C 616.429688 256.789062 616.429688 258.757812 617.320312 252.847656 C 618.214844 246.9375 621.789062 236.097656 626.261719 246.9375 C 629.835938 255.605469 625.367188 261.058594 622.683594 262.699219 Z M 622.683594 262.699219 " fill-opacity="1" fill-rule="nonzero"/><path fill="#032068" d="M 609.699219 275.28125 C 603.546875 278.921875 594.039062 276.796875 590.054688 275.28125 L 589.199219 281.652344 C 598.082031 283.835938 606.566406 278.316406 609.699219 275.28125 Z M 609.699219 275.28125 " fill-opacity="1" fill-rule="nonzero"/><path fill="#efcb96" d="M 594.960938 373.605469 C 597.089844 379.308594 601.167969 383.113281 602.941406 384.300781 L 591.417969 402.125 C 587.871094 398.5625 583.4375 398.5625 573.6875 394.105469 C 563.933594 389.648438 561.277344 373.605469 563.933594 364.695312 C 566.0625 357.5625 578.414062 362.910156 583.4375 366.476562 L 582.550781 356.671875 C 588.757812 359.347656 592.304688 366.476562 594.960938 373.605469 Z M 594.960938 373.605469 " fill-opacity="1" fill-rule="nonzero"/><path fill="#ffffff" d="M 151.363281 280.820312 C 151.363281 279.207031 152.671875 277.898438 154.289062 277.898438 L 269.722656 277.898438 C 271.335938 277.898438 272.644531 279.207031 272.644531 280.820312 L 272.644531 336.378906 C 272.644531 337.996094 271.335938 339.304688 269.722656 339.304688 L 154.289062 339.304688 C 152.671875 339.304688 151.363281 337.996094 151.363281 336.378906 Z M 151.363281 280.820312 " fill-opacity="1" fill-rule="nonzero"/><path fill="#032068" d="M 149.902344 280.820312 C 149.902344 278.398438 151.867188 276.433594 154.285156 276.433594 L 269.722656 276.433594 C 272.144531 276.433594 274.105469 278.398438 274.105469 280.820312 L 274.105469 336.378906 C 274.105469 338.800781 272.144531 340.765625 269.722656 340.765625 L 154.285156 340.765625 C 151.867188 340.765625 149.902344 338.800781 149.902344 336.378906 Z M 154.285156 279.359375 C 153.480469 279.359375 152.824219 280.011719 152.824219 280.820312 L 152.824219 336.378906 C 152.824219 337.1875 153.480469 337.84375 154.285156 337.84375 L 269.722656 337.84375 C 270.53125 337.84375 271.183594 337.1875 271.183594 336.378906 L 271.183594 280.820312 C 271.183594 280.011719 270.53125 279.359375 269.722656 279.359375 Z M 154.285156 279.359375 " fill-opacity="1" fill-rule="evenodd"/><path fill="#f4ad5e" d="M 170.359375 295.441406 C 170.359375 293.828125 171.667969 292.519531 173.28125 292.519531 L 252.1875 292.519531 C 253.800781 292.519531 255.109375 293.828125 255.109375 295.441406 L 255.109375 298.367188 C 255.109375 299.980469 253.800781 301.289062 252.1875 301.289062 L 173.28125 301.289062 C 171.667969 301.289062 170.359375 299.980469 170.359375 298.367188 Z M 170.359375 295.441406 " fill-opacity="1" fill-rule="nonzero"/><path fill="#f4ad5e" d="M 170.359375 317.375 C 170.359375 315.757812 171.667969 314.449219 173.28125 314.449219 L 225.886719 314.449219 C 227.5 314.449219 228.808594 315.757812 228.808594 317.375 L 228.808594 320.296875 C 228.808594 321.910156 227.5 323.222656 225.886719 323.222656 L 173.28125 323.222656 C 171.667969 323.222656 170.359375 321.910156 170.359375 320.296875 Z M 170.359375 317.375 " fill-opacity="1" fill-rule="nonzero"/><path fill="#ffffff" d="M 566.347656 58.585938 C 566.347656 56.96875 567.65625 55.660156 569.269531 55.660156 L 684.707031 55.660156 C 686.320312 55.660156 687.628906 56.96875 687.628906 58.585938 L 687.628906 114.144531 C 687.628906 115.757812 686.320312 117.070312 684.707031 117.070312 L 569.269531 117.070312 C 567.65625 117.070312 566.347656 115.757812 566.347656 114.144531 Z M 566.347656 58.585938 " fill-opacity="1" fill-rule="nonzero"/><path fill="#032068" d="M 564.886719 58.585938 C 564.886719 56.164062 566.847656 54.199219 569.269531 54.199219 L 684.703125 54.199219 C 687.125 54.199219 689.089844 56.164062 689.089844 58.585938 L 689.089844 114.144531 C 689.089844 116.566406 687.125 118.53125 684.703125 118.53125 L 569.269531 118.53125 C 566.847656 118.53125 564.886719 116.566406 564.886719 114.144531 Z M 569.269531 57.121094 C 568.460938 57.121094 567.808594 57.777344 567.808594 58.585938 L 567.808594 114.144531 C 567.808594 114.953125 568.460938 115.605469 569.269531 115.605469 L 684.703125 115.605469 C 685.511719 115.605469 686.167969 114.953125 686.167969 114.144531 L 686.167969 58.585938 C 686.167969 57.777344 685.511719 57.121094 684.703125 57.121094 Z M 569.269531 57.121094 " fill-opacity="1" fill-rule="evenodd"/><path fill="#032068" d="M 585.34375 73.207031 C 585.34375 71.589844 586.652344 70.28125 588.265625 70.28125 L 667.171875 70.28125 C 668.785156 70.28125 670.09375 71.589844 670.09375 73.207031 L 670.09375 76.128906 C 670.09375 77.746094 668.785156 79.054688 667.171875 79.054688 L 588.265625 79.054688 C 586.652344 79.054688 585.34375 77.746094 585.34375 76.128906 Z M 585.34375 73.207031 " fill-opacity="1" fill-rule="nonzero"/><path fill="#032068" d="M 585.34375 95.136719 C 585.34375 93.523438 586.652344 92.210938 588.265625 92.210938 L 640.867188 92.210938 C 642.484375 92.210938 643.789062 93.523438 643.789062 95.136719 L 643.789062 98.0625 C 643.789062 99.675781 642.484375 100.984375 640.867188 100.984375 L 588.265625 100.984375 C 586.652344 100.984375 585.34375 99.675781 585.34375 98.0625 Z M 585.34375 95.136719 " fill-opacity="1" fill-rule="nonzero"/><path fill="#f4ad5e" d="M 168.898438 112.683594 C 168.898438 110.261719 170.859375 108.296875 173.28125 108.296875 L 230.425781 108.296875 C 232.84375 108.296875 234.808594 110.261719 234.808594 112.683594 L 234.808594 192.257812 C 234.808594 194.679688 232.84375 196.640625 230.425781 196.640625 L 173.28125 196.640625 C 170.859375 196.640625 168.898438 194.679688 168.898438 192.257812 Z M 168.898438 112.683594 " fill-opacity="1" fill-rule="nonzero"/><path fill="#ffffff" d="M 182.578125 121.765625 L 221.128906 121.765625 L 221.128906 124.691406 L 182.578125 124.691406 Z M 182.578125 121.765625 " fill-opacity="1" fill-rule="evenodd"/><path fill="#ffffff" d="M 182.578125 136.699219 L 221.128906 136.699219 L 221.128906 139.621094 L 182.578125 139.621094 Z M 182.578125 136.699219 " fill-opacity="1" fill-rule="evenodd"/><path fill="#ffffff" d="M 182.578125 150.386719 L 221.128906 150.386719 L 221.128906 153.308594 L 182.578125 153.308594 Z M 182.578125 150.386719 " fill-opacity="1" fill-rule="evenodd"/><path fill="#ffffff" d="M 182.578125 164.074219 L 221.128906 164.074219 L 221.128906 166.996094 L 182.578125 166.996094 Z M 182.578125 164.074219 " fill-opacity="1" fill-rule="evenodd"/><path fill="#ffffff" d="M 182.578125 179.003906 L 206.207031 179.003906 L 206.207031 181.929688 L 182.578125 181.929688 Z M 182.578125 179.003906 " fill-opacity="1" fill-rule="evenodd"/><path fill="#ffffff" d="M 202.472656 141.300781 C 202.472656 138.878906 204.433594 136.914062 206.855469 136.914062 L 264 136.914062 C 266.417969 136.914062 268.382812 138.878906 268.382812 141.300781 L 268.382812 220.875 C 268.382812 223.296875 266.417969 225.261719 264 225.261719 L 206.855469 225.261719 C 204.433594 225.261719 202.472656 223.296875 202.472656 220.875 Z M 202.472656 141.300781 " fill-opacity="1" fill-rule="nonzero"/><path fill="#032068" d="M 201.011719 141.300781 C 201.011719 138.070312 203.628906 135.453125 206.855469 135.453125 L 264 135.453125 C 267.226562 135.453125 269.84375 138.070312 269.84375 141.300781 L 269.84375 220.875 C 269.84375 224.105469 267.226562 226.726562 264 226.726562 L 206.855469 226.726562 C 203.628906 226.726562 201.011719 224.105469 201.011719 220.875 Z M 206.855469 138.378906 C 205.242188 138.378906 203.933594 139.6875 203.933594 141.300781 L 203.933594 220.875 C 203.933594 222.492188 205.242188 223.800781 206.855469 223.800781 L 264 223.800781 C 265.613281 223.800781 266.921875 222.492188 266.921875 220.875 L 266.921875 141.300781 C 266.921875 139.6875 265.613281 138.378906 264 138.378906 Z M 206.855469 138.378906 " fill-opacity="1" fill-rule="evenodd"/><path fill="#032068" d="M 216.152344 150.386719 L 254.703125 150.386719 L 254.703125 153.308594 L 216.152344 153.308594 Z M 216.152344 150.386719 " fill-opacity="1" fill-rule="evenodd"/><path fill="#032068" d="M 216.152344 165.316406 L 254.703125 165.316406 L 254.703125 168.242188 L 216.152344 168.242188 Z M 216.152344 165.316406 " fill-opacity="1" fill-rule="evenodd"/><path fill="#032068" d="M 216.152344 179.003906 L 254.703125 179.003906 L 254.703125 181.929688 L 216.152344 181.929688 Z M 216.152344 179.003906 " fill-opacity="1" fill-rule="evenodd"/><path fill="#032068" d="M 216.152344 192.691406 L 254.703125 192.691406 L 254.703125 195.617188 L 216.152344 195.617188 Z M 216.152344 192.691406 " fill-opacity="1" fill-rule="evenodd"/><path fill="#032068" d="M 216.152344 207.625 L 239.777344 207.625 L 239.777344 210.546875 L 216.152344 210.546875 Z M 216.152344 207.625 " fill-opacity="1" fill-rule="evenodd"/><path fill="#032068" d="M 580.957031 139.730469 C 580.957031 140.214844 580.863281 140.679688 580.679688 141.128906 C 580.496094 141.578125 580.230469 141.972656 579.886719 142.316406 C 579.546875 142.65625 579.152344 142.921875 578.703125 143.105469 C 578.253906 143.292969 577.789062 143.386719 577.304688 143.386719 C 576.820312 143.386719 576.355469 143.292969 575.90625 143.105469 C 575.460938 142.921875 575.066406 142.65625 574.722656 142.316406 C 574.378906 141.972656 574.117188 141.578125 573.929688 141.128906 C 573.746094 140.679688 573.652344 140.214844 573.652344 139.730469 C 573.652344 139.246094 573.746094 138.777344 573.929688 138.332031 C 574.117188 137.882812 574.378906 137.488281 574.722656 137.144531 C 575.066406 136.804688 575.460938 136.539062 575.90625 136.351562 C 576.355469 136.167969 576.820312 136.074219 577.304688 136.074219 C 577.789062 136.074219 578.253906 136.167969 578.703125 136.351562 C 579.152344 136.539062 579.546875 136.804688 579.886719 137.144531 C 580.230469 137.488281 580.496094 137.882812 580.679688 138.332031 C 580.863281 138.777344 580.957031 139.246094 580.957031 139.730469 Z M 580.957031 139.730469 " fill-opacity="1" fill-rule="nonzero"/><path fill="#032068" d="M 487.441406 195.289062 L 487.441406 182.132812 L 478.675781 188.710938 Z M 487.441406 195.289062 " fill-opacity="1" fill-rule="nonzero"/><path stroke-linecap="butt" transform="matrix(1.193318, 0, 0, 1.19403, 132.271601, -59.940295)" fill="none" stroke-linejoin="miter" d="M 372.937532 166.612509 L 372.937532 184.245812 C 372.937532 197.498596 362.194116 208.245423 348.939975 208.245423 L 293.959347 208.245423 " stroke="#032068" stroke-width="2" stroke-opacity="1" stroke-miterlimit="4"/><path fill="#032068" d="M 241.957031 364.890625 C 241.957031 365.375 242.050781 365.839844 242.234375 366.289062 C 242.421875 366.738281 242.683594 367.132812 243.027344 367.476562 C 243.371094 367.816406 243.765625 368.082031 244.210938 368.265625 C 244.660156 368.453125 245.125 368.546875 245.609375 368.546875 C 246.09375 368.546875 246.5625 368.453125 247.007812 368.265625 C 247.457031 368.082031 247.851562 367.816406 248.195312 367.476562 C 248.535156 367.132812 248.800781 366.738281 248.984375 366.289062 C 249.171875 365.839844 249.261719 365.375 249.261719 364.890625 C 249.261719 364.40625 249.171875 363.941406 248.984375 363.492188 C 248.800781 363.042969 248.535156 362.648438 248.195312 362.304688 C 247.851562 361.964844 247.457031 361.699219 247.007812 361.515625 C 246.5625 361.328125 246.09375 361.234375 245.609375 361.234375 C 245.125 361.234375 244.660156 361.328125 244.210938 361.515625 C 243.765625 361.699219 243.371094 361.964844 243.027344 362.304688 C 242.683594 362.648438 242.421875 363.042969 242.234375 363.492188 C 242.050781 363.941406 241.957031 364.40625 241.957031 364.890625 Z M 241.957031 364.890625 " fill-opacity="1" fill-rule="nonzero"/><path fill="#032068" d="M 323.785156 420.449219 L 323.785156 407.289062 L 332.554688 413.871094 Z M 323.785156 420.449219 " fill-opacity="1" fill-rule="nonzero"/><path stroke-linecap="butt" transform="matrix(1.193318, 0, 0, 1.19403, 132.271601, -59.940295)" fill="none" stroke-linejoin="miter" d="M 94.977005 355.184154 L 94.977005 372.817456 C 94.977005 386.07024 105.723695 396.817067 118.977837 396.817067 L 164.161071 396.817067 " stroke="#032068" stroke-width="2" stroke-opacity="1" stroke-miterlimit="4"/></svg>