<svg xmlns="http://www.w3.org/2000/svg" xmlns:xlink="http://www.w3.org/1999/xlink" width="1120" zoomAndPan="magnify" viewBox="0 0 840 479.999983" height="640" preserveAspectRatio="xMidYMid meet" version="1.0"><defs><clipPath id="36e871e692"><path d="M 146.550781 0 L 266 0 L 266 116 L 146.550781 116 Z M 146.550781 0 " clip-rule="nonzero"/></clipPath></defs><path fill="#aaceee" d="M 233.019531 64.695312 L 574.066406 64.695312 L 574.066406 331.375 L 233.019531 331.375 Z M 233.019531 64.695312 " fill-opacity="1" fill-rule="nonzero"/><path fill="#ffffff" d="M 575.472656 332.78125 L 231.570312 332.78125 L 231.570312 63.289062 L 575.472656 63.289062 Z M 234.425781 329.925781 L 572.660156 329.925781 L 572.660156 66.097656 L 234.425781 66.097656 Z M 234.425781 329.925781 " fill-opacity="1" fill-rule="nonzero"/><path fill="#ffffff" d="M 279.511719 77.429688 L 317.125 77.429688 L 317.125 79.714844 L 279.511719 79.714844 Z M 279.511719 77.429688 " fill-opacity="1" fill-rule="nonzero"/><path fill="#ffffff" d="M 279.511719 91.132812 L 358.699219 91.132812 L 358.699219 93.417969 L 279.511719 93.417969 Z M 279.511719 91.132812 " fill-opacity="1" fill-rule="nonzero"/><path fill="#ffffff" d="M 279.511719 104.792969 L 358.699219 104.792969 L 358.699219 107.078125 L 279.511719 107.078125 Z M 279.511719 104.792969 " fill-opacity="1" fill-rule="nonzero"/><path fill="#ffffff" d="M 207.441406 247.136719 L 204.585938 247.136719 L 204.585938 240.285156 L 207.441406 240.285156 Z M 207.441406 233.476562 L 204.585938 233.476562 L 204.585938 226.625 L 207.441406 226.625 Z M 207.441406 219.820312 L 204.585938 219.820312 L 204.585938 212.96875 L 207.441406 212.96875 Z M 207.441406 206.160156 L 204.585938 206.160156 L 204.585938 199.308594 L 207.441406 199.308594 Z M 199.183594 200.714844 L 192.328125 200.714844 L 192.328125 197.859375 L 199.183594 197.859375 Z M 185.472656 200.714844 L 178.351562 200.714844 L 178.351562 198.167969 L 179.757812 198.167969 L 179.757812 197.902344 L 185.472656 197.902344 Z M 181.210938 191.316406 L 178.351562 191.316406 L 178.351562 184.464844 L 181.210938 184.464844 Z M 181.210938 177.65625 L 178.351562 177.65625 L 178.351562 170.847656 L 181.210938 170.847656 Z M 181.210938 163.996094 L 178.351562 163.996094 L 178.351562 157.144531 L 181.210938 157.144531 Z M 181.210938 150.335938 L 178.351562 150.335938 L 178.351562 143.484375 L 181.210938 143.484375 Z M 181.210938 136.679688 L 178.351562 136.679688 L 178.351562 129.828125 L 181.210938 129.828125 Z M 181.210938 123.019531 L 178.351562 123.019531 L 178.351562 116.167969 L 181.210938 116.167969 Z M 181.210938 109.316406 L 178.351562 109.316406 L 178.351562 102.464844 L 181.210938 102.464844 Z M 181.210938 95.65625 L 178.351562 95.65625 L 178.351562 88.804688 L 181.210938 88.804688 Z M 181.210938 82 L 178.351562 82 L 178.351562 75.148438 L 181.210938 75.148438 Z M 181.210938 68.339844 L 178.351562 68.339844 L 178.351562 61.488281 L 181.210938 61.488281 Z M 181.210938 54.679688 L 178.351562 54.679688 L 178.351562 47.828125 L 181.210938 47.828125 Z M 181.210938 41.019531 L 178.351562 41.019531 L 178.351562 34.167969 L 181.210938 34.167969 Z M 547.304688 33.863281 L 540.449219 33.863281 L 540.449219 31.007812 L 547.304688 31.007812 Z M 533.59375 33.863281 L 526.738281 33.863281 L 526.738281 31.007812 L 533.59375 31.007812 Z M 519.925781 33.863281 L 513.070312 33.863281 L 513.070312 31.007812 L 519.925781 31.007812 Z M 506.261719 33.863281 L 499.40625 33.863281 L 499.40625 31.007812 L 506.261719 31.007812 Z M 492.59375 33.863281 L 485.738281 33.863281 L 485.738281 31.007812 L 492.59375 31.007812 Z M 478.925781 33.863281 L 472.070312 33.863281 L 472.070312 31.007812 L 478.925781 31.007812 Z M 465.261719 33.863281 L 458.40625 33.863281 L 458.40625 31.007812 L 465.261719 31.007812 Z M 451.550781 33.863281 L 444.695312 33.863281 L 444.695312 31.007812 L 451.550781 31.007812 Z M 437.882812 33.863281 L 431.027344 33.863281 L 431.027344 31.007812 L 437.882812 31.007812 Z M 424.21875 33.863281 L 417.363281 33.863281 L 417.363281 31.007812 L 424.21875 31.007812 Z M 410.550781 33.863281 L 403.695312 33.863281 L 403.695312 31.007812 L 410.550781 31.007812 Z M 396.882812 33.863281 L 390.027344 33.863281 L 390.027344 31.007812 L 396.882812 31.007812 Z M 383.175781 33.863281 L 376.320312 33.863281 L 376.320312 31.007812 L 383.175781 31.007812 Z M 369.507812 33.863281 L 362.652344 33.863281 L 362.652344 31.007812 L 369.507812 31.007812 Z M 355.839844 33.863281 L 348.984375 33.863281 L 348.984375 31.007812 L 355.839844 31.007812 Z M 342.175781 33.863281 L 335.320312 33.863281 L 335.320312 31.007812 L 342.175781 31.007812 Z M 328.507812 33.863281 L 321.652344 33.863281 L 321.652344 31.007812 L 328.507812 31.007812 Z M 314.839844 33.863281 L 307.988281 33.863281 L 307.988281 31.007812 L 314.839844 31.007812 Z M 301.132812 33.863281 L 294.277344 33.863281 L 294.277344 31.007812 L 301.132812 31.007812 Z M 287.464844 33.863281 L 280.609375 33.863281 L 280.609375 31.007812 L 287.464844 31.007812 Z M 273.796875 33.863281 L 266.941406 33.863281 L 266.941406 31.007812 L 273.796875 31.007812 Z M 260.132812 33.863281 L 253.277344 33.863281 L 253.277344 31.007812 L 260.132812 31.007812 Z M 246.464844 33.863281 L 239.609375 33.863281 L 239.609375 31.007812 L 246.464844 31.007812 Z M 232.800781 33.863281 L 225.945312 33.863281 L 225.945312 31.007812 L 232.800781 31.007812 Z M 219.089844 33.863281 L 212.234375 33.863281 L 212.234375 31.007812 L 219.089844 31.007812 Z M 205.421875 33.863281 L 198.566406 33.863281 L 198.566406 31.007812 L 205.421875 31.007812 Z M 191.753906 33.863281 L 184.898438 33.863281 L 184.898438 31.007812 L 191.753906 31.007812 Z M 191.753906 33.863281 " fill-opacity="1" fill-rule="nonzero"/><path fill="#000000" d="M 534.910156 216.746094 L 411.34375 216.746094 L 411.34375 105.363281 L 413.625 105.363281 L 413.625 214.460938 L 534.910156 214.460938 Z M 534.910156 216.746094 " fill-opacity="1" fill-rule="nonzero"/><path fill="#f98f4a" d="M 437.09375 121.042969 L 452.078125 121.042969 L 452.078125 196.9375 L 437.09375 196.9375 Z M 437.09375 121.042969 " fill-opacity="1" fill-rule="nonzero"/><path fill="#35385b" d="M 473.433594 152.269531 L 488.417969 152.269531 L 488.417969 196.894531 L 473.433594 196.894531 Z M 473.433594 152.269531 " fill-opacity="1" fill-rule="nonzero"/><path fill="#227756" d="M 509.25 137.335938 L 524.234375 137.335938 L 524.234375 196.9375 L 509.25 196.9375 Z M 509.25 137.335938 " fill-opacity="1" fill-rule="nonzero"/><path fill="#000000" d="M 430.632812 195.75 L 531.175781 195.75 L 531.175781 198.035156 L 430.632812 198.035156 Z M 430.632812 195.75 " fill-opacity="1" fill-rule="nonzero"/><path fill="#000000" d="M 401.761719 106.503906 L 423.074219 106.503906 L 412.308594 93.945312 Z M 401.761719 106.503906 " fill-opacity="1" fill-rule="nonzero"/><path fill="#000000" d="M 534.910156 205.105469 L 534.910156 226.40625 L 547.480469 215.601562 Z M 534.910156 205.105469 " fill-opacity="1" fill-rule="nonzero"/><path fill="#ffffff" d="M 323.410156 179.0625 C 323.410156 179.589844 323.359375 180.113281 323.257812 180.628906 C 323.152344 181.148438 323 181.648438 322.796875 182.136719 C 322.597656 182.625 322.347656 183.085938 322.054688 183.527344 C 321.761719 183.964844 321.429688 184.371094 321.054688 184.746094 C 320.683594 185.117188 320.277344 185.449219 319.835938 185.742188 C 319.398438 186.039062 318.933594 186.285156 318.445312 186.488281 C 317.957031 186.6875 317.457031 186.839844 316.9375 186.945312 C 316.417969 187.046875 315.898438 187.097656 315.367188 187.097656 C 314.839844 187.097656 314.316406 187.046875 313.800781 186.945312 C 313.28125 186.839844 312.78125 186.6875 312.292969 186.488281 C 311.804688 186.285156 311.339844 186.039062 310.902344 185.742188 C 310.460938 185.449219 310.054688 185.117188 309.683594 184.746094 C 309.308594 184.371094 308.976562 183.964844 308.683594 183.527344 C 308.390625 183.085938 308.140625 182.625 307.9375 182.136719 C 307.738281 181.648438 307.585938 181.148438 307.480469 180.628906 C 307.378906 180.113281 307.328125 179.589844 307.328125 179.0625 C 307.328125 178.535156 307.378906 178.011719 307.480469 177.492188 C 307.585938 176.976562 307.738281 176.472656 307.9375 175.984375 C 308.140625 175.496094 308.390625 175.035156 308.683594 174.597656 C 308.976562 174.15625 309.308594 173.75 309.683594 173.378906 C 310.054688 173.003906 310.460938 172.671875 310.902344 172.378906 C 311.339844 172.085938 311.804688 171.835938 312.292969 171.636719 C 312.78125 171.433594 313.28125 171.28125 313.800781 171.179688 C 314.316406 171.074219 314.839844 171.023438 315.367188 171.023438 C 315.898438 171.023438 316.417969 171.074219 316.9375 171.179688 C 317.457031 171.28125 317.957031 171.433594 318.445312 171.636719 C 318.933594 171.835938 319.398438 172.085938 319.835938 172.378906 C 320.277344 172.671875 320.683594 173.003906 321.054688 173.378906 C 321.429688 173.75 321.761719 174.15625 322.054688 174.597656 C 322.347656 175.035156 322.597656 175.496094 322.796875 175.984375 C 323 176.472656 323.152344 176.976562 323.257812 177.492188 C 323.359375 178.011719 323.410156 178.535156 323.410156 179.0625 Z M 323.410156 179.0625 " fill-opacity="1" fill-rule="nonzero"/><path fill="#000000" d="M 315.367188 180.203125 L 204.851562 180.203125 L 204.851562 51.253906 L 207.136719 51.253906 L 207.136719 177.917969 L 315.367188 177.917969 Z M 315.367188 180.203125 " fill-opacity="1" fill-rule="nonzero"/><path fill="#ffffff" d="M 315.324219 194.609375 C 313.082031 194.609375 310.84375 194.125 308.734375 193.117188 L 309.699219 191.050781 C 316.335938 194.167969 324.289062 191.316406 327.367188 184.683594 L 329.429688 185.648438 C 327.671875 189.425781 324.554688 192.28125 320.640625 193.6875 C 318.929688 194.300781 317.125 194.609375 315.324219 194.609375 Z M 315.324219 194.609375 " fill-opacity="1" fill-rule="nonzero"/><path fill="#ffffff" d="M 303.328125 173.394531 L 301.261719 172.429688 C 303.019531 168.652344 306.140625 165.796875 310.050781 164.390625 C 313.960938 162.988281 318.179688 163.164062 321.960938 164.917969 L 320.992188 166.984375 C 317.785156 165.488281 314.183594 165.3125 310.84375 166.5 C 307.503906 167.773438 304.824219 170.1875 303.328125 173.394531 Z M 303.328125 173.394531 " fill-opacity="1" fill-rule="nonzero"/><path fill="#aaceee" d="M 148.121094 1.40625 L 263.734375 1.40625 L 263.734375 113.882812 L 148.121094 113.882812 Z M 148.121094 1.40625 " fill-opacity="1" fill-rule="nonzero"/><g clip-path="url(#36e871e692)"><path fill="#ffffff" d="M 265.140625 115.289062 L 146.714844 115.289062 L 146.714844 0 L 265.140625 0 Z M 149.570312 112.433594 L 262.328125 112.433594 L 262.328125 2.855469 L 149.570312 2.855469 Z M 149.570312 112.433594 " fill-opacity="1" fill-rule="nonzero"/></g><path fill="#f98f4a" d="M 214.957031 75.5 C 212.234375 76.859375 209.199219 77.648438 205.949219 77.648438 C 194.917969 77.648438 185.953125 68.691406 185.953125 57.667969 C 185.953125 46.996094 194.304688 38.296875 204.851562 37.683594 L 204.851562 12.210938 C 180.242188 12.824219 160.46875 32.941406 160.46875 57.667969 C 160.46875 82.746094 180.8125 103.125 205.949219 103.125 C 213.59375 103.125 220.757812 101.234375 227.085938 97.941406 Z M 214.957031 75.5 " fill-opacity="1" fill-rule="nonzero"/><path fill="#227756" d="M 251.386719 57.535156 L 225.945312 57.535156 C 225.898438 46.554688 216.933594 37.640625 205.949219 37.640625 C 205.597656 37.640625 205.203125 37.640625 204.851562 37.683594 L 204.851562 12.210938 C 205.203125 12.210938 205.597656 12.210938 205.949219 12.210938 C 230.996094 12.210938 251.34375 32.5 251.386719 57.535156 Z M 251.386719 57.535156 " fill-opacity="1" fill-rule="nonzero"/><path fill="#35385b" d="M 251.386719 57.535156 L 251.386719 57.621094 C 251.386719 75.101562 241.5 90.253906 227.042969 97.851562 L 214.914062 75.453125 C 221.460938 72.160156 225.898438 65.398438 225.898438 57.578125 L 225.898438 57.535156 Z M 251.386719 57.535156 " fill-opacity="1" fill-rule="nonzero"/><path fill="#aaceee" d="M 162.445312 243.183594 L 303.109375 243.183594 L 303.109375 308.667969 L 162.445312 308.667969 Z M 162.445312 243.183594 " fill-opacity="1" fill-rule="nonzero"/><path fill="#ffffff" d="M 304.558594 310.074219 L 160.996094 310.074219 L 160.996094 241.734375 L 304.515625 241.734375 L 304.515625 310.074219 Z M 163.851562 307.21875 L 301.703125 307.21875 L 301.703125 244.589844 L 163.851562 244.589844 Z M 163.851562 307.21875 " fill-opacity="1" fill-rule="nonzero"/><path fill="#54578c" d="M 197.425781 253.199219 L 288.652344 253.199219 L 288.652344 264.441406 L 197.425781 264.441406 Z M 197.425781 253.199219 " fill-opacity="1" fill-rule="nonzero"/><path fill="#000000" d="M 197.425781 276.957031 L 250.464844 276.957031 L 250.464844 279.242188 L 197.425781 279.242188 Z M 197.425781 276.957031 " fill-opacity="1" fill-rule="nonzero"/><path fill="#000000" d="M 197.425781 291.453125 L 227.570312 291.453125 L 227.570312 293.734375 L 197.425781 293.734375 Z M 197.425781 291.453125 " fill-opacity="1" fill-rule="nonzero"/><path fill="#f98f4a" d="M 179.714844 264.441406 C 179.714844 264.808594 179.679688 265.175781 179.605469 265.539062 C 179.535156 265.898438 179.429688 266.25 179.285156 266.59375 C 179.144531 266.933594 178.972656 267.257812 178.765625 267.566406 C 178.5625 267.871094 178.328125 268.15625 178.066406 268.417969 C 177.804688 268.675781 177.523438 268.910156 177.214844 269.117188 C 176.90625 269.320312 176.582031 269.492188 176.242188 269.636719 C 175.902344 269.777344 175.550781 269.882812 175.1875 269.953125 C 174.824219 270.027344 174.460938 270.0625 174.089844 270.0625 C 173.722656 270.0625 173.355469 270.027344 172.992188 269.953125 C 172.628906 269.882812 172.277344 269.777344 171.9375 269.636719 C 171.597656 269.492188 171.273438 269.320312 170.964844 269.117188 C 170.65625 268.910156 170.375 268.675781 170.113281 268.417969 C 169.851562 268.15625 169.617188 267.871094 169.414062 267.566406 C 169.207031 267.257812 169.035156 266.933594 168.894531 266.59375 C 168.753906 266.25 168.644531 265.898438 168.574219 265.539062 C 168.5 265.175781 168.464844 264.808594 168.464844 264.441406 C 168.464844 264.070312 168.5 263.707031 168.574219 263.34375 C 168.644531 262.984375 168.753906 262.632812 168.894531 262.289062 C 169.035156 261.949219 169.207031 261.625 169.414062 261.316406 C 169.617188 261.011719 169.851562 260.726562 170.113281 260.464844 C 170.375 260.207031 170.65625 259.972656 170.964844 259.765625 C 171.273438 259.5625 171.597656 259.390625 171.9375 259.246094 C 172.277344 259.105469 172.628906 259 172.992188 258.925781 C 173.355469 258.855469 173.722656 258.820312 174.089844 258.820312 C 174.460938 258.820312 174.824219 258.855469 175.1875 258.925781 C 175.550781 259 175.902344 259.105469 176.242188 259.246094 C 176.582031 259.390625 176.90625 259.5625 177.214844 259.765625 C 177.523438 259.972656 177.804688 260.207031 178.066406 260.464844 C 178.328125 260.726562 178.5625 261.011719 178.765625 261.316406 C 178.972656 261.625 179.144531 261.949219 179.285156 262.289062 C 179.429688 262.632812 179.535156 262.984375 179.605469 263.34375 C 179.679688 263.707031 179.714844 264.070312 179.714844 264.441406 Z M 179.714844 264.441406 " fill-opacity="1" fill-rule="nonzero"/><path fill="#54578c" d="M 179.714844 286.972656 C 179.714844 287.339844 179.679688 287.707031 179.605469 288.070312 C 179.535156 288.429688 179.429688 288.78125 179.285156 289.125 C 179.144531 289.464844 178.972656 289.789062 178.765625 290.09375 C 178.5625 290.402344 178.328125 290.6875 178.066406 290.949219 C 177.804688 291.207031 177.523438 291.441406 177.214844 291.648438 C 176.90625 291.851562 176.582031 292.023438 176.242188 292.167969 C 175.902344 292.308594 175.550781 292.414062 175.1875 292.484375 C 174.824219 292.558594 174.460938 292.59375 174.089844 292.59375 C 173.722656 292.59375 173.355469 292.558594 172.992188 292.484375 C 172.628906 292.414062 172.277344 292.308594 171.9375 292.167969 C 171.597656 292.023438 171.273438 291.851562 170.964844 291.648438 C 170.65625 291.441406 170.375 291.207031 170.113281 290.949219 C 169.851562 290.6875 169.617188 290.402344 169.414062 290.09375 C 169.207031 289.789062 169.035156 289.464844 168.894531 289.125 C 168.753906 288.78125 168.644531 288.429688 168.574219 288.070312 C 168.5 287.707031 168.464844 287.339844 168.464844 286.972656 C 168.464844 286.601562 168.5 286.238281 168.574219 285.875 C 168.644531 285.511719 168.753906 285.160156 168.894531 284.820312 C 169.035156 284.480469 169.207031 284.15625 169.414062 283.847656 C 169.617188 283.542969 169.851562 283.257812 170.113281 282.996094 C 170.375 282.734375 170.65625 282.503906 170.964844 282.296875 C 171.273438 282.09375 171.597656 281.917969 171.9375 281.777344 C 172.277344 281.636719 172.628906 281.53125 172.992188 281.457031 C 173.355469 281.386719 173.722656 281.351562 174.089844 281.351562 C 174.460938 281.351562 174.824219 281.386719 175.1875 281.457031 C 175.550781 281.53125 175.902344 281.636719 176.242188 281.777344 C 176.582031 281.917969 176.90625 282.09375 177.214844 282.296875 C 177.523438 282.503906 177.804688 282.734375 178.066406 282.996094 C 178.328125 283.257812 178.5625 283.542969 178.765625 283.847656 C 178.972656 284.15625 179.144531 284.480469 179.285156 284.820312 C 179.429688 285.160156 179.535156 285.511719 179.605469 285.875 C 179.679688 286.238281 179.714844 286.601562 179.714844 286.972656 Z M 179.714844 286.972656 " fill-opacity="1" fill-rule="nonzero"/><path fill="#ffffff" d="M 182.921875 243.183594 L 185.777344 243.183594 L 185.777344 308.667969 L 182.921875 308.667969 Z M 182.921875 243.183594 " fill-opacity="1" fill-rule="nonzero"/><path fill="#aaceee" d="M 488.507812 12.914062 L 621.480469 12.914062 L 621.480469 105.714844 L 488.507812 105.714844 Z M 488.507812 12.914062 " fill-opacity="1" fill-rule="nonzero"/><path fill="#ffffff" d="M 622.886719 107.121094 L 487.058594 107.121094 L 487.058594 11.464844 L 622.886719 11.464844 Z M 489.914062 104.308594 L 620.03125 104.308594 L 620.03125 14.316406 L 489.914062 14.316406 Z M 489.914062 104.308594 " fill-opacity="1" fill-rule="nonzero"/><path fill="#aaceee" d="M 532.757812 39.484375 C 532.757812 44.269531 530.648438 48.574219 527.265625 51.472656 C 524.453125 53.890625 520.804688 55.382812 516.804688 55.382812 C 512.808594 55.382812 509.160156 53.890625 506.347656 51.472656 C 503.007812 48.574219 500.855469 44.269531 500.855469 39.484375 C 500.855469 30.699219 507.972656 23.585938 516.761719 23.585938 C 525.550781 23.585938 532.757812 30.699219 532.757812 39.484375 Z M 532.757812 39.484375 " fill-opacity="1" fill-rule="nonzero"/><path fill="#ffffff" d="M 516.804688 56.523438 C 512.675781 56.523438 508.722656 55.03125 505.601562 52.351562 C 501.867188 49.101562 499.757812 44.402344 499.757812 39.484375 C 499.757812 30.085938 507.402344 22.441406 516.804688 22.441406 C 526.210938 22.441406 533.855469 30.085938 533.855469 39.484375 C 533.855469 44.402344 531.703125 49.101562 528.011719 52.351562 C 524.890625 55.03125 520.9375 56.523438 516.804688 56.523438 Z M 516.804688 24.726562 C 508.675781 24.726562 502.042969 31.359375 502.042969 39.484375 C 502.042969 43.746094 503.886719 47.828125 507.140625 50.640625 C 509.820312 52.96875 513.292969 54.285156 516.851562 54.285156 C 520.410156 54.285156 523.882812 53.011719 526.5625 50.640625 C 529.769531 47.828125 531.660156 43.789062 531.660156 39.484375 C 531.617188 31.316406 524.980469 24.726562 516.804688 24.726562 Z M 516.804688 24.726562 " fill-opacity="1" fill-rule="nonzero"/><path fill="#ffffff" d="M 521.859375 37.066406 C 521.859375 37.398438 521.828125 37.726562 521.761719 38.054688 C 521.699219 38.378906 521.601562 38.695312 521.476562 39 C 521.347656 39.308594 521.191406 39.597656 521.007812 39.875 C 520.824219 40.148438 520.613281 40.40625 520.378906 40.640625 C 520.144531 40.875 519.890625 41.082031 519.613281 41.269531 C 519.339844 41.453125 519.046875 41.609375 518.742188 41.734375 C 518.433594 41.863281 518.117188 41.957031 517.792969 42.023438 C 517.46875 42.085938 517.136719 42.117188 516.804688 42.117188 C 516.476562 42.117188 516.144531 42.085938 515.820312 42.023438 C 515.496094 41.957031 515.179688 41.863281 514.871094 41.734375 C 514.566406 41.609375 514.273438 41.453125 514 41.269531 C 513.722656 41.082031 513.46875 40.875 513.234375 40.640625 C 513 40.40625 512.789062 40.148438 512.605469 39.875 C 512.421875 39.597656 512.265625 39.308594 512.136719 39 C 512.011719 38.695312 511.914062 38.378906 511.851562 38.054688 C 511.785156 37.726562 511.753906 37.398438 511.753906 37.066406 C 511.753906 36.738281 511.785156 36.410156 511.851562 36.082031 C 511.914062 35.757812 512.011719 35.441406 512.136719 35.136719 C 512.265625 34.828125 512.421875 34.539062 512.605469 34.261719 C 512.789062 33.988281 513 33.730469 513.234375 33.496094 C 513.46875 33.261719 513.722656 33.054688 514 32.867188 C 514.273438 32.683594 514.566406 32.527344 514.871094 32.402344 C 515.179688 32.273438 515.496094 32.179688 515.820312 32.113281 C 516.144531 32.050781 516.476562 32.015625 516.804688 32.015625 C 517.136719 32.015625 517.46875 32.050781 517.792969 32.113281 C 518.117188 32.179688 518.433594 32.273438 518.742188 32.402344 C 519.046875 32.527344 519.339844 32.683594 519.613281 32.867188 C 519.890625 33.054688 520.144531 33.261719 520.378906 33.496094 C 520.613281 33.730469 520.824219 33.988281 521.007812 34.261719 C 521.191406 34.539062 521.347656 34.828125 521.476562 35.136719 C 521.601562 35.441406 521.699219 35.757812 521.761719 36.082031 C 521.828125 36.410156 521.859375 36.738281 521.859375 37.066406 Z M 521.859375 37.066406 " fill-opacity="1" fill-rule="nonzero"/><path fill="#ffffff" d="M 527.265625 51.472656 C 524.453125 53.890625 520.804688 55.382812 516.804688 55.382812 C 512.808594 55.382812 509.160156 53.890625 506.347656 51.472656 C 506.917969 46.203125 511.359375 42.117188 516.804688 42.117188 C 522.253906 42.117188 526.695312 46.203125 527.265625 51.472656 Z M 527.265625 51.472656 " fill-opacity="1" fill-rule="nonzero"/><path fill="#ffffff" d="M 540.316406 33.292969 L 574.8125 33.292969 L 574.8125 35.574219 L 540.316406 35.574219 Z M 540.316406 33.292969 " fill-opacity="1" fill-rule="nonzero"/><path fill="#ffffff" d="M 540.316406 43.394531 L 609.042969 43.394531 L 609.042969 45.675781 L 540.316406 45.675781 Z M 540.316406 43.394531 " fill-opacity="1" fill-rule="nonzero"/><path fill="#aaceee" d="M 532.757812 79.144531 C 532.757812 83.929688 530.648438 88.234375 527.265625 91.132812 C 524.453125 93.550781 520.804688 95.042969 516.804688 95.042969 C 512.808594 95.042969 509.160156 93.550781 506.347656 91.132812 C 503.007812 88.234375 500.855469 83.929688 500.855469 79.144531 C 500.855469 70.359375 507.972656 63.246094 516.761719 63.246094 C 525.550781 63.246094 532.757812 70.359375 532.757812 79.144531 Z M 532.757812 79.144531 " fill-opacity="1" fill-rule="nonzero"/><path fill="#ffffff" d="M 516.804688 96.183594 C 512.675781 96.183594 508.722656 94.691406 505.601562 92.011719 C 501.867188 88.761719 499.757812 84.0625 499.757812 79.144531 C 499.757812 69.746094 507.402344 62.101562 516.804688 62.101562 C 526.210938 62.101562 533.855469 69.746094 533.855469 79.144531 C 533.855469 84.0625 531.703125 88.761719 528.011719 92.011719 C 524.890625 94.691406 520.9375 96.183594 516.804688 96.183594 Z M 516.804688 64.34375 C 508.675781 64.34375 502.042969 70.972656 502.042969 79.101562 C 502.042969 83.359375 503.886719 87.445312 507.140625 90.253906 C 509.820312 92.582031 513.292969 93.902344 516.851562 93.902344 C 520.410156 93.902344 523.882812 92.625 526.5625 90.253906 C 529.769531 87.445312 531.660156 83.402344 531.660156 79.101562 C 531.617188 70.972656 524.980469 64.34375 516.804688 64.34375 Z M 516.804688 64.34375 " fill-opacity="1" fill-rule="nonzero"/><path fill="#ffffff" d="M 521.859375 76.726562 C 521.859375 77.058594 521.828125 77.386719 521.761719 77.714844 C 521.699219 78.039062 521.601562 78.355469 521.476562 78.660156 C 521.347656 78.96875 521.191406 79.257812 521.007812 79.535156 C 520.824219 79.808594 520.613281 80.066406 520.378906 80.300781 C 520.144531 80.535156 519.890625 80.742188 519.613281 80.925781 C 519.339844 81.113281 519.046875 81.265625 518.742188 81.394531 C 518.433594 81.519531 518.117188 81.617188 517.792969 81.683594 C 517.46875 81.746094 517.136719 81.777344 516.804688 81.777344 C 516.476562 81.777344 516.144531 81.746094 515.820312 81.683594 C 515.496094 81.617188 515.179688 81.519531 514.871094 81.394531 C 514.566406 81.265625 514.273438 81.113281 514 80.925781 C 513.722656 80.742188 513.46875 80.535156 513.234375 80.300781 C 513 80.066406 512.789062 79.808594 512.605469 79.535156 C 512.421875 79.257812 512.265625 78.96875 512.136719 78.660156 C 512.011719 78.355469 511.914062 78.039062 511.851562 77.714844 C 511.785156 77.386719 511.753906 77.058594 511.753906 76.726562 C 511.753906 76.394531 511.785156 76.066406 511.851562 75.742188 C 511.914062 75.417969 512.011719 75.101562 512.136719 74.796875 C 512.265625 74.488281 512.421875 74.199219 512.605469 73.921875 C 512.789062 73.644531 513 73.390625 513.234375 73.15625 C 513.46875 72.921875 513.722656 72.710938 514 72.527344 C 514.273438 72.34375 514.566406 72.1875 514.871094 72.0625 C 515.179688 71.933594 515.496094 71.839844 515.820312 71.773438 C 516.144531 71.710938 516.476562 71.675781 516.804688 71.675781 C 517.136719 71.675781 517.46875 71.710938 517.792969 71.773438 C 518.117188 71.839844 518.433594 71.933594 518.742188 72.0625 C 519.046875 72.1875 519.339844 72.34375 519.613281 72.527344 C 519.890625 72.710938 520.144531 72.921875 520.378906 73.15625 C 520.613281 73.390625 520.824219 73.644531 521.007812 73.921875 C 521.191406 74.199219 521.347656 74.488281 521.476562 74.796875 C 521.601562 75.101562 521.699219 75.417969 521.761719 75.742188 C 521.828125 76.066406 521.859375 76.394531 521.859375 76.726562 Z M 521.859375 76.726562 " fill-opacity="1" fill-rule="nonzero"/><path fill="#ffffff" d="M 527.265625 91.132812 C 524.453125 93.550781 520.804688 95.042969 516.804688 95.042969 C 512.808594 95.042969 509.160156 93.550781 506.347656 91.132812 C 506.917969 85.863281 511.359375 81.777344 516.804688 81.777344 C 522.253906 81.777344 526.695312 85.863281 527.265625 91.132812 Z M 527.265625 91.132812 " fill-opacity="1" fill-rule="nonzero"/><path fill="#ffffff" d="M 540.316406 72.949219 L 574.8125 72.949219 L 574.8125 75.234375 L 540.316406 75.234375 Z M 540.316406 72.949219 " fill-opacity="1" fill-rule="nonzero"/><path fill="#ffffff" d="M 540.316406 83.050781 L 609.042969 83.050781 L 609.042969 85.335938 L 540.316406 85.335938 Z M 540.316406 83.050781 " fill-opacity="1" fill-rule="nonzero"/><path fill="#181b3f" d="M 709.675781 480 L 576.921875 480 L 581.578125 458.917969 L 587.511719 432.214844 L 702.820312 427.078125 L 704.621094 441.085938 Z M 709.675781 480 " fill-opacity="1" fill-rule="nonzero"/><path fill="#54578c" d="M 345.371094 215.992188 L 352.472656 208.742188 L 375.554688 231.320312 L 368.453125 238.574219 Z M 345.371094 215.992188 " fill-opacity="1" fill-rule="nonzero"/><path fill="#000000" d="M 375.96875 227.109375 L 437.269531 287.105469 C 440.5625 290.355469 440.652344 295.667969 437.398438 298.960938 C 434.148438 302.257812 428.832031 302.34375 425.535156 299.09375 L 364.234375 239.054688 C 360.9375 235.804688 360.851562 230.492188 364.101562 227.199219 C 367.355469 223.902344 372.628906 223.859375 375.96875 227.109375 Z M 375.96875 227.109375 " fill-opacity="1" fill-rule="nonzero"/><path fill="#000000" d="M 274.765625 139.796875 C 296.515625 117.574219 332.199219 117.179688 354.433594 138.960938 C 376.671875 160.703125 377.066406 196.367188 355.269531 218.589844 C 333.519531 240.8125 297.835938 241.207031 275.601562 219.421875 C 253.363281 197.683594 252.96875 162.019531 274.765625 139.796875 Z M 283.113281 211.78125 C 301.132812 229.394531 330.003906 229.085938 347.625 211.078125 C 365.246094 193.070312 364.9375 164.214844 346.921875 146.605469 C 328.902344 128.992188 300.03125 129.300781 282.410156 147.308594 C 264.789062 165.3125 265.097656 194.167969 283.113281 211.78125 Z M 283.113281 211.78125 " fill-opacity="1" fill-rule="nonzero"/><path fill="#f9c19e" d="M 636.070312 241.425781 L 636.113281 241.25 C 636.113281 241.25 627.984375 241.910156 624.777344 241.777344 C 611.152344 241.207031 618.753906 219.511719 618.753906 219.511719 C 616.820312 218.675781 614.886719 217.269531 613.4375 216.128906 C 612.429688 215.296875 612.605469 213.714844 613.789062 213.144531 C 617.4375 211.34375 621.085938 209.058594 621.085938 209.058594 C 622.621094 191.578125 631.015625 188.589844 631.015625 188.589844 L 673.15625 190.4375 L 674.082031 230.050781 C 672.410156 239.625 675.925781 280.910156 675.925781 280.910156 L 629.125 279.15625 L 634.355469 250.5625 L 634.398438 250.34375 Z M 636.070312 241.425781 " fill-opacity="1" fill-rule="nonzero"/><path fill="#000000" d="M 623.5 225.878906 C 621.917969 225.878906 619.898438 225.617188 617.480469 224.824219 L 618.007812 223.199219 C 624.027344 225.132812 627.148438 223.507812 627.148438 223.507812 L 627.984375 225 C 627.894531 225.046875 626.402344 225.878906 623.5 225.878906 Z M 623.5 225.878906 " fill-opacity="1" fill-rule="nonzero"/><path fill="#ffffff" d="M 623.808594 207.519531 C 623.808594 207.519531 624.027344 209.542969 625.832031 210.816406 C 626.402344 211.210938 627.105469 211.519531 628.027344 211.695312 C 629.476562 211.957031 631.9375 211.871094 633.390625 209.144531 C 633.390625 209.144531 631.105469 205.148438 627.324219 205.71875 C 626.269531 205.941406 625.082031 206.46875 623.808594 207.519531 Z M 623.808594 207.519531 " fill-opacity="1" fill-rule="nonzero"/><path fill="#000000" d="M 623.808594 207.519531 C 623.808594 207.519531 624.027344 209.542969 625.832031 210.816406 C 627.367188 211.035156 628.820312 210.070312 629.039062 208.664062 C 629.257812 207.433594 628.511719 206.246094 627.324219 205.765625 C 626.269531 205.941406 625.082031 206.46875 623.808594 207.519531 Z M 623.808594 207.519531 " fill-opacity="1" fill-rule="nonzero"/><path fill="#000000" d="M 636.289062 204.050781 C 634.355469 202.996094 630.269531 201.066406 626.929688 202.117188 C 626.535156 202.25 626.09375 202.164062 625.785156 201.898438 C 625.785156 201.898438 625.785156 201.898438 625.742188 201.898438 C 624.863281 201.242188 625.171875 199.878906 626.226562 199.617188 C 628.597656 199 633.519531 198.519531 636.730469 203.570312 C 636.90625 203.875 636.597656 204.226562 636.289062 204.050781 Z M 636.289062 204.050781 " fill-opacity="1" fill-rule="nonzero"/><path fill="#000000" d="M 731.824219 176.734375 L 732.085938 175.066406 C 731.777344 175.019531 700.710938 170.363281 687.527344 189.515625 C 683.75 165.710938 658.65625 171.375 653.25 172.914062 C 652.898438 164.523438 645.957031 160.351562 645.648438 160.175781 L 644.769531 161.667969 C 644.8125 161.710938 650.21875 164.964844 651.363281 171.242188 C 649.515625 167.949219 646.175781 165.269531 646.175781 165.269531 C 633.039062 156.136719 623.898438 167.421875 622.535156 173.527344 C 621.789062 176.777344 621.789062 179.457031 622.269531 181.742188 C 619.984375 177.214844 620.207031 172.121094 620.207031 172.035156 L 618.492188 171.945312 C 618.449219 172.472656 617.921875 184.375 626.972656 188.855469 C 635.148438 194.695312 650.394531 192.148438 650.394531 192.148438 C 638.574219 214.769531 655.097656 222.058594 655.097656 222.058594 C 654.964844 217.097656 656.898438 214.371094 659.050781 213.363281 C 664.148438 211.035156 666.433594 215.03125 666.785156 217.183594 C 667.882812 224.035156 663.269531 226.449219 661.292969 229.042969 C 659.140625 231.851562 662.875 233.917969 664.28125 234.488281 C 667.269531 235.761719 669.992188 236.375 672.367188 236.550781 C 677.070312 237.78125 681.199219 238.574219 684.671875 238.574219 C 687.527344 238.574219 689.945312 238.046875 691.964844 236.773438 C 695.042969 234.796875 696.976562 232.117188 697.679688 228.734375 C 698.425781 225.046875 697.632812 221.179688 696.449219 217.972656 C 703.832031 224.5625 713.585938 225.351562 714.070312 225.398438 L 714.203125 223.683594 C 714.070312 223.683594 704.578125 222.894531 697.503906 216.570312 C 709.058594 222.148438 719.472656 222.234375 724.175781 219.117188 C 734.503906 212.265625 731.824219 197.464844 729.054688 190.832031 C 719.695312 168.476562 698.292969 182.222656 690.515625 188.242188 C 703.917969 172.5625 731.515625 176.691406 731.824219 176.734375 Z M 691.789062 215.820312 C 693.066406 218.984375 694.292969 223.597656 692.449219 227.199219 C 691.132812 229.746094 688.363281 231.457031 684.277344 232.292969 C 689.242188 227.371094 691.132812 219.554688 691.789062 215.820312 Z M 696.007812 228.425781 C 695.394531 231.324219 693.722656 233.652344 691.042969 235.367188 C 688.320312 237.125 684.277344 237.34375 677.816406 236.070312 C 679.222656 235.671875 680.496094 235.101562 681.640625 234.355469 C 687.921875 233.742188 692.054688 231.589844 693.941406 227.945312 C 696.007812 223.902344 694.867188 218.984375 693.503906 215.515625 C 695.128906 218.851562 696.929688 223.902344 696.007812 228.425781 Z M 696.007812 228.425781 " fill-opacity="1" fill-rule="nonzero"/><path fill="#000000" d="M 636.113281 241.25 C 639.585938 240.769531 646.042969 239.054688 649.957031 235.5 C 649.824219 235.847656 647.054688 245.554688 634.3125 250.605469 Z M 636.113281 241.25 " fill-opacity="1" fill-rule="nonzero"/><path fill="#0a0a09" d="M 659.007812 228.953125 C 659.007812 229.257812 658.949219 229.546875 658.835938 229.828125 C 658.71875 230.109375 658.554688 230.355469 658.339844 230.570312 C 658.125 230.78125 657.878906 230.949219 657.597656 231.0625 C 657.316406 231.179688 657.027344 231.238281 656.722656 231.238281 C 656.421875 231.238281 656.128906 231.179688 655.847656 231.0625 C 655.570312 230.949219 655.320312 230.78125 655.105469 230.570312 C 654.894531 230.355469 654.726562 230.109375 654.613281 229.828125 C 654.496094 229.546875 654.4375 229.257812 654.4375 228.953125 C 654.4375 228.652344 654.496094 228.359375 654.613281 228.082031 C 654.726562 227.800781 654.894531 227.554688 655.105469 227.339844 C 655.320312 227.125 655.570312 226.960938 655.847656 226.84375 C 656.128906 226.726562 656.421875 226.671875 656.722656 226.671875 C 657.027344 226.671875 657.316406 226.726562 657.597656 226.84375 C 657.878906 226.960938 658.125 227.125 658.339844 227.339844 C 658.554688 227.554688 658.71875 227.800781 658.835938 228.082031 C 658.949219 228.359375 659.007812 228.652344 659.007812 228.953125 Z M 659.007812 228.953125 " fill-opacity="1" fill-rule="nonzero"/><path fill="#54578c" d="M 659.359375 228.558594 C 659.359375 228.863281 659.300781 229.152344 659.1875 229.433594 C 659.070312 229.710938 658.90625 229.960938 658.691406 230.171875 C 658.476562 230.386719 658.230469 230.554688 657.949219 230.667969 C 657.667969 230.785156 657.378906 230.84375 657.074219 230.84375 C 656.773438 230.84375 656.480469 230.785156 656.199219 230.667969 C 655.921875 230.554688 655.671875 230.386719 655.457031 230.171875 C 655.246094 229.960938 655.078125 229.710938 654.964844 229.433594 C 654.847656 229.152344 654.789062 228.863281 654.789062 228.558594 C 654.789062 228.257812 654.847656 227.964844 654.964844 227.683594 C 655.078125 227.40625 655.246094 227.15625 655.457031 226.945312 C 655.671875 226.730469 655.921875 226.566406 656.199219 226.449219 C 656.480469 226.332031 656.773438 226.273438 657.074219 226.273438 C 657.378906 226.273438 657.667969 226.332031 657.949219 226.449219 C 658.230469 226.566406 658.476562 226.730469 658.691406 226.945312 C 658.90625 227.15625 659.070312 227.40625 659.1875 227.683594 C 659.300781 227.964844 659.359375 228.257812 659.359375 228.558594 Z M 659.359375 228.558594 " fill-opacity="1" fill-rule="nonzero"/><path fill="#f98f4a" d="M 694.117188 215.296875 L 691.964844 214.59375 C 696.800781 199.746094 687.089844 189.910156 687 189.820312 L 688.625 188.195312 C 688.976562 188.636719 699.347656 199.132812 694.117188 215.296875 Z M 694.117188 215.296875 " fill-opacity="1" fill-rule="nonzero"/><path fill="#f9c19e" d="M 430.5 249.992188 L 423.074219 272.785156 C 421.40625 272.304688 418.242188 269.273438 415.472656 266.59375 C 413.449219 264.660156 411.605469 262.902344 410.550781 262.464844 C 391.523438 253.769531 386.601562 238.089844 386.601562 238.089844 C 369.507812 240.636719 364.367188 232.949219 364.367188 232.949219 L 395.609375 223.023438 L 408.835938 233.523438 L 425.886719 246.523438 Z M 430.5 249.992188 " fill-opacity="1" fill-rule="nonzero"/><path fill="#f9c19e" d="M 365.289062 239.933594 C 365.289062 239.933594 358.875 245.777344 360.804688 250.167969 C 360.804688 250.167969 361.421875 252.714844 366.519531 253.945312 C 366.519531 253.945312 363.96875 258.996094 370.957031 261.542969 C 370.957031 261.542969 370.957031 265.976562 376.671875 266.59375 C 376.671875 266.59375 376.054688 269.753906 379.835938 269.753906 C 383.613281 269.753906 392.488281 267.867188 392.488281 267.867188 C 392.488281 267.867188 393.105469 264.703125 389.941406 263.429688 C 389.941406 263.429688 393.105469 258.378906 386.164062 257.105469 C 386.164062 257.105469 389.941406 252.054688 381.722656 251.398438 C 381.722656 251.398438 386.164062 246.960938 378.558594 245.6875 L 371.574219 245.074219 Z M 365.289062 239.933594 " fill-opacity="1" fill-rule="nonzero"/><path fill="#000000" d="M 430.5 249.992188 L 423.074219 272.785156 C 421.40625 272.304688 418.242188 269.273438 415.472656 266.59375 L 425.886719 246.476562 Z M 430.5 249.992188 " fill-opacity="1" fill-rule="nonzero"/><path fill="#000000" d="M 704.621094 441.085938 L 638.441406 449.300781 L 627.0625 412.277344 L 702.820312 427.078125 Z M 704.621094 441.085938 " fill-opacity="1" fill-rule="nonzero"/><path fill="#f98f4a" d="M 746.058594 394.796875 L 716.617188 287.675781 C 714.15625 278.714844 707.960938 271.292969 699.566406 267.253906 L 677.070312 256.449219 C 625.875 281.304688 633.609375 254.910156 633.609375 254.910156 L 600.914062 260.445312 L 534.957031 281.042969 L 428.4375 245.863281 L 418.898438 285.917969 L 508.019531 321.230469 C 521.199219 326.457031 535.175781 329.398438 549.324219 329.96875 L 584.347656 331.375 C 584.347656 331.375 584.347656 337.085938 591.203125 368.398438 C 595.773438 389.261719 580.964844 438.453125 580.964844 438.453125 C 580.964844 438.453125 625.785156 428.921875 632.246094 428.789062 L 639.101562 448.15625 L 698.335938 432.214844 L 729.667969 424.222656 C 752.386719 417.984375 746.058594 394.796875 746.058594 394.796875 Z M 746.058594 394.796875 " fill-opacity="1" fill-rule="nonzero"/><path fill="#f9c19e" d="M 633.871094 433.355469 L 623.546875 435.203125 L 618.183594 436.082031 L 587.292969 453.296875 C 582.371094 455.449219 578.285156 451.933594 578.285156 451.933594 C 572.484375 452.199219 570.066406 448.949219 570.066406 448.949219 C 564.75 449.871094 562.199219 445.742188 562.199219 445.742188 C 558.90625 447.632812 556.355469 448.554688 554.378906 448.949219 C 551.476562 449.519531 549.765625 445.742188 552.09375 443.898438 L 556.003906 440.78125 L 579.382812 423.5625 C 561.671875 426.066406 558.773438 418.6875 558.773438 418.6875 L 589.488281 410.078125 C 601.53125 406.699219 611.902344 410.605469 611.902344 410.605469 L 620.03125 408.628906 L 624.996094 407.402344 Z M 633.871094 433.355469 " fill-opacity="1" fill-rule="nonzero"/><path fill="#000000" d="M 561.722656 445.023438 L 579.003906 433.796875 L 579.9375 435.234375 L 562.65625 446.460938 Z M 561.722656 445.023438 " fill-opacity="1" fill-rule="nonzero"/><path fill="#000000" d="M 569.585938 448.265625 L 580.445312 441.273438 L 581.375 442.710938 L 570.515625 449.707031 Z M 569.585938 448.265625 " fill-opacity="1" fill-rule="nonzero"/><path fill="#000000" d="M 577.660156 451.308594 L 583.019531 446.363281 L 584.183594 447.621094 L 578.824219 452.566406 Z M 577.660156 451.308594 " fill-opacity="1" fill-rule="nonzero"/><path fill="#000000" d="M 368.9375 254.648438 C 364.410156 254.648438 362.609375 253.375 362.476562 253.285156 L 363.488281 251.925781 L 362.960938 252.625 L 363.441406 251.925781 C 363.488281 251.96875 367.96875 254.910156 381.460938 250.605469 L 381.988281 252.230469 C 376.230469 254.078125 371.96875 254.648438 368.9375 254.648438 Z M 368.9375 254.648438 " fill-opacity="1" fill-rule="nonzero"/><path fill="#000000" d="M 371.925781 261.980469 C 369.945312 261.980469 368.363281 261.367188 367.265625 260.179688 C 364.980469 257.722656 365.507812 253.726562 365.550781 253.550781 L 367.265625 253.769531 L 366.429688 253.636719 L 367.265625 253.769531 C 367.265625 253.8125 366.828125 257.152344 368.539062 258.996094 C 369.417969 259.960938 370.824219 260.355469 372.628906 260.226562 C 372.671875 260.226562 381.066406 259.082031 386.03125 256.886719 L 386.734375 258.46875 C 381.546875 260.753906 373.199219 261.894531 372.804688 261.9375 C 372.496094 261.980469 372.1875 261.980469 371.925781 261.980469 Z M 371.925781 261.980469 " fill-opacity="1" fill-rule="nonzero"/><path fill="#000000" d="M 376.671875 267.648438 L 376.539062 267.648438 C 371.96875 267.121094 370.296875 263.605469 370.078125 261.761719 L 371.792969 261.542969 C 371.792969 261.71875 372.363281 265.363281 376.625 265.933594 C 377.59375 265.804688 384.273438 264.660156 389.414062 262.597656 L 390.027344 264.179688 C 384.316406 266.460938 377.023438 267.605469 376.757812 267.648438 Z M 376.671875 267.648438 " fill-opacity="1" fill-rule="nonzero"/><path fill="#000000" d="M 584.039062 335.238281 C 581.800781 315.34375 584.613281 299.753906 584.613281 299.621094 L 586.851562 300.015625 C 586.808594 300.148438 584.085938 315.476562 586.28125 334.976562 Z M 584.039062 335.238281 " fill-opacity="1" fill-rule="nonzero"/><path fill="#ffffff" d="M 414.691406 267.019531 L 416.261719 265.359375 L 423.128906 271.847656 L 421.558594 273.507812 Z M 414.691406 267.019531 " fill-opacity="1" fill-rule="nonzero"/><path fill="#000000" d="M 633.871094 433.355469 L 623.546875 435.203125 L 620.03125 408.628906 L 625.039062 407.402344 Z M 633.871094 433.355469 " fill-opacity="1" fill-rule="nonzero"/><path fill="#000000" d="M 638.3125 449.519531 L 622.753906 406.476562 L 691.261719 382.015625 L 681.289062 349.207031 L 683.484375 348.503906 L 694.074219 383.421875 L 625.65625 407.839844 L 639.71875 446.796875 L 703.128906 430.546875 L 703.699219 432.742188 Z M 638.3125 449.519531 " fill-opacity="1" fill-rule="nonzero"/></svg>