<svg xmlns="http://www.w3.org/2000/svg" xmlns:xlink="http://www.w3.org/1999/xlink" width="1120" zoomAndPan="magnify" viewBox="0 0 840 479.999983" height="640" preserveAspectRatio="xMidYMid meet" version="1.0"><defs><clipPath id="0a3c529b3a"><path d="M 46.089844 427 L 792.339844 427 L 792.339844 453 L 46.089844 453 Z M 46.089844 427 " clip-rule="nonzero"/></clipPath><clipPath id="0bd3506dce"><path d="M 46.089844 476 L 792.339844 476 L 792.339844 479.957031 L 46.089844 479.957031 Z M 46.089844 476 " clip-rule="nonzero"/></clipPath></defs><path fill="#35385b" d="M 482.199219 392.160156 L 470.644531 447.4375 L 586.898438 447.4375 L 598.394531 392.160156 Z M 482.199219 392.160156 " fill-opacity="1" fill-rule="nonzero"/><path fill="#000000" d="M 470.253906 392.160156 L 458.757812 447.4375 L 575.011719 447.4375 L 586.507812 392.160156 Z M 470.253906 392.160156 " fill-opacity="1" fill-rule="nonzero"/><path fill="#000000" d="M 745.566406 193.535156 L 713.195312 363.828125 L 707.558594 393.554688 C 706.777344 397.574219 703.261719 400.527344 699.132812 400.527344 L 377.105469 400.527344 C 371.75 400.527344 367.675781 395.621094 368.679688 390.378906 L 373.703125 363.828125 L 406.6875 190.300781 C 407.46875 186.285156 410.984375 183.328125 415.113281 183.328125 L 737.136719 183.328125 C 742.550781 183.328125 746.570312 188.234375 745.566406 193.535156 Z M 745.566406 193.535156 " fill-opacity="1" fill-rule="nonzero"/><path fill="#07498b" d="M 732.28125 193.535156 L 699.914062 363.828125 L 694.277344 393.554688 C 693.496094 397.574219 689.980469 400.527344 685.847656 400.527344 L 363.824219 400.527344 C 358.464844 400.527344 354.390625 395.621094 355.398438 390.378906 L 360.421875 363.828125 L 393.402344 190.300781 C 394.183594 186.285156 397.703125 183.328125 401.832031 183.328125 L 723.855469 183.328125 C 729.214844 183.328125 733.289062 188.234375 732.28125 193.535156 Z M 732.28125 193.535156 " fill-opacity="1" fill-rule="nonzero"/><path fill="#35385b" d="M 732.28125 193.535156 L 699.914062 363.828125 L 360.421875 363.828125 L 393.402344 190.300781 C 394.183594 186.285156 397.703125 183.328125 401.832031 183.328125 L 723.855469 183.328125 C 729.214844 183.328125 733.289062 188.234375 732.28125 193.535156 Z M 732.28125 193.535156 " fill-opacity="1" fill-rule="nonzero"/><path fill="#ffffff" d="M 378.277344 348.429688 L 686.964844 348.429688 L 715.652344 199.445312 L 406.964844 199.445312 Z M 378.277344 348.429688 " fill-opacity="1" fill-rule="nonzero"/><path fill="#aaceee" d="M 629.871094 236.707031 L 626.632812 252.269531 C 626.523438 252.828125 626.019531 253.273438 625.40625 253.273438 L 605.203125 253.273438 C 604.421875 253.273438 603.808594 252.546875 603.976562 251.765625 L 607.210938 236.207031 C 607.324219 235.648438 607.828125 235.199219 608.441406 235.199219 L 628.644531 235.199219 C 629.480469 235.199219 630.039062 235.925781 629.871094 236.707031 Z M 629.871094 236.707031 " fill-opacity="1" fill-rule="nonzero"/><path fill="#ffffff" d="M 622.785156 249.367188 C 622.058594 246.636719 620.160156 244.515625 617.648438 243.902344 C 618.429688 243.566406 619.042969 242.785156 619.265625 241.78125 C 619.601562 240.222656 618.765625 238.714844 617.425781 238.378906 C 616.03125 238.046875 614.636719 239.105469 614.300781 240.667969 C 614.019531 241.894531 614.46875 243.121094 615.417969 243.734375 C 612.570312 244.070312 610.058594 246.246094 608.941406 249.3125 C 608.664062 250.039062 609.222656 250.761719 609.945312 250.761719 L 621.722656 250.761719 C 622.449219 250.761719 622.949219 250.09375 622.785156 249.367188 Z M 622.785156 249.367188 " fill-opacity="1" fill-rule="nonzero"/><path fill="#aaceee" d="M 624.289062 263.984375 L 621.054688 279.546875 C 620.941406 280.101562 620.441406 280.550781 619.824219 280.550781 L 599.621094 280.550781 C 598.839844 280.550781 598.226562 279.824219 598.394531 279.042969 L 601.632812 263.480469 C 601.742188 262.921875 602.246094 262.476562 602.859375 262.476562 L 623.0625 262.476562 C 623.84375 262.476562 624.457031 263.203125 624.289062 263.984375 Z M 624.289062 263.984375 " fill-opacity="1" fill-rule="nonzero"/><path fill="#ffffff" d="M 617.203125 276.644531 C 616.476562 273.910156 614.578125 271.792969 612.066406 271.179688 C 612.847656 270.84375 613.464844 270.0625 613.6875 269.058594 C 614.019531 267.496094 613.183594 265.992188 611.84375 265.65625 C 610.449219 265.320312 609.054688 266.382812 608.71875 267.941406 C 608.441406 269.171875 608.886719 270.398438 609.835938 271.011719 C 606.988281 271.34375 604.476562 273.519531 603.363281 276.589844 C 603.082031 277.3125 603.640625 278.039062 604.367188 278.039062 L 616.140625 278.039062 C 616.867188 278.039062 617.371094 277.371094 617.203125 276.644531 Z M 617.203125 276.644531 " fill-opacity="1" fill-rule="nonzero"/><path fill="#aaceee" d="M 618.710938 292.652344 L 615.472656 308.214844 C 615.359375 308.773438 614.859375 309.21875 614.246094 309.21875 L 594.042969 309.21875 C 593.261719 309.21875 592.644531 308.496094 592.8125 307.714844 L 596.050781 292.152344 C 596.164062 291.59375 596.664062 291.148438 597.277344 291.148438 L 617.480469 291.148438 C 618.261719 291.203125 618.875 291.929688 618.710938 292.652344 Z M 618.710938 292.652344 " fill-opacity="1" fill-rule="nonzero"/><path fill="#ffffff" d="M 611.566406 305.371094 C 610.839844 302.636719 608.941406 300.519531 606.429688 299.902344 C 607.210938 299.570312 607.828125 298.789062 608.050781 297.785156 C 608.382812 296.222656 607.546875 294.71875 606.207031 294.382812 C 604.8125 294.046875 603.417969 295.105469 603.082031 296.667969 C 602.804688 297.894531 603.25 299.125 604.199219 299.738281 C 601.351562 300.070312 598.839844 302.246094 597.726562 305.316406 C 597.445312 306.039062 598.003906 306.765625 598.730469 306.765625 L 610.503906 306.765625 C 611.285156 306.765625 611.789062 306.039062 611.566406 305.371094 Z M 611.566406 305.371094 " fill-opacity="1" fill-rule="nonzero"/><path fill="#aaceee" d="M 636.179688 242.398438 L 636.457031 240.667969 C 636.511719 240.5 636.625 240.386719 636.792969 240.386719 L 668.324219 240.386719 C 668.546875 240.386719 668.714844 240.613281 668.660156 240.835938 L 668.378906 242.5625 C 668.324219 242.730469 668.214844 242.84375 668.046875 242.84375 L 636.511719 242.84375 C 636.289062 242.785156 636.121094 242.621094 636.179688 242.398438 Z M 636.179688 242.398438 " fill-opacity="1" fill-rule="nonzero"/><path fill="#aaceee" d="M 635.007812 248.308594 L 635.285156 246.578125 C 635.339844 246.414062 635.453125 246.300781 635.621094 246.300781 L 655.152344 246.300781 C 655.375 246.300781 655.542969 246.523438 655.488281 246.746094 L 655.210938 248.476562 C 655.152344 248.644531 655.042969 248.753906 654.875 248.753906 L 635.339844 248.753906 C 635.117188 248.753906 634.949219 248.53125 635.007812 248.308594 Z M 635.007812 248.308594 " fill-opacity="1" fill-rule="nonzero"/><path fill="#aaceee" d="M 630.542969 269.671875 L 630.820312 267.941406 C 630.875 267.777344 630.988281 267.664062 631.15625 267.664062 L 662.6875 267.664062 C 662.910156 267.664062 663.078125 267.886719 663.023438 268.109375 L 662.742188 269.839844 C 662.6875 270.007812 662.578125 270.117188 662.410156 270.117188 L 630.875 270.117188 C 630.707031 270.0625 630.542969 269.894531 630.542969 269.671875 Z M 630.542969 269.671875 " fill-opacity="1" fill-rule="nonzero"/><path fill="#aaceee" d="M 629.371094 275.585938 L 629.648438 273.855469 C 629.703125 273.6875 629.816406 273.578125 629.984375 273.578125 L 649.515625 273.578125 C 649.738281 273.578125 649.90625 273.800781 649.851562 274.023438 L 649.574219 275.753906 C 649.515625 275.917969 649.40625 276.03125 649.238281 276.03125 L 629.703125 276.03125 C 629.535156 276.03125 629.371094 275.808594 629.371094 275.585938 Z M 629.371094 275.585938 " fill-opacity="1" fill-rule="nonzero"/><path fill="#aaceee" d="M 624.960938 298.34375 L 625.238281 296.613281 C 625.296875 296.445312 625.40625 296.335938 625.574219 296.335938 L 657.105469 296.335938 C 657.332031 296.335938 657.496094 296.558594 657.441406 296.78125 L 657.164062 298.511719 C 657.105469 298.675781 656.996094 298.789062 656.828125 298.789062 L 625.296875 298.789062 C 625.070312 298.789062 624.90625 298.566406 624.960938 298.34375 Z M 624.960938 298.34375 " fill-opacity="1" fill-rule="nonzero"/><path fill="#aaceee" d="M 623.789062 304.253906 L 624.066406 302.527344 C 624.121094 302.359375 624.234375 302.246094 624.402344 302.246094 L 643.9375 302.246094 C 644.160156 302.246094 644.328125 302.46875 644.269531 302.691406 L 643.992188 304.421875 C 643.9375 304.589844 643.824219 304.703125 643.65625 304.703125 L 624.121094 304.703125 C 623.957031 304.703125 623.730469 304.476562 623.789062 304.253906 Z M 623.789062 304.253906 " fill-opacity="1" fill-rule="nonzero"/><path fill="#aaceee" d="M 570.601562 317.699219 L 428.171875 317.699219 C 426.109375 317.699219 424.210938 316.804688 422.925781 315.1875 C 421.644531 313.625 421.140625 311.5625 421.53125 309.554688 L 438.441406 228.898438 C 439.113281 225.773438 441.847656 223.542969 445.027344 223.542969 L 587.457031 223.542969 C 589.519531 223.542969 591.417969 224.4375 592.703125 226.054688 C 593.984375 227.617188 594.488281 229.679688 594.097656 231.6875 L 577.1875 312.34375 C 576.515625 315.410156 573.78125 317.699219 570.601562 317.699219 Z M 445.085938 226.332031 C 443.242188 226.332031 441.625 227.671875 441.234375 229.457031 L 424.324219 310.113281 C 424.097656 311.28125 424.378906 312.453125 425.105469 313.402344 C 425.828125 314.351562 427 314.851562 428.171875 314.851562 L 570.601562 314.851562 C 572.441406 314.851562 574.0625 313.515625 574.453125 311.730469 L 591.363281 231.074219 C 591.585938 229.902344 591.308594 228.730469 590.582031 227.78125 C 589.855469 226.835938 588.683594 226.332031 587.511719 226.332031 Z M 445.085938 226.332031 " fill-opacity="1" fill-rule="nonzero"/><path fill="#aaceee" d="M 511.5 248.421875 L 512.222656 244.179688 C 512.28125 243.734375 512.671875 243.457031 513.117188 243.457031 L 575.566406 243.457031 C 576.125 243.457031 576.515625 243.957031 576.460938 244.515625 L 575.734375 248.753906 C 575.679688 249.203125 575.289062 249.480469 574.84375 249.480469 L 512.335938 249.480469 C 511.832031 249.480469 511.386719 248.976562 511.5 248.421875 Z M 511.5 248.421875 " fill-opacity="1" fill-rule="nonzero"/><path fill="#aaceee" d="M 508.316406 262.921875 L 509.042969 258.683594 C 509.097656 258.238281 509.488281 257.957031 509.933594 257.957031 L 572.386719 257.957031 C 572.945312 257.957031 573.335938 258.460938 573.28125 259.019531 L 572.554688 263.257812 C 572.5 263.703125 572.109375 263.984375 571.660156 263.984375 L 509.152344 263.984375 C 508.597656 263.984375 508.207031 263.480469 508.316406 262.921875 Z M 508.316406 262.921875 " fill-opacity="1" fill-rule="nonzero"/><path fill="#aaceee" d="M 505.46875 277.425781 L 506.195312 273.1875 C 506.25 272.738281 506.644531 272.460938 507.089844 272.460938 L 539.460938 272.460938 C 540.015625 272.460938 540.40625 272.964844 540.351562 273.519531 L 539.625 277.761719 C 539.570312 278.207031 539.179688 278.484375 538.734375 278.484375 L 506.363281 278.484375 C 505.804688 278.484375 505.359375 277.984375 505.46875 277.425781 Z M 505.46875 277.425781 " fill-opacity="1" fill-rule="nonzero"/><path fill="#aaceee" d="M 498.328125 242.285156 L 491.070312 277.257812 C 490.792969 278.542969 489.675781 279.488281 488.335938 279.488281 L 442.964844 279.488281 C 441.175781 279.488281 439.835938 277.871094 440.230469 276.144531 L 447.484375 241.167969 C 447.761719 239.886719 448.878906 238.9375 450.21875 238.9375 L 495.59375 238.9375 C 497.378906 238.9375 498.660156 240.554688 498.328125 242.285156 Z M 498.328125 242.285156 " fill-opacity="1" fill-rule="nonzero"/><path fill="#ffffff" d="M 471.015625 246.085938 C 471.386719 246.167969 471.746094 246.292969 472.09375 246.457031 C 472.4375 246.621094 472.765625 246.820312 473.070312 247.058594 C 473.378906 247.296875 473.660156 247.566406 473.917969 247.867188 C 474.175781 248.167969 474.402344 248.496094 474.597656 248.851562 C 474.792969 249.207031 474.957031 249.582031 475.082031 249.976562 C 475.210938 250.371094 475.304688 250.777344 475.359375 251.195312 C 475.414062 251.613281 475.429688 252.035156 475.410156 252.460938 C 475.390625 252.886719 475.332031 253.308594 475.238281 253.726562 C 475.144531 254.144531 475.015625 254.550781 474.851562 254.945312 C 474.683594 255.339844 474.488281 255.714844 474.257812 256.066406 C 474.027344 256.421875 473.773438 256.75 473.488281 257.050781 C 473.203125 257.351562 472.894531 257.621094 472.566406 257.855469 C 472.234375 258.09375 471.890625 258.292969 471.527344 258.453125 C 471.167969 258.617188 470.796875 258.738281 470.417969 258.820312 C 470.035156 258.902344 469.65625 258.945312 469.273438 258.945312 C 468.890625 258.945312 468.511719 258.902344 468.140625 258.816406 C 467.769531 258.734375 467.410156 258.609375 467.0625 258.445312 C 466.71875 258.28125 466.390625 258.082031 466.082031 257.84375 C 465.777344 257.605469 465.492188 257.335938 465.238281 257.035156 C 464.980469 256.734375 464.753906 256.40625 464.558594 256.050781 C 464.363281 255.695312 464.199219 255.320312 464.070312 254.925781 C 463.941406 254.53125 463.851562 254.125 463.796875 253.707031 C 463.742188 253.289062 463.722656 252.867188 463.742188 252.441406 C 463.765625 252.015625 463.820312 251.59375 463.914062 251.175781 C 464.011719 250.757812 464.140625 250.351562 464.304688 249.957031 C 464.46875 249.5625 464.667969 249.191406 464.898438 248.835938 C 465.125 248.480469 465.382812 248.152344 465.667969 247.851562 C 465.953125 247.550781 466.261719 247.285156 466.589844 247.046875 C 466.917969 246.8125 467.265625 246.613281 467.628906 246.449219 C 467.988281 246.285156 468.359375 246.164062 468.738281 246.082031 C 469.117188 246 469.5 245.957031 469.882812 245.957031 C 470.265625 245.960938 470.644531 246 471.015625 246.085938 Z M 471.015625 246.085938 " fill-opacity="1" fill-rule="nonzero"/><path fill="#ffffff" d="M 480.691406 273.910156 L 454.238281 273.910156 C 452.5625 273.910156 451.335938 272.238281 451.894531 270.621094 C 454.851562 262.308594 462.386719 256.898438 470.144531 258.125 C 476.449219 259.128906 481.304688 264.148438 483.035156 270.789062 C 483.480469 272.351562 482.308594 273.910156 480.691406 273.910156 Z M 480.691406 273.910156 " fill-opacity="1" fill-rule="nonzero"/><path fill="#ffffff" d="M 630.375 374.648438 L 630.375 381.007812 C 622.894531 381.730469 616.980469 388.089844 616.980469 395.730469 C 616.980469 403.375 622.839844 409.730469 630.375 410.457031 L 630.375 427.75 L 681.382812 427.75 L 681.382812 374.589844 L 630.375 374.589844 Z M 619.769531 395.789062 C 619.769531 389.652344 624.402344 384.574219 630.375 383.851562 L 630.375 407.667969 C 624.402344 407 619.769531 401.921875 619.769531 395.789062 Z M 678.539062 425.015625 L 633.109375 425.015625 L 633.109375 377.4375 L 678.539062 377.4375 Z M 678.539062 425.015625 " fill-opacity="1" fill-rule="nonzero"/><path fill="#f98f4a" d="M 636.234375 387.980469 L 675.414062 387.980469 L 675.414062 422.28125 L 636.234375 422.28125 Z M 636.234375 387.980469 " fill-opacity="1" fill-rule="nonzero"/><path fill="#000000" d="M 72.050781 439.015625 L 766.382812 439.015625 L 766.382812 477.503906 L 72.050781 477.503906 Z M 72.050781 439.015625 " fill-opacity="1" fill-rule="nonzero"/><g clip-path="url(#0a3c529b3a)"><path fill="#07498b" d="M 46.152344 427.46875 L 792.277344 427.46875 L 792.277344 452.683594 L 46.152344 452.683594 Z M 46.152344 427.46875 " fill-opacity="1" fill-rule="nonzero"/></g><g clip-path="url(#0bd3506dce)"><path fill="#000000" d="M 46.152344 476.445312 L 792.277344 476.445312 L 792.277344 479.957031 L 46.152344 479.957031 Z M 46.152344 476.445312 " fill-opacity="1" fill-rule="nonzero"/></g><path fill="#f9c19e" d="M 520.371094 292.484375 C 520.371094 292.484375 521.765625 312.789062 514.789062 325.339844 L 497.488281 354.734375 L 488.894531 369.40625 L 471.371094 343.523438 L 484.320312 329.410156 L 486.773438 326.734375 L 486.773438 288.972656 L 488.894531 267.273438 L 509.210938 248.363281 C 509.210938 248.363281 515.179688 252.9375 504.296875 266.546875 C 503.292969 267.832031 499.386719 270.730469 499.386719 270.730469 L 498.660156 284.734375 L 507.089844 268.667969 L 519.535156 259.855469 C 521.488281 258.460938 524.222656 259.800781 524.390625 262.199219 C 524.726562 269.003906 524.613281 281.21875 520.371094 292.484375 Z M 520.371094 292.484375 " fill-opacity="1" fill-rule="nonzero"/><path fill="#000000" d="M 505.917969 287.296875 L 504.019531 286.460938 L 511.109375 270.117188 L 523.105469 260.023438 L 524.445312 261.585938 L 512.835938 271.402344 Z M 505.917969 287.296875 " fill-opacity="1" fill-rule="nonzero"/><path fill="#f9c19e" d="M 334.414062 215.621094 L 334.414062 215.398438 C 334.414062 215.398438 340.496094 217.128906 344.347656 217.632812 C 360.699219 219.804688 356.121094 192.363281 356.121094 192.363281 C 358.578125 191.75 361.203125 190.464844 363.15625 189.40625 C 364.550781 188.625 364.660156 186.671875 363.378906 185.78125 C 359.414062 182.882812 356.234375 179.421875 356.234375 179.421875 C 357.460938 158.003906 347.917969 152.984375 347.917969 152.984375 L 300.757812 147.183594 L 291.4375 194.257812 C 291.4375 205.972656 282.230469 255.058594 282.230469 255.058594 L 335.027344 262.03125 L 334.691406 226.890625 L 334.691406 226.609375 Z M 334.414062 215.621094 " fill-opacity="1" fill-rule="nonzero"/><path fill="#000000" d="M 354 200.617188 C 349.703125 200.617188 347.472656 198.441406 347.359375 198.332031 L 348.867188 196.824219 C 348.980469 196.9375 351.378906 199.222656 356.234375 198.277344 L 356.625 200.339844 C 355.675781 200.5625 354.839844 200.617188 354 200.617188 Z M 354 200.617188 " fill-opacity="1" fill-rule="nonzero"/><path fill="#ffffff" d="M 356.066406 177.75 C 356.066406 177.75 355.398438 180.148438 352.996094 181.261719 C 352.273438 181.597656 351.324219 181.875 350.207031 181.875 C 348.421875 181.875 345.519531 181.261719 344.347656 177.75 C 344.347656 177.75 347.917969 173.453125 352.273438 174.90625 C 353.445312 175.351562 354.726562 176.1875 356.066406 177.75 Z M 356.066406 177.75 " fill-opacity="1" fill-rule="nonzero"/><path fill="#000000" d="M 356.066406 177.75 C 356.066406 177.75 355.398438 180.148438 352.996094 181.261719 C 351.101562 181.207031 349.59375 179.8125 349.59375 178.027344 C 349.59375 176.523438 350.710938 175.238281 352.214844 174.90625 C 353.445312 175.351562 354.726562 176.1875 356.066406 177.75 Z M 356.066406 177.75 " fill-opacity="1" fill-rule="nonzero"/><path fill="#000000" d="M 341.890625 171.054688 C 344.402344 170.164062 349.703125 168.769531 353.445312 170.722656 C 353.890625 170.945312 354.390625 170.945312 354.839844 170.722656 C 354.839844 170.722656 354.839844 170.722656 354.894531 170.722656 C 356.066406 170.109375 356.011719 168.433594 354.78125 167.875 C 352.105469 166.648438 346.300781 165.03125 341.445312 170.441406 C 341.164062 170.664062 341.5 171.167969 341.890625 171.054688 Z M 341.890625 171.054688 " fill-opacity="1" fill-rule="nonzero"/><path fill="#000000" d="M 366.503906 140.65625 C 366.449219 140.769531 362.597656 148.578125 355.566406 152.539062 C 358.019531 149.582031 359.472656 144.839844 359.082031 137.476562 C 358.691406 129.890625 354 116.003906 338.097656 122.75 C 338.097656 122.75 333.574219 125.207031 330.730469 128.777344 C 333.351562 121.523438 340.441406 118.792969 340.496094 118.734375 L 339.714844 116.726562 C 339.324219 116.894531 330.171875 120.410156 327.996094 130.335938 C 321.800781 127.382812 293.167969 115.5 283.738281 143.054688 C 272.074219 117.621094 234.066406 116.726562 233.675781 116.726562 L 233.621094 118.847656 C 233.953125 118.847656 267.664062 119.628906 280.386719 141.101562 C 272.296875 132.34375 249.636719 111.707031 233.953125 136.363281 C 229.265625 143.667969 223.070312 160.792969 233.953125 171.054688 C 239.03125 175.851562 252.035156 177.917969 267.441406 173.175781 C 257.507812 179.589844 245.117188 178.53125 244.949219 178.53125 L 244.726562 180.59375 C 244.894531 180.59375 245.898438 180.707031 247.40625 180.707031 C 252.09375 180.707031 261.972656 179.925781 270.007812 173.957031 C 267.832031 177.414062 265.765625 181.988281 265.933594 186.730469 C 266.101562 190.96875 268 194.707031 271.625 197.773438 C 275.253906 200.898438 282.453125 202.683594 290.265625 202.683594 C 292.050781 202.683594 293.894531 202.570312 295.679688 202.402344 C 298.75 202.738281 302.265625 202.570312 306.285156 201.621094 C 308.125 201.230469 312.980469 199.503906 310.972656 195.765625 C 309.128906 192.25 304.109375 188.457031 306.84375 180.480469 C 307.679688 178.027344 311.25 173.734375 316.832031 177.527344 C 319.230469 179.144531 320.960938 182.824219 319.789062 188.683594 C 319.789062 188.683594 341 183.382812 331.566406 153.988281 C 331.566406 153.988281 339.101562 157.5 346.300781 156.945312 C 346.578125 156.945312 346.859375 156.945312 347.136719 156.945312 C 360.753906 156.945312 368.234375 141.773438 368.289062 141.605469 Z M 281.226562 194.316406 C 277.484375 192.699219 274.976562 190.410156 273.859375 187.453125 C 272.519531 184.109375 273.078125 180.316406 274.082031 177.078125 C 274.976562 181.933594 276.929688 188.90625 281.226562 194.316406 Z M 272.964844 196.15625 C 269.785156 193.480469 268.109375 190.242188 268 186.617188 C 267.832031 181.261719 270.957031 175.964844 273.46875 172.617188 C 273.46875 172.671875 273.46875 172.730469 273.46875 172.785156 C 271.625 176.800781 269.726562 182.824219 271.847656 188.234375 C 273.636719 192.753906 277.820312 195.933594 284.40625 197.664062 C 285.746094 198.777344 287.308594 199.78125 289.039062 200.5625 C 282.230469 200.394531 276.089844 198.777344 272.964844 196.15625 Z M 272.964844 196.15625 " fill-opacity="1" fill-rule="nonzero"/><path fill="#000000" d="M 334.414062 215.398438 C 330.394531 214.117188 323.027344 210.714844 319.066406 205.636719 C 319.121094 206.085938 320.460938 218.1875 334.636719 226.835938 Z M 334.414062 215.398438 " fill-opacity="1" fill-rule="nonzero"/><path fill="#f98f4a" d="M 271.292969 172.785156 C 268.332031 152.480469 282.175781 141.828125 282.789062 141.382812 L 284.460938 143.613281 L 283.625 142.496094 L 284.460938 143.613281 C 283.902344 144.003906 271.347656 153.707031 274.027344 172.339844 Z M 271.292969 172.785156 " fill-opacity="1" fill-rule="nonzero"/><path fill="#0a0a09" d="M 319.621094 196.9375 C 319.621094 197.308594 319.550781 197.664062 319.410156 198.003906 C 319.269531 198.347656 319.066406 198.648438 318.804688 198.910156 C 318.542969 199.171875 318.242188 199.371094 317.898438 199.515625 C 317.558594 199.65625 317.203125 199.726562 316.832031 199.726562 C 316.460938 199.726562 316.105469 199.65625 315.765625 199.515625 C 315.421875 199.371094 315.121094 199.171875 314.859375 198.910156 C 314.597656 198.648438 314.394531 198.347656 314.253906 198.003906 C 314.113281 197.664062 314.042969 197.308594 314.042969 196.9375 C 314.042969 196.566406 314.113281 196.210938 314.253906 195.871094 C 314.394531 195.527344 314.597656 195.226562 314.859375 194.964844 C 315.121094 194.703125 315.421875 194.503906 315.765625 194.359375 C 316.105469 194.21875 316.460938 194.148438 316.832031 194.148438 C 317.203125 194.148438 317.558594 194.21875 317.898438 194.359375 C 318.242188 194.503906 318.542969 194.703125 318.804688 194.964844 C 319.066406 195.226562 319.269531 195.527344 319.410156 195.871094 C 319.550781 196.210938 319.621094 196.566406 319.621094 196.9375 Z M 319.621094 196.9375 " fill-opacity="1" fill-rule="nonzero"/><path fill="#54578c" d="M 319.230469 196.324219 C 319.230469 196.691406 319.160156 197.050781 319.019531 197.390625 C 318.878906 197.734375 318.675781 198.035156 318.414062 198.296875 C 318.152344 198.558594 317.851562 198.757812 317.507812 198.898438 C 317.167969 199.042969 316.8125 199.113281 316.441406 199.113281 C 316.070312 199.113281 315.714844 199.042969 315.375 198.898438 C 315.03125 198.757812 314.730469 198.558594 314.46875 198.296875 C 314.207031 198.035156 314.003906 197.734375 313.863281 197.390625 C 313.722656 197.050781 313.652344 196.691406 313.652344 196.324219 C 313.652344 195.953125 313.722656 195.597656 313.863281 195.257812 C 314.003906 194.914062 314.207031 194.613281 314.46875 194.351562 C 314.730469 194.089844 315.03125 193.886719 315.375 193.746094 C 315.714844 193.605469 316.070312 193.535156 316.441406 193.535156 C 316.8125 193.535156 317.167969 193.605469 317.507812 193.746094 C 317.851562 193.886719 318.152344 194.089844 318.414062 194.351562 C 318.675781 194.613281 318.878906 194.914062 319.019531 195.257812 C 319.160156 195.597656 319.230469 195.953125 319.230469 196.324219 Z M 319.230469 196.324219 " fill-opacity="1" fill-rule="nonzero"/><path fill="#000000" d="M 497.488281 354.734375 L 488.894531 369.40625 L 471.371094 343.523438 L 484.320312 329.46875 Z M 497.488281 354.734375 " fill-opacity="1" fill-rule="nonzero"/><path fill="#000000" d="M 512.949219 289.304688 L 510.996094 288.636719 L 516.6875 272.292969 L 523.777344 265.824219 L 525.171875 267.328125 L 518.472656 273.464844 Z M 512.949219 289.304688 " fill-opacity="1" fill-rule="nonzero"/><path fill="#54578c" d="M 464.003906 478.171875 L 213.417969 478.171875 L 226.027344 422.894531 L 350.597656 422.894531 L 357.796875 447.382812 L 358.300781 449.113281 C 454.960938 462.109375 464.003906 478.171875 464.003906 478.171875 Z M 464.003906 478.171875 " fill-opacity="1" fill-rule="nonzero"/><path fill="#ffffff" d="M 405.292969 478.898438 C 403.339844 478.617188 401.105469 478.285156 398.425781 477.949219 L 398.59375 476.554688 C 401.273438 476.890625 403.5625 477.222656 405.457031 477.503906 Z M 390.109375 476.945312 C 387.433594 476.667969 384.640625 476.332031 381.738281 476.054688 L 381.90625 474.660156 C 384.753906 474.992188 387.597656 475.273438 390.277344 475.550781 Z M 373.367188 475.160156 C 370.578125 474.882812 367.785156 474.546875 364.996094 474.210938 L 365.164062 472.816406 C 367.898438 473.152344 370.746094 473.429688 373.535156 473.765625 Z M 356.679688 473.152344 C 353.554688 472.761719 350.820312 472.371094 348.308594 471.980469 L 348.53125 470.585938 C 350.988281 470.976562 353.722656 471.367188 356.847656 471.757812 Z M 339.992188 470.53125 C 337.707031 470.027344 335.75 469.527344 334.300781 469.082031 C 333.519531 468.800781 332.683594 468.523438 331.789062 468.1875 L 332.292969 466.90625 C 333.128906 467.238281 333.964844 467.519531 334.746094 467.796875 C 336.144531 468.242188 338.039062 468.746094 340.273438 469.246094 Z M 324.085938 464.675781 C 319.847656 462.554688 316.71875 460.601562 316.664062 460.601562 L 317.390625 459.429688 C 317.445312 459.429688 320.515625 461.328125 324.703125 463.445312 Z M 324.085938 464.675781 " fill-opacity="1" fill-rule="nonzero"/><path fill="#000000" d="M 357.851562 447.4375 C 346.746094 454.523438 325.59375 464.339844 286.917969 471.925781 L 269.953125 478.171875 L 213.417969 478.171875 L 226.027344 422.894531 L 350.597656 422.894531 Z M 357.851562 447.4375 " fill-opacity="1" fill-rule="nonzero"/><path fill="#f98f4a" d="M 481.191406 329.523438 L 437.101562 360.980469 L 392.789062 267.832031 C 390.445312 260.46875 385.367188 254.332031 378.613281 250.652344 L 342.953125 230.515625 C 340.832031 229.121094 337.316406 226.277344 333.855469 226.277344 L 290.769531 224.269531 C 288.703125 224.269531 286.640625 224.492188 284.6875 225.105469 L 248.410156 239.886719 C 239.03125 242.5625 231.554688 249.703125 228.375 258.90625 L 192.933594 353.0625 C 189.304688 362.65625 193.769531 373.363281 203.089844 377.605469 L 213.472656 382.34375 L 211.351562 450.898438 C 211.351562 450.898438 262.25 457.253906 286.25 456.476562 C 329.667969 455.082031 357.628906 440.410156 357.628906 440.410156 C 357.628906 440.410156 352.71875 392.160156 358.355469 378.832031 C 361.3125 371.859375 363.710938 368.566406 365.5 362.265625 L 404.121094 416.035156 C 406.351562 420.496094 410.035156 424.179688 414.667969 426.132812 C 424.546875 430.371094 431.578125 424.625 431.578125 424.625 L 496.652344 372.863281 Z M 481.191406 329.523438 " fill-opacity="1" fill-rule="nonzero"/><path fill="#000000" d="M 224.664062 361.304688 L 226.414062 293.777344 L 229.203125 293.851562 L 227.457031 361.378906 Z M 224.664062 361.304688 " fill-opacity="1" fill-rule="nonzero"/><path fill="#000000" d="M 347.3125 331.976562 L 349.738281 330.601562 L 370.742188 367.6875 L 368.3125 369.0625 Z M 347.3125 331.976562 " fill-opacity="1" fill-rule="nonzero"/><path fill="#000000" d="M 500.058594 284.453125 L 497.9375 284.34375 L 498.660156 269.894531 L 498.996094 269.617188 C 507.367188 262.308594 509.378906 256.898438 509.542969 253.664062 C 509.710938 250.652344 508.371094 249.089844 508.371094 249.035156 L 509.933594 247.640625 C 509.992188 247.75 511.890625 249.871094 511.664062 253.777344 C 511.386719 258.960938 507.703125 264.707031 500.726562 270.84375 Z M 500.058594 284.453125 " fill-opacity="1" fill-rule="nonzero"/><path fill="#07498b" d="M 148.285156 350.550781 L 285.96875 350.550781 C 291.160156 350.550781 295.570312 354.34375 296.351562 359.53125 L 313.929688 477.894531 L 154.984375 477.894531 L 137.847656 362.597656 C 136.957031 356.242188 141.867188 350.550781 148.285156 350.550781 Z M 148.285156 350.550781 " fill-opacity="1" fill-rule="nonzero"/><path fill="#000000" d="M 133.550781 350.550781 L 271.234375 350.550781 C 276.425781 350.550781 280.835938 354.34375 281.617188 359.53125 L 299.195312 477.894531 L 140.304688 477.894531 L 123.171875 362.542969 C 122.222656 356.242188 127.132812 350.550781 133.550781 350.550781 Z M 133.550781 350.550781 " fill-opacity="1" fill-rule="nonzero"/></svg>