<?xml version="1.0" encoding="utf-8" standalone="yes"?>
<!DOCTYPE svg PUBLIC "-//W3C//DTD SVG 1.1//EN" "http://www.w3.org/Graphics/SVG/1.1/DTD/svg11.dtd">
<svg width="812" height="506" viewBox="0 0 812 506" style="fill:none;stroke:none;fill-rule:evenodd;clip-rule:evenodd;stroke-linecap:round;stroke-linejoin:round;stroke-miterlimit:1.5;" version="1.1" xmlns="http://www.w3.org/2000/svg" xmlns:xlink="http://www.w3.org/1999/xlink"><style id="fontImports">@import url("https://fonts.googleapis.com/css2?family=Roboto:wght@400;700&amp;display=block");</style><g id="items" style="isolation: isolate"><g id="blend" style="mix-blend-mode:normal"><g id="g-root-4.cu_sy_924rjqpk90jq-fill" data-item-order="-71480" transform="translate(457.16845703125, 297.3671875)"><g id="4.cu_sy_924rjqpk90jq-fill" stroke="none" fill="#fffbda"><g><path d="M 28.4966 135.818L 143.661 135.878C 142.249 87.2093 122.726 43.0818 91.5959 10L 10 91.512001C 20.4126 103.606801 27.1545 118.952001 28.4966 135.818Z"></path></g></g></g><g id="g-root-3.cu_sy_6hraupk91cf-fill" data-item-order="-71476" transform="translate(404.72265625, 237.005859375)"><g id="3.cu_sy_6hraupk91cf-fill" stroke="none" fill="#e8f9ff"><g><path d="M 54.2876 143.707L 135.884 62.1953C 102.8306 31.0287 58.7202 11.4613 10.0593 10L 10 125.165C 26.8633 126.524 42.2024 133.282 54.2876 143.707Z"></path></g></g></g><g id="g-root-2.cu_sy_1qbyt12pk92ps-fill" data-item-order="-71472" transform="translate(267.361328125, 237)"><g id="2.cu_sy_1qbyt12pk92ps-fill" stroke="none" fill="#f4ffdc"><g><path d="M 91.0519 143.201C 103.3025 132.847 118.81 126.225 135.818 125.092L 135.878 10C 87.2093 11.4122 43.0818 30.9356 10 62.0655L 91.0519 143.201Z"></path></g></g></g><g id="g-root-1.cu_sy_1hgy9vapk90cp-fill" data-item-order="-71468" transform="translate(207, 297.2236328125)"><g id="1.cu_sy_1hgy9vapk90cp-fill" stroke="none" fill="#e3fff2"><g><path d="M 62.1951 10C 31.0286 43.0529 11.4613 87.1633 10 135.824L 124.165 135.883C 125.545 118.77 132.483 103.2269 143.173 91.0611L 62.1951 10Z"></path></g></g></g><g id="g-root-tx_gestinde_v48nsmpken0h-fill" data-item-order="0" transform="translate(297, 39)"><g id="tx_gestinde_v48nsmpken0h-fill" stroke="none" fill="#484848"><g><text style="font: bold 20px &quot;Roboto&quot;, sans-serif; white-space: pre;" font-weight="bold" font-size="20px" font-family="'Roboto', sans-serif"><tspan x="16.21" y="34" dominant-baseline="ideographic">Gestión de Proyectos</tspan></text></g></g></g><g id="g-root-tx_organiza_1happbqpken0v-fill" data-item-order="0" transform="translate(213, 111)"><g id="tx_organiza_1happbqpken0v-fill" stroke="none" fill="#484848"><g><text style="font: bold 20px &quot;Roboto&quot;, sans-serif; white-space: pre;" font-weight="bold" font-size="20px" font-family="'Roboto', sans-serif"><tspan x="16.64" y="34" dominant-baseline="ideographic">Organización</tspan></text></g></g></g><g id="g-root-tx_direccin_1q6cpkmpkem86-fill" data-item-order="0" transform="translate(471.076171875, 111)"><g id="tx_direccin_1q6cpkmpkem86-fill" stroke="none" fill="#484848"><g><text style="font: bold 20px &quot;Roboto&quot;, sans-serif; white-space: pre;" font-weight="bold" font-size="20px" font-family="'Roboto', sans-serif"><tspan x="15.54" y="34" dominant-baseline="ideographic">Dirección</tspan></text></g></g></g><g id="g-root-tx_ladispos_18ntcaepkd7ur-fill" data-item-order="0" transform="translate(195, 147)"><g id="tx_ladispos_18ntcaepkd7ur-fill" stroke="none" fill="#484848"><g><text style="font: 15px &quot;Roboto&quot;, sans-serif; white-space: pre;" font-size="15px" font-family="'Roboto', sans-serif"><tspan x="13.76" y="28" dominant-baseline="ideographic">La disposición eficiente </tspan><tspan x="24.93" y="46" dominant-baseline="ideographic">de recursos y tareas </tspan><tspan x="24.01" y="64" dominant-baseline="ideographic">para la ejecución del </tspan><tspan x="61.31" y="82" dominant-baseline="ideographic">proyecto.</tspan></text></g></g></g><g id="g-root-tx_guiarysu_1lyndkmpkd9fm-fill" data-item-order="0" transform="translate(441, 147)"><g id="tx_guiarysu_1lyndkmpkd9fm-fill" stroke="none" fill="#484848"><g><text style="font: 15px &quot;Roboto&quot;, sans-serif; white-space: pre;" font-size="15px" font-family="'Roboto', sans-serif"><tspan x="14.65" y="28" dominant-baseline="ideographic">Guiar y supervisar los </tspan><tspan x="14.4" y="46" dominant-baseline="ideographic">recursos del proyecto </tspan><tspan x="31.48" y="64" dominant-baseline="ideographic">hacia el logro de </tspan><tspan x="53.93" y="82" dominant-baseline="ideographic">objetivos.</tspan></text></g></g></g><g id="g-root-box_m7cm7qpksqgy-fill" data-item-order="0" transform="translate(324, 279)"></g><g id="g-root-2_qteyd2pk7ocv-fill" data-item-order="0" transform="translate(426, 279)"></g><g id="g-root-tx_controld_8vw706pken7x-fill" data-item-order="0" transform="translate(645, 267)"><g id="tx_controld_8vw706pken7x-fill" stroke="none" fill="#484848"><g><text style="font: bold 20px &quot;Roboto&quot;, sans-serif; white-space: pre;" font-weight="bold" font-size="20px" font-family="'Roboto', sans-serif"><tspan x="15.02" y="34" dominant-baseline="ideographic">Control de </tspan><tspan x="19.32" y="58" dominant-baseline="ideographic">Recursos</tspan></text></g></g></g><g id="g-root-tx_planific_zk25x2pkem88-fill" data-item-order="0" transform="translate(33, 291)"><g id="tx_planific_zk25x2pkem88-fill" stroke="none" fill="#484848"><g><text style="font: bold 20px &quot;Roboto&quot;, sans-serif; white-space: pre;" font-weight="bold" font-size="20px" font-family="'Roboto', sans-serif"><tspan x="17.51" y="34" dominant-baseline="ideographic">Planificación</tspan></text></g></g></g><g id="g-root-tx_elproces_vcctx2pkd9fo-fill" data-item-order="0" transform="translate(15, 327)"><g id="tx_elproces_vcctx2pkd9fo-fill" stroke="none" fill="#484848"><g><text style="font: 15px &quot;Roboto&quot;, sans-serif; white-space: pre;" font-size="15px" font-family="'Roboto', sans-serif"><tspan x="12.16" y="28" dominant-baseline="ideographic">El proceso de establecer </tspan><tspan x="14.24" y="46" dominant-baseline="ideographic">un curso de acción para </tspan><tspan x="30.54" y="64" dominant-baseline="ideographic">lograr objetivos del </tspan><tspan x="62.91" y="82" dominant-baseline="ideographic">proyecto.</tspan></text></g></g></g><g id="g-root-tx_lagestin_4o6v06pkdafd-fill" data-item-order="0" transform="translate(621, 327)"><g id="tx_lagestin_4o6v06pkdafd-fill" stroke="none" fill="#484848"><g><text style="font: 15px &quot;Roboto&quot;, sans-serif; white-space: pre;" font-size="15px" font-family="'Roboto', sans-serif"><tspan x="13.19" y="28" dominant-baseline="ideographic">La gestión efectiva de </tspan><tspan x="13.59" y="46" dominant-baseline="ideographic">recursos para cumplir </tspan><tspan x="15.38" y="64" dominant-baseline="ideographic">con los requisitos del </tspan><tspan x="55.21" y="82" dominant-baseline="ideographic">proyecto.</tspan></text></g></g></g><g id="g-root-pins_1luwfw6pkn20w-fill" data-item-order="0" transform="translate(249, 357)"></g><g id="g-root-scal_djtv92pkd9mo-fill" data-item-order="0" transform="translate(501, 357)"></g><g id="g-root-mana_1umslmepkiwp2-fill" data-item-order="0" transform="translate(363, 375)"></g><g id="g-root-4.cu_sy_924rjqpk90jq-stroke" data-item-order="-71480" transform="translate(457.16845703125, 297.3671875)"><g id="4.cu_sy_924rjqpk90jq-stroke" fill="none" stroke-linecap="round" stroke-linejoin="round" stroke-miterlimit="4" stroke="#e0cb15" stroke-width="2"><g><path d="M 28.4966 135.818401L 143.6613 135.877701C 142.2492 87.2093 122.7257 43.0818 91.5959 10L 10 91.512001C 20.4126 103.606801 27.1545 118.952001 28.4966 135.818401Z"></path></g></g></g><g id="g-root-3.cu_sy_6hraupk91cf-stroke" data-item-order="-71476" transform="translate(404.72265625, 237.005859375)"><g id="3.cu_sy_6hraupk91cf-stroke" fill="none" stroke-linecap="round" stroke-linejoin="round" stroke-miterlimit="4" stroke="#1eabda" stroke-width="2"><g><path d="M 54.2876 143.7073L 135.8836 62.1953C 102.8306 31.0287 58.7202 11.4613 10.0593 10L 10 125.1652C 26.8633 126.5242 42.2024 133.2815 54.2876 143.7073Z"></path></g></g></g><g id="g-root-2.cu_sy_1qbyt12pk92ps-stroke" data-item-order="-71472" transform="translate(267.361328125, 237)"><g id="2.cu_sy_1qbyt12pk92ps-stroke" fill="none" stroke-linecap="round" stroke-linejoin="round" stroke-miterlimit="4" stroke="#92bd39" stroke-width="2"><g><path d="M 91.0519 143.2008C 103.3025 132.8468 118.8096 126.2255 135.8185 125.0916L 135.8777 10C 87.2093 11.4122 43.0818 30.9356 10 62.0655L 91.0519 143.2008Z"></path></g></g></g><g id="g-root-1.cu_sy_1hgy9vapk90cp-stroke" data-item-order="-71468" transform="translate(207, 297.2236328125)"><g id="1.cu_sy_1hgy9vapk90cp-stroke" fill="none" stroke-linecap="round" stroke-linejoin="round" stroke-miterlimit="4" stroke="#3cc583" stroke-width="2"><g><path d="M 62.1951 10C 31.0286 43.0529 11.4613 87.1633 10 135.8241L 124.1653 135.8829C 125.5445 118.7701 132.4829 103.2269 143.1729 91.0611L 62.1951 10Z"></path></g></g></g><g id="g-root-tx_gestinde_v48nsmpken0h-stroke" data-item-order="0" transform="translate(297, 39)"></g><g id="g-root-tx_organiza_1happbqpken0v-stroke" data-item-order="0" transform="translate(213, 111)"></g><g id="g-root-tx_direccin_1q6cpkmpkem86-stroke" data-item-order="0" transform="translate(471.076171875, 111)"></g><g id="g-root-tx_ladispos_18ntcaepkd7ur-stroke" data-item-order="0" transform="translate(195, 147)"></g><g id="g-root-tx_guiarysu_1lyndkmpkd9fm-stroke" data-item-order="0" transform="translate(441, 147)"></g><g id="g-root-box_m7cm7qpksqgy-stroke" data-item-order="0" transform="translate(324, 279)"><g id="box_m7cm7qpksqgy-stroke" fill="none" stroke-linecap="round" stroke-linejoin="round" stroke-miterlimit="4" stroke="#92bd39" stroke-width="2"><g><path d="M 11 22L 57 22L 57 54L 11 54ZM 27 22L 27 18C 27.005497 15.793142 28.793144 14.005497 31.000002 14L 37 14C 39.206863 14.005497 40.994507 15.793142 41 18L 41 22M 31.5 37.75C 31.5 39.130714 32.619289 40.25 34 40.25C 35.380714 40.25 36.5 39.130714 36.5 37.75C 36.5 36.369289 35.380714 35.25 34 35.25C 32.619289 35.25 31.5 36.369289 31.5 37.75ZM 10 10M 36.124001 28.077999L 36.860001 30.5C 37.111549 31.334187 37.967091 31.830189 38.816002 31.634001L 41.27 31.066C 42.225796 30.847431 43.212315 31.278202 43.701679 32.127815C 44.191044 32.977425 44.068657 34.046913 43.400002 34.764L 41.683998 36.613998C 41.090427 37.255028 41.090427 38.244972 41.683998 38.886002L 43.400002 40.736C 44.06662 41.452423 44.188824 42.519527 43.701431 43.368107C 43.214035 44.216686 42.230724 44.648819 41.276001 44.434002L 38.821999 43.866001C 37.973091 43.669815 37.11755 44.165817 36.866001 45.000004L 36.129997 47.422001C 35.848042 48.359409 34.984894 49.001133 34.005997 49.001133C 33.0271 49.001133 32.163956 48.359409 31.882 47.421997L 31.139999 45C 30.888453 44.165817 30.032913 43.669815 29.184002 43.866001L 26.73 44.433998C 25.774208 44.652573 24.787687 44.221802 24.298323 43.372192C 23.808958 42.522579 23.931347 41.453094 24.600002 40.736L 26.316 38.886002C 26.909573 38.244972 26.909573 37.255028 26.316 36.613998L 24.6 34.764C 23.933384 34.047577 23.81118 32.980476 24.298573 32.131897C 24.785967 31.283318 25.769279 30.851185 26.724001 31.066002L 29.177999 31.634001C 30.026913 31.830189 30.882454 31.334187 31.134001 30.500002L 31.870001 28.077999C 32.148621 27.13554 33.014217 26.488804 33.997002 26.488804C 34.979782 26.488804 35.845383 27.13554 36.124001 28.077999Z"></path></g></g></g><g id="g-root-2_qteyd2pk7ocv-stroke" data-item-order="0" transform="translate(426, 279)"><g id="2_qteyd2pk7ocv-stroke" fill="none" stroke-linecap="round" stroke-linejoin="round" stroke-miterlimit="4" stroke="#1eabda" stroke-width="2"><g><path d="M 19.257143 16.857143C 17.253857 16.847975 15.329969 17.639721 13.913417 19.056274C 12.496864 20.472826 11.705117 22.396713 11.714286 24.4L 11.714286 44.285713C 11.714286 48.072811 14.784333 51.142857 18.571428 51.142857C 21.458885 51.130455 23.842417 48.881844 24.022858 46C 24.220562 43.112743 26.614576 40.868359 29.508572 40.857143L 38.491432 40.857143C 41.385422 40.868359 43.779438 43.112743 43.977142 46C 44.157585 48.881844 46.541115 51.130455 49.428574 51.142857C 53.215668 51.142857 56.285713 48.072811 56.285713 44.285713L 56.285713 24.4C 56.294884 22.396713 55.503136 20.472826 54.086582 19.056274C 52.670033 17.639721 50.746143 16.847975 48.742859 16.857143ZM 18.571428 28.857143L 27.142857 28.857143M 22.857143 24.571428L 22.857143 33.142857M 42.57143 28.857143C 42.57143 29.803917 43.338943 30.571428 44.285713 30.571428C 45.232487 30.571428 46 29.803917 46 28.857143C 46 27.910368 45.232487 27.142857 44.285713 27.142857C 43.338943 27.142857 42.57143 27.910368 42.57143 28.857143"></path></g></g></g><g id="g-root-tx_controld_8vw706pken7x-stroke" data-item-order="0" transform="translate(645, 267)"></g><g id="g-root-tx_planific_zk25x2pkem88-stroke" data-item-order="0" transform="translate(33, 291)"></g><g id="g-root-tx_elproces_vcctx2pkd9fo-stroke" data-item-order="0" transform="translate(15, 327)"></g><g id="g-root-tx_lagestin_4o6v06pkdafd-stroke" data-item-order="0" transform="translate(621, 327)"></g><g id="g-root-pins_1luwfw6pkn20w-stroke" data-item-order="0" transform="translate(249, 357)"><g id="pins_1luwfw6pkn20w-stroke" fill="none" stroke-linecap="round" stroke-linejoin="round" stroke-miterlimit="4" stroke="#3cc583" stroke-width="2"><g><path d="M 29.757999 19.757999C 29.757999 23.702 23.931999 31.408001 21.784 34.115997C 21.594328 34.355549 21.305548 34.495239 21 34.495239C 20.694452 34.495239 20.405672 34.355549 20.216 34.115997C 18.068001 31.4 12.242001 23.702 12.242001 19.757999C 12.243021 14.921812 16.163813 11.00185 21 11.00185C 25.836189 11.00185 29.756979 14.921812 29.758001 19.757999ZM 24.285999 19.757999C 24.287106 21.573067 22.816402 23.045263 21.001333 23.046C 19.186266 23.046736 17.714369 21.575735 17.714001 19.760666C 17.713631 17.945599 19.184933 16.473999 21 16.473999C 22.814484 16.472895 24.285999 17.943516 24.285999 19.757999ZM 47 33C 51.837364 32.998894 55.759102 36.920631 55.757999 41.757999C 55.757999 45.702 49.931999 53.405998 47.784 56.113998C 47.59433 56.35355 47.305546 56.49324 47 56.49324C 46.694454 56.49324 46.40567 56.35355 46.216 56.113998C 44.068001 53.405998 38.242001 45.700001 38.242001 41.756001C 38.241997 36.919411 42.163414 32.998894 47 33ZM 50.285999 41.757999C 50.287102 43.573067 48.816399 45.045261 47.001331 45.045998C 45.186264 45.046734 43.714367 43.575733 43.714001 41.760666C 43.713631 39.945599 45.184929 38.473999 47 38.473999C 48.814484 38.472893 50.285999 39.943512 50.285999 41.757996ZM 23 57L 21 57L 21 55M 39 57L 41 57M 33 57L 35 57M 27 57L 29 57M 21 37L 21 39M 21 43L 21 45M 21 49L 21 51"></path></g></g></g><g id="g-root-scal_djtv92pkd9mo-stroke" data-item-order="0" transform="translate(501, 357)"><g id="scal_djtv92pkd9mo-stroke" fill="none" stroke-linecap="round" stroke-linejoin="round" stroke-miterlimit="4" stroke="#e0cb15" stroke-width="2"><g><path d="M 42 33.040001L 42 43L 54 43L 54 33M 10 10M 39 36L 46.68 28.559999C 47.435013 27.896708 48.564987 27.896708 49.32 28.559999L 57 36M 34 19L 34 57M 28.16 57L 39.779999 57M 36.98 16C 36.988102 17.207085 36.267208 18.299824 35.154324 18.76738C 34.041443 19.234936 32.756424 18.98494 31.899998 18.134262C 31.043571 17.283583 30.784927 16.000278 31.244978 14.884272C 31.70503 13.768264 32.792889 13.040028 34 13.04C 35.638031 13.039963 36.969009 14.362007 36.980003 16ZM 54 28.4L 48 11.82L 42 28.4M 36.720001 14.38L 51.540001 11M 13.940001 34.620003L 20 18.18L 25.66 33.52M 11 41.5C 11 46.746704 15.253295 51 20.5 51C 25.746704 51 30 46.746704 30 41.5C 30 36.253296 25.746704 32 20.5 32C 15.253295 32 11 36.253296 11 41.5M 22.880001 36.760002L 19.66 36.760002C 18.714813 36.834705 17.934156 37.52792 17.748213 38.457642C 17.562267 39.38736 18.016254 40.327507 18.860001 40.759998L 22.139999 42.080002C 22.983744 42.512489 23.437731 43.452633 23.251785 44.382355C 23.065842 45.312077 22.285183 46.005291 21.34 46.079998L 18.119999 46.080002M 20.5 36.760002L 20.5 35.559998M 20.5 47.439999L 20.5 46.259998M 31.040001 15.68L 16.459999 19M 51.540001 11L 36.5 14.42"></path></g></g></g><g id="g-root-mana_1umslmepkiwp2-stroke" data-item-order="0" transform="translate(363, 375)"><g id="mana_1umslmepkiwp2-stroke" fill="none" stroke-linecap="round" stroke-linejoin="round" stroke-miterlimit="4" stroke="#a3a3a3" stroke-width="2"><g><path d="M 13 46L 19 46M 31 46L 46 46M 58 46L 79 46M 72.931 40L 79 46L 72.931 52M 19 46C 19 49.313709 21.686291 52 25 52C 28.313709 52 31 49.313709 31 46C 31 42.686291 28.313709 40 25 40C 21.686291 40 19 42.686291 19 46M 46 46C 46 49.313709 48.686291 52 52 52C 55.313709 52 58 49.313709 58 46C 58 42.686291 55.313709 40 52 40C 48.686291 40 46 42.686291 46 46M 52 40L 52 29.5M 25 62.5L 25 52M 43 11.5L 61 11.5C 61 11.5 64 11.5 64 14.5L 64 26.5C 64 26.5 64 29.5 61 29.5L 43 29.5C 43 29.5 40 29.5 40 26.5L 40 14.5C 40 14.5 40 11.5 43 11.5M 16 62.5L 34 62.5C 34 62.5 37 62.5 37 65.5L 37 77.5C 37 77.5 37 80.5 34 80.5L 16 80.5C 16 80.5 13 80.5 13 77.5L 13 65.5C 13 65.5 13 62.5 16 62.5"></path></g></g></g></g></g></svg>