<?xml version="1.0" encoding="utf-8" standalone="yes"?>
<!DOCTYPE svg PUBLIC "-//W3C//DTD SVG 1.1//EN" "http://www.w3.org/Graphics/SVG/1.1/DTD/svg11.dtd">
<svg width="776" height="374" viewBox="0 0 776 374" style="fill:none;stroke:none;fill-rule:evenodd;clip-rule:evenodd;stroke-linecap:round;stroke-linejoin:round;stroke-miterlimit:1.5;" version="1.1" xmlns="http://www.w3.org/2000/svg" xmlns:xlink="http://www.w3.org/1999/xlink"><style id="fontImports">@import url("https://fonts.googleapis.com/css2?family=Roboto:wght@400;700&amp;display=block");</style><g id="items" style="isolation: isolate"><g id="blend" style="mix-blend-mode:normal"><g id="g-root-re_1lr67iuogsyro-fill" data-item-order="999993088" transform="translate(255, 3)"><g id="re_1lr67iuogsyro-fill" stroke="none" fill="#e8f9ff"><g><path d="M 22 10L 142 10C 142 10 154 10 154 22L 154 46C 154 46 154 58 142 58L 22 58C 22 58 10 58 10 46L 10 22C 10 22 10 10 22 10"></path></g></g></g><g id="g-root-re_4ikbrqnwbfv0-fill" data-item-order="999993088" transform="translate(39, 123)"><g id="re_4ikbrqnwbfv0-fill" stroke="none" fill="#f4ffdc"><g><path d="M 22 10L 142 10C 142 10 154 10 154 22L 154 46C 154 46 154 58 142 58L 22 58C 22 58 10 58 10 46L 10 22C 10 22 10 10 22 10"></path></g></g></g><g id="g-root-re_8z0x46m8fc3x-fill" data-item-order="999994240" transform="translate(459, 135)"><g id="re_8z0x46m8fc3x-fill" stroke="none" fill="#f5f5f5"><g><path d="M 22 10L 118 10C 118 10 130 10 130 22L 130 46C 130 46 130 58 118 58L 22 58C 22 58 10 58 10 46L 10 22C 10 22 10 10 22 10"></path></g></g></g><g id="g-root-re_1hf30yepkhfyd-fill" data-item-order="999994816" transform="translate(273, 123)"><g id="re_1hf30yepkhfyd-fill" stroke="none" fill="#f5f5f5"><g><path d="M 22 10L 106 10C 106 10 118 10 118 22L 118 46C 118 46 118 58 106 58L 22 58C 22 58 10 58 10 46L 10 22C 10 22 10 10 22 10"></path></g></g></g><g id="g-root-re_vb4bkmpac93j-fill" data-item-order="999994816" transform="translate(123, 224)"><g id="re_vb4bkmpac93j-fill" stroke="none" fill="#e3fff2"><g><path d="M 22 10L 106 10C 106 10 118 10 118 22L 118 46C 118 46 118 58 106 58L 22 58C 22 58 10 58 10 46L 10 22C 10 22 10 10 22 10"></path></g></g></g><g id="g-root-re_18egknqoq8v7x-fill" data-item-order="999994816" transform="translate(3, 224)"><g id="re_18egknqoq8v7x-fill" stroke="none" fill="#e3fff2"><g><path d="M 22 10L 106 10C 106 10 118 10 118 22L 118 46C 118 46 118 58 106 58L 22 58C 22 58 10 58 10 46L 10 22C 10 22 10 10 22 10"></path></g></g></g><g id="g-root-re_m97s1yognbwi-fill" data-item-order="999995392" transform="translate(657, 303)"><g id="re_m97s1yognbwi-fill" stroke="none" fill="#f5f5f5"><g><path d="M 22 10L 94 10C 94 10 106 10 106 22L 106 46C 106 46 106 58 94 58L 22 58C 22 58 10 58 10 46L 10 22C 10 22 10 10 22 10"></path></g></g></g><g id="g-root-re_m97s1yognbwg-fill" data-item-order="999995392" transform="translate(555, 303)"><g id="re_m97s1yognbwg-fill" stroke="none" fill="#f5f5f5"><g><path d="M 22 10L 94 10C 94 10 106 10 106 22L 106 46C 106 46 106 58 94 58L 22 58C 22 58 10 58 10 46L 10 22C 10 22 10 10 22 10"></path></g></g></g><g id="g-root-re_qp22menmg3yg-fill" data-item-order="999995392" transform="translate(447, 303)"><g id="re_qp22menmg3yg-fill" stroke="none" fill="#f5f5f5"><g><path d="M 22 10L 94 10C 94 10 106 10 106 22L 106 46C 106 46 106 58 94 58L 22 58C 22 58 10 58 10 46L 10 22C 10 22 10 10 22 10"></path></g></g></g><g id="g-root-re_m9uls6nmsq9s-fill" data-item-order="999995392" transform="translate(339, 303)"><g id="re_m9uls6nmsq9s-fill" stroke="none" fill="#f5f5f5"><g><path d="M 22 10L 94 10C 94 10 106 10 106 22L 106 46C 106 46 106 58 94 58L 22 58C 22 58 10 58 10 46L 10 22C 10 22 10 10 22 10"></path></g></g></g><g id="g-root-re_vb3ctinmvke9-fill" data-item-order="999995392" transform="translate(231, 303)"><g id="re_vb3ctinmvke9-fill" stroke="none" fill="#f5f5f5"><g><path d="M 22 10L 94 10C 94 10 106 10 106 22L 106 46C 106 46 106 58 94 58L 22 58C 22 58 10 58 10 46L 10 22C 10 22 10 10 22 10"></path></g></g></g><g id="g-root-re_1ly0aeenwcwln-fill" data-item-order="999995392" transform="translate(603, 224)"><g id="re_1ly0aeenwcwln-fill" stroke="none" fill="#f5f5f5"><g><path d="M 22 10L 94 10C 94 10 106 10 106 22L 106 46C 106 46 106 58 94 58L 22 58C 22 58 10 58 10 46L 10 22C 10 22 10 10 22 10"></path></g></g></g><g id="g-root-re_qv9up2nmvken-fill" data-item-order="999995392" transform="translate(351, 224)"><g id="re_qv9up2nmvken-fill" stroke="none" fill="#f5f5f5"><g><path d="M 22 10L 94 10C 94 10 106 10 106 22L 106 46C 106 46 106 58 94 58L 22 58C 22 58 10 58 10 46L 10 22C 10 22 10 10 22 10"></path></g></g></g><g id="g-root-cn_4mazzap0gumf-fill" data-item-order="1000000000" transform="translate(519, 183)"></g><g id="g-root-cn_w6ueoqmxhl-fill" data-item-order="1000000000" transform="translate(399, 183)"></g><g id="g-root-tx_2585yoqh91d-fill" data-item-order="1000000000" transform="translate(15, 236)"><g id="tx_2585yoqh91d-fill" stroke="none" fill="#3cc583"><g><text style="font: 20px &quot;Roboto&quot;, sans-serif; white-space: pre;" font-size="20px" font-family="'Roboto', sans-serif"><tspan x="12.71" y="34" dominant-baseline="ideographic">Proyecto</tspan></text></g></g></g><g id="g-root-cn_1lpwdraoqfw1u-fill" data-item-order="1000000000" transform="translate(111, 171)"></g><g id="g-root-tx_1448adypk7myr-fill" data-item-order="1000000000" transform="translate(135, 236)"><g id="tx_1448adypk7myr-fill" stroke="none" fill="#3cc583"><g><text style="font: 20px &quot;Roboto&quot;, sans-serif; white-space: pre;" font-size="20px" font-family="'Roboto', sans-serif"><tspan x="12.71" y="34" dominant-baseline="ideographic">Proyecto</tspan></text></g></g></g><g id="g-root-cn_1qdu55yogrj7s-fill" data-item-order="1000000000" transform="translate(57, 171)"></g><g id="g-root-tx_vb3ctinmvke8-fill" data-item-order="1000000000" transform="translate(363, 236)"><g id="tx_vb3ctinmvke8-fill" stroke="none" fill="#969696"><g><text style="font: 15px &quot;Roboto&quot;, sans-serif; white-space: pre;" font-size="15px" font-family="'Roboto', sans-serif"><tspan x="13.18" y="31" dominant-baseline="ideographic">Programa</tspan></text></g></g></g><g id="g-root-tx_1hclqqum8dy4h-fill" data-item-order="1000000000" transform="translate(471, 147)"><g id="tx_1hclqqum8dy4h-fill" stroke="none" fill="#969696"><g><text style="font: 20px &quot;Roboto&quot;, sans-serif; white-space: pre;" font-size="20px" font-family="'Roboto', sans-serif"><tspan x="14" y="34" dominant-baseline="ideographic">Portafolio</tspan></text></g></g></g><g id="g-root-tx_m97s1yognbwj-fill" data-item-order="1000000000" transform="translate(669, 315)"><g id="tx_m97s1yognbwj-fill" stroke="none" fill="#969696"><g><text style="font: 15px &quot;Roboto&quot;, sans-serif; white-space: pre;" font-size="15px" font-family="'Roboto', sans-serif"><tspan x="16.52" y="31" dominant-baseline="ideographic">Proyecto</tspan></text></g></g></g><g id="g-root-cn_1cxe3mupklo90-fill" data-item-order="1000000000" transform="translate(279, 272)"></g><g id="g-root-cn_18k2uhypkr9xd-fill" data-item-order="1000000000" transform="translate(387, 272)"></g><g id="g-root-cn_1lt1q06pkn2fe-fill" data-item-order="1000000000" transform="translate(399, 272)"></g><g id="g-root-cn_18i6jmupumosn-fill" data-item-order="1000000000" transform="translate(603, 272)"></g><g id="g-root-cn_v9uo6epuju31-fill" data-item-order="1000000000" transform="translate(651, 272)"></g><g id="g-root-tx_1hbyx06pk7mdm-fill" data-item-order="1000000000" transform="translate(285, 135)"><g id="tx_1hbyx06pk7mdm-fill" stroke="none" fill="#969696"><g><text style="font: 20px &quot;Roboto&quot;, sans-serif; white-space: pre;" font-size="20px" font-family="'Roboto', sans-serif"><tspan x="12.71" y="34" dominant-baseline="ideographic">Proyecto</tspan></text></g></g></g><g id="g-root-tx_vb3ctinmvkea-fill" data-item-order="1000000000" transform="translate(243, 315)"><g id="tx_vb3ctinmvkea-fill" stroke="none" fill="#969696"><g><text style="font: 15px &quot;Roboto&quot;, sans-serif; white-space: pre;" font-size="15px" font-family="'Roboto', sans-serif"><tspan x="16.52" y="31" dominant-baseline="ideographic">Proyecto</tspan></text></g></g></g><g id="g-root-tx_13yma3ao6uozn-fill" data-item-order="1000000000" transform="translate(63, 135)"><g id="tx_13yma3ao6uozn-fill" stroke="none" fill="#92bd39"><g><text style="font: 20px &quot;Roboto&quot;, sans-serif; white-space: pre;" font-size="20px" font-family="'Roboto', sans-serif"><tspan x="14.26" y="34" dominant-baseline="ideographic">Programa</tspan></text></g></g></g><g id="g-root-tx_m9uls6nmsq9t-fill" data-item-order="1000000000" transform="translate(351, 315)"><g id="tx_m9uls6nmsq9t-fill" stroke="none" fill="#969696"><g><text style="font: 15px &quot;Roboto&quot;, sans-serif; white-space: pre;" font-size="15px" font-family="'Roboto', sans-serif"><tspan x="16.52" y="31" dominant-baseline="ideographic">Proyecto</tspan></text></g></g></g><g id="g-root-cn_i0a0vqoqei2q-fill" data-item-order="1000000000" transform="translate(327, 51)"></g><g id="g-root-tx_m98khynmg4qp-fill" data-item-order="1000000000" transform="translate(459, 315)"><g id="tx_m98khynmg4qp-fill" stroke="none" fill="#969696"><g><text style="font: 15px &quot;Roboto&quot;, sans-serif; white-space: pre;" font-size="15px" font-family="'Roboto', sans-serif"><tspan x="16.52" y="31" dominant-baseline="ideographic">Proyecto</tspan></text></g></g></g><g id="g-root-cn_dkgveemsfwuf-fill" data-item-order="1000000000" transform="translate(327, 51)"></g><g id="g-root-tx_m97s1yognbwh-fill" data-item-order="1000000000" transform="translate(567, 315)"><g id="tx_m97s1yognbwh-fill" stroke="none" fill="#969696"><g><text style="font: 15px &quot;Roboto&quot;, sans-serif; white-space: pre;" font-size="15px" font-family="'Roboto', sans-serif"><tspan x="16.52" y="31" dominant-baseline="ideographic">Proyecto</tspan></text></g></g></g><g id="g-root-cn_1hdtgo6ogq51e-fill" data-item-order="1000000000" transform="translate(111, 51)"></g><g id="g-root-tx_1cxdnrqoqfv9m-fill" data-item-order="1000000000" transform="translate(279, 15)"><g id="tx_1cxdnrqoqfv9m-fill" stroke="none" fill="#1eabda"><g><text style="font: bold 20px &quot;Roboto&quot;, sans-serif; white-space: pre;" font-weight="bold" font-size="20px" font-family="'Roboto', sans-serif"><tspan x="13.13" y="34" dominant-baseline="ideographic">Portafolio</tspan></text></g></g></g><g id="g-root-tx_dg3msnqeg8av-fill" data-item-order="1000000000" transform="translate(615, 236)"><g id="tx_dg3msnqeg8av-fill" stroke="none" fill="#969696"><g><text style="font: 15px &quot;Roboto&quot;, sans-serif; white-space: pre;" font-size="15px" font-family="'Roboto', sans-serif"><tspan x="13.18" y="31" dominant-baseline="ideographic">Programa</tspan></text></g></g></g><g id="g-root-re_1lr67iuogsyro-stroke" data-item-order="999993088" transform="translate(255, 3)"><g id="re_1lr67iuogsyro-stroke" fill="none" stroke-linecap="round" stroke-linejoin="round" stroke-miterlimit="4" stroke="#1eabda" stroke-width="2"><g><path d="M 22 10L 142 10C 142 10 154 10 154 22L 154 46C 154 46 154 58 142 58L 22 58C 22 58 10 58 10 46L 10 22C 10 22 10 10 22 10"></path></g></g></g><g id="g-root-re_4ikbrqnwbfv0-stroke" data-item-order="999993088" transform="translate(39, 123)"><g id="re_4ikbrqnwbfv0-stroke" fill="none" stroke-linecap="round" stroke-linejoin="round" stroke-miterlimit="4" stroke="#92bd39" stroke-width="2"><g><path d="M 22 10L 142 10C 142 10 154 10 154 22L 154 46C 154 46 154 58 142 58L 22 58C 22 58 10 58 10 46L 10 22C 10 22 10 10 22 10"></path></g></g></g><g id="g-root-re_8z0x46m8fc3x-stroke" data-item-order="999994240" transform="translate(459, 135)"><g id="re_8z0x46m8fc3x-stroke" fill="none" stroke-linecap="round" stroke-linejoin="round" stroke-miterlimit="4" stroke="#969696" stroke-width="2"><g><path d="M 22 10L 118 10C 118 10 130 10 130 22L 130 46C 130 46 130 58 118 58L 22 58C 22 58 10 58 10 46L 10 22C 10 22 10 10 22 10"></path></g></g></g><g id="g-root-re_1hf30yepkhfyd-stroke" data-item-order="999994816" transform="translate(273, 123)"><g id="re_1hf30yepkhfyd-stroke" fill="none" stroke-linecap="round" stroke-linejoin="round" stroke-miterlimit="4" stroke="#969696" stroke-width="2"><g><path d="M 22 10L 106 10C 106 10 118 10 118 22L 118 46C 118 46 118 58 106 58L 22 58C 22 58 10 58 10 46L 10 22C 10 22 10 10 22 10"></path></g></g></g><g id="g-root-re_vb4bkmpac93j-stroke" data-item-order="999994816" transform="translate(123, 224)"><g id="re_vb4bkmpac93j-stroke" fill="none" stroke-linecap="round" stroke-linejoin="round" stroke-miterlimit="4" stroke="#3cc583" stroke-width="2"><g><path d="M 22 10L 106 10C 106 10 118 10 118 22L 118 46C 118 46 118 58 106 58L 22 58C 22 58 10 58 10 46L 10 22C 10 22 10 10 22 10"></path></g></g></g><g id="g-root-re_18egknqoq8v7x-stroke" data-item-order="999994816" transform="translate(3, 224)"><g id="re_18egknqoq8v7x-stroke" fill="none" stroke-linecap="round" stroke-linejoin="round" stroke-miterlimit="4" stroke="#3cc583" stroke-width="2"><g><path d="M 22 10L 106 10C 106 10 118 10 118 22L 118 46C 118 46 118 58 106 58L 22 58C 22 58 10 58 10 46L 10 22C 10 22 10 10 22 10"></path></g></g></g><g id="g-root-re_m97s1yognbwi-stroke" data-item-order="999995392" transform="translate(657, 303)"><g id="re_m97s1yognbwi-stroke" fill="none" stroke-linecap="round" stroke-linejoin="round" stroke-miterlimit="4" stroke="#969696" stroke-width="2"><g><path d="M 22 10L 94 10C 94 10 106 10 106 22L 106 46C 106 46 106 58 94 58L 22 58C 22 58 10 58 10 46L 10 22C 10 22 10 10 22 10"></path></g></g></g><g id="g-root-re_m97s1yognbwg-stroke" data-item-order="999995392" transform="translate(555, 303)"><g id="re_m97s1yognbwg-stroke" fill="none" stroke-linecap="round" stroke-linejoin="round" stroke-miterlimit="4" stroke="#969696" stroke-width="2"><g><path d="M 22 10L 94 10C 94 10 106 10 106 22L 106 46C 106 46 106 58 94 58L 22 58C 22 58 10 58 10 46L 10 22C 10 22 10 10 22 10"></path></g></g></g><g id="g-root-re_qp22menmg3yg-stroke" data-item-order="999995392" transform="translate(447, 303)"><g id="re_qp22menmg3yg-stroke" fill="none" stroke-linecap="round" stroke-linejoin="round" stroke-miterlimit="4" stroke="#969696" stroke-width="2"><g><path d="M 22 10L 94 10C 94 10 106 10 106 22L 106 46C 106 46 106 58 94 58L 22 58C 22 58 10 58 10 46L 10 22C 10 22 10 10 22 10"></path></g></g></g><g id="g-root-re_m9uls6nmsq9s-stroke" data-item-order="999995392" transform="translate(339, 303)"><g id="re_m9uls6nmsq9s-stroke" fill="none" stroke-linecap="round" stroke-linejoin="round" stroke-miterlimit="4" stroke="#969696" stroke-width="2"><g><path d="M 22 10L 94 10C 94 10 106 10 106 22L 106 46C 106 46 106 58 94 58L 22 58C 22 58 10 58 10 46L 10 22C 10 22 10 10 22 10"></path></g></g></g><g id="g-root-re_vb3ctinmvke9-stroke" data-item-order="999995392" transform="translate(231, 303)"><g id="re_vb3ctinmvke9-stroke" fill="none" stroke-linecap="round" stroke-linejoin="round" stroke-miterlimit="4" stroke="#969696" stroke-width="2"><g><path d="M 22 10L 94 10C 94 10 106 10 106 22L 106 46C 106 46 106 58 94 58L 22 58C 22 58 10 58 10 46L 10 22C 10 22 10 10 22 10"></path></g></g></g><g id="g-root-re_1ly0aeenwcwln-stroke" data-item-order="999995392" transform="translate(603, 224)"><g id="re_1ly0aeenwcwln-stroke" fill="none" stroke-linecap="round" stroke-linejoin="round" stroke-miterlimit="4" stroke="#969696" stroke-width="2"><g><path d="M 22 10L 94 10C 94 10 106 10 106 22L 106 46C 106 46 106 58 94 58L 22 58C 22 58 10 58 10 46L 10 22C 10 22 10 10 22 10"></path></g></g></g><g id="g-root-re_qv9up2nmvken-stroke" data-item-order="999995392" transform="translate(351, 224)"><g id="re_qv9up2nmvken-stroke" fill="none" stroke-linecap="round" stroke-linejoin="round" stroke-miterlimit="4" stroke="#969696" stroke-width="2"><g><path d="M 22 10L 94 10C 94 10 106 10 106 22L 106 46C 106 46 106 58 94 58L 22 58C 22 58 10 58 10 46L 10 22C 10 22 10 10 22 10"></path></g></g></g><g id="g-root-cn_4mazzap0gumf-stroke" data-item-order="1000000000" transform="translate(519, 183)"><g id="cn_4mazzap0gumf-stroke" fill="none" stroke-linecap="round" stroke-linejoin="round" stroke-miterlimit="4" stroke="#a3a3a3" stroke-width="2" stroke-dasharray="0.1, 6.0"><g><path d="M 10 10L 76 30.5L 142 51"></path></g></g></g><g id="g-root-cn_w6ueoqmxhl-stroke" data-item-order="1000000000" transform="translate(399, 183)"><g id="cn_w6ueoqmxhl-stroke" fill="none" stroke-linecap="round" stroke-linejoin="round" stroke-miterlimit="4" stroke="#a3a3a3" stroke-width="2" stroke-dasharray="0.1, 6.0"><g><path d="M 130 10L 70 30.5L 10 51"></path></g></g></g><g id="g-root-tx_2585yoqh91d-stroke" data-item-order="1000000000" transform="translate(15, 236)"></g><g id="g-root-cn_1lpwdraoqfw1u-stroke" data-item-order="1000000000" transform="translate(111, 171)"><g id="cn_1lpwdraoqfw1u-stroke" fill="none" stroke-linecap="round" stroke-linejoin="round" stroke-miterlimit="4" stroke="#a3a3a3" stroke-width="2"><g><path d="M 10 10L 43 36.5L 76 63"></path></g></g></g><g id="g-root-tx_1448adypk7myr-stroke" data-item-order="1000000000" transform="translate(135, 236)"></g><g id="g-root-cn_1qdu55yogrj7s-stroke" data-item-order="1000000000" transform="translate(57, 171)"><g id="cn_1qdu55yogrj7s-stroke" fill="none" stroke-linecap="round" stroke-linejoin="round" stroke-miterlimit="4" stroke="#a3a3a3" stroke-width="2"><g><path d="M 64 10L 37 36.5L 10 63"></path></g></g></g><g id="g-root-tx_vb3ctinmvke8-stroke" data-item-order="1000000000" transform="translate(363, 236)"></g><g id="g-root-tx_1hclqqum8dy4h-stroke" data-item-order="1000000000" transform="translate(471, 147)"></g><g id="g-root-tx_m97s1yognbwj-stroke" data-item-order="1000000000" transform="translate(669, 315)"></g><g id="g-root-cn_1cxe3mupklo90-stroke" data-item-order="1000000000" transform="translate(279, 272)"><g id="cn_1cxe3mupklo90-stroke" fill="none" stroke-linecap="round" stroke-linejoin="round" stroke-miterlimit="4" stroke="#a3a3a3" stroke-width="2" stroke-dasharray="0.1, 6.0"><g><path d="M 130 10L 70 25.5L 10 41"></path></g></g></g><g id="g-root-cn_18k2uhypkr9xd-stroke" data-item-order="1000000000" transform="translate(387, 272)"><g id="cn_18k2uhypkr9xd-stroke" fill="none" stroke-linecap="round" stroke-linejoin="round" stroke-miterlimit="4" stroke="#a3a3a3" stroke-width="2" stroke-dasharray="0.1, 6.0"><g><path d="M 10 41L 16 25.5L 22 10"></path></g></g></g><g id="g-root-cn_1lt1q06pkn2fe-stroke" data-item-order="1000000000" transform="translate(399, 272)"><g id="cn_1lt1q06pkn2fe-stroke" fill="none" stroke-linecap="round" stroke-linejoin="round" stroke-miterlimit="4" stroke="#a3a3a3" stroke-width="2" stroke-dasharray="0.1, 6.0"><g><path d="M 106 41L 58 25.5L 10 10"></path></g></g></g><g id="g-root-cn_18i6jmupumosn-stroke" data-item-order="1000000000" transform="translate(603, 272)"><g id="cn_18i6jmupumosn-stroke" fill="none" stroke-linecap="round" stroke-linejoin="round" stroke-miterlimit="4" stroke="#a3a3a3" stroke-width="2" stroke-dasharray="0.1, 6.0"><g><path d="M 10 41L 34 25.5L 58 10"></path></g></g></g><g id="g-root-cn_v9uo6epuju31-stroke" data-item-order="1000000000" transform="translate(651, 272)"><g id="cn_v9uo6epuju31-stroke" fill="none" stroke-linecap="round" stroke-linejoin="round" stroke-miterlimit="4" stroke="#a3a3a3" stroke-width="2" stroke-dasharray="0.1, 6.0"><g><path d="M 64 41L 37 25.5L 10 10"></path></g></g></g><g id="g-root-tx_1hbyx06pk7mdm-stroke" data-item-order="1000000000" transform="translate(285, 135)"></g><g id="g-root-tx_vb3ctinmvkea-stroke" data-item-order="1000000000" transform="translate(243, 315)"></g><g id="g-root-tx_13yma3ao6uozn-stroke" data-item-order="1000000000" transform="translate(63, 135)"></g><g id="g-root-tx_m9uls6nmsq9t-stroke" data-item-order="1000000000" transform="translate(351, 315)"></g><g id="g-root-cn_i0a0vqoqei2q-stroke" data-item-order="1000000000" transform="translate(327, 51)"><g id="cn_i0a0vqoqei2q-stroke" fill="none" stroke-linecap="round" stroke-linejoin="round" stroke-miterlimit="4" stroke="#a3a3a3" stroke-width="2"><g><path d="M 10 82L 10 46L 10 10"></path></g></g></g><g id="g-root-tx_m98khynmg4qp-stroke" data-item-order="1000000000" transform="translate(459, 315)"></g><g id="g-root-cn_dkgveemsfwuf-stroke" data-item-order="1000000000" transform="translate(327, 51)"><g id="cn_dkgveemsfwuf-stroke" fill="none" stroke-linecap="round" stroke-linejoin="round" stroke-miterlimit="4" stroke="#a3a3a3" stroke-width="2"><g><path d="M 202 94L 106 52L 10 10"></path></g></g></g><g id="g-root-tx_m97s1yognbwh-stroke" data-item-order="1000000000" transform="translate(567, 315)"></g><g id="g-root-cn_1hdtgo6ogq51e-stroke" data-item-order="1000000000" transform="translate(111, 51)"><g id="cn_1hdtgo6ogq51e-stroke" fill="none" stroke-linecap="round" stroke-linejoin="round" stroke-miterlimit="4" stroke="#a3a3a3" stroke-width="2"><g><path d="M 226 10L 118 46L 10 82"></path></g></g></g><g id="g-root-tx_1cxdnrqoqfv9m-stroke" data-item-order="1000000000" transform="translate(279, 15)"></g><g id="g-root-tx_dg3msnqeg8av-stroke" data-item-order="1000000000" transform="translate(615, 236)"></g></g></g></svg>