<?xml version="1.0" encoding="utf-8" standalone="yes"?>
<!DOCTYPE svg PUBLIC "-//W3C//DTD SVG 1.1//EN" "http://www.w3.org/Graphics/SVG/1.1/DTD/svg11.dtd">
<svg width="602" height="470" viewBox="0 0 602 470" style="fill:none;stroke:none;fill-rule:evenodd;clip-rule:evenodd;stroke-linecap:round;stroke-linejoin:round;stroke-miterlimit:1.5;" version="1.1" xmlns="http://www.w3.org/2000/svg" xmlns:xlink="http://www.w3.org/1999/xlink"><style id="fontImports">@import url("https://fonts.googleapis.com/css2?family=Roboto:wght@400;700&amp;display=block");</style><g id="items" style="isolation: isolate"><g id="blend" style="mix-blend-mode:normal"><g id="g-root-4.cu_sy_qssqo7o6du6d-fill" data-item-order="-92729" transform="translate(122.95700073242188, 279.75)"></g><g id="g-root-3.Exclude_sy_hx5qfbo6duz2-fill" data-item-order="-92726" transform="translate(244.055908203125, 293)"><g id="3.Exclude_sy_hx5qfbo6duz2-fill" stroke="none" fill="#f5f5f5"><g><path d="M 56.944107 10C 49.471107 10 43.195107 15.122 41.436107 22.047L 10.134107 124.12C 9.542107 126.049 10.984107 128 13.002107 128L 100.886107 128C 102.903107 128 104.346107 126.049 103.754107 124.12L 72.454107 22.054C 70.696107 15.126 64.419107 10 56.944107 10ZM 56.944107 33C 60.810107 33 63.944107 29.866 63.944107 26C 63.944107 22.134 60.810107 19 56.944107 19C 53.078107 19 49.944107 22.134 49.944107 26C 49.944107 29.866 53.078107 33 56.944107 33Z"></path></g></g></g><g id="g-root-2.right-bucket_sy_dhc8avo6dvrb-fill" data-item-order="-92722" transform="translate(339, 243)"><g id="2.right-bucket_sy_dhc8avo6dvrb-fill" stroke="none" fill="#e3fff2"><g><path d="M 11.081 15.729C 10.338 14.904 10 13.826 10 12.716L 10 12.716C 10 11.216 11.216 10 12.716 10L 235.284 10C 236.784 10 238 11.216 238 12.716L 238 12.716C 238 13.826 237.662 14.904 236.919 15.729C 231.551 21.692 204.717 46 124 46C 43.283 46 16.449 21.692 11.081 15.729Z"></path></g></g></g><g id="g-root-1.left-bucket_sy_91iq6fo6dwjk-fill" data-item-order="-92718" transform="translate(15, 243)"><g id="1.left-bucket_sy_91iq6fo6dwjk-fill" stroke="none" fill="#e8f9ff"><g><path d="M 11.0812 15.729C 10.3384 14.904 10 13.826 10 12.716L 10 12.716C 10 11.216 11.2158 10 12.7157 10L 235.284 10C 236.784 10 238 11.216 238 12.716L 238 12.716C 238 13.826 237.662 14.904 236.919 15.729C 231.551 21.692 204.717 46 124 46C 43.2826 46 16.4488 21.692 11.0812 15.729Z"></path></g></g></g><g id="g-root-on_qs6cqvo6ci6j-fill" data-item-order="0" transform="translate(27, 39)"></g><g id="g-root-tx_ideaavia_v8mf47o6up6q-fill" data-item-order="0" transform="translate(87, 39)"><g id="tx_ideaavia_v8mf47o6up6q-fill" stroke="none" fill="#484848"><g><text style="font: 20px &quot;Roboto&quot;, sans-serif; white-space: pre;" font-size="20px" font-family="'Roboto', sans-serif"><tspan x="12" y="34" dominant-baseline="ideographic">Idea o necesidad</tspan><tspan x="12" y="58" dominant-baseline="ideographic">viable</tspan></text></g></g></g><g id="g-root-1_1hf3gnbo6up73-fill" data-item-order="0" transform="translate(351, 39)"></g><g id="g-root-tx_mantenim_1ursx6vo6upsd-fill" data-item-order="0" transform="translate(411, 39)"><g id="tx_mantenim_1ursx6vo6upsd-fill" stroke="none" fill="#484848"><g><text style="font: 20px &quot;Roboto&quot;, sans-serif; white-space: pre;" font-size="20px" font-family="'Roboto', sans-serif"><tspan x="12" y="34" dominant-baseline="ideographic">Mantenimiento </tspan><tspan x="12" y="58" dominant-baseline="ideographic">operativo</tspan></text></g></g></g><g id="g-root-pin_959kp3o6ryfc-fill" data-item-order="0" transform="translate(27, 111)"></g><g id="g-root-tx_requiere_18jggefo6uqrl-fill" data-item-order="0" transform="translate(87, 99)"><g id="tx_requiere_18jggefo6uqrl-fill" stroke="none" fill="#484848"><g><text style="font: 20px &quot;Roboto&quot;, sans-serif; white-space: pre;" font-size="20px" font-family="'Roboto', sans-serif"><tspan x="12" y="34" dominant-baseline="ideographic">Requiere </tspan><tspan x="12" y="58" dominant-baseline="ideographic">planificación </tspan><tspan x="12" y="82" dominant-baseline="ideographic">estratégica</tspan></text></g></g></g><g id="g-root-2_1upxhxjo69mh3-fill" data-item-order="0" transform="translate(351, 111)"></g><g id="g-root-tx_usaproce_91iwhzo6urkc-fill" data-item-order="0" transform="translate(411, 111)"><g id="tx_usaproce_91iwhzo6urkc-fill" stroke="none" fill="#484848"><g><text style="font: 20px &quot;Roboto&quot;, sans-serif; white-space: pre;" font-size="20px" font-family="'Roboto', sans-serif"><tspan x="12" y="34" dominant-baseline="ideographic">Usa procesos </tspan><tspan x="12" y="58" dominant-baseline="ideographic">definidos</tspan></text></g></g></g><g id="g-root-hand_v64cg7o6makp-fill" data-item-order="0" transform="translate(27, 183)"></g><g id="g-root-tx_naturale_1luwyrro6up6o-fill" data-item-order="0" transform="translate(87, 183)"><g id="tx_naturale_1luwyrro6up6o-fill" stroke="none" fill="#484848"><g><text style="font: 20px &quot;Roboto&quot;, sans-serif; white-space: pre;" font-size="20px" font-family="'Roboto', sans-serif"><tspan x="12" y="34" dominant-baseline="ideographic">Naturaleza </tspan><tspan x="12" y="58" dominant-baseline="ideographic">temporal</tspan></text></g></g></g><g id="g-root-wate_8x5hqfo6p3pr-fill" data-item-order="0" transform="translate(351, 183)"></g><g id="g-root-tx_naturale_mczevbo6upzf-fill" data-item-order="0" transform="translate(411, 183)"><g id="tx_naturale_mczevbo6upzf-fill" stroke="none" fill="#484848"><g><text style="font: 20px &quot;Roboto&quot;, sans-serif; white-space: pre;" font-size="20px" font-family="'Roboto', sans-serif"><tspan x="12" y="34" dominant-baseline="ideographic">Naturaleza </tspan><tspan x="12" y="58" dominant-baseline="ideographic">continua</tspan></text></g></g></g><g id="g-root-tx_proyecto_1qbzf2fo6uqkm-fill" data-item-order="0" transform="translate(81, 351)"><g id="tx_proyecto_1qbzf2fo6uqkm-fill" stroke="none" fill="#484848"><g><text style="font: 20px &quot;Roboto&quot;, sans-serif; white-space: pre;" font-size="20px" font-family="'Roboto', sans-serif"><tspan x="13.55" y="34" dominant-baseline="ideographic">Proyectos</tspan></text></g></g></g><g id="g-root-tx_operacio_1d15ds7o6uozr-fill" data-item-order="0" transform="translate(405, 351)"><g id="tx_operacio_1d15ds7o6uozr-fill" stroke="none" fill="#484848"><g><text style="font: 20px &quot;Roboto&quot;, sans-serif; white-space: pre;" font-size="20px" font-family="'Roboto', sans-serif"><tspan x="12.71" y="34" dominant-baseline="ideographic">Operación</tspan></text></g></g></g><g id="g-root-4.cu_sy_qssqo7o6du6d-stroke" data-item-order="-92729" transform="translate(122.95700073242188, 279.75)"><g id="4.cu_sy_qssqo7o6du6d-stroke" fill="none" stroke-linecap="round" stroke-linejoin="round" stroke-miterlimit="4" stroke="#969696" stroke-width="2"><g><path d="M 340.042999 45.25C 343.356999 45.25 346.042999 42.564 346.042999 39.25C 346.042999 35.936 343.356999 33.25 340.042999 33.25C 336.728999 33.25 334.042999 35.936 334.042999 39.25C 334.042999 42.564 336.728999 45.25 340.042999 45.25ZM 16.021999 45.25C 19.346999 45.25 22.042999 42.564 22.042999 39.25C 22.042999 35.936 19.346999 33.25 16.021999 33.25C 12.695999 33.25 9.999999 35.936 9.999999 39.25C 9.999999 42.564 12.695999 45.25 16.021999 45.25ZM 340.042999 33.25L 340.042999 10M 16.042999 10.25L 16.042999 33.25M 334.057999 39.275L 195.042999 39.275M 161.042999 39.275L 22.042999 39.275"></path></g></g></g><g id="g-root-3.Exclude_sy_hx5qfbo6duz2-stroke" data-item-order="-92726" transform="translate(244.055908203125, 293)"><g id="3.Exclude_sy_hx5qfbo6duz2-stroke" fill="none" stroke-linecap="round" stroke-linejoin="round" stroke-miterlimit="4" stroke="#969696" stroke-width="2"><g><path d="M 56.944107 10C 49.471107 10 43.195107 15.122 41.436107 22.047L 10.134107 124.12C 9.542107 126.049 10.984107 128 13.002107 128L 100.886107 128C 102.903107 128 104.346107 126.049 103.754107 124.12L 72.454107 22.054C 70.696107 15.126 64.419107 10 56.944107 10ZM 56.944107 33C 60.810107 33 63.944107 29.866 63.944107 26C 63.944107 22.134 60.810107 19 56.944107 19C 53.078107 19 49.944107 22.134 49.944107 26C 49.944107 29.866 53.078107 33 56.944107 33Z"></path></g></g></g><g id="g-root-2.right-bucket_sy_dhc8avo6dvrb-stroke" data-item-order="-92722" transform="translate(339, 243)"><g id="2.right-bucket_sy_dhc8avo6dvrb-stroke" fill="none" stroke-linecap="round" stroke-linejoin="round" stroke-miterlimit="4" stroke="#3cc583" stroke-width="2"><g><path d="M 11.081 15.729C 10.338 14.904 10 13.826 10 12.716L 10 12.716C 10 11.216 11.216 10 12.716 10L 235.284 10C 236.784 10 238 11.216 238 12.716L 238 12.716C 238 13.826 237.662 14.904 236.919 15.729C 231.551 21.692 204.717 46 124 46C 43.283 46 16.449 21.692 11.081 15.729Z"></path></g></g></g><g id="g-root-1.left-bucket_sy_91iq6fo6dwjk-stroke" data-item-order="-92718" transform="translate(15, 243)"><g id="1.left-bucket_sy_91iq6fo6dwjk-stroke" fill="none" stroke-linecap="round" stroke-linejoin="round" stroke-miterlimit="4" stroke="#1eabda" stroke-width="2"><g><path d="M 11.0812 15.729C 10.3384 14.904 10 13.826 10 12.716L 10 12.716C 10 11.216 11.2158 10 12.7157 10L 235.284 10C 236.784 10 238 11.216 238 12.716L 238 12.716C 238 13.826 237.662 14.904 236.919 15.729C 231.551 21.692 204.717 46 124 46C 43.2826 46 16.4488 21.692 11.0812 15.729Z"></path></g></g></g><g id="g-root-on_qs6cqvo6ci6j-stroke" data-item-order="0" transform="translate(27, 39)"><g id="on_qs6cqvo6ci6j-stroke" fill="none" stroke-linecap="round" stroke-linejoin="round" stroke-miterlimit="4" stroke="#484848" stroke-width="2"><g><path d="M 46 37.428574C 46.022171 31.506199 41.720341 26.453302 35.870296 25.530289C 30.020248 24.607275 24.371649 28.090206 22.569283 33.731705C 20.766918 39.373199 23.34985 45.48597 28.651428 48.125717L 28.651428 54.022858C 28.670025 54.747917 29.263273 55.325954 29.988571 55.325714L 38.011429 55.325714C 38.736725 55.325954 39.329975 54.747917 39.348572 54.022858L 39.348572 48.022858C 43.376583 46.017712 45.944405 41.927727 46 37.428574ZM 34 12.777143L 34 17.92M 47.714287 17.68L 44.079998 21.348572M 55.531429 28.308573L 50.388573 28.308573M 20.285715 17.68L 23.92 21.348572M 12.468572 28.308573L 17.611429 28.308573"></path></g></g></g><g id="g-root-tx_ideaavia_v8mf47o6up6q-stroke" data-item-order="0" transform="translate(87, 39)"></g><g id="g-root-1_1hf3gnbo6up73-stroke" data-item-order="0" transform="translate(351, 39)"><g id="1_1hf3gnbo6up73-stroke" fill="none" stroke-linecap="round" stroke-linejoin="round" stroke-miterlimit="4" stroke="#484848" stroke-width="2"><g><path d="M 11 41.001999L 11 57.001999M 41 55C 41 51.686295 38.313709 49 35 49L 27.5 49C 27.5 45.686291 24.813709 43 21.5 43L 11 43L 11 55ZM 21.5 49.001999L 29 49.001999M 42.625999 23.939999C 42.626003 25.527267 43.912735 26.814001 45.5 26.814001C 47.087269 26.814001 48.374001 25.527267 48.374001 23.940001C 48.374001 22.352734 47.087269 21.066002 45.5 21.066002C 43.912735 21.066002 42.626003 22.352734 42.626003 23.940001ZM 47.942001 12.818L 48.799999 15.6C 49.09008 16.55814 50.071972 17.128578 51.048 16.906L 53.872002 16.25C 54.969875 16.002541 56.100872 16.499344 56.661358 17.475264C 57.221848 18.451183 57.081005 19.678429 56.313999 20.501999L 54.338001 22.632C 53.661919 23.366814 53.661919 24.497185 54.337997 25.231998L 56.313999 27.362C 57.081005 28.185572 57.221848 29.412817 56.661358 30.388737C 56.100872 31.364655 54.969875 31.861462 53.872002 31.614L 51.048 30.959999C 50.071651 30.735332 49.088425 31.306551 48.799999 32.265999L 47.952 35.049999C 47.627914 36.127846 46.635513 36.865742 45.509998 36.865742C 44.384487 36.865742 43.392086 36.127846 43.068001 35.049999L 42.220001 32.265999C 41.93158 31.306551 40.948349 30.735332 39.972 30.960001L 37.148003 31.614C 36.050125 31.861462 34.919128 31.364655 34.358643 30.388737C 33.798157 29.412817 33.938995 28.185572 34.706001 27.362L 36.681999 25.232C 37.358078 24.497185 37.358078 23.366814 36.681999 22.632L 34.706001 20.501999C 33.938995 19.678429 33.798157 18.451183 34.358643 17.475264C 34.919128 16.499344 36.050125 16.002541 37.148003 16.25L 39.972 16.906C 40.94471 17.122675 41.920132 16.553459 42.209999 15.6L 43.057999 12.816C 43.382526 11.738288 44.375229 11.000797 45.500744 11.001258C 46.626255 11.001719 47.618355 11.740023 47.942001 12.818Z"></path></g></g></g><g id="g-root-tx_mantenim_1ursx6vo6upsd-stroke" data-item-order="0" transform="translate(411, 39)"></g><g id="g-root-pin_959kp3o6ryfc-stroke" data-item-order="0" transform="translate(27, 111)"><g id="pin_959kp3o6ryfc-stroke" fill="none" stroke-linecap="round" stroke-linejoin="round" stroke-miterlimit="4" stroke="#484848" stroke-width="2"><g><path d="M 49.428574 27.142857C 49.428574 35.68 34 56.285713 34 56.285713C 34 56.285713 18.571428 35.68 18.571428 27.142857C 18.571428 18.621893 25.479034 11.714286 34 11.714286C 42.520966 11.714286 49.428574 18.621893 49.428574 27.142857ZM 28.857143 27.142857C 28.857143 29.983179 31.159679 32.285713 34 32.285713C 36.840321 32.285713 39.142857 29.983179 39.142857 27.142857C 39.142857 24.302536 36.840321 22 34 22C 31.159679 22 28.857143 24.302536 28.857143 27.142857"></path></g></g></g><g id="g-root-tx_requiere_18jggefo6uqrl-stroke" data-item-order="0" transform="translate(87, 99)"></g><g id="g-root-2_1upxhxjo69mh3-stroke" data-item-order="0" transform="translate(351, 111)"><g id="2_1upxhxjo69mh3-stroke" fill="none" stroke-linecap="round" stroke-linejoin="round" stroke-miterlimit="4" stroke="#484848" stroke-width="2"><g><path d="M 11.5 51.537998C 11.5 54.299423 13.738576 56.538002 16.5 56.538002L 51.5 56.537998C 54.261425 56.538002 56.5 54.299423 56.5 51.538002C 56.5 48.776577 54.261425 46.538002 51.5 46.538002L 16.5 46.537998C 13.738576 46.538002 11.5 48.776577 11.5 51.538002ZM 49.679996 46.540001L 38.171997 46.540001L 38.171997 36.304001L 49.679996 36.304001ZM 48 51.537998C 48 52.090286 48.447716 52.537998 49 52.537998C 49.552284 52.537998 50 52.090286 50 51.537998C 50 50.985714 49.552284 50.537998 49 50.537998C 48.447716 50.537998 48 50.985714 48 51.537998M 38 51.537998C 38 52.090286 38.447716 52.537998 39 52.537998C 39.552284 52.537998 40 52.090286 40 51.537998C 40 50.985714 39.552284 50.537998 39 50.537998C 38.447716 50.537998 38 50.985714 38 51.537998M 27.916 51.537998C 27.916 52.090286 28.363716 52.537998 28.916 52.537998C 29.468285 52.537998 29.916 52.090286 29.916 51.537998C 29.916 50.985714 29.468285 50.537998 28.916 50.537998C 28.363716 50.537998 27.916 50.985714 27.916 51.537998M 17.916 51.537998C 17.916 52.090286 18.363716 52.537998 18.916 52.537998C 19.468285 52.537998 19.916 52.090286 19.916 51.537998C 19.916 50.985714 19.468285 50.537998 18.916 50.537998C 18.363716 50.537998 17.916 50.985714 17.916 51.537998M 43.925999 40.388L 43.925999 36.302002M 28.916 46.540001L 17.408001 46.540001L 17.408001 36.304001L 28.916 36.304001ZM 23.161999 40.388L 23.161999 36.302002M 13.456 21.439999L 23.436001 11.462L 23.436001 17.948L 51.952 17.948L 51.952 25.262001L 23.436001 25.262001L 23.436001 31.42L 13.456 21.439999Z"></path></g></g></g><g id="g-root-tx_usaproce_91iwhzo6urkc-stroke" data-item-order="0" transform="translate(411, 111)"></g><g id="g-root-hand_v64cg7o6makp-stroke" data-item-order="0" transform="translate(27, 183)"><g id="hand_v64cg7o6makp-stroke" fill="none" stroke-linecap="round" stroke-linejoin="round" stroke-miterlimit="4" stroke="#484848" stroke-width="2"><g><path d="M 29.002001 25.001999C 29.002001 32.733986 35.270016 39.001999 43.002003 39.001999C 50.73399 39.001999 57.002003 32.733986 57.002003 25.002001C 57.002003 17.270014 50.73399 11.002001 43.002003 11.002001C 35.270016 11.002001 29.002001 17.270014 29.002001 25.002001ZM 43.001999 17L 43.001999 25.001999L 49 25M 11 57L 11 37M 11 41L 25 41C 28.313709 41 31 43.686291 31 47L 43 47C 46.313709 47 49 49.686291 49 53L 11 53ZM 31 47L 25 47"></path></g></g></g><g id="g-root-tx_naturale_1luwyrro6up6o-stroke" data-item-order="0" transform="translate(87, 183)"></g><g id="g-root-wate_8x5hqfo6p3pr-stroke" data-item-order="0" transform="translate(351, 183)"><g id="wate_8x5hqfo6p3pr-stroke" fill="none" stroke-linecap="round" stroke-linejoin="round" stroke-miterlimit="4" stroke="#484848" stroke-width="2"><g><path d="M 20.560001 46.966C 20.560001 53.509998 24.858 56.486 30.16 56.486C 35.461998 56.486 39.760002 53.509998 39.760002 46.966C 39.760002 40.419998 30.16 30.304001 30.16 30.304001C 30.16 30.304001 20.560001 40.419998 20.560001 46.964001ZM 39.760002 47.666C 45.416 47.666 50 44.492001 50 37.510002C 50 30.530001 39.760002 19.737999 39.760002 19.737999C 39.760002 19.737999 34.172001 25.630001 31.256001 31.530001M 23.004 39.844002C 19.993999 38.234001 18 35.143997 18 30.396C 18 22.98 28.879999 11.516 28.879999 11.516C 28.879999 11.516 33.975998 16.883999 37.192001 22.652"></path></g></g></g><g id="g-root-tx_naturale_mczevbo6upzf-stroke" data-item-order="0" transform="translate(411, 183)"></g><g id="g-root-tx_proyecto_1qbzf2fo6uqkm-stroke" data-item-order="0" transform="translate(81, 351)"></g><g id="g-root-tx_operacio_1d15ds7o6uozr-stroke" data-item-order="0" transform="translate(405, 351)"></g></g></g></svg>