<?xml version="1.0" encoding="utf-8" standalone="yes"?>
<!DOCTYPE svg PUBLIC "-//W3C//DTD SVG 1.1//EN" "http://www.w3.org/Graphics/SVG/1.1/DTD/svg11.dtd">
<svg width="1074" height="466" viewBox="0 0 1074 466" style="fill:none;stroke:none;fill-rule:evenodd;clip-rule:evenodd;stroke-linecap:round;stroke-linejoin:round;stroke-miterlimit:1.5;" version="1.1" xmlns="http://www.w3.org/2000/svg" xmlns:xlink="http://www.w3.org/1999/xlink"><style id="fontImports">@import url("https://fonts.googleapis.com/css2?family=Roboto:wght@400;700&amp;display=block");</style><g id="items" style="isolation: isolate"><g id="blend" style="mix-blend-mode:normal"><g id="g-root-ro_1qd7xmgn2iby9-fill" data-item-order="999985312" transform="translate(429, 167)"><g id="ro_1qd7xmgn2iby9-fill" stroke="none" fill="#e8f9ff"><g><path d="M 22 10L 202 10C 202 10 214 10 214 22L 214 70C 214 70 214 82 202 82L 22 82C 22 82 10 82 10 70L 10 22C 10 22 10 10 22 10"></path></g></g></g><g id="g-root-ro_18mke7sn2we89-fill" data-item-order="999987040" transform="translate(541, 295)"><g id="ro_18mke7sn2we89-fill" stroke="none" fill="#e8f9ff"><g><path d="M 22 10L 178 10C 178 10 190 10 190 22L 190 70C 190 70 190 82 178 82L 22 82C 22 82 10 82 10 70L 10 22C 10 22 10 10 22 10"></path></g></g></g><g id="g-root-ro_qof5rsn2qps8-fill" data-item-order="999987040" transform="translate(341, 295)"><g id="ro_qof5rsn2qps8-fill" stroke="none" fill="#e8f9ff"><g><path d="M 22 10L 178 10C 178 10 190 10 190 22L 190 70C 190 70 190 82 178 82L 22 82C 22 82 10 82 10 70L 10 22C 10 22 10 10 22 10"></path></g></g></g><g id="g-root-ro_zjflrsn2wd1g-fill" data-item-order="999989632" transform="translate(459, 39)"><g id="ro_zjflrsn2wd1g-fill" stroke="none" fill="#f5f5f5"><g><path d="M 22 10L 142 10C 142 10 154 10 154 22L 154 70C 154 70 154 82 142 82L 22 82C 22 82 10 82 10 70L 10 22C 10 22 10 10 22 10"></path></g></g></g><g id="g-root-tx_visinser_1qapi5lnwe9s5-fill" data-item-order="1000000000" transform="translate(111, 45)"><g id="tx_visinser_1qapi5lnwe9s5-fill" stroke="none" fill="#484848"><g><text style="font: 20px &quot;Roboto&quot;, sans-serif; white-space: pre;" font-size="20px" font-family="'Roboto', sans-serif"><tspan x="21.67" y="34" dominant-baseline="ideographic">Visión: Ser líder en sostenibilidad </tspan><tspan x="128.27" y="58" dominant-baseline="ideographic">y eficiencia operativa.</tspan></text></g></g></g><g id="g-root-tx_misinpro_407jdnckq31-fill" data-item-order="1000000000" transform="translate(645, 46)"><g id="tx_misinpro_407jdnckq31-fill" stroke="none" fill="#484848"><g><text style="font: 20px &quot;Roboto&quot;, sans-serif; white-space: pre;" font-size="20px" font-family="'Roboto', sans-serif"><tspan x="12" y="34" dominant-baseline="ideographic">Misión: Proveer una experiencia </tspan><tspan x="12" y="58" dominant-baseline="ideographic">gastronómica de calidad.</tspan></text></g></g></g><g id="g-root-tx_planific_4otru1p0cpab-fill" data-item-order="1000000000" transform="translate(735, 297)"><g id="tx_planific_4otru1p0cpab-fill" stroke="none" fill="#484848"><g><text style="font: 20px &quot;Roboto&quot;, sans-serif; white-space: pre;" font-size="20px" font-family="'Roboto', sans-serif"><tspan x="12" y="34" dominant-baseline="ideographic">Planificación Operativa: </tspan><tspan x="12" y="58" dominant-baseline="ideographic">Compra de hornos eficientes para </tspan><tspan x="12" y="82" dominant-baseline="ideographic">optimizar las operaciones diarias.</tspan></text></g></g></g><g id="g-root-tx_proyecto_zn6z3dpus9ou-fill" data-item-order="1000000000" transform="translate(19, 287)"><g id="tx_proyecto_zn6z3dpus9ou-fill" stroke="none" fill="#484848"><g><text style="font: 20px &quot;Roboto&quot;, sans-serif; white-space: pre;" font-size="20px" font-family="'Roboto', sans-serif"><tspan x="15.88" y="34" dominant-baseline="ideographic">Proyectos: Sistema automatizado </tspan><tspan x="47.5" y="58" dominant-baseline="ideographic">de pedidos en línea, que luego </tspan><tspan x="46.47" y="82" dominant-baseline="ideographic">se convierte en parte procesos</tspan><tspan x="130.6" y="106" dominant-baseline="ideographic">operativos eficientes.</tspan></text></g></g></g><g id="g-root-tx_strategi_dgpo2xoqliq1-fill" data-item-order="1000000000" transform="translate(645, 171)"><g id="tx_strategi_dgpo2xoqliq1-fill" stroke="none" fill="#484848"><g><text style="font: 20px &quot;Roboto&quot;, sans-serif; white-space: pre;" font-size="20px" font-family="'Roboto', sans-serif"><tspan x="12" y="34" dominant-baseline="ideographic">Estrategia: Reducir costos operativos en un </tspan><tspan x="12" y="58" dominant-baseline="ideographic">15%.</tspan></text></g></g></g><g id="g-root-cu_vxfcn2gwed-fill" data-item-order="1000000002" transform="translate(531, 111)"></g><g id="g-root-cu_1um6ha0n2gwzn-fill" data-item-order="1000000002" transform="translate(531, 239)"></g><g id="g-root-cu_vxfcn2gweg-fill" data-item-order="1000000002" transform="translate(431, 239)"></g><g id="g-root-tx_estrateg_93dw54n2i9s7-fill" data-item-order="2000000000" transform="translate(477, 179)"><g id="tx_estrateg_93dw54n2i9s7-fill" stroke="none" fill="#1eabda"><g><text style="font: 20px &quot;Roboto&quot;, sans-serif; white-space: pre;" font-size="20px" font-family="'Roboto', sans-serif"><tspan x="12" y="34" dominant-baseline="ideographic">Estrategia </tspan><tspan x="12" y="58" dominant-baseline="ideographic">Organizacional</tspan></text></g></g></g><g id="g-root-ches_1ut1fqwn2ib60-fill" data-item-order="2000000000" transform="translate(441, 188)"></g><g id="g-root-tx_planific_7qvw8n2wefb-fill" data-item-order="2000000000" transform="translate(589, 307)"><g id="tx_planific_7qvw8n2wefb-fill" stroke="none" fill="#1eabda"><g><text style="font: 20px &quot;Roboto&quot;, sans-serif; white-space: pre;" font-size="20px" font-family="'Roboto', sans-serif"><tspan x="12" y="34" dominant-baseline="ideographic">Planificación </tspan><tspan x="12" y="58" dominant-baseline="ideographic">Operativa</tspan></text></g></g></g><g id="g-root-stra_v3m6t4n2qs5r-fill" data-item-order="2000000000" transform="translate(353, 316)"></g><g id="g-root-tx_planific_1happfcn2qps6-fill" data-item-order="2000000000" transform="translate(389, 307)"><g id="tx_planific_1happfcn2qps6-fill" stroke="none" fill="#1eabda"><g><text style="font: 20px &quot;Roboto&quot;, sans-serif; white-space: pre;" font-size="20px" font-family="'Roboto', sans-serif"><tspan x="12" y="34" dominant-baseline="ideographic">Planificación </tspan><tspan x="12" y="58" dominant-baseline="ideographic">Estratégica</tspan></text></g></g></g><g id="g-root-tx_visinymi_1q5q5fcn2wd1e-fill" data-item-order="2000000000" transform="translate(507, 51)"><g id="tx_visinymi_1q5q5fcn2wd1e-fill" stroke="none" fill="#484848"><g><text style="font: 20px &quot;Roboto&quot;, sans-serif; white-space: pre;" font-size="20px" font-family="'Roboto', sans-serif"><tspan x="12" y="34" dominant-baseline="ideographic">Visión y </tspan><tspan x="12" y="58" dominant-baseline="ideographic">Misión</tspan></text></g></g></g><g id="g-root-cloc_1hi7egon2wdfk-fill" data-item-order="2000000000" transform="translate(553, 316)"></g><g id="g-root-arro_13z93w8n2wc97-fill" data-item-order="2000000000" transform="translate(471, 60)"></g><g id="g-root-ro_1qd7xmgn2iby9-stroke" data-item-order="999985312" transform="translate(429, 167)"><g id="ro_1qd7xmgn2iby9-stroke" fill="none" stroke-linecap="round" stroke-linejoin="round" stroke-miterlimit="4" stroke="#1eabda" stroke-width="2"><g><path d="M 22 10L 202 10C 202 10 214 10 214 22L 214 70C 214 70 214 82 202 82L 22 82C 22 82 10 82 10 70L 10 22C 10 22 10 10 22 10"></path></g></g></g><g id="g-root-ro_18mke7sn2we89-stroke" data-item-order="999987040" transform="translate(541, 295)"><g id="ro_18mke7sn2we89-stroke" fill="none" stroke-linecap="round" stroke-linejoin="round" stroke-miterlimit="4" stroke="#1eabda" stroke-width="2"><g><path d="M 22 10L 178 10C 178 10 190 10 190 22L 190 70C 190 70 190 82 178 82L 22 82C 22 82 10 82 10 70L 10 22C 10 22 10 10 22 10"></path></g></g></g><g id="g-root-ro_qof5rsn2qps8-stroke" data-item-order="999987040" transform="translate(341, 295)"><g id="ro_qof5rsn2qps8-stroke" fill="none" stroke-linecap="round" stroke-linejoin="round" stroke-miterlimit="4" stroke="#1eabda" stroke-width="2"><g><path d="M 22 10L 178 10C 178 10 190 10 190 22L 190 70C 190 70 190 82 178 82L 22 82C 22 82 10 82 10 70L 10 22C 10 22 10 10 22 10"></path></g></g></g><g id="g-root-ro_zjflrsn2wd1g-stroke" data-item-order="999989632" transform="translate(459, 39)"><g id="ro_zjflrsn2wd1g-stroke" fill="none" stroke-linecap="round" stroke-linejoin="round" stroke-miterlimit="4" stroke="#484848" stroke-width="2"><g><path d="M 22 10L 142 10C 142 10 154 10 154 22L 154 70C 154 70 154 82 142 82L 22 82C 22 82 10 82 10 70L 10 22C 10 22 10 10 22 10"></path></g></g></g><g id="g-root-tx_visinser_1qapi5lnwe9s5-stroke" data-item-order="1000000000" transform="translate(111, 45)"></g><g id="g-root-tx_misinpro_407jdnckq31-stroke" data-item-order="1000000000" transform="translate(645, 46)"></g><g id="g-root-tx_planific_4otru1p0cpab-stroke" data-item-order="1000000000" transform="translate(735, 297)"></g><g id="g-root-tx_proyecto_zn6z3dpus9ou-stroke" data-item-order="1000000000" transform="translate(19, 287)"></g><g id="g-root-tx_strategi_dgpo2xoqliq1-stroke" data-item-order="1000000000" transform="translate(645, 171)"></g><g id="g-root-cu_vxfcn2gwed-stroke" data-item-order="1000000002" transform="translate(531, 111)"><g id="cu_vxfcn2gwed-stroke" fill="none" stroke-linecap="round" stroke-linejoin="round" stroke-miterlimit="4" stroke="#484848" stroke-width="2"><g><path d="M 10 10L 10 38L 10 64"></path><path d="M 3.5 58L 10 64.5L 16.5 58" stroke-dasharray="none"></path></g></g></g><g id="g-root-cu_1um6ha0n2gwzn-stroke" data-item-order="1000000002" transform="translate(531, 239)"><g id="cu_1um6ha0n2gwzn-stroke" fill="none" stroke-linecap="round" stroke-linejoin="round" stroke-miterlimit="4" stroke="#484848" stroke-width="2"><g><path d="M 10 10L 10 24L 10 38L 60 38L 110 38L 110 52L 110 64"></path><path d="M 103.5 58L 110 64.5L 116.5 58" stroke-dasharray="none"></path></g></g></g><g id="g-root-cu_vxfcn2gweg-stroke" data-item-order="1000000002" transform="translate(431, 239)"><g id="cu_vxfcn2gweg-stroke" fill="none" stroke-linecap="round" stroke-linejoin="round" stroke-miterlimit="4" stroke="#484848" stroke-width="2"><g><path d="M 110 10L 110 24L 110 38L 60 38L 10 38L 10 52L 10 64"></path><path d="M 3.5 58L 10 64.5L 16.5 58" stroke-dasharray="none"></path></g></g></g><g id="g-root-tx_estrateg_93dw54n2i9s7-stroke" data-item-order="2000000000" transform="translate(477, 179)"></g><g id="g-root-ches_1ut1fqwn2ib60-stroke" data-item-order="2000000000" transform="translate(441, 188)"><g id="ches_1ut1fqwn2ib60-stroke" fill="none" stroke-linecap="round" stroke-linejoin="round" stroke-miterlimit="4" stroke="#1eabda" stroke-width="2"><g><path d="M 16.25 29.10125L 14.5225 29.10125C 14.049168 29.101503 13.616579 29.369089 13.405 29.7925L 10.625 35.35125L 39.375 35.35125L 36.594997 29.7925C 36.383423 29.369089 35.950832 29.101503 35.477501 29.10125L 32.5 29.10125M 10.625 35.35125L 11.01375 36.904999C 11.153074 37.461163 11.652901 37.851234 12.22625 37.85125L 37.77375 37.85125C 38.347099 37.851234 38.846928 37.461163 38.986248 36.904999L 39.375 35.35125M 20.625 29.10125C 20.476936 26.665745 21.13595 24.249361 22.5 22.22625C 23.085571 21.563026 23.711775 20.936819 24.375 20.35125L 19.375 20.35125C 18.535 20.35125 18.38625 19.901251 18.125 19.10125C 18.063374 18.596874 18.309523 18.104576 18.75 17.85125L 23.125 14.72625L 23.125 12.14875C 23.125 12.14875 25.625 13.47625 26.875 14.10125C 29.637501 15.4825 29.432499 16.6675 29.3825 18.10125C 29.373726 18.349752 29.291035 18.589993 29.145 18.79125L 26.25 22.77375C 28.098114 24.378456 29.224092 26.658337 29.375 29.10125M 31.099998 32.103752C 31.137541 32.287659 31.090439 32.478703 30.97171 32.624084C 30.852983 32.769466 30.675201 32.85379 30.487499 32.853752L 19.512501 32.853752C 19.324799 32.85379 19.147018 32.769466 19.02829 32.624084C 18.909563 32.478703 18.862459 32.287659 18.9 32.103752L 19.375 29.72875C 19.545 29.21875 20.0875 29.10375 20.625 29.10375L 29.375 29.10375C 29.9125 29.10375 30.455 29.21875 30.625 29.72875ZM 34.6875 31.60125L 34.6875 31.60125C 34.860088 31.60125 35 31.741161 35 31.91375L 35 31.91375C 35 32.086338 34.860088 32.22625 34.6875 32.22625L 34.6875 32.22625C 34.514912 32.22625 34.375 32.086338 34.375 31.91375L 34.375 31.91375C 34.375 31.741161 34.514912 31.60125 34.6875 31.60125"></path></g></g></g><g id="g-root-tx_planific_7qvw8n2wefb-stroke" data-item-order="2000000000" transform="translate(589, 307)"></g><g id="g-root-stra_v3m6t4n2qs5r-stroke" data-item-order="2000000000" transform="translate(353, 316)"><g id="stra_v3m6t4n2qs5r-stroke" fill="none" stroke-linecap="round" stroke-linejoin="round" stroke-miterlimit="4" stroke="#1eabda" stroke-width="2"><g><path d="M 11.25 35C 11.25 37.071068 12.928932 38.75 15 38.75C 17.071068 38.75 18.75 37.071068 18.75 35C 18.75 32.928932 17.071068 31.25 15 31.25C 12.928932 31.25 11.25 32.928932 11.25 35M 21.25 31.25L 28.75 31.25L 28.75 38.75L 21.25 38.75ZM 35 31.25L 31.25 38.75L 38.75 38.75L 35 31.25ZM 26.875 25L 23.125 25M 28.75 18.125C 28.691219 16.078773 27.046225 14.433779 24.999998 14.375C 22.953773 14.433779 21.308779 16.078773 21.249998 18.125C 21.278124 19.425026 21.991154 20.613407 23.125 21.25L 23.125 22.5L 26.875 22.5L 26.875 21.25C 28.008846 20.613407 28.721876 19.425026 28.75 18.125ZM 15 31.25L 15 28.125C 15 27.779823 15.279821 27.5 15.625 27.5L 34.375 27.5C 34.720177 27.5 35 27.779823 35 28.125L 35 31.25M 25 25L 25 31.25M 25 11.25L 25 12.5M 29.862501 13.2625L 28.975 14.15M 31.875 17.5L 30.625 17.5M 20.137499 13.2625L 21.025 14.15M 18.125 17.5L 19.375 17.5"></path></g></g></g><g id="g-root-tx_planific_1happfcn2qps6-stroke" data-item-order="2000000000" transform="translate(389, 307)"></g><g id="g-root-tx_visinymi_1q5q5fcn2wd1e-stroke" data-item-order="2000000000" transform="translate(507, 51)"></g><g id="g-root-cloc_1hi7egon2wdfk-stroke" data-item-order="2000000000" transform="translate(553, 316)"><g id="cloc_1hi7egon2wdfk-stroke" fill="none" stroke-linecap="round" stroke-linejoin="round" stroke-miterlimit="4" stroke="#1eabda" stroke-width="2"><g><path d="M 10.625 15.625L 35.625 15.625M 14.0625 12.8125C 13.889911 12.8125 13.75 12.952411 13.75 13.125C 13.75 13.297589 13.889911 13.4375 14.0625 13.4375C 14.235089 13.4375 14.375 13.297589 14.375 13.125C 14.375 12.952411 14.235089 12.8125 14.0625 12.8125L 14.0625 12.8125M 17.1875 12.8125C 17.014912 12.8125 16.875 12.952411 16.875 13.125C 16.875 13.297589 17.014912 13.4375 17.1875 13.4375C 17.360088 13.4375 17.5 13.297589 17.5 13.125C 17.5 12.952411 17.360088 12.8125 17.1875 12.8125L 17.1875 12.8125M 20.3125 12.8125C 20.139912 12.8125 20 12.952411 20 13.125C 20 13.297589 20.139912 13.4375 20.3125 13.4375C 20.485088 13.4375 20.625 13.297589 20.625 13.125C 20.625 12.952411 20.485088 12.8125 20.3125 12.8125L 20.3125 12.8125M 19.375 29.375L 13.125 29.375C 11.744288 29.375 10.625 28.255713 10.625 26.875L 10.625 13.125C 10.625 11.744288 11.744288 10.625 13.125 10.625L 33.125 10.625C 34.505714 10.625 35.625 11.744288 35.625 13.125L 35.625 19.375M 23.125 31.875C 23.125002 36.017136 26.482864 39.375 30.625 39.375C 34.767136 39.375 38.125 36.017136 38.125 31.875C 38.125 27.732864 34.767136 24.375002 30.625 24.375002C 26.482864 24.375002 23.125002 27.732864 23.125002 31.875ZM 30.625 26.875L 30.625 31.875L 34.375 31.875M 25 22.5L 21.875 25.625M 39.375 25.625L 36.25 22.5"></path></g></g></g><g id="g-root-arro_13z93w8n2wc97-stroke" data-item-order="2000000000" transform="translate(471, 60)"><g id="arro_13z93w8n2wc97-stroke" fill="none" stroke-linecap="round" stroke-linejoin="round" stroke-miterlimit="4" stroke="#484848" stroke-width="2"><g><path d="M 25.862499 38.4375C 25.990955 38.931206 26.406538 39.297314 26.9125 39.362499C 27.396255 39.436539 27.868963 39.174492 28.0625 38.724998L 39.3125 12.2875C 39.457279 11.851945 39.351707 11.372078 39.037498 11.0375C 38.702923 10.723292 38.223053 10.617722 37.787498 10.7625L 11.25 21.9375C 10.800507 22.131037 10.538462 22.603745 10.6125 23.0875C 10.677686 23.593462 11.043794 24.009045 11.5375 24.137501L 22.9625 27.012499Z"></path></g></g></g></g></g></svg>