<?xml version="1.0" encoding="utf-8" standalone="yes"?>
<!DOCTYPE svg PUBLIC "-//W3C//DTD SVG 1.1//EN" "http://www.w3.org/Graphics/SVG/1.1/DTD/svg11.dtd">
<svg width="794" height="686" viewBox="0 0 794 686" style="fill:none;stroke:none;fill-rule:evenodd;clip-rule:evenodd;stroke-linecap:round;stroke-linejoin:round;stroke-miterlimit:1.5;" version="1.1" xmlns="http://www.w3.org/2000/svg" xmlns:xlink="http://www.w3.org/1999/xlink"><style id="fontImports">@import url("https://fonts.googleapis.com/css2?family=Roboto:wght@400;700&amp;display=block");</style><g id="items" style="isolation: isolate"><g id="blend" style="mix-blend-mode:normal"><g id="g-root-0.cu_sy_1430e3tqekg79-fill" data-item-order="-146156" transform="translate(257, 195.357421875)"><g id="0.cu_sy_1430e3tqekg79-fill" stroke="none" fill="#f5f5f5"><g><path d="M 166.699 244.285C 165.529 242.803 164.274 241.391 162.941 240.058L 129 206.117L 95.0589 240.059C 93.8827 241.235 92.7673 242.472 91.7178 243.764C 66.0029 235.114 44.1819 217.99 29.5746 195.712L 50.0436 155.539L 10.1103 135.192C 10.037 133.471 10 131.74 10 130C 10 101.9785 19.6045 76.2003 35.7012 55.7778L 79.9467 62.7859L 87.0537 17.9135C 100.3881 12.8012 114.867 10 130 10C 144.245 10 157.91 12.4821 170.587 17.0375L 177.833 62.7859L 224.052 55.4652C 240.297 75.937 250 101.8354 250 130C 250 132.063 249.948 134.114 249.845 136.152L 209.833 156.539L 230.068 196.253C 215.162 218.722 192.891 235.88 166.699 244.285Z"></path></g></g></g><g id="g-root-5.cu_sy_qrjvqhqekhs6-fill" data-item-order="-146152" transform="translate(238.0430908203125, 145.22216796875)"><g id="5.cu_sy_qrjvqhqekhs6-fill" stroke="none" fill="#e8f9ff"><g><path d="M 105.4124 65.512615C 107.3342 53.379515 104.6273 40.513215 96.8362 29.789715C 81.2542 8.342915 51.2365 3.588615 29.7897 19.170615C 8.3429 34.752615 3.5886 64.770315 19.1706 86.217115C 26.9616 96.940515 38.3615 103.490815 50.4946 105.412415L 97.9035 112.922015L 105.4107 65.523515C 105.4112 65.519915 105.4118 65.516315 105.4124 65.512615Z"></path></g></g></g><g id="g-root-4.cu_sy_dgpug9qekg7b-fill" data-item-order="-146148" transform="translate(183.47055053710938, 313.86083984375)"><g id="4.cu_sy_dgpug9qekg7b-fill" stroke="none" fill="#ffeceb"><g><path d="M 100.78153 79.8041C 95.20453 90.7497 85.45203 99.5677 72.84583 103.6637C 47.63363 111.856 20.55423 98.058 12.36233 72.8458C 4.17033 47.6336 17.96803 20.5542 43.18013 12.3623C 55.78623 8.2663 68.85913 9.6677 79.80453 15.2447L 122.57303 37.0358L 100.78653 79.7943C 100.78483 79.7976 100.78313 79.8009 100.78153 79.8041Z"></path></g></g></g><g id="g-root-3.cu_sy_59c2xqekhs8-fill" data-item-order="-146144" transform="translate(327, 391.474609375)"><g id="3.cu_sy_59c2xqekhs8-fill" stroke="none" fill="#fffbda"><g><path d="M 91.9408 43.9411C 100.6273 52.6274 106 64.6276 106 77.8825C 106 104.3922 84.5097 125.883 58 125.883C 31.4903 125.883 10 104.3922 10 77.8825C 10 64.6277 15.3726 52.6277 24.0589 43.9414L 57.9997 10L 91.9331 43.9333C 91.9356 43.9359 91.9382 43.9385 91.9408 43.9411Z"></path></g></g></g><g id="g-root-2.cu_sy_1ur6d0pqekf7l-fill" data-item-order="-146140" transform="translate(455.832763671875, 314.86083984375)"><g id="2.cu_sy_1ur6d0pqekf7l-fill" stroke="none" fill="#f4ffdc"><g><path d="M 52.7683 15.244831C 63.7138 9.667731 76.7868 8.266231 89.393 12.362331C 114.605 20.554231 128.403 47.633631 120.211 72.845831C 112.019 98.058031 84.9396 111.856031 59.7274 103.663731C 47.1213 99.567731 37.3688 90.749931 31.7919 79.804531L 10 37.036431L 52.7585 15.249831C 52.7618 15.248231 52.765 15.246531 52.7683 15.244831Z"></path></g></g></g><g id="g-root-1.cu_sy_1hfpundqekgsi-fill" data-item-order="-146136" transform="translate(415.729736328125, 145.22216796875)"><g id="1.cu_sy_1hfpundqekgsi-fill" stroke="none" fill="#e3fff2"><g><path d="M 10.59443 65.512615C 8.67263 53.379515 11.37953 40.513215 19.17063 29.789715C 34.75263 8.342915 64.77033 3.588615 86.21713 19.170615C 107.66393 34.752615 112.41803 64.770315 96.83623 86.217115C 89.04523 96.940515 77.64533 103.490815 65.51233 105.412415L 18.10333 112.922015L 10.59613 65.523515C 10.59563 65.519915 10.59503 65.516315 10.59443 65.512615Z"></path></g></g></g><g id="g-root-tx_midelare_4mxk6xm8npjj-fill" data-item-order="0" transform="translate(531, 147)"><g id="tx_midelare_4mxk6xm8npjj-fill" stroke="none" fill="#484848"><g><text style="font: 15px &quot;Roboto&quot;, sans-serif; white-space: pre;" font-size="15px" font-family="'Roboto', sans-serif"><tspan x="12" y="31" dominant-baseline="ideographic">Mide la relación entre </tspan><tspan x="12" y="49" dominant-baseline="ideographic">beneficios y costos del </tspan><tspan x="12" y="67" dominant-baseline="ideographic">proyecto</tspan></text></g></g></g><g id="g-root-2_4mycmhqedekt-fill" data-item-order="0" transform="translate(261, 171)"></g><g id="g-root-2_147cqyhm8ql1r-fill" data-item-order="0" transform="translate(442, 171)"></g><g id="g-root-tx_consider_1uqj6ntm8nrwj-fill" data-item-order="0" transform="translate(51, 147)"><g id="tx_consider_1uqj6ntm8nrwj-fill" stroke="none" fill="#484848"><g><text style="font: 15px &quot;Roboto&quot;, sans-serif; white-space: pre;" font-size="15px" font-family="'Roboto', sans-serif"><tspan x="93.15" y="28" dominant-baseline="ideographic">Considera la </tspan><tspan x="69.67" y="46" dominant-baseline="ideographic">optimización de </tspan><tspan x="18.45" y="64" dominant-baseline="ideographic">procesos y la reducción </tspan><tspan x="110.7" y="82" dominant-baseline="ideographic">de costos</tspan></text></g></g></g><g id="g-root-give_1uqj6ntm8nrwi-fill" data-item-order="0" transform="translate(328, 267)"></g><g id="g-root-tx_benefici_7422hm8nqbs-fill" data-item-order="0" transform="translate(591, 267)"><g id="tx_benefici_7422hm8nqbs-fill" stroke="none" fill="#92bd39"><g><text style="font: bold 20px &quot;Roboto&quot;, sans-serif; white-space: pre;" font-weight="bold" font-size="20px" font-family="'Roboto', sans-serif"><tspan x="12" y="34" dominant-baseline="ideographic">Beneficios </tspan><tspan x="12" y="58" dominant-baseline="ideographic">Sociales/ </tspan><tspan x="12" y="82" dominant-baseline="ideographic">Ambientales</tspan></text></g></g></g><g id="g-root-tx_cumplimi_1lwrlo9m8nrpl-fill" data-item-order="0" transform="translate(27, 291)"><g id="tx_cumplimi_1lwrlo9m8nrpl-fill" stroke="none" fill="#e55753"><g><text style="font: bold 20px &quot;Roboto&quot;, sans-serif; white-space: pre;" font-weight="bold" font-size="20px" font-family="'Roboto', sans-serif"><tspan x="14.13" y="34" dominant-baseline="ideographic">Cumplimiento </tspan><tspan x="37.97" y="58" dominant-baseline="ideographic">Estratégico</tspan></text></g></g></g><g id="g-root-tx_retornos_qva0zdm8npc4-fill" data-item-order="0" transform="translate(531, 87)"><g id="tx_retornos_qva0zdm8npc4-fill" stroke="none" fill="#3cc583"><g><text style="font: bold 20px &quot;Roboto&quot;, sans-serif; white-space: pre;" font-weight="bold" font-size="20px" font-family="'Roboto', sans-serif"><tspan x="12" y="34" dominant-baseline="ideographic">Retorno sobre </tspan><tspan x="12" y="58" dominant-baseline="ideographic">Inversión</tspan></text></g></g></g><g id="g-root-tx_evalasis_v983uhm8npjh-fill" data-item-order="0" transform="translate(292, 567)"><g id="tx_evalasis_v983uhm8npjh-fill" stroke="none" fill="#484848"><g><text style="font: 15px &quot;Roboto&quot;, sans-serif; white-space: pre;" font-size="15px" font-family="'Roboto', sans-serif"><tspan x="13.85" y="31" dominant-baseline="ideographic">Evalúa si se cumplieron </tspan><tspan x="40.85" y="49" dominant-baseline="ideographic">o superaron las </tspan><tspan x="14.18" y="67" dominant-baseline="ideographic">expectativas del cliente</tspan></text></g></g></g><g id="g-root-tx_analizal_18k254pm8nr4c-fill" data-item-order="0" transform="translate(15, 351)"><g id="tx_analizal_18k254pm8nr4c-fill" stroke="none" fill="#484848"><g><text style="font: 15px &quot;Roboto&quot;, sans-serif; white-space: pre;" font-size="15px" font-family="'Roboto', sans-serif"><tspan x="15.52" y="28" dominant-baseline="ideographic">Analiza la alineación </tspan><tspan x="39.5" y="46" dominant-baseline="ideographic">con los objetivos </tspan><tspan x="33.78" y="64" dominant-baseline="ideographic">estratégicos de la </tspan><tspan x="66.1" y="82" dominant-baseline="ideographic">organización</tspan></text></g></g></g><g id="g-root-corr_hxsh2hqe6eq3-fill" data-item-order="0" transform="translate(207, 339)"></g><g id="g-root-1_1luvwxlm8cj66-fill" data-item-order="0" transform="translate(495, 339)"></g><g id="g-root-tx_evalaeli_hxrlh5m8nr4e-fill" data-item-order="0" transform="translate(591, 351)"><g id="tx_evalaeli_hxrlh5m8nr4e-fill" stroke="none" fill="#484848"><g><text style="font: 15px &quot;Roboto&quot;, sans-serif; white-space: pre;" font-size="15px" font-family="'Roboto', sans-serif"><tspan x="12" y="31" dominant-baseline="ideographic">Evalúa el impacto </tspan><tspan x="12" y="49" dominant-baseline="ideographic">positivo en la sociedad y </tspan><tspan x="12" y="67" dominant-baseline="ideographic">el medio ambiente</tspan></text></g></g></g><g id="g-root-tx_eficienc_1hhkkmxm8npc2-fill" data-item-order="0" transform="translate(123, 87)"><g id="tx_eficienc_1hhkkmxm8npc2-fill" stroke="none" fill="#1eabda"><g><text style="font: bold 20px &quot;Roboto&quot;, sans-serif; white-space: pre;" font-weight="bold" font-size="20px" font-family="'Roboto', sans-serif"><tspan x="16.38" y="34" dominant-baseline="ideographic">Eficiencia </tspan><tspan x="17.65" y="58" dominant-baseline="ideographic">Operativa</tspan></text></g></g></g><g id="g-root-like_1qduxk9qelvkd-fill" data-item-order="0" transform="translate(351, 435)"></g><g id="g-root-tx_satisfac_146429lm8nqwz-fill" data-item-order="0" transform="translate(298, 507)"><g id="tx_satisfac_146429lm8nqwz-fill" stroke="none" fill="#e0cb15"><g><text style="font: bold 20px &quot;Roboto&quot;, sans-serif; white-space: pre;" font-weight="bold" font-size="20px" font-family="'Roboto', sans-serif"><tspan x="13.37" y="34" dominant-baseline="ideographic">Satisfacción del </tspan><tspan x="53.88" y="58" dominant-baseline="ideographic">Cliente</tspan></text></g></g></g><g id="g-root-tx_indicado_18k2uehqekhl7-fill" data-item-order="0" transform="translate(184, 39)"><g id="tx_indicado_18k2uehqekhl7-fill" stroke="none" fill="#484848"><g><text style="font: bold 20px &quot;Roboto&quot;, sans-serif; white-space: pre;" font-weight="bold" font-size="20px" font-family="'Roboto', sans-serif"><tspan x="17.55" y="34" dominant-baseline="ideographic">Indicadores Clave para el Éxito del Proyecto</tspan></text></g></g></g><g id="g-root-0.cu_sy_1430e3tqekg79-stroke" data-item-order="-146156" transform="translate(257, 195.357421875)"><g id="0.cu_sy_1430e3tqekg79-stroke" fill="none" stroke-linecap="round" stroke-linejoin="round" stroke-miterlimit="4" stroke="#969696" stroke-width="2"><g><path d="M 91.7178 243.7642C 66.0029 235.1144 44.1819 217.9903 29.5746 195.7116M 10.1103 135.1924C 10.037 133.4707 10 131.7397 10 130C 10 101.9785 19.6045 76.2003 35.7012 55.7778M 87.0537 17.9135C 100.3881 12.8012 114.8669 10 130 10C 144.2451 10 157.9105 12.4821 170.5872 17.0375M 224.0516 55.4652C 240.2971 75.937 250 101.8354 250 130C 250 132.0633 249.9479 134.1144 249.845 136.1522M 230.0683 196.2531C 215.1623 218.7219 192.8911 235.8804 166.6988 244.2845"></path></g></g></g><g id="g-root-5.cu_sy_qrjvqhqekhs6-stroke" data-item-order="-146152" transform="translate(238.0430908203125, 145.22216796875)"><g id="5.cu_sy_qrjvqhqekhs6-stroke" fill="none" stroke-linecap="round" stroke-linejoin="round" stroke-miterlimit="4" stroke="#1eabda" stroke-width="2"><g><path d="M 105.4124 65.512615C 107.3342 53.379515 104.6273 40.513215 96.8362 29.789715C 81.2542 8.342915 51.2365 3.588615 29.7897 19.170615C 8.3429 34.752615 3.5886 64.770315 19.1706 86.217115C 26.9616 96.940515 38.3615 103.490815 50.4946 105.412415L 97.9035 112.921715L 105.4107 65.523515C 105.4112 65.519915 105.4118 65.516315 105.4124 65.512615Z"></path></g></g></g><g id="g-root-4.cu_sy_dgpug9qekg7b-stroke" data-item-order="-146148" transform="translate(183.47055053710938, 313.86083984375)"><g id="4.cu_sy_dgpug9qekg7b-stroke" fill="none" stroke-linecap="round" stroke-linejoin="round" stroke-miterlimit="4" stroke="#e55753" stroke-width="2"><g><path d="M 100.78153 79.8041C 95.20453 90.7497 85.45203 99.5677 72.84583 103.6637C 47.63363 111.8556 20.55423 98.058 12.36223 72.8458C 4.17033 47.6336 17.96793 20.5542 43.18013 12.3622C 55.78623 8.2663 68.85913 9.6677 79.80453 15.2446L 122.57303 37.0358L 100.78653 79.7943C 100.78483 79.7976 100.78313 79.8009 100.78153 79.8041Z"></path></g></g></g><g id="g-root-3.cu_sy_59c2xqekhs8-stroke" data-item-order="-146144" transform="translate(327, 391.474609375)"><g id="3.cu_sy_59c2xqekhs8-stroke" fill="none" stroke-linecap="round" stroke-linejoin="round" stroke-miterlimit="4" stroke="#e0cb15" stroke-width="2"><g><path d="M 91.9408 43.9411C 100.6273 52.6274 106 64.6276 106 77.8825C 106 104.3922 84.5097 125.8825 58 125.8825C 31.4903 125.8825 10 104.3922 10 77.8825C 10 64.6277 15.3726 52.6277 24.0589 43.9414L 57.9997 10L 91.9331 43.9333C 91.9356 43.9359 91.9382 43.9385 91.9408 43.9411Z"></path></g></g></g><g id="g-root-2.cu_sy_1ur6d0pqekf7l-stroke" data-item-order="-146140" transform="translate(455.832763671875, 314.86083984375)"><g id="2.cu_sy_1ur6d0pqekf7l-stroke" fill="none" stroke-linecap="round" stroke-linejoin="round" stroke-miterlimit="4" stroke="#92bd39" stroke-width="2"><g><path d="M 52.7683 15.244831C 63.7138 9.667731 76.7868 8.266231 89.393 12.362231C 114.6052 20.554231 128.4029 47.633631 120.2109 72.845831C 112.019 98.058031 84.9396 111.855631 59.7274 103.663731C 47.1213 99.567731 37.3688 90.749931 31.7919 79.804531L 10 37.036431L 52.7585 15.249831C 52.7618 15.248231 52.765 15.246531 52.7683 15.244831Z"></path></g></g></g><g id="g-root-1.cu_sy_1hfpundqekgsi-stroke" data-item-order="-146136" transform="translate(415.729736328125, 145.22216796875)"><g id="1.cu_sy_1hfpundqekgsi-stroke" fill="none" stroke-linecap="round" stroke-linejoin="round" stroke-miterlimit="4" stroke="#3cc583" stroke-width="2"><g><path d="M 10.59443 65.512615C 8.67263 53.379515 11.37953 40.513215 19.17063 29.789715C 34.75263 8.342915 64.77033 3.588615 86.21713 19.170615C 107.66393 34.752615 112.41823 64.770315 96.83623 86.217115C 89.04523 96.940515 77.64533 103.490815 65.51233 105.412415L 18.10333 112.921715L 10.59613 65.523515C 10.59563 65.519915 10.59503 65.516315 10.59443 65.512615Z"></path></g></g></g><g id="g-root-tx_midelare_4mxk6xm8npjj-stroke" data-item-order="0" transform="translate(531, 147)"></g><g id="g-root-2_4mycmhqedekt-stroke" data-item-order="0" transform="translate(261, 171)"><g id="2_4mycmhqedekt-stroke" fill="none" stroke-linecap="round" stroke-linejoin="round" stroke-miterlimit="4" stroke="#1eabda" stroke-width="2"><g><path d="M 29 34.001999C 29 36.763424 31.238577 39.001999 34 39.001999C 36.761425 39.001999 39 36.763424 39 34.001999C 39 31.240576 36.761425 29.002001 34 29.002001C 31.238577 29.002001 29 31.240576 29 34.001999ZM 18 34.001999C 18 42.838554 25.163445 50.001999 34 50.001999C 42.836555 50.001999 50 42.838554 50 34.001999C 50 25.165443 42.836555 18.001999 34 18.001999C 25.163445 18.001999 18 25.165443 18 34.001999ZM 34 18.001999L 34 11.002M 45.313999 22.688L 50.264 17.737999M 50 34.001999L 57 34.001999M 45.313999 45.316002L 50.264 50.265999M 34 50.001999L 34 57.001999M 22.686001 45.316002L 17.736 50.265999M 18 34.001999L 11 34.001999M 22.686001 22.688L 17.736 17.737999"></path></g></g></g><g id="g-root-2_147cqyhm8ql1r-stroke" data-item-order="0" transform="translate(442, 171)"><g id="2_147cqyhm8ql1r-stroke" fill="none" stroke-linecap="round" stroke-linejoin="round" stroke-miterlimit="4" stroke="#3cc583" stroke-width="2"><g><path d="M 43.007999 14L 49.007999 14L 49.007999 20M 12 28L 20.633999 21.962C 21.428761 21.406044 22.50787 21.500465 23.194 22.186001L 23.810001 22.802C 24.50103 23.493176 25.590389 23.583675 26.386 23.015999L 30.785999 19.880001C 31.513363 19.360348 32.497242 19.386477 33.195999 19.944L 35.795998 22.032C 36.5084 22.602013 37.516266 22.617645 38.246002 22.07L 49 14M 19 47C 19 46.447716 18.552284 46 18 46L 14 46C 13.447716 46 13 46.447716 13 47L 13 54L 19 54ZM 31 37C 31 36.447716 30.552284 36 30 36L 26 36C 25.447716 36 25 36.447716 25 37L 25 54L 31 54ZM 43 43C 43 42.447716 42.552284 42 42 42L 38 42C 37.447716 42 37 42.447716 37 43L 37 54L 43 54ZM 55 27C 55 26.447716 54.552284 26 54 26L 50 26C 49.447716 26 49 26.447716 49 27L 49 54L 55 54ZM 11.008 54L 57.007999 54"></path></g></g></g><g id="g-root-tx_consider_1uqj6ntm8nrwj-stroke" data-item-order="0" transform="translate(51, 147)"></g><g id="g-root-give_1uqj6ntm8nrwi-stroke" data-item-order="0" transform="translate(328, 267)"><g id="give_1uqj6ntm8nrwi-stroke" fill="none" stroke-linecap="round" stroke-linejoin="round" stroke-miterlimit="4" stroke="#969696" stroke-width="2"><g><path d="M 52.124001 64.231995L 56.028 52.231998L 39.363998 37.507999C 38.735397 36.960373 38.512428 36.080254 38.804474 35.299393C 39.096519 34.518528 39.842308 34.000729 40.676003 34L 60.464001 34L 67.459999 15.308001C 67.750198 14.522711 68.49881 14.00127 69.335999 14.00127C 70.173195 14.00127 70.921799 14.522711 71.212006 15.308001L 78.208 34L 98 34C 98.832474 34.000969 99.577293 34.517494 99.86998 35.296814C 100.162674 36.076138 99.942017 36.955265 99.316002 37.503998L 82.639999 52.284L 89.571999 73.339996C 89.841927 74.163383 89.550934 75.066933 88.851234 75.578041C 88.151527 76.089157 87.202286 76.09156 86.5 75.584L 69.335999 63.127998L 60.891998 69.352005M 16 102L 16 62M 16 70L 44 70C 50.627419 70 56 75.372581 56 82L 80 82C 86.627419 82 92 87.372581 92 94L 16 94ZM 56 82L 44 82"></path></g></g></g><g id="g-root-tx_benefici_7422hm8nqbs-stroke" data-item-order="0" transform="translate(591, 267)"></g><g id="g-root-tx_cumplimi_1lwrlo9m8nrpl-stroke" data-item-order="0" transform="translate(27, 291)"></g><g id="g-root-tx_retornos_qva0zdm8npc4-stroke" data-item-order="0" transform="translate(531, 87)"></g><g id="g-root-tx_evalasis_v983uhm8npjh-stroke" data-item-order="0" transform="translate(292, 567)"></g><g id="g-root-tx_analizal_18k254pm8nr4c-stroke" data-item-order="0" transform="translate(15, 351)"></g><g id="g-root-corr_hxsh2hqe6eq3-stroke" data-item-order="0" transform="translate(207, 339)"><g id="corr_hxsh2hqe6eq3-stroke" fill="none" stroke-linecap="round" stroke-linejoin="round" stroke-miterlimit="4" stroke="#e55753" stroke-width="2"><g><path d="M 29 33L 39 23M 39.585999 16.414C 39.210899 16.788986 39.000114 17.297611 39 17.827999L 39 23L 44.172001 23C 44.702389 22.999886 45.211014 22.789099 45.585999 22.414L 51 17L 45 17L 45 11ZM 29 43C 23.870075 42.998661 19.5732 39.115749 19.053965 34.012169C 18.534729 28.908587 21.961569 24.239868 26.986116 23.205423C 32.010662 22.170977 37.003021 25.106361 38.542 30M 29 51C 21.847187 50.995258 15.375898 46.755779 12.514719 40.200142C 9.65354 33.644501 10.945453 26.016806 15.805803 20.76897C 20.666153 15.521139 28.172562 13.649081 34.928001 16M 33 45C 33 51.627419 38.372581 57 45 57C 51.627419 57 57 51.627419 57 45C 57 38.372581 51.627419 33 45 33C 38.372581 33 33 38.372581 33 45ZM 50.348 41.512001L 44.537998 49.257999C 44.276516 49.605347 43.877514 49.822548 43.443855 49.853607C 43.010197 49.884663 42.584312 49.72654 42.276001 49.419998L 39.276001 46.419998"></path></g></g></g><g id="g-root-1_1luvwxlm8cj66-stroke" data-item-order="0" transform="translate(495, 339)"><g id="1_1luvwxlm8cj66-stroke" fill="none" stroke-linecap="round" stroke-linejoin="round" stroke-miterlimit="4" stroke="#92bd39" stroke-width="2"><g><path d="M 15.780001 14.74C 14.686356 15.246927 13.990248 16.346621 14 17.552L 14 32.826C 13.983479 42.970211 20.202927 52.081688 29.656 55.762001L 31.799999 56.599998C 33.222 57.150036 34.798004 57.150036 36.220001 56.600002L 38.354 55.771999C 47.806553 52.087147 54.022255 42.971363 54 32.826L 54 17.552C 54.009754 16.346621 53.313648 15.246927 52.220001 14.74C 46.479889 12.217625 40.269608 10.942847 34 11C 27.730392 10.942847 21.520109 12.217625 15.78 14.74ZM 24 43C 24 40.790001 28.478001 39 34 39C 39.521999 39 44 40.799999 44 43M 34 39L 34 30L 29.106001 27.554001C 28.428541 27.215473 28.000404 26.523331 28 25.765999L 28 22M 34 30L 39.279999 25.6C 39.735466 25.220631 39.999184 24.658766 40 24.066L 40 22M 34 35.001999L 40 31.002001M 34 37.001999L 28 33.001999M 34 30.002001L 34 22.001999M 44.5 32C 44.776142 32 45 32.223858 45 32.5M 44 32.501999C 44 32.225857 44.223858 32.001999 44.5 32.001999M 44.5 33C 44.223858 33 44 32.776142 44 32.5M 45 32.501999C 45 32.778145 44.776142 33.001999 44.5 33.001999M 46.5 24C 46.776142 24 47 24.223858 47 24.5M 46 24.501999C 45.99947 24.369045 46.05191 24.241354 46.145737 24.147152C 46.239563 24.052952 46.367046 24 46.5 24M 46.5 25C 46.223858 25 46 24.776142 46 24.5M 47 24.501999C 47 24.778141 46.776142 25.001999 46.5 25.001999M 24.5 19C 24.776142 19 25 19.223858 25 19.5M 24 19.501999C 24 19.225857 24.223858 19.001999 24.5 19.001999M 24.5 20C 24.224636 20.000002 24.001102 19.777361 24 19.501999M 25 19.501999C 24.998898 19.777361 24.775364 20.000002 24.5 20M 23.5 30C 23.776142 30 24 30.223858 24 30.5M 23 30.502001C 22.999468 30.369045 23.05191 30.241354 23.145737 30.147154C 23.239563 30.052952 23.367044 29.999998 23.5 30M 23.5 31C 23.223858 31 23 30.776142 23 30.5M 24 30.502001C 24 30.778143 23.776142 31.002001 23.5 31.002001"></path></g></g></g><g id="g-root-tx_evalaeli_hxrlh5m8nr4e-stroke" data-item-order="0" transform="translate(591, 351)"></g><g id="g-root-tx_eficienc_1hhkkmxm8npc2-stroke" data-item-order="0" transform="translate(123, 87)"></g><g id="g-root-like_1qduxk9qelvkd-stroke" data-item-order="0" transform="translate(351, 435)"><g id="like_1qduxk9qelvkd-stroke" fill="none" stroke-linecap="round" stroke-linejoin="round" stroke-miterlimit="4" stroke="#e0cb15" stroke-width="2"><g><path d="M 13 53.383999C 13.392 53.585335 13.785334 53.785332 14.18 53.984001C 21.454 57.66 21.098 56.944 27.326 56.944C 29.926001 56.944 31.247999 55.251999 32.015999 52.773998L 32.015999 52.757999L 33.905998 46.450001L 33.905998 46.438C 34.088184 45.838547 33.974983 45.188198 33.600964 44.685562C 33.226944 44.182922 32.63652 43.88768 32.009998 43.889999L 27.158001 43.889999C 26.544582 43.888313 25.965864 43.605221 25.588001 43.122002C 25.212273 42.637936 25.084284 42.006126 25.242001 41.413998L 26.115999 38.115997C 26.253817 37.596436 26.134062 37.04229 25.793999 36.625999C 25.458212 36.214478 24.949558 35.983303 24.418716 36.000957C 23.887871 36.018616 23.395702 36.283073 23.088001 36.716003L 18.242001 43.548C 17.869122 44.072422 17.265474 44.383934 16.622 44.383999L 13 44.383999M 11 43L 13 43L 13 57L 11 57M 18.464001 11C 17.63448 11.000403 16.89131 11.512825 16.596001 12.288L 13.436 20.584C 13.094445 21.473572 13.081679 22.455853 13.4 23.354C 14.303807 25.869835 16.885187 27.371967 19.519051 26.91474C 22.152916 26.457514 24.076994 24.173254 24.079998 21.5C 24.080002 24.537567 26.542435 27 29.58 27C 32.617569 27 35.080002 24.537567 35.080002 21.5C 35.080002 24.537567 37.542435 27 40.580002 27C 43.617565 27 46.080002 24.537567 46.080002 21.5C 46.083004 24.173254 48.00708 26.457514 50.640945 26.91474C 53.274811 27.371967 55.85619 25.869835 56.759998 23.354C 57.081951 22.456984 57.072018 21.474327 56.732002 20.584L 53.571999 12.288C 53.277214 11.514189 52.536057 11.00206 51.708 11ZM 37 51L 53 51L 53 26.816M 39 51L 39 35C 39 33.895432 39.895432 33 41 33L 47 33C 48.104568 33 49 33.895432 49 35L 49 51M 17 34L 17 26.768"></path></g></g></g><g id="g-root-tx_satisfac_146429lm8nqwz-stroke" data-item-order="0" transform="translate(298, 507)"></g><g id="g-root-tx_indicado_18k2uehqekhl7-stroke" data-item-order="0" transform="translate(184, 39)"></g></g></g></svg>