<?xml version="1.0" encoding="utf-8" standalone="yes"?>
<!DOCTYPE svg PUBLIC "-//W3C//DTD SVG 1.1//EN" "http://www.w3.org/Graphics/SVG/1.1/DTD/svg11.dtd">
<svg width="927" height="470" viewBox="0 0 927 470" style="fill:none;stroke:none;fill-rule:evenodd;clip-rule:evenodd;stroke-linecap:round;stroke-linejoin:round;stroke-miterlimit:1.5;" version="1.1" xmlns="http://www.w3.org/2000/svg" xmlns:xlink="http://www.w3.org/1999/xlink"><style id="fontImports">@import url("https://fonts.googleapis.com/css2?family=Roboto:wght@400;700&amp;display=block");</style><g id="items" style="isolation: isolate"><g id="blend" style="mix-blend-mode:normal"><g id="g-root-1.cu_sy_1ursheynckqo7-fill" data-item-order="-179572" transform="translate(15, 99)"><g id="1.cu_sy_1ursheynckqo7-fill" stroke="none" fill="#fffbda"><g><path d="M 10 106L 10 10L 226 10L 178 34L 178 106L 10 106Z"></path></g></g></g><g id="g-root-2.cu_sy_1qclgdmnckoao-fill" data-item-order="-179568" transform="translate(183.00009155273438, 99)"><g id="2.cu_sy_1qclgdmnckoao-fill" stroke="none" fill="#fff2e5"><g><path d="M 10 130L 10 34L 226 34L 178 58L 178 130L 10 130ZM 58 10L 58 34L 10 34L 58 10Z"></path></g></g></g><g id="g-root-3.cu_sy_1d14y0anckpvl-fill" data-item-order="-179564" transform="translate(351.0000915527344, 123)"><g id="3.cu_sy_1d14y0anckpvl-fill" stroke="none" fill="#ffeceb"><g><path d="M 10 130L 10 34L 226 34L 178 58L 178 130L 10 130ZM 58.000022 10L 58.000022 34L 10.000122 34L 58.000022 10Z"></path></g></g></g><g id="g-root-4.cu_sy_1d14y0anckpvm-fill" data-item-order="-179560" transform="translate(519.0001220703125, 147)"><g id="4.cu_sy_1d14y0anckpvm-fill" stroke="none" fill="#ffebf7"><g><path d="M 10 34L 10 130L 178 130L 178 58L 226 34L 10 34ZM 57.9999 10L 57.9999 34L 10 34L 57.9999 10Z"></path></g></g></g><g id="g-root-5.cu_sy_145hxrenckqob-fill" data-item-order="-179556" transform="translate(687, 171)"><g id="5.cu_sy_145hxrenckqob-fill" stroke="none" fill="#faf0ff"><g><path d="M 10.000122 130L 10.000122 34L 166.000122 34L 166.000122 22L 214.000122 82L 166.000122 143L 166.000122 130L 10.000122 130ZM 58.0001 10L 58.0001 34L 10 34L 58.0001 10Z"></path></g></g></g><g id="g-root-tx_procesos_zqawq2nckoas-fill" data-item-order="0" transform="translate(255, 39)"><g id="tx_procesos_zqawq2nckoas-fill" stroke="none" fill="#484848"><g><text style="font: bold 20px &quot;Roboto&quot;, sans-serif; white-space: pre;" font-weight="bold" font-size="20px" font-family="'Roboto', sans-serif"><tspan x="14.66" y="34" dominant-baseline="ideographic">Procesos Clave de Gestión de Proyectos</tspan></text></g></g></g><g id="g-root-tx_iniciaci_dj7e3unckqod-fill" data-item-order="0" transform="translate(33, 123)"><g id="tx_iniciaci_dj7e3unckqod-fill" stroke="none" fill="#e0cb15"><g><text style="font: 20px &quot;Roboto&quot;, sans-serif; white-space: pre;" font-size="20px" font-family="'Roboto', sans-serif"><tspan x="15.05" y="34" dominant-baseline="ideographic">Iniciación del </tspan><tspan x="34.23" y="58" dominant-baseline="ideographic">Proyecto</tspan></text></g></g></g><g id="g-root-tx_planific_1ly0wfenckqhb-fill" data-item-order="0" transform="translate(201, 147)"><g id="tx_planific_1ly0wfenckqhb-fill" stroke="none" fill="#de8431"><g><text style="font: 20px &quot;Roboto&quot;, sans-serif; white-space: pre;" font-size="20px" font-family="'Roboto', sans-serif"><tspan x="16.33" y="34" dominant-baseline="ideographic">Planificación </tspan><tspan x="18.39" y="58" dominant-baseline="ideographic">del Proyecto</tspan></text></g></g></g><g id="g-root-tx_ejecucin_1d30d9mnckow1-fill" data-item-order="0" transform="translate(369, 171)"><g id="tx_ejecucin_1d30d9mnckow1-fill" stroke="none" fill="#e55753"><g><text style="font: 20px &quot;Roboto&quot;, sans-serif; white-space: pre;" font-size="20px" font-family="'Roboto', sans-serif"><tspan x="14.68" y="34" dominant-baseline="ideographic">Ejecución del </tspan><tspan x="34.23" y="58" dominant-baseline="ideographic">Proyecto</tspan></text></g></g></g><g id="g-root-tx_monitore_mgptm2nckow3-fill" data-item-order="0" transform="translate(543, 195)"><g id="tx_monitore_mgptm2nckow3-fill" stroke="none" fill="#de58a9"><g><text style="font: 20px &quot;Roboto&quot;, sans-serif; white-space: pre;" font-size="20px" font-family="'Roboto', sans-serif"><tspan x="14.78" y="34" dominant-baseline="ideographic">Monitoreo y </tspan><tspan x="35.13" y="58" dominant-baseline="ideographic">Control</tspan></text></g></g></g><g id="g-root-tx_definirl_8dctmnckp3i-fill" data-item-order="0" transform="translate(27, 219)"><g id="tx_definirl_8dctmnckp3i-fill" stroke="none" fill="#484848"><g><text style="font: 20px &quot;Roboto&quot;, sans-serif; white-space: pre;" font-size="20px" font-family="'Roboto', sans-serif"><tspan x="12" y="34" dominant-baseline="ideographic">Definir la </tspan><tspan x="12" y="58" dominant-baseline="ideographic">viabilidad y los </tspan><tspan x="12" y="82" dominant-baseline="ideographic">objetivos del </tspan><tspan x="12" y="106" dominant-baseline="ideographic">proyecto</tspan></text></g></g></g><g id="g-root-tx_cierrede_9mazunckr9p-fill" data-item-order="0" transform="translate(723, 219)"><g id="tx_cierrede_9mazunckr9p-fill" stroke="none" fill="#ba5de5"><g><text style="font: 20px &quot;Roboto&quot;, sans-serif; white-space: pre;" font-size="20px" font-family="'Roboto', sans-serif"><tspan x="13.47" y="34" dominant-baseline="ideographic">Cierre del </tspan><tspan x="16.22" y="58" dominant-baseline="ideographic">Proyecto</tspan></text></g></g></g><g id="g-root-tx_establec_1hi7eaynckr9k-fill" data-item-order="0" transform="translate(195, 243)"><g id="tx_establec_1hi7eaynckr9k-fill" stroke="none" fill="#484848"><g><text style="font: 20px &quot;Roboto&quot;, sans-serif; white-space: pre;" font-size="20px" font-family="'Roboto', sans-serif"><tspan x="12" y="34" dominant-baseline="ideographic">Establecer </tspan><tspan x="12" y="58" dominant-baseline="ideographic">planes de </tspan><tspan x="12" y="82" dominant-baseline="ideographic">proyecto </tspan><tspan x="12" y="106" dominant-baseline="ideographic">detallados</tspan></text></g></g></g><g id="g-root-tx_implemen_zrjuwanckqgy-fill" data-item-order="0" transform="translate(363, 267)"><g id="tx_implemen_zrjuwanckqgy-fill" stroke="none" fill="#484848"><g><text style="font: 20px &quot;Roboto&quot;, sans-serif; white-space: pre;" font-size="20px" font-family="'Roboto', sans-serif"><tspan x="12" y="34" dominant-baseline="ideographic">Implementar el </tspan><tspan x="12" y="58" dominant-baseline="ideographic">plan del </tspan><tspan x="12" y="82" dominant-baseline="ideographic">proyecto</tspan></text></g></g></g><g id="g-root-tx_asegurar_959b8qnckqh0-fill" data-item-order="0" transform="translate(531, 291)"><g id="tx_asegurar_959b8qnckqh0-fill" stroke="none" fill="#484848"><g><text style="font: 20px &quot;Roboto&quot;, sans-serif; white-space: pre;" font-size="20px" font-family="'Roboto', sans-serif"><tspan x="12" y="34" dominant-baseline="ideographic">Asegurar que el </tspan><tspan x="12" y="58" dominant-baseline="ideographic">proyecto se </tspan><tspan x="12" y="82" dominant-baseline="ideographic">mantenga en el </tspan><tspan x="12" y="106" dominant-baseline="ideographic">camino </tspan><tspan x="12" y="130" dominant-baseline="ideographic">correcto</tspan></text></g></g></g><g id="g-root-tx_finaliza_1lpwqayncm426-fill" data-item-order="0" transform="translate(699, 315)"><g id="tx_finaliza_1lpwqayncm426-fill" stroke="none" fill="#484848"><g><text style="font: 20px &quot;Roboto&quot;, sans-serif; white-space: pre;" font-size="20px" font-family="'Roboto', sans-serif"><tspan x="12" y="34" dominant-baseline="ideographic">Finalización </tspan><tspan x="12" y="58" dominant-baseline="ideographic">formal y </tspan><tspan x="12" y="82" dominant-baseline="ideographic">evaluación del </tspan><tspan x="12" y="106" dominant-baseline="ideographic">proyecto</tspan></text></g></g></g><g id="g-root-1.cu_sy_1ursheynckqo7-stroke" data-item-order="-179572" transform="translate(15, 99)"><g id="1.cu_sy_1ursheynckqo7-stroke" fill="none" stroke-linecap="round" stroke-linejoin="round" stroke-miterlimit="4" stroke="#e0cb15" stroke-width="2"><g><path d="M 10 106L 10 10L 226 10L 178 34L 178 106L 10 106Z"></path></g></g></g><g id="g-root-2.cu_sy_1qclgdmnckoao-stroke" data-item-order="-179568" transform="translate(183.00009155273438, 99)"><g id="2.cu_sy_1qclgdmnckoao-stroke" fill="none" stroke-linecap="round" stroke-linejoin="round" stroke-miterlimit="4" stroke="#de8431" stroke-width="2"><g><path d="M 10 130L 10 34L 226 34L 178 58L 178 130L 10 130ZM 58 10L 58 34L 10 34L 58 10Z"></path></g></g></g><g id="g-root-3.cu_sy_1d14y0anckpvl-stroke" data-item-order="-179564" transform="translate(351.0000915527344, 123)"><g id="3.cu_sy_1d14y0anckpvl-stroke" fill="none" stroke-linecap="round" stroke-linejoin="round" stroke-miterlimit="4" stroke="#e55753" stroke-width="2"><g><path d="M 10 130L 10 34L 226 34L 178 58L 178 130L 10 130ZM 58.000022 10L 58.000022 34L 10.000122 34L 58.000022 10Z"></path></g></g></g><g id="g-root-4.cu_sy_1d14y0anckpvm-stroke" data-item-order="-179560" transform="translate(519.0001220703125, 147)"><g id="4.cu_sy_1d14y0anckpvm-stroke" fill="none" stroke-linecap="round" stroke-linejoin="round" stroke-miterlimit="4" stroke="#de58a9" stroke-width="2"><g><path d="M 10 34L 10 130L 178 130L 178 58L 226 34L 10 34ZM 57.9999 10L 57.9999 34L 10 34L 57.9999 10Z"></path></g></g></g><g id="g-root-5.cu_sy_145hxrenckqob-stroke" data-item-order="-179556" transform="translate(687, 171)"><g id="5.cu_sy_145hxrenckqob-stroke" fill="none" stroke-linecap="round" stroke-linejoin="round" stroke-miterlimit="4" stroke="#ba5de5" stroke-width="2"><g><path d="M 10.000122 130L 10.000122 34L 166.000122 34L 166.000122 22L 214.000122 82L 166.000122 143L 166.000122 130L 10.000122 130ZM 58.0001 10L 58.0001 34L 10 34L 58.0001 10Z"></path></g></g></g><g id="g-root-tx_procesos_zqawq2nckoas-stroke" data-item-order="0" transform="translate(255, 39)"></g><g id="g-root-tx_iniciaci_dj7e3unckqod-stroke" data-item-order="0" transform="translate(33, 123)"></g><g id="g-root-tx_planific_1ly0wfenckqhb-stroke" data-item-order="0" transform="translate(201, 147)"></g><g id="g-root-tx_ejecucin_1d30d9mnckow1-stroke" data-item-order="0" transform="translate(369, 171)"></g><g id="g-root-tx_monitore_mgptm2nckow3-stroke" data-item-order="0" transform="translate(543, 195)"></g><g id="g-root-tx_definirl_8dctmnckp3i-stroke" data-item-order="0" transform="translate(27, 219)"></g><g id="g-root-tx_cierrede_9mazunckr9p-stroke" data-item-order="0" transform="translate(723, 219)"></g><g id="g-root-tx_establec_1hi7eaynckr9k-stroke" data-item-order="0" transform="translate(195, 243)"></g><g id="g-root-tx_implemen_zrjuwanckqgy-stroke" data-item-order="0" transform="translate(363, 267)"></g><g id="g-root-tx_asegurar_959b8qnckqh0-stroke" data-item-order="0" transform="translate(531, 291)"></g><g id="g-root-tx_finaliza_1lpwqayncm426-stroke" data-item-order="0" transform="translate(699, 315)"></g></g></g></svg>