<?xml version="1.0" encoding="utf-8" standalone="yes"?>
<!DOCTYPE svg PUBLIC "-//W3C//DTD SVG 1.1//EN" "http://www.w3.org/Graphics/SVG/1.1/DTD/svg11.dtd">
<svg width="602" height="506" viewBox="0 0 602 506" style="fill:none;stroke:none;fill-rule:evenodd;clip-rule:evenodd;stroke-linecap:round;stroke-linejoin:round;stroke-miterlimit:1.5;" version="1.1" xmlns="http://www.w3.org/2000/svg" xmlns:xlink="http://www.w3.org/1999/xlink"><style id="fontImports">@import url("https://fonts.googleapis.com/css2?family=Roboto:wght@400;700&amp;display=block");</style><g id="items" style="isolation: isolate"><g id="blend" style="mix-blend-mode:normal"><g id="g-root-3.cu_sy_1lvj3a2ncnitl-fill" data-item-order="-84666" transform="translate(119.23919677734375, 314.666015625)"><g id="3.cu_sy_1lvj3a2ncnitl-fill" stroke="none" fill="#f4ffdc"><g><path d="M 10 10.00711C 10.052002 10.178497 10.103005 10.350006 10.155007 10.521606C 14.041405 17.233215 35.711998 22.345489 61.766106 22.345489C 87.964501 22.345489 109.694207 17.154205 113.404808 10.388L 113.523003 10C 106.678795 32.765808 101.569603 57.014587 97.984795 82.333709C 97.984795 88.96109 81.766701 94.333709 61.760598 94.333709C 41.754601 94.333709 25.536492 88.96109 25.536492 82.333709C 21.978997 57.207885 16.920403 33.135986 10.155007 10.521606C 10.153 10.519012 10.152001 10.516296 10.150002 10.51361L 10 10.00711Z"></path></g></g></g><g id="g-root-3.line_sy_1hfpl5mncnjlu-fill" data-item-order="-84661" transform="translate(214, 351)"></g><g id="g-root-2.cu_sy_18k2kwqncnkej-fill" data-item-order="-84658" transform="translate(87.563720703125, 240.896484375)"><g id="2.cu_sy_18k2kwqncnkej-fill" stroke="none" fill="#e3fff2"><g><path d="M 41.675995 83.777405C 33.630005 57.011292 23.184997 32.295197 10 10.300003L 10.263 10.7305C 16.772003 18.336899 51.565002 24.102906 93.441604 24.102906C 135.460602 24.102906 170.343002 18.262299 176.681595 10.617905C 176.804901 10.411698 176.928299 10.205704 177.052002 10L 176.748306 10.536103C 176.726394 10.563401 176.704208 10.590699 176.681595 10.617905C 163.587799 32.531296 153.205795 57.135804 145.198608 83.770295L 145.080307 84.157502C 141.369705 90.923706 119.639999 96.114991 93.441604 96.114991C 67.376999 96.114991 45.699997 90.998719 41.826004 84.283204L 41.675995 83.777405Z"></path></g></g></g><g id="g-root-2.line_sy_144vjvencni10-fill" data-item-order="-84653" transform="translate(236, 279)"></g><g id="g-root-1.cu_sy_v98jmincnitp-fill" data-item-order="-84650" transform="translate(15, 147)"><g id="1.cu_sy_v98jmincnitp-fill" stroke="none" fill="#e8f9ff"><g><path d="M 14.053986 32.094498C 11.402008 30.779099 10 29.408508 10 28C 10 18.058899 79.843994 10 166 10C 252.156403 10 322 18.058899 322 28C 322 29.263702 320.871399 30.496994 318.724091 31.687195L 317.889404 32.131104C 289.7164 50.149796 267.229004 74.601196 249.615997 103.895203L 249.312302 104.432495C 243.155396 112.117004 208.174011 117.998993 166.005997 117.998993C 124.128998 117.998993 89.335999 112.233002 82.826996 104.626892L 82.565002 104.19519C 64.954987 74.817993 42.457001 50.294495 14.255005 32.223099L 14.053986 32.094498Z"></path></g></g></g><g id="g-root-1.line_sy_qtf1i2ncnjly-fill" data-item-order="-84645" transform="translate(280, 207)"></g><g id="g-root-tx_procesod_vbqmaincvytj-fill" data-item-order="0" transform="translate(129, 39)"><g id="tx_procesod_vbqmaincvytj-fill" stroke="none" fill="#484848"><g><text style="font: bold 20px &quot;Roboto&quot;, sans-serif; white-space: pre;" font-weight="bold" font-size="20px" font-family="'Roboto', sans-serif"><tspan x="15.54" y="34" dominant-baseline="ideographic">Proceso de Gestión de Cambios en Proyectos</tspan></text></g></g></g><g id="g-root-tx_solicitu_zrk4eyncvy1a-fill" data-item-order="0" transform="translate(75, 99)"><g id="tx_solicitu_zrk4eyncvy1a-fill" stroke="none" fill="#484848"><g><text style="font: 20px &quot;Roboto&quot;, sans-serif; white-space: pre;" font-size="20px" font-family="'Roboto', sans-serif"><tspan x="17.09" y="34" dominant-baseline="ideographic">Solicitud de Cambio</tspan></text></g></g></g><g id="g-root-1_v9v716ncvzt5-fill" data-item-order="0" transform="translate(147.224365234375, 195.111328125)"></g><g id="g-root-tx_identifi_1d2e5p6ncvzm5-fill" data-item-order="0" transform="translate(375, 195)"><g id="tx_identifi_1d2e5p6ncvzm5-fill" stroke="none" fill="#484848"><g><text style="font: 20px &quot;Roboto&quot;, sans-serif; white-space: pre;" font-size="20px" font-family="'Roboto', sans-serif"><tspan x="12" y="34" dominant-baseline="ideographic">Identificar el Cambio</tspan></text></g></g></g><g id="g-root-arro_4l2r16ncqccv-fill" data-item-order="0" transform="translate(147.224365234375, 267.111328125)"></g><g id="g-root-tx_evaluare_1qduo2incvy18-fill" data-item-order="0" transform="translate(375.112060546875, 267)"><g id="tx_evaluare_1qduo2incvy18-fill" stroke="none" fill="#484848"><g><text style="font: 20px &quot;Roboto&quot;, sans-serif; white-space: pre;" font-size="20px" font-family="'Roboto', sans-serif"><tspan x="12" y="34" dominant-baseline="ideographic">Evaluar el Impacto</tspan></text></g></g></g><g id="g-root-shie_v7d7iyncvx8g-fill" data-item-order="0" transform="translate(147.224365234375, 339.111328125)"></g><g id="g-root-tx_aprobaro_4nkndmncvzt7-fill" data-item-order="0" transform="translate(375.112060546875, 339)"><g id="tx_aprobaro_4nkndmncvzt7-fill" stroke="none" fill="#484848"><g><text style="font: 20px &quot;Roboto&quot;, sans-serif; white-space: pre;" font-size="20px" font-family="'Roboto', sans-serif"><tspan x="12" y="34" dominant-baseline="ideographic">Aprobar o Rechazar</tspan></text></g></g></g><g id="g-root-tx_cambioge_quo5zuncvxfm-fill" data-item-order="0" transform="translate(81, 423)"><g id="tx_cambioge_quo5zuncvxfm-fill" stroke="none" fill="#484848"><g><text style="font: 20px &quot;Roboto&quot;, sans-serif; white-space: pre;" font-size="20px" font-family="'Roboto', sans-serif"><tspan x="12.12" y="34" dominant-baseline="ideographic">Cambio Gestionado</tspan></text></g></g></g><g id="g-root-3.cu_sy_1lvj3a2ncnitl-stroke" data-item-order="-84666" transform="translate(119.23919677734375, 314.666015625)"><g id="3.cu_sy_1lvj3a2ncnitl-stroke" fill="none" stroke-linecap="round" stroke-linejoin="round" stroke-miterlimit="4" stroke="#92bd39" stroke-width="2"><g><path d="M 10.000405 10.00711C 16.843506 32.770813 21.952004 57.017212 25.536492 82.333709C 25.536492 88.96109 41.754601 94.333709 61.760598 94.333709C 81.766701 94.333709 97.984795 88.96109 97.984795 82.333709C 101.569603 57.014587 106.678795 32.765808 113.523003 10L 113.404808 10.388C 109.694207 17.154113 87.964501 22.345489 61.766106 22.345489C 35.701592 22.345489 14.024201 17.229095 10.150101 10.51361L 10.000405 10.00711Z"></path></g></g></g><g id="g-root-3.line_sy_1hfpl5mncnjlu-stroke" data-item-order="-84661" transform="translate(214, 351)"><g id="3.line_sy_1hfpl5mncnjlu-stroke" fill="none" stroke-linecap="round" stroke-linejoin="round" stroke-miterlimit="4" stroke="#969696" stroke-width="2"><g><path d="M 147 10L 12 10"></path><path d="M 18 3.5L 11.5 10L 18 16.5" stroke-dasharray="none"></path></g></g></g><g id="g-root-2.cu_sy_18k2kwqncnkej-stroke" data-item-order="-84658" transform="translate(87.563720703125, 240.896484375)"><g id="2.cu_sy_18k2kwqncnkej-stroke" fill="none" stroke-linecap="round" stroke-linejoin="round" stroke-miterlimit="4" stroke="#3cc583" stroke-width="2"><g><path d="M 10.000503 10.300003C 23.185302 32.295197 33.629699 57.011292 41.675995 83.777405L 41.825607 84.283204C 45.699707 90.998719 67.377105 96.114991 93.441604 96.114991C 119.639999 96.114991 141.369705 90.923706 145.080307 84.157502L 145.198608 83.770295C 153.281204 56.885193 163.783401 32.068497 177.052002 10L 176.748306 10.536103C 170.5914 18.220597 135.610199 24.102906 93.441604 24.102906C 51.564903 24.102906 16.772003 18.336899 10.263107 10.7305L 10.000503 10.300003Z"></path></g></g></g><g id="g-root-2.line_sy_144vjvencni10-stroke" data-item-order="-84653" transform="translate(236, 279)"><g id="2.line_sy_144vjvencni10-stroke" fill="none" stroke-linecap="round" stroke-linejoin="round" stroke-miterlimit="4" stroke="#969696" stroke-width="2"><g><path d="M 125 10L 12 10"></path><path d="M 18 3.5L 11.5 10L 18 16.5" stroke-dasharray="none"></path></g></g></g><g id="g-root-1.cu_sy_v98jmincnitp-stroke" data-item-order="-84650" transform="translate(15, 147)"><g id="1.cu_sy_v98jmincnitp-stroke" fill="none" stroke-linecap="round" stroke-linejoin="round" stroke-miterlimit="4" stroke="#1eabda" stroke-width="2"><g><path d="M 166 10C 79.843582 10 10 18.058868 10 28C 10 37.941132 79.843582 46 166 46C 252.156418 46 322 37.941132 322 28C 322 18.058868 252.156418 10 166 10M 11.027405 30.074219C 36.768677 45.467316 63.648376 71.154724 82.647293 104.20343C 85.901688 109.864624 113.652786 118.000519 165.989792 118.000519C 215.060791 118.000519 245.794098 110.939911 250.128891 103.552124C 270.4487 68.921112 297.323181 45.323914 320.95459 30.09642"></path></g></g></g><g id="g-root-1.line_sy_qtf1i2ncnjly-stroke" data-item-order="-84645" transform="translate(280, 207)"><g id="1.line_sy_qtf1i2ncnjly-stroke" fill="none" stroke-linecap="round" stroke-linejoin="round" stroke-miterlimit="4" stroke="#969696" stroke-width="2"><g><path d="M 81 10L 12 10"></path><path d="M 18 3.5L 11.5 10L 18 16.5" stroke-dasharray="none"></path></g></g></g><g id="g-root-tx_procesod_vbqmaincvytj-stroke" data-item-order="0" transform="translate(129, 39)"></g><g id="g-root-tx_solicitu_zrk4eyncvy1a-stroke" data-item-order="0" transform="translate(75, 99)"></g><g id="g-root-1_v9v716ncvzt5-stroke" data-item-order="0" transform="translate(147.224365234375, 195.111328125)"><g id="1_v9v716ncvzt5-stroke" fill="none" stroke-linecap="round" stroke-linejoin="round" stroke-miterlimit="4" stroke="#1eabda" stroke-width="2"><g><path d="M 49 33L 49 55C 49 56.104568 48.104568 57 47 57L 13 57C 11.895431 57 11 56.104568 11 55L 11 17C 11 15.895431 11.895431 15 13 15L 39 15M 35.648003 38.014L 25.75 42.254002L 29.992001 32.354L 51.348 11L 57.004002 16.656L 35.648003 38.014ZM 53.334 20.327999L 47.675999 14.67M 35.648003 38.014L 29.992001 32.354"></path></g></g></g><g id="g-root-tx_identifi_1d2e5p6ncvzm5-stroke" data-item-order="0" transform="translate(375, 195)"></g><g id="g-root-arro_4l2r16ncqccv-stroke" data-item-order="0" transform="translate(147.224365234375, 267.111328125)"><g id="arro_4l2r16ncqccv-stroke" fill="none" stroke-linecap="round" stroke-linejoin="round" stroke-miterlimit="4" stroke="#3cc583" stroke-width="2"><g><path d="M 44.066002 44C 44.065998 46.300819 45.931183 48.166 48.231998 48.166C 50.532818 48.166 52.397999 46.300819 52.397999 44C 52.397999 41.699181 50.532818 39.834 48.231998 39.834C 45.931183 39.834 44.065998 41.699181 44.065998 44M 45.453999 56.5L 56.563999 56.5C 55.899048 53.89912 54.057701 51.757942 51.585693 50.711067C 49.113686 49.664192 46.294624 49.831722 43.964001 51.164001M 15.602 44C 15.602 46.300819 17.467182 48.166 19.768 48.166C 22.068817 48.166 23.934 46.300819 23.934 44C 23.934 41.699181 22.068817 39.834 19.768 39.834C 17.467182 39.834 15.602 41.699181 15.602 44M 22.487999 56.5L 11.436 56.5C 12.098295 53.912041 13.925614 51.778793 16.381168 50.726917C 18.836721 49.675037 21.641655 49.823986 23.972 51.130005M 44.158001 56.5C 44.209476 52.827229 42.279564 49.411205 39.107155 47.559803C 35.934746 45.708397 32.011253 45.708397 28.838844 47.559803C 25.666435 49.411205 23.736523 52.827229 23.787998 56.499996ZM 28.684 34.461998C 31.572502 37.455845 36.012802 38.348686 39.834 36.704002M 27.85 37.517998C 27.85 40.841652 30.544352 43.536003 33.868004 43.536003C 37.19165 43.536003 39.886002 40.841652 39.886002 37.518002C 39.886002 34.194351 37.19165 31.500002 33.868004 31.500002C 30.544352 31.500002 27.85 34.194351 27.85 37.518002M 46.972 35.5C 46.972 35.5 40.972 29.5 40.972 24.5L 49.972 24.5L 33.972 11.5L 17.972 24.5L 26.972 24.5C 26.972 29.5 20.972 35.5 20.972 35.5"></path></g></g></g><g id="g-root-tx_evaluare_1qduo2incvy18-stroke" data-item-order="0" transform="translate(375.112060546875, 267)"></g><g id="g-root-shie_v7d7iyncvx8g-stroke" data-item-order="0" transform="translate(147.224365234375, 339.111328125)"><g id="shie_v7d7iyncvx8g-stroke" fill="none" stroke-linecap="round" stroke-linejoin="round" stroke-miterlimit="4" stroke="#92bd39" stroke-width="2"><g><path d="M 15 13C 15 11.895431 15.895431 11 17 11L 51 11C 52.104568 11 53 11.895431 53 13L 53 25.528C 52.999878 38.732285 45.684467 50.849682 34 57C 22.314255 50.851032 14.998331 38.732784 15 25.528ZM 26 21.996L 42 37.996002M 42 21.996L 26 37.996002"></path></g></g></g><g id="g-root-tx_aprobaro_4nkndmncvzt7-stroke" data-item-order="0" transform="translate(375.112060546875, 339)"></g><g id="g-root-tx_cambioge_quo5zuncvxfm-stroke" data-item-order="0" transform="translate(81, 423)"></g></g></g></svg>