<?xml version="1.0" encoding="utf-8" standalone="yes"?>
<!DOCTYPE svg PUBLIC "-//W3C//DTD SVG 1.1//EN" "http://www.w3.org/Graphics/SVG/1.1/DTD/svg11.dtd">
<svg width="626" height="410" viewBox="0 0 626 410" style="fill:none;stroke:none;fill-rule:evenodd;clip-rule:evenodd;stroke-linecap:round;stroke-linejoin:round;stroke-miterlimit:1.5;" version="1.1" xmlns="http://www.w3.org/2000/svg" xmlns:xlink="http://www.w3.org/1999/xlink"><style id="fontImports">@import url("https://fonts.googleapis.com/css2?family=Roboto:wght@400;700&amp;display=block");</style><g id="items" style="isolation: isolate"><g id="blend" style="mix-blend-mode:normal"><g id="g-root--1.line_sy_3dtoqogj37v-fill" data-item-order="-101369" transform="translate(498, 194.99609375)"></g><g id="g-root--1.vector_sy_1uoodjeogj3t0-fill" data-item-order="-101367" transform="translate(39, 194.99609375)"></g><g id="g-root-5.cr-big_cr_1lt1daiogj4lp-fill" data-item-order="-101364" transform="translate(459, 99)"><g id="5.cr-big_cr_1lt1daiogj4lp-fill" stroke="none" fill="#f3f0ff"><g><path d="M 10 46C 10 65.882251 26.117749 82 46 82C 65.882251 82 82 65.882251 82 46C 82 26.117749 65.882251 10 46 10C 26.117749 10 10 26.117749 10 46"></path></g></g></g><g id="g-root-5.cu-smallCircle_sy_18i7c0aogj30u-fill" data-item-order="-101361" transform="translate(492, 191.99609375)"></g><g id="g-root-5.ln_ln_142dtvuogj3t3-fill" data-item-order="-101359" transform="translate(495, 171)"></g><g id="g-root-4.cr-big_cr_zmkbreogj4lc-fill" data-item-order="-101356" transform="translate(363, 218.998046875)"><g id="4.cr-big_cr_zmkbreogj4lc-fill" stroke="none" fill="#e8f9ff"><g><path d="M 10 46C 10 65.882251 26.117749 82 46 82C 65.882251 82 82 65.882251 82 46C 82 26.117749 65.882251 10 46 10C 26.117749 10 10 26.117749 10 46"></path></g></g></g><g id="g-root-4.cu-smallCircle_sy_zmkbreogj4ld-fill" data-item-order="-101353" transform="translate(396, 192.001953125)"></g><g id="g-root-4.ln_ln_qrjslmogj28a-fill" data-item-order="-101351" transform="translate(399, 198.001953125)"></g><g id="g-root-3.cr-big_cr_mbqah6ogj30j-fill" data-item-order="-101348" transform="translate(267, 99)"><g id="3.cr-big_cr_mbqah6ogj30j-fill" stroke="none" fill="#f4ffdc"><g><path d="M 10 46C 10 65.882251 26.117749 82 46 82C 65.882251 82 82 65.882251 82 46C 82 26.117749 65.882251 10 46 10C 26.117749 10 10 26.117749 10 46"></path></g></g></g><g id="g-root-3.cu-smallCircle_sy_mbqah6ogj30k-fill" data-item-order="-101345" transform="translate(300, 191.99609375)"></g><g id="g-root-3.ln_ln_dg3a8aogj3t9-fill" data-item-order="-101343" transform="translate(303, 171)"></g><g id="g-root-2.cr-big_cr_1luwsjuogj3m6-fill" data-item-order="-101340" transform="translate(171, 219)"><g id="2.cr-big_cr_1luwsjuogj3m6-fill" stroke="none" fill="#e3fff2"><g><path d="M 10 46C 10 65.882251 26.117749 82 46 82C 65.882251 82 82 65.882251 82 46C 82 26.117749 65.882251 10 46 10C 26.117749 10 10 26.117749 10 46"></path></g></g></g><g id="g-root-2.cu-smallCircle_sy_1hf3afeogj4ef-fill" data-item-order="-101337" transform="translate(204, 192.001953125)"></g><g id="g-root-2.ln_ln_1czw9e2ogj20w-fill" data-item-order="-101335" transform="translate(207, 198.001953125)"></g><g id="g-root-1.cr-big_cr_1449956ogj2tl-fill" data-item-order="-101332" transform="translate(75, 99)"><g id="1.cr-big_cr_1449956ogj2tl-fill" stroke="none" fill="#edf4ff"><g><path d="M 10 46C 10 65.882251 26.117749 82 46 82C 65.882251 82 82 65.882251 82 46C 82 26.117749 65.882251 10 46 10C 26.117749 10 10 26.117749 10 46"></path></g></g></g><g id="g-root-1.cu-smallCircle_sy_1449956ogj2tm-fill" data-item-order="-101329" transform="translate(108, 191.99609375)"></g><g id="g-root-1.ln_ln_zofr0qogj3lv-fill" data-item-order="-101327" transform="translate(111, 171)"></g><g id="g-root-chec_4jtz7uognaj3-fill" data-item-order="0" transform="translate(471, 111)"></g><g id="g-root-assi_9swaogc26l-fill" data-item-order="0" transform="translate(279, 111)"></g><g id="g-root-tria_v3msuiogswlo-fill" data-item-order="0" transform="translate(87, 111)"></g><g id="g-root-tx_revisary_qntaq2ogsxdx-fill" data-item-order="0" transform="translate(435, 39)"><g id="tx_revisary_qntaq2ogsxdx-fill" stroke="none" fill="#484848"><g><text style="font: 20px &quot;Roboto&quot;, sans-serif; white-space: pre;" font-size="20px" font-family="'Roboto', sans-serif"><tspan x="30.15" y="34" dominant-baseline="ideographic">Revisar y </tspan><tspan x="15.32" y="58" dominant-baseline="ideographic">Documentar</tspan></text></g></g></g><g id="g-root-tx_proponer_1q6zssqogsxzj-fill" data-item-order="0" transform="translate(249, 39)"><g id="tx_proponer_1q6zssqogsxzj-fill" stroke="none" fill="#484848"><g><text style="font: 20px &quot;Roboto&quot;, sans-serif; white-space: pre;" font-size="20px" font-family="'Roboto', sans-serif"><tspan x="23.21" y="34" dominant-baseline="ideographic">Proponer </tspan><tspan x="15.09" y="58" dominant-baseline="ideographic">Soluciones</tspan></text></g></g></g><g id="g-root-arro_1uo293eoglv5s-fill" data-item-order="0" transform="translate(183, 231)"></g><g id="g-root-2_1d30wayogj2f6-fill" data-item-order="0" transform="translate(375, 231)"></g><g id="g-root-tx_analizar_1hbz9myogswe8-fill" data-item-order="0" transform="translate(153, 303)"><g id="tx_analizar_1hbz9myogswe8-fill" stroke="none" fill="#484848"><g><text style="font: 20px &quot;Roboto&quot;, sans-serif; white-space: pre;" font-size="20px" font-family="'Roboto', sans-serif"><tspan x="15.21" y="34" dominant-baseline="ideographic">Analizar el </tspan><tspan x="21.41" y="58" dominant-baseline="ideographic">Contexto</tspan></text></g></g></g><g id="g-root-tx_implemen_4hc96yogswlq-fill" data-item-order="0" transform="translate(327, 303)"><g id="tx_implemen_4hc96yogswlq-fill" stroke="none" fill="#484848"><g><text style="font: 20px &quot;Roboto&quot;, sans-serif; white-space: pre;" font-size="20px" font-family="'Roboto', sans-serif"><tspan x="13.58" y="34" dominant-baseline="ideographic">Implementar la </tspan><tspan x="41.97" y="58" dominant-baseline="ideographic">Solución</tspan></text></g></g></g><g id="g-root-tx_definire_v4vr0qogsyrt-fill" data-item-order="0" transform="translate(63, 39)"><g id="tx_definire_v4vr0qogsyrt-fill" stroke="none" fill="#484848"><g><text style="font: 20px &quot;Roboto&quot;, sans-serif; white-space: pre;" font-size="20px" font-family="'Roboto', sans-serif"><tspan x="18.57" y="34" dominant-baseline="ideographic">Definir el </tspan><tspan x="14.65" y="58" dominant-baseline="ideographic">Problema</tspan></text></g></g></g><g id="g-root--1.line_sy_3dtoqogj37v-stroke" data-item-order="-101369" transform="translate(498, 194.99609375)"><g id="-1.line_sy_3dtoqogj37v-stroke" fill="none" stroke-linecap="round" stroke-linejoin="round" stroke-miterlimit="4" stroke="#969696" stroke-width="2"><g><path d="M 77 10.003906L 10 10.003906"></path><path d="M 71 16.503906L 77.5 10.003906L 71 3.503906" stroke-dasharray="none"></path></g></g></g><g id="g-root--1.vector_sy_1uoodjeogj3t0-stroke" data-item-order="-101367" transform="translate(39, 194.99609375)"><g id="-1.vector_sy_1uoodjeogj3t0-stroke" fill="none" stroke-linecap="round" stroke-linejoin="round" stroke-miterlimit="4" stroke="#969696" stroke-width="2"><g><path d="M 78.9976 10L 10 10M 174.9976 10L 84.9976 10M 271 10L 181 10M 367 10L 277 10M 463 10L 373 10"></path></g></g></g><g id="g-root-5.cr-big_cr_1lt1daiogj4lp-stroke" data-item-order="-101364" transform="translate(459, 99)"><g id="5.cr-big_cr_1lt1daiogj4lp-stroke" fill="none" stroke-linecap="round" stroke-linejoin="round" stroke-miterlimit="4" stroke="#7f64ea" stroke-width="2"><g><path d="M 10 46C 10 65.882251 26.117749 82 46 82C 65.882251 82 82 65.882251 82 46C 82 26.117749 65.882251 10 46 10C 26.117749 10 10 26.117749 10 46"></path></g></g></g><g id="g-root-5.cu-smallCircle_sy_18i7c0aogj30u-stroke" data-item-order="-101361" transform="translate(492, 191.99609375)"><g id="5.cu-smallCircle_sy_18i7c0aogj30u-stroke" fill="none" stroke-linecap="round" stroke-linejoin="round" stroke-miterlimit="4" stroke="#7f64ea" stroke-width="2"><g><path d="M 16 13C 16 14.6569 14.6569 16 13 16C 11.3431 16 10 14.6569 10 13C 10 11.3431 11.3431 10 13 10C 14.6569 10 16 11.3431 16 13Z"></path></g></g></g><g id="g-root-5.ln_ln_142dtvuogj3t3-stroke" data-item-order="-101359" transform="translate(495, 171)"><g id="5.ln_ln_142dtvuogj3t3-stroke" fill="none" stroke-linecap="round" stroke-linejoin="round" stroke-miterlimit="4" stroke="#7f64ea" stroke-width="2"><g><path d="M 10 10L 10 20.5L 10 31"></path></g></g></g><g id="g-root-4.cr-big_cr_zmkbreogj4lc-stroke" data-item-order="-101356" transform="translate(363, 218.998046875)"><g id="4.cr-big_cr_zmkbreogj4lc-stroke" fill="none" stroke-linecap="round" stroke-linejoin="round" stroke-miterlimit="4" stroke="#1eabda" stroke-width="2"><g><path d="M 10 46C 10 65.882251 26.117749 82 46 82C 65.882251 82 82 65.882251 82 46C 82 26.117749 65.882251 10 46 10C 26.117749 10 10 26.117749 10 46"></path></g></g></g><g id="g-root-4.cu-smallCircle_sy_zmkbreogj4ld-stroke" data-item-order="-101353" transform="translate(396, 192.001953125)"><g id="4.cu-smallCircle_sy_zmkbreogj4ld-stroke" fill="none" stroke-linecap="round" stroke-linejoin="round" stroke-miterlimit="4" stroke="#1eabda" stroke-width="2"><g><path d="M 10 13C 10 11.343109 11.343079 10 13 10C 14.656921 10 16 11.343109 16 13C 16 14.656891 14.656921 16 13 16C 11.343079 16 10 14.656891 10 13Z"></path></g></g></g><g id="g-root-4.ln_ln_qrjslmogj28a-stroke" data-item-order="-101351" transform="translate(399, 198.001953125)"><g id="4.ln_ln_qrjslmogj28a-stroke" fill="none" stroke-linecap="round" stroke-linejoin="round" stroke-miterlimit="4" stroke="#1eabda" stroke-width="2"><g><path d="M 10 31L 10 20.5L 10 10"></path></g></g></g><g id="g-root-3.cr-big_cr_mbqah6ogj30j-stroke" data-item-order="-101348" transform="translate(267, 99)"><g id="3.cr-big_cr_mbqah6ogj30j-stroke" fill="none" stroke-linecap="round" stroke-linejoin="round" stroke-miterlimit="4" stroke="#92bd39" stroke-width="2"><g><path d="M 10 46C 10 65.882251 26.117749 82 46 82C 65.882251 82 82 65.882251 82 46C 82 26.117749 65.882251 10 46 10C 26.117749 10 10 26.117749 10 46"></path></g></g></g><g id="g-root-3.cu-smallCircle_sy_mbqah6ogj30k-stroke" data-item-order="-101345" transform="translate(300, 191.99609375)"><g id="3.cu-smallCircle_sy_mbqah6ogj30k-stroke" fill="none" stroke-linecap="round" stroke-linejoin="round" stroke-miterlimit="4" stroke="#92bd39" stroke-width="2"><g><path d="M 16 13C 16 14.6569 14.6569 16 13 16C 11.3431 16 10 14.6569 10 13C 10 11.3431 11.3431 10 13 10C 14.6569 10 16 11.3431 16 13Z"></path></g></g></g><g id="g-root-3.ln_ln_dg3a8aogj3t9-stroke" data-item-order="-101343" transform="translate(303, 171)"><g id="3.ln_ln_dg3a8aogj3t9-stroke" fill="none" stroke-linecap="round" stroke-linejoin="round" stroke-miterlimit="4" stroke="#92bd39" stroke-width="2"><g><path d="M 10 10L 10 20.5L 10 31"></path></g></g></g><g id="g-root-2.cr-big_cr_1luwsjuogj3m6-stroke" data-item-order="-101340" transform="translate(171, 219)"><g id="2.cr-big_cr_1luwsjuogj3m6-stroke" fill="none" stroke-linecap="round" stroke-linejoin="round" stroke-miterlimit="4" stroke="#3cc583" stroke-width="2"><g><path d="M 10 46C 10 65.882251 26.117749 82 46 82C 65.882251 82 82 65.882251 82 46C 82 26.117749 65.882251 10 46 10C 26.117749 10 10 26.117749 10 46"></path></g></g></g><g id="g-root-2.cu-smallCircle_sy_1hf3afeogj4ef-stroke" data-item-order="-101337" transform="translate(204, 192.001953125)"><g id="2.cu-smallCircle_sy_1hf3afeogj4ef-stroke" fill="none" stroke-linecap="round" stroke-linejoin="round" stroke-miterlimit="4" stroke="#3cc583" stroke-width="2"><g><path d="M 10 13C 10 11.343109 11.343109 10 13 10C 14.656891 10 16 11.343109 16 13C 16 14.656891 14.656891 16 13 16C 11.343109 16 10 14.656891 10 13Z"></path></g></g></g><g id="g-root-2.ln_ln_1czw9e2ogj20w-stroke" data-item-order="-101335" transform="translate(207, 198.001953125)"><g id="2.ln_ln_1czw9e2ogj20w-stroke" fill="none" stroke-linecap="round" stroke-linejoin="round" stroke-miterlimit="4" stroke="#3cc583" stroke-width="2"><g><path d="M 10 31L 10 20.5L 10 10"></path></g></g></g><g id="g-root-1.cr-big_cr_1449956ogj2tl-stroke" data-item-order="-101332" transform="translate(75, 99)"><g id="1.cr-big_cr_1449956ogj2tl-stroke" fill="none" stroke-linecap="round" stroke-linejoin="round" stroke-miterlimit="4" stroke="#4e88e7" stroke-width="2"><g><path d="M 10 46C 10 65.882251 26.117749 82 46 82C 65.882251 82 82 65.882251 82 46C 82 26.117749 65.882251 10 46 10C 26.117749 10 10 26.117749 10 46"></path></g></g></g><g id="g-root-1.cu-smallCircle_sy_1449956ogj2tm-stroke" data-item-order="-101329" transform="translate(108, 191.99609375)"><g id="1.cu-smallCircle_sy_1449956ogj2tm-stroke" fill="none" stroke-linecap="round" stroke-linejoin="round" stroke-miterlimit="4" stroke="#4e88e7" stroke-width="2"><g><path d="M 16 13C 16 14.6569 14.6569 16 13 16C 11.3431 16 10 14.6569 10 13C 10 11.3431 11.3431 10 13 10C 14.6569 10 16 11.3431 16 13Z"></path></g></g></g><g id="g-root-1.ln_ln_zofr0qogj3lv-stroke" data-item-order="-101327" transform="translate(111, 171)"><g id="1.ln_ln_zofr0qogj3lv-stroke" fill="none" stroke-linecap="round" stroke-linejoin="round" stroke-miterlimit="4" stroke="#4e88e7" stroke-width="2"><g><path d="M 10 10L 10 20.5L 10 31"></path></g></g></g><g id="g-root-chec_4jtz7uognaj3-stroke" data-item-order="0" transform="translate(471, 111)"><g id="chec_4jtz7uognaj3-stroke" fill="none" stroke-linecap="round" stroke-linejoin="round" stroke-miterlimit="4" stroke="#7f64ea" stroke-width="2"><g><path d="M 29.174 51L 13.174 51C 12.06943 51 11.174 50.104568 11.174 49L 11.174 17C 11.174 15.895431 12.06943 15 13.174 15L 41.174 15C 42.278568 15 43.174 15.895431 43.174 17L 43.174 27M 19.174 19.001999L 19.174 11.002M 27.174 19.001999L 27.174 11.002M 35.174 19.001999L 35.174 11.002M 33.174 45.001999C 33.174004 51.629417 38.546585 57.002003 45.174 57.002003C 51.801418 57.002003 57.174 51.629417 57.174 45.002003C 57.174 38.374584 51.801418 33.001999 45.174 33.001999C 38.546585 33.001999 33.174004 38.374584 33.174004 45.002003ZM 50.521999 41.512001L 44.722 49.259998C 44.460602 49.607647 44.06134 49.824909 43.627468 49.855598C 43.193596 49.886288 42.767727 49.72739 42.459999 49.419998L 39.459999 46.419998"></path></g></g></g><g id="g-root-assi_9swaogc26l-stroke" data-item-order="0" transform="translate(279, 111)"><g id="assi_9swaogc26l-stroke" fill="none" stroke-linecap="round" stroke-linejoin="round" stroke-miterlimit="4" stroke="#92bd39" stroke-width="2"><g><path d="M 28.632 45.396C 28.631388 48.361095 31.034903 50.76511 34 50.76511C 36.965096 50.76511 39.368614 48.361095 39.368 45.396C 39.368614 42.430901 36.965096 40.02689 34 40.02689C 31.034903 40.02689 28.631388 42.430901 28.632 45.396M 41.669998 56.900002C 40.158646 54.068169 37.2099 52.2995 34 52.2995C 30.7901 52.2995 27.841356 54.068169 26.33 56.900002M 44.212002 45.396C 44.211388 48.361095 46.614902 50.76511 49.579998 50.76511C 52.545097 50.76511 54.948612 48.361095 54.947998 45.396C 54.948612 42.430901 52.545097 40.02689 49.579998 40.02689C 46.614902 40.02689 44.211388 42.430901 44.211998 45.396M 57 56.138C 55.202232 53.59993 52.232258 52.156391 49.125824 52.310799C 46.01939 52.46521 43.207211 54.196159 41.669998 56.899998M 13.052 45.396C 13.051388 48.361095 15.454903 50.76511 18.42 50.76511C 21.385098 50.76511 23.788612 48.361095 23.788 45.396C 23.788612 42.430901 21.385098 40.02689 18.42 40.02689C 15.454903 40.02689 13.051388 42.430901 13.052 45.396M 11 56.138C 12.797768 53.59993 15.767741 52.156391 18.874174 52.310799C 21.980608 52.46521 24.792789 54.196159 26.33 56.899998M 55.743999 24.726L 45.344002 35.125999L 40.23 36.148003L 41.251999 31.035999L 51.652 20.636C 52.778206 19.510122 54.603798 19.510122 55.73 20.636L 55.742001 20.647999C 56.28392 21.188044 56.588692 21.92152 56.589069 22.686584C 56.589443 23.451651 56.285389 24.185425 55.743999 24.726ZM 47.414001 15.596001L 42.273998 11.1L 17.732 11.1L 17.732 34.108002M 23.868 21.836L 25.911999 23.882L 30.002001 19.792M 23.868 32.062L 25.911999 34.108002L 30.002001 30.016001M 35.115997 22.858L 38.183998 22.858M 42.273998 30.016001L 46.363998 34.108002M 14.268 42C 16.776192 44.495247 20.266575 45.74181 23.788 45.400002M 29.848 42C 32.356342 44.494999 35.846611 45.741524 39.367996 45.399998M 45.428001 42C 47.936962 44.495327 51.427975 45.741856 54.950001 45.400002"></path></g></g></g><g id="g-root-tria_v3msuiogswlo-stroke" data-item-order="0" transform="translate(87, 111)"><g id="tria_v3msuiogswlo-stroke" fill="none" stroke-linecap="round" stroke-linejoin="round" stroke-miterlimit="4" stroke="#4e88e7" stroke-width="2"><g><path d="M 55.105999 55.161999C 55.374756 55.535477 55.392162 56.034046 55.150112 56.425354C 54.908058 56.816666 54.454182 57.023708 54 56.950001L 14 56.950001C 13.54582 57.023708 13.091944 56.816666 12.849892 56.425354C 12.60784 56.034046 12.625246 55.535477 12.894 55.162003L 33.106003 14.74C 33.598 13.756001 34.402 13.756001 34.893997 14.74ZM 34 43.958L 34 29.958M 33.982002 47.958C 33.850079 47.960594 33.724724 48.016068 33.634094 48.111961C 33.543465 48.207859 33.495148 48.336143 33.5 48.468002C 33.510712 48.741051 33.734741 48.957138 34.007999 48.958L 34.017998 48.958C 34.149925 48.955406 34.275276 48.899933 34.365906 48.804039C 34.456539 48.708141 34.504852 48.579861 34.5 48.448002C 34.489449 48.178001 34.270153 47.963093 34 47.958L 33.989998 47.958"></path></g></g></g><g id="g-root-tx_revisary_qntaq2ogsxdx-stroke" data-item-order="0" transform="translate(435, 39)"></g><g id="g-root-tx_proponer_1q6zssqogsxzj-stroke" data-item-order="0" transform="translate(249, 39)"></g><g id="g-root-arro_1uo293eoglv5s-stroke" data-item-order="0" transform="translate(183, 231)"><g id="arro_1uo293eoglv5s-stroke" fill="none" stroke-linecap="round" stroke-linejoin="round" stroke-miterlimit="4" stroke="#3cc583" stroke-width="2"><g><path d="M 44.066002 44C 44.065998 46.300819 45.931183 48.166 48.231998 48.166C 50.532818 48.166 52.397999 46.300819 52.397999 44C 52.397999 41.699181 50.532818 39.834 48.231998 39.834C 45.931183 39.834 44.065998 41.699181 44.065998 44M 45.453999 56.5L 56.563999 56.5C 55.899048 53.89912 54.057701 51.757942 51.585693 50.711067C 49.113686 49.664192 46.294624 49.831722 43.964001 51.164001M 15.602 44C 15.602 46.300819 17.467182 48.166 19.768 48.166C 22.068817 48.166 23.934 46.300819 23.934 44C 23.934 41.699181 22.068817 39.834 19.768 39.834C 17.467182 39.834 15.602 41.699181 15.602 44M 22.487999 56.5L 11.436 56.5C 12.098295 53.912041 13.925614 51.778793 16.381168 50.726917C 18.836721 49.675037 21.641655 49.823986 23.972 51.130005M 44.158001 56.5C 44.209476 52.827229 42.279564 49.411205 39.107155 47.559803C 35.934746 45.708397 32.011253 45.708397 28.838844 47.559803C 25.666435 49.411205 23.736523 52.827229 23.787998 56.499996ZM 28.684 34.461998C 31.572502 37.455845 36.012802 38.348686 39.834 36.704002M 27.85 37.517998C 27.85 40.841652 30.544352 43.536003 33.868004 43.536003C 37.19165 43.536003 39.886002 40.841652 39.886002 37.518002C 39.886002 34.194351 37.19165 31.500002 33.868004 31.500002C 30.544352 31.500002 27.85 34.194351 27.85 37.518002M 46.972 35.5C 46.972 35.5 40.972 29.5 40.972 24.5L 49.972 24.5L 33.972 11.5L 17.972 24.5L 26.972 24.5C 26.972 29.5 20.972 35.5 20.972 35.5"></path></g></g></g><g id="g-root-2_1d30wayogj2f6-stroke" data-item-order="0" transform="translate(375, 231)"><g id="2_1d30wayogj2f6-stroke" fill="none" stroke-linecap="round" stroke-linejoin="round" stroke-miterlimit="4" stroke="#1eabda" stroke-width="2"><g><path d="M 11 44.236C 11 47.199562 13.40244 49.602001 16.366001 49.602001C 19.329559 49.602001 21.732 47.199562 21.732 44.236C 21.732 41.272442 19.329559 38.870003 16.366001 38.870003C 13.40244 38.870003 11 41.272442 11 44.236M 24.83 56.722C 23.733578 54.15427 21.530436 52.223373 18.841097 51.47316C 16.151758 50.722946 13.267247 51.234596 11 52.863998M 46.268002 44.236C 46.268002 47.199562 48.670441 49.602001 51.634003 49.602001C 54.597561 49.602001 57.000004 47.199562 57.000004 44.236C 57.000004 41.272442 54.597561 38.870003 51.634003 38.870003C 48.670441 38.870003 46.268002 41.272442 46.268002 44.236M 43.169998 56.722C 44.266418 54.15427 46.469563 52.223373 49.158901 51.47316C 51.84824 50.722946 54.73275 51.234596 56.999996 52.863998M 27.1 42.702C 27.099024 46.513454 30.188545 49.603767 34 49.603767C 37.811455 49.603767 40.900978 46.513454 40.900002 42.702C 40.900978 38.890545 37.811455 35.800232 34 35.800232C 30.188545 35.800232 27.099024 38.890545 27.1 42.702M 43.169998 56.722C 40.820126 54.140408 37.490913 52.668919 34 52.668919C 30.509081 52.668919 27.179871 54.140408 24.829998 56.721996M 30.934 25.077999C 30.934 26.771305 32.306694 28.144001 34 28.144001C 35.693306 28.144001 37.066002 26.771305 37.066002 25.077999C 37.066002 23.384695 35.693306 22.012001 34 22.012001C 32.306694 22.012001 30.934 23.384695 30.934 25.077999M 28.091999 32.577999L 25.08 33.276001C 23.909945 33.537689 22.705814 33.007095 22.109383 31.967009C 21.512949 30.926922 21.663177 29.619677 22.48 28.742001L 24.582001 26.469999C 25.309984 25.684002 25.309984 24.469999 24.582001 23.684L 22.476 21.414C 21.660423 20.53574 21.510864 19.229115 22.106888 18.189278C 22.702915 17.149443 23.90597 16.618126 25.076 16.878L 28.087999 17.576C 29.13192 17.814625 30.181868 17.202154 30.488001 16.176001L 31.4 13.214C 31.745472 12.063965 32.804195 11.276545 34.004997 11.276545C 35.205803 11.276545 36.264526 12.063965 36.610001 13.214L 37.514 16.184C 37.820133 17.210155 38.870079 17.822624 39.914001 17.584L 42.914001 16.886C 44.084026 16.626125 45.287083 17.157444 45.88311 18.197277C 46.479134 19.237114 46.329575 20.543739 45.513996 21.421999L 43.416 23.684C 42.689945 24.470753 42.689945 25.683243 43.415997 26.469999L 45.523998 28.742001C 46.340824 29.619677 46.491055 30.926922 45.894619 31.967009C 45.298187 33.007095 44.094059 33.537689 42.924 33.276001L 39.924 32.577999M 28.6 38.400002C 31.986273 41.374069 36.396431 42.91465 40.898003 42.696003M 12.152 40.924C 14.800483 43.220455 18.232716 44.406799 21.734001 44.236M 47.417999 40.924C 50.066483 43.220455 53.498718 44.406799 57.000004 44.236"></path></g></g></g><g id="g-root-tx_analizar_1hbz9myogswe8-stroke" data-item-order="0" transform="translate(153, 303)"></g><g id="g-root-tx_implemen_4hc96yogswlq-stroke" data-item-order="0" transform="translate(327, 303)"></g><g id="g-root-tx_definire_v4vr0qogsyrt-stroke" data-item-order="0" transform="translate(63, 39)"></g></g></g></svg>