<?xml version="1.0" encoding="utf-8" standalone="yes"?>
<!DOCTYPE svg PUBLIC "-//W3C//DTD SVG 1.1//EN" "http://www.w3.org/Graphics/SVG/1.1/DTD/svg11.dtd">
<svg width="529" height="271" viewBox="0 0 529 271" style="fill:none;stroke:none;fill-rule:evenodd;clip-rule:evenodd;stroke-linecap:round;stroke-linejoin:round;stroke-miterlimit:1.5;" version="1.1" xmlns="http://www.w3.org/2000/svg" xmlns:xlink="http://www.w3.org/1999/xlink"><style id="fontImports">@import url("https://fonts.googleapis.com/css2?family=Roboto:wght@400;700&amp;display=block");</style><g id="items" style="isolation: isolate"><g id="blend" style="mix-blend-mode:normal"><g id="g-root-3.cu_sy_dhxzswiwvgul-fill" data-item-order="999940971" data-item-id="3.cu_sy_dhxzswiwvgul" data-item-class="Part Indexed Fill Stroke ColorFillGray ColorStrokeGray" data-item-index="3" data-renderer-id="0" transform="translate(3, 176)"><g id="3.cu_sy_dhxzswiwvgul-fill" stroke="none" fill="#f6f6f6"><g><path d="M 10 22L 46 34L 46 82L 10 70L 10 22ZM 82 22L 118 34L 118 82L 82 70L 82 22ZM 154 22L 190 34L 190 82L 154 70L 154 22ZM 82 22L 46 34L 46 82L 82 70L 82 22ZM 154 22L 118 34L 118 82L 154 70L 154 22ZM 226 22L 190 34L 190 82L 226 70L 226 22ZM 46 10L 10 22L 46 34L 82 22L 46 10ZM 118 10L 82 22L 118 34L 154 22L 118 10ZM 190 10L 154 22L 190 34L 226 22L 190 10Z"></path></g></g></g><g id="g-root-3.cu_sy_dhxzswiwvgul-fill" data-item-order="999940971" data-item-id="3.cu_sy_dhxzswiwvgul" data-item-class="Part Indexed Fill Stroke ColorFillGray ColorStrokeGray" data-item-index="3" data-renderer-id="0" transform="translate(3, 176)"><g id="3.cu_sy_dhxzswiwvgul-fill" stroke="none" fill="#f6f6f6"><g><path d="M 10 22L 46 34L 46 82L 10 70L 10 22ZM 82 22L 118 34L 118 82L 82 70L 82 22ZM 154 22L 190 34L 190 82L 154 70L 154 22ZM 82 22L 46 34L 46 82L 82 70L 82 22ZM 154 22L 118 34L 118 82L 154 70L 154 22ZM 226 22L 190 34L 190 82L 226 70L 226 22ZM 46 10L 10 22L 46 34L 82 22L 46 10ZM 118 10L 82 22L 118 34L 154 22L 118 10ZM 190 10L 154 22L 190 34L 226 22L 190 10Z"></path></g></g></g><g id="g-root-3.line_sy_73yioiwvf9q-fill" data-item-order="999940976" data-item-id="3.line_sy_73yioiwvf9q" data-item-class="Curve Stroke Part LeaderLine Indexed" data-item-index="3" data-renderer-id="0" transform="translate(201, 218)"></g><g id="g-root-3.line_sy_73yioiwvf9q-fill" data-item-order="999940976" data-item-id="3.line_sy_73yioiwvf9q" data-item-class="Curve Stroke Part LeaderLine Indexed" data-item-index="3" data-renderer-id="0" transform="translate(201, 218)"></g><g id="g-root-2.cu_sy_1lwri4giwvgnj-fill" data-item-order="999940979" data-item-id="2.cu_sy_1lwri4giwvgnj" data-item-class="Part Indexed Fill Stroke" data-item-index="2" data-renderer-id="0" transform="translate(39, 116)"><g id="2.cu_sy_1lwri4giwvgnj-fill" stroke="none" fill="#e6efff"><g><path d="M 10 22L 46 34L 46 82L 10 70L 10 22ZM 82 22L 118 34L 118 82L 82 70L 82 22ZM 82 22L 46 34L 46 82L 82 70L 82 22ZM 154 22L 118 34L 118 82L 154 70L 154 22ZM 46 10L 10 22L 46 34L 82 22L 46 10ZM 118 10L 82 22L 118 34L 154 22L 118 10Z"></path></g></g></g><g id="g-root-2.cu_sy_1lwri4giwvgnj-fill" data-item-order="999940979" data-item-id="2.cu_sy_1lwri4giwvgnj" data-item-class="Part Indexed Fill Stroke" data-item-index="2" data-renderer-id="0" transform="translate(39, 116)"><g id="2.cu_sy_1lwri4giwvgnj-fill" stroke="none" fill="#e6efff"><g><path d="M 10 22L 46 34L 46 82L 10 70L 10 22ZM 82 22L 118 34L 118 82L 82 70L 82 22ZM 82 22L 46 34L 46 82L 82 70L 82 22ZM 154 22L 118 34L 118 82L 154 70L 154 22ZM 46 10L 10 22L 46 34L 82 22L 46 10ZM 118 10L 82 22L 118 34L 154 22L 118 10Z"></path></g></g></g><g id="g-root-2.line_sy_1qcl08wiwvgn4-fill" data-item-order="999940984" data-item-id="2.line_sy_1qcl08wiwvgn4" data-item-class="Curve Stroke Part LeaderLine Indexed" data-item-index="2" data-renderer-id="0" transform="translate(165, 158)"></g><g id="g-root-2.line_sy_1qcl08wiwvgn4-fill" data-item-order="999940984" data-item-id="2.line_sy_1qcl08wiwvgn4" data-item-class="Curve Stroke Part LeaderLine Indexed" data-item-index="2" data-renderer-id="0" transform="translate(165, 158)"></g><g id="g-root-1.cu_sy_1d1qyyoiwvf29-fill" data-item-order="999940987" data-item-id="1.cu_sy_1d1qyyoiwvf29" data-item-class="Part Indexed Indexed_1 Fill Stroke" data-item-index="1" data-renderer-id="0" transform="translate(75, 56)"><g id="1.cu_sy_1d1qyyoiwvf29-fill" stroke="none" fill="#e9fbf3"><g><path d="M 10 22L 46 34L 46 82L 10 70L 10 22ZM 82 22L 46 34L 46 82L 82 70L 82 22ZM 46 10L 10 22L 46 34L 82 22L 46 10Z"></path></g></g></g><g id="g-root-1.cu_sy_1d1qyyoiwvf29-fill" data-item-order="999940987" data-item-id="1.cu_sy_1d1qyyoiwvf29" data-item-class="Part Indexed Indexed_1 Fill Stroke" data-item-index="1" data-renderer-id="0" transform="translate(75, 56)"><g id="1.cu_sy_1d1qyyoiwvf29-fill" stroke="none" fill="#e9fbf3"><g><path d="M 10 22L 46 34L 46 82L 10 70L 10 22ZM 82 22L 46 34L 46 82L 82 70L 82 22ZM 46 10L 10 22L 46 34L 82 22L 46 10Z"></path></g></g></g><g id="g-root-1.line_sy_1463ypsiwvfuy-fill" data-item-order="999940992" data-item-id="1.line_sy_1463ypsiwvfuy" data-item-class="Curve Stroke Part LeaderLine Indexed Indexed_1" data-item-index="1" data-renderer-id="0" transform="translate(129.0009765625, 98)"></g><g id="g-root-1.line_sy_1463ypsiwvfuy-fill" data-item-order="999940992" data-item-id="1.line_sy_1463ypsiwvfuy" data-item-class="Curve Stroke Part LeaderLine Indexed Indexed_1" data-item-index="1" data-renderer-id="0" transform="translate(129.0009765625, 98)"></g><g id="g-root-tx_pirmided_qv9xfkiwvea3-fill" data-item-order="1000000000" data-item-id="tx_pirmided_qv9xfkiwvea3" data-item-class="Label Stroke Title" data-item-index="none" data-renderer-id="0" transform="translate(105, 2)"><g id="tx_pirmided_qv9xfkiwvea3-fill" stroke="none" fill="#484848"><g><text style="font: 20px &quot;Roboto&quot;, sans-serif; white-space: pre;" font-size="20px" font-family="'Roboto', sans-serif"><tspan x="16.14" y="34" dominant-baseline="ideographic">Pirámide de Transformación de Datos</tspan></text></g></g></g><g id="g-root-tx_pirmided_qv9xfkiwvea3-fill" data-item-order="1000000000" data-item-id="tx_pirmided_qv9xfkiwvea3" data-item-class="Label Stroke Title" data-item-index="none" data-renderer-id="0" transform="translate(105, 2)"><g id="tx_pirmided_qv9xfkiwvea3-fill" stroke="none" fill="#484848"><g><text style="font: 20px &quot;Roboto&quot;, sans-serif; white-space: pre;" font-size="20px" font-family="'Roboto', sans-serif"><tspan x="16.14" y="34" dominant-baseline="ideographic">Pirámide de Transformación de Datos</tspan></text></g></g></g><g id="g-root-tx_conocimi_18nsw3kiwve32-fill" data-item-order="1000000000" data-item-id="tx_conocimi_18nsw3kiwve32" data-item-class="Label Stroke Indexed Indexed_1" data-item-index="1" data-renderer-id="0" transform="translate(267, 86)"><g id="tx_conocimi_18nsw3kiwve32-fill" stroke="none" fill="#484848"><g><text style="font: 20px &quot;Roboto&quot;, sans-serif; white-space: pre;" font-size="20px" font-family="'Roboto', sans-serif"><tspan x="12" y="34" dominant-baseline="ideographic">Conocimiento Estratégico</tspan></text></g></g></g><g id="g-root-tx_conocimi_18nsw3kiwve32-fill" data-item-order="1000000000" data-item-id="tx_conocimi_18nsw3kiwve32" data-item-class="Label Stroke Indexed Indexed_1" data-item-index="1" data-renderer-id="0" transform="translate(267, 86)"><g id="tx_conocimi_18nsw3kiwve32-fill" stroke="none" fill="#484848"><g><text style="font: 20px &quot;Roboto&quot;, sans-serif; white-space: pre;" font-size="20px" font-family="'Roboto', sans-serif"><tspan x="12" y="34" dominant-baseline="ideographic">Conocimiento Estratégico</tspan></text></g></g></g><g id="g-root-tx_informac_1lymxdsiwvfnx-fill" data-item-order="1000000000" data-item-id="tx_informac_1lymxdsiwvfnx" data-item-class="Label Stroke Indexed" data-item-index="2" data-renderer-id="0" transform="translate(267, 146)"><g id="tx_informac_1lymxdsiwvfnx-fill" stroke="none" fill="#484848"><g><text style="font: 20px &quot;Roboto&quot;, sans-serif; white-space: pre;" font-size="20px" font-family="'Roboto', sans-serif"><tspan x="12" y="34" dominant-baseline="ideographic">Información Procesada</tspan></text></g></g></g><g id="g-root-tx_informac_1lymxdsiwvfnx-fill" data-item-order="1000000000" data-item-id="tx_informac_1lymxdsiwvfnx" data-item-class="Label Stroke Indexed" data-item-index="2" data-renderer-id="0" transform="translate(267, 146)"><g id="tx_informac_1lymxdsiwvfnx-fill" stroke="none" fill="#484848"><g><text style="font: 20px &quot;Roboto&quot;, sans-serif; white-space: pre;" font-size="20px" font-family="'Roboto', sans-serif"><tspan x="12" y="34" dominant-baseline="ideographic">Información Procesada</tspan></text></g></g></g><g id="g-root-tx_datosbru_8zds0iwvea4-fill" data-item-order="1000000000" data-item-id="tx_datosbru_8zds0iwvea4" data-item-class="Label Stroke Indexed" data-item-index="3" data-renderer-id="0" transform="translate(267, 206)"><g id="tx_datosbru_8zds0iwvea4-fill" stroke="none" fill="#484848"><g><text style="font: 20px &quot;Roboto&quot;, sans-serif; white-space: pre;" font-size="20px" font-family="'Roboto', sans-serif"><tspan x="12" y="34" dominant-baseline="ideographic">Datos Brutos</tspan></text></g></g></g><g id="g-root-tx_datosbru_8zds0iwvea4-fill" data-item-order="1000000000" data-item-id="tx_datosbru_8zds0iwvea4" data-item-class="Label Stroke Indexed" data-item-index="3" data-renderer-id="0" transform="translate(267, 206)"><g id="tx_datosbru_8zds0iwvea4-fill" stroke="none" fill="#484848"><g><text style="font: 20px &quot;Roboto&quot;, sans-serif; white-space: pre;" font-size="20px" font-family="'Roboto', sans-serif"><tspan x="12" y="34" dominant-baseline="ideographic">Datos Brutos</tspan></text></g></g></g><g id="g-root-3.cu_sy_dhxzswiwvgul-stroke" data-item-order="999940971" data-item-id="3.cu_sy_dhxzswiwvgul" data-item-class="Part Indexed Fill Stroke ColorFillGray ColorStrokeGray" data-item-index="3" data-renderer-id="0" transform="translate(3, 176)"><g id="3.cu_sy_dhxzswiwvgul-stroke" fill="none" stroke-linecap="round" stroke-linejoin="round" stroke-miterlimit="4" stroke="#888888" stroke-width="2"><g><path d="M 10 22L 46 34L 46 82L 10 70L 10 22ZM 82 22L 118 34L 118 82L 82 70L 82 22ZM 154 22L 190 34L 190 82L 154 70L 154 22ZM 82 22L 46 34L 46 82L 82 70L 82 22ZM 154 22L 118 34L 118 82L 154 70L 154 22ZM 226 22L 190 34L 190 82L 226 70L 226 22ZM 46 10L 10 22L 46 34L 82 22L 46 10ZM 118 10L 82 22L 118 34L 154 22L 118 10ZM 190 10L 154 22L 190 34L 226 22L 190 10Z"></path></g></g></g><g id="g-root-3.cu_sy_dhxzswiwvgul-stroke" data-item-order="999940971" data-item-id="3.cu_sy_dhxzswiwvgul" data-item-class="Part Indexed Fill Stroke ColorFillGray ColorStrokeGray" data-item-index="3" data-renderer-id="0" transform="translate(3, 176)"><g id="3.cu_sy_dhxzswiwvgul-stroke" fill="none" stroke-linecap="round" stroke-linejoin="round" stroke-miterlimit="4" stroke="#888888" stroke-width="2"><g><path d="M 10 22L 46 34L 46 82L 10 70L 10 22ZM 82 22L 118 34L 118 82L 82 70L 82 22ZM 154 22L 190 34L 190 82L 154 70L 154 22ZM 82 22L 46 34L 46 82L 82 70L 82 22ZM 154 22L 118 34L 118 82L 154 70L 154 22ZM 226 22L 190 34L 190 82L 226 70L 226 22ZM 46 10L 10 22L 46 34L 82 22L 46 10ZM 118 10L 82 22L 118 34L 154 22L 118 10ZM 190 10L 154 22L 190 34L 226 22L 190 10Z"></path></g></g></g><g id="g-root-3.line_sy_73yioiwvf9q-stroke" data-item-order="999940976" data-item-id="3.line_sy_73yioiwvf9q" data-item-class="Curve Stroke Part LeaderLine Indexed" data-item-index="3" data-renderer-id="0" transform="translate(201, 218)"><g id="3.line_sy_73yioiwvf9q-stroke" fill="none" stroke-linecap="round" stroke-linejoin="round" stroke-miterlimit="4" stroke="#484848" stroke-width="2"><g><path d="M 12.210022 10C 117.230022 10 -44.729978 10 64.000022 10"></path><path d="M 18.010022 3.5L 11.510022 10L 18.010022 16.5" stroke-dasharray="none"></path></g></g></g><g id="g-root-3.line_sy_73yioiwvf9q-stroke" data-item-order="999940976" data-item-id="3.line_sy_73yioiwvf9q" data-item-class="Curve Stroke Part LeaderLine Indexed" data-item-index="3" data-renderer-id="0" transform="translate(201, 218)"><g id="3.line_sy_73yioiwvf9q-stroke" fill="none" stroke-linecap="round" stroke-linejoin="round" stroke-miterlimit="4" stroke="#484848" stroke-width="2"><g><path d="M 12.210022 10C 117.230022 10 -44.729978 10 64.000022 10"></path><path d="M 18.010022 3.5L 11.510022 10L 18.010022 16.5" stroke-dasharray="none"></path></g></g></g><g id="g-root-2.cu_sy_1lwri4giwvgnj-stroke" data-item-order="999940979" data-item-id="2.cu_sy_1lwri4giwvgnj" data-item-class="Part Indexed Fill Stroke" data-item-index="2" data-renderer-id="0" transform="translate(39, 116)"><g id="2.cu_sy_1lwri4giwvgnj-stroke" fill="none" stroke-linecap="round" stroke-linejoin="round" stroke-miterlimit="4" stroke="#4682e3" stroke-width="2"><g><path d="M 10 22L 46 34L 46 82L 10 70L 10 22ZM 82 22L 118 34L 118 82L 82 70L 82 22ZM 82 22L 46 34L 46 82L 82 70L 82 22ZM 154 22L 118 34L 118 82L 154 70L 154 22ZM 46 10L 10 22L 46 34L 82 22L 46 10ZM 118 10L 82 22L 118 34L 154 22L 118 10Z"></path></g></g></g><g id="g-root-2.cu_sy_1lwri4giwvgnj-stroke" data-item-order="999940979" data-item-id="2.cu_sy_1lwri4giwvgnj" data-item-class="Part Indexed Fill Stroke" data-item-index="2" data-renderer-id="0" transform="translate(39, 116)"><g id="2.cu_sy_1lwri4giwvgnj-stroke" fill="none" stroke-linecap="round" stroke-linejoin="round" stroke-miterlimit="4" stroke="#4682e3" stroke-width="2"><g><path d="M 10 22L 46 34L 46 82L 10 70L 10 22ZM 82 22L 118 34L 118 82L 82 70L 82 22ZM 82 22L 46 34L 46 82L 82 70L 82 22ZM 154 22L 118 34L 118 82L 154 70L 154 22ZM 46 10L 10 22L 46 34L 82 22L 46 10ZM 118 10L 82 22L 118 34L 154 22L 118 10Z"></path></g></g></g><g id="g-root-2.line_sy_1qcl08wiwvgn4-stroke" data-item-order="999940984" data-item-id="2.line_sy_1qcl08wiwvgn4" data-item-class="Curve Stroke Part LeaderLine Indexed" data-item-index="2" data-renderer-id="0" transform="translate(165, 158)"><g id="2.line_sy_1qcl08wiwvgn4-stroke" fill="none" stroke-linecap="round" stroke-linejoin="round" stroke-miterlimit="4" stroke="#484848" stroke-width="2"><g><path d="M 12.059998 10C 117.849998 10 -8.780002 10 99.999998 10"></path><path d="M 17.959998 3.5L 11.459998 10L 17.959998 16.5" stroke-dasharray="none"></path></g></g></g><g id="g-root-2.line_sy_1qcl08wiwvgn4-stroke" data-item-order="999940984" data-item-id="2.line_sy_1qcl08wiwvgn4" data-item-class="Curve Stroke Part LeaderLine Indexed" data-item-index="2" data-renderer-id="0" transform="translate(165, 158)"><g id="2.line_sy_1qcl08wiwvgn4-stroke" fill="none" stroke-linecap="round" stroke-linejoin="round" stroke-miterlimit="4" stroke="#484848" stroke-width="2"><g><path d="M 12.059998 10C 117.849998 10 -8.780002 10 99.999998 10"></path><path d="M 17.959998 3.5L 11.459998 10L 17.959998 16.5" stroke-dasharray="none"></path></g></g></g><g id="g-root-1.cu_sy_1d1qyyoiwvf29-stroke" data-item-order="999940987" data-item-id="1.cu_sy_1d1qyyoiwvf29" data-item-class="Part Indexed Indexed_1 Fill Stroke" data-item-index="1" data-renderer-id="0" transform="translate(75, 56)"><g id="1.cu_sy_1d1qyyoiwvf29-stroke" fill="none" stroke-linecap="round" stroke-linejoin="round" stroke-miterlimit="4" stroke="#3bc482" stroke-width="2"><g><path d="M 10 22L 46 34L 46 82L 10 70L 10 22ZM 82 22L 46 34L 46 82L 82 70L 82 22ZM 46 10L 10 22L 46 34L 82 22L 46 10Z"></path></g></g></g><g id="g-root-1.cu_sy_1d1qyyoiwvf29-stroke" data-item-order="999940987" data-item-id="1.cu_sy_1d1qyyoiwvf29" data-item-class="Part Indexed Indexed_1 Fill Stroke" data-item-index="1" data-renderer-id="0" transform="translate(75, 56)"><g id="1.cu_sy_1d1qyyoiwvf29-stroke" fill="none" stroke-linecap="round" stroke-linejoin="round" stroke-miterlimit="4" stroke="#3bc482" stroke-width="2"><g><path d="M 10 22L 46 34L 46 82L 10 70L 10 22ZM 82 22L 46 34L 46 82L 82 70L 82 22ZM 46 10L 10 22L 46 34L 82 22L 46 10Z"></path></g></g></g><g id="g-root-1.line_sy_1463ypsiwvfuy-stroke" data-item-order="999940992" data-item-id="1.line_sy_1463ypsiwvfuy" data-item-class="Curve Stroke Part LeaderLine Indexed Indexed_1" data-item-index="1" data-renderer-id="0" transform="translate(129.0009765625, 98)"><g id="1.line_sy_1463ypsiwvfuy-stroke" fill="none" stroke-linecap="round" stroke-linejoin="round" stroke-miterlimit="4" stroke="#484848" stroke-width="2"><g><path d="M 12.059021 10C 118.299021 10 27.219021 10 135.999021 10"></path><path d="M 17.959021 3.5L 11.459021 10L 17.959021 16.5" stroke-dasharray="none"></path></g></g></g><g id="g-root-1.line_sy_1463ypsiwvfuy-stroke" data-item-order="999940992" data-item-id="1.line_sy_1463ypsiwvfuy" data-item-class="Curve Stroke Part LeaderLine Indexed Indexed_1" data-item-index="1" data-renderer-id="0" transform="translate(129.0009765625, 98)"><g id="1.line_sy_1463ypsiwvfuy-stroke" fill="none" stroke-linecap="round" stroke-linejoin="round" stroke-miterlimit="4" stroke="#484848" stroke-width="2"><g><path d="M 12.059021 10C 118.299021 10 27.219021 10 135.999021 10"></path><path d="M 17.959021 3.5L 11.459021 10L 17.959021 16.5" stroke-dasharray="none"></path></g></g></g><g id="g-root-tx_pirmided_qv9xfkiwvea3-stroke" data-item-order="1000000000" data-item-id="tx_pirmided_qv9xfkiwvea3" data-item-class="Label Stroke Title" data-item-index="none" data-renderer-id="0" transform="translate(105, 2)"></g><g id="g-root-tx_pirmided_qv9xfkiwvea3-stroke" data-item-order="1000000000" data-item-id="tx_pirmided_qv9xfkiwvea3" data-item-class="Label Stroke Title" data-item-index="none" data-renderer-id="0" transform="translate(105, 2)"></g><g id="g-root-tx_conocimi_18nsw3kiwve32-stroke" data-item-order="1000000000" data-item-id="tx_conocimi_18nsw3kiwve32" data-item-class="Label Stroke Indexed Indexed_1" data-item-index="1" data-renderer-id="0" transform="translate(267, 86)"></g><g id="g-root-tx_conocimi_18nsw3kiwve32-stroke" data-item-order="1000000000" data-item-id="tx_conocimi_18nsw3kiwve32" data-item-class="Label Stroke Indexed Indexed_1" data-item-index="1" data-renderer-id="0" transform="translate(267, 86)"></g><g id="g-root-tx_informac_1lymxdsiwvfnx-stroke" data-item-order="1000000000" data-item-id="tx_informac_1lymxdsiwvfnx" data-item-class="Label Stroke Indexed" data-item-index="2" data-renderer-id="0" transform="translate(267, 146)"></g><g id="g-root-tx_informac_1lymxdsiwvfnx-stroke" data-item-order="1000000000" data-item-id="tx_informac_1lymxdsiwvfnx" data-item-class="Label Stroke Indexed" data-item-index="2" data-renderer-id="0" transform="translate(267, 146)"></g><g id="g-root-tx_datosbru_8zds0iwvea4-stroke" data-item-order="1000000000" data-item-id="tx_datosbru_8zds0iwvea4" data-item-class="Label Stroke Indexed" data-item-index="3" data-renderer-id="0" transform="translate(267, 206)"></g><g id="g-root-tx_datosbru_8zds0iwvea4-stroke" data-item-order="1000000000" data-item-id="tx_datosbru_8zds0iwvea4" data-item-class="Label Stroke Indexed" data-item-index="3" data-renderer-id="0" transform="translate(267, 206)"></g></g></g></svg>