<?xml version="1.0" encoding="utf-8" standalone="yes"?>
<!DOCTYPE svg PUBLIC "-//W3C//DTD SVG 1.1//EN" "http://www.w3.org/Graphics/SVG/1.1/DTD/svg11.dtd">
<svg width="578" height="506" viewBox="0 0 578 506" style="fill:none;stroke:none;fill-rule:evenodd;clip-rule:evenodd;stroke-linecap:round;stroke-linejoin:round;stroke-miterlimit:1.5;" version="1.1" xmlns="http://www.w3.org/2000/svg" xmlns:xlink="http://www.w3.org/1999/xlink"><style id="fontImports">@import url("https://fonts.googleapis.com/css2?family=Roboto:wght@400;700&amp;display=block");</style><g id="items" style="isolation: isolate"><g id="blend" style="mix-blend-mode:normal"><g id="g-root--1.cu-1_sy_13ymj2plytrt4-fill" data-item-order="999735046" data-item-id="-1.cu-1_sy_13ymj2plytrt4" data-item-class="Part Fill Stroke ColorStrokeGray" data-item-index="-1" data-renderer-id="0" transform="translate(3, 3)"><g id="-1.cu-1_sy_13ymj2plytrt4-fill" stroke="none" fill="#f0f0f0"><g><path d="M 286 10L 562 130L 550 154L 22 154L 10 130L 286 10ZM 562 490L 10 490L 22 466L 550 466L 562 490Z"></path></g></g></g><g id="g-root--1.cu-1_sy_13ymj2plytrt4-fill" data-item-order="999735046" data-item-id="-1.cu-1_sy_13ymj2plytrt4" data-item-class="Part Fill Stroke ColorStrokeGray" data-item-index="-1" data-renderer-id="0" transform="translate(3, 3)"><g id="-1.cu-1_sy_13ymj2plytrt4-fill" stroke="none" fill="#f0f0f0"><g><path d="M 286 10L 562 130L 550 154L 22 154L 10 130L 286 10ZM 562 490L 10 490L 22 466L 550 466L 562 490Z"></path></g></g></g><g id="g-root-5.cu_sy_zit0y9lytsld-fill" data-item-order="999735050" data-item-id="5.cu_sy_zit0y9lytsld" data-item-class="Part Indexed Fill Stroke" data-item-index="5" data-renderer-id="0" transform="translate(279, 303)"><g id="5.cu_sy_zit0y9lytsld-fill" stroke="none" fill="#fef2e6"><g><path d="M 10 166L 262 166L 262 10L 10 10L 10 166Z"></path></g></g></g><g id="g-root-5.cu_sy_zit0y9lytsld-fill" data-item-order="999735050" data-item-id="5.cu_sy_zit0y9lytsld" data-item-class="Part Indexed Fill Stroke" data-item-index="5" data-renderer-id="0" transform="translate(279, 303)"><g id="5.cu_sy_zit0y9lytsld-fill" stroke="none" fill="#fef2e6"><g><path d="M 10 166L 262 166L 262 10L 10 10L 10 166Z"></path></g></g></g><g id="g-root-4.cu_sy_qnshshlytq8a-fill" data-item-order="999735054" data-item-id="4.cu_sy_qnshshlytq8a" data-item-class="Part Indexed Fill Stroke" data-item-index="4" data-renderer-id="0" transform="translate(27, 303)"><g id="4.cu_sy_qnshshlytq8a-fill" stroke="none" fill="#fffce6"><g><path d="M 10 166L 262 166L 262 10L 10 10L 10 166Z"></path></g></g></g><g id="g-root-4.cu_sy_qnshshlytq8a-fill" data-item-order="999735054" data-item-id="4.cu_sy_qnshshlytq8a" data-item-class="Part Indexed Fill Stroke" data-item-index="4" data-renderer-id="0" transform="translate(27, 303)"><g id="4.cu_sy_qnshshlytq8a-fill" stroke="none" fill="#fffce6"><g><path d="M 10 166L 262 166L 262 10L 10 10L 10 166Z"></path></g></g></g><g id="g-root-3.cu_sy_dcbzf5lytrt7-fill" data-item-order="999735058" data-item-id="3.cu_sy_dcbzf5lytrt7" data-item-class="Part Indexed Fill Stroke" data-item-index="3" data-renderer-id="0" transform="translate(363, 147)"><g id="3.cu_sy_dcbzf5lytrt7-fill" stroke="none" fill="#f5fbe9"><g><path d="M 10 166L 178 166L 178 10L 10 10L 10 166Z"></path></g></g></g><g id="g-root-3.cu_sy_dcbzf5lytrt7-fill" data-item-order="999735058" data-item-id="3.cu_sy_dcbzf5lytrt7" data-item-class="Part Indexed Fill Stroke" data-item-index="3" data-renderer-id="0" transform="translate(363, 147)"><g id="3.cu_sy_dcbzf5lytrt7-fill" stroke="none" fill="#f5fbe9"><g><path d="M 10 166L 178 166L 178 10L 10 10L 10 166Z"></path></g></g></g><g id="g-root-2.cu_sy_8wihaplytslg-fill" data-item-order="999735062" data-item-id="2.cu_sy_8wihaplytslg" data-item-class="Part Indexed Fill Stroke" data-item-index="2" data-renderer-id="0" transform="translate(195, 147)"><g id="2.cu_sy_8wihaplytslg-fill" stroke="none" fill="#e9fbf3"><g><path d="M 10 166L 94 166L 178 166L 178 10L 10 10L 10 166Z"></path></g></g></g><g id="g-root-2.cu_sy_8wihaplytslg-fill" data-item-order="999735062" data-item-id="2.cu_sy_8wihaplytslg" data-item-class="Part Indexed Fill Stroke" data-item-index="2" data-renderer-id="0" transform="translate(195, 147)"><g id="2.cu_sy_8wihaplytslg-fill" stroke="none" fill="#e9fbf3"><g><path d="M 10 166L 94 166L 178 166L 178 10L 10 10L 10 166Z"></path></g></g></g><g id="g-root-1.cu_sy_1hy4xlytq8d-fill" data-item-order="999735066" data-item-id="1.cu_sy_1hy4xlytq8d" data-item-class="Part Indexed Indexed_1 Fill Stroke" data-item-index="1" data-renderer-id="0" transform="translate(27, 147)"><g id="1.cu_sy_1hy4xlytq8d-fill" stroke="none" fill="#e6f9ff"><g><path d="M 10 166L 178 166L 178 10L 10 10L 10 166Z"></path></g></g></g><g id="g-root-1.cu_sy_1hy4xlytq8d-fill" data-item-order="999735066" data-item-id="1.cu_sy_1hy4xlytq8d" data-item-class="Part Indexed Indexed_1 Fill Stroke" data-item-index="1" data-renderer-id="0" transform="translate(27, 147)"><g id="1.cu_sy_1hy4xlytq8d-fill" stroke="none" fill="#e6f9ff"><g><path d="M 10 166L 178 166L 178 10L 10 10L 10 166Z"></path></g></g></g><g id="g-root-plur_1hhktn5lyscg4-fill" data-item-order="1000000000" data-item-id="plur_1hhktn5lyscg4" data-item-class="Icon Stroke Indexed InsideFill InsideColorFill" data-item-index="3" data-renderer-id="0" transform="translate(423, 159)"></g><g id="g-root-tx_reposito_1umshzllytqti-fill" data-item-order="1000000000" data-item-id="tx_reposito_1umshzllytqti" data-item-class="Label Stroke Indexed Indexed_1 InsideFill InsideColorFill" data-item-index="1" data-renderer-id="0" transform="translate(51, 219)"><g id="tx_reposito_1umshzllytqti-fill" stroke="none" fill="#17b0e3"><g><text style="font: 20px &quot;Roboto&quot;, sans-serif; white-space: pre;" font-size="20px" font-family="'Roboto', sans-serif"><tspan x="16.8" y="34" dominant-baseline="ideographic">Repositorio </tspan><tspan x="35.88" y="58" dominant-baseline="ideographic">Central</tspan></text></g></g></g><g id="g-root-tx_almacena_18fozddlytt73-fill" data-item-order="1000000000" data-item-id="tx_almacena_18fozddlytt73" data-item-class="Label Stroke Indexed InsideFill InsideColorFill" data-item-index="2" data-renderer-id="0" transform="translate(201, 219)"><g id="tx_almacena_18fozddlytt73-fill" stroke="none" fill="#3bc482"><g><text style="font: 20px &quot;Roboto&quot;, sans-serif; white-space: pre;" font-size="20px" font-family="'Roboto', sans-serif"><tspan x="12.23" y="34" dominant-baseline="ideographic">Almacenamiento </tspan><tspan x="48.32" y="58" dominant-baseline="ideographic">de Datos </tspan><tspan x="42.28" y="82" dominant-baseline="ideographic">Históricos</tspan></text></g></g></g><g id="g-root-tx_integrac_de7eohlytqtl-fill" data-item-order="1000000000" data-item-id="tx_integrac_de7eohlytqtl" data-item-class="Label Stroke Indexed InsideFill InsideColorFill" data-item-index="3" data-renderer-id="0" transform="translate(375, 219)"><g id="tx_integrac_de7eohlytqtl-fill" stroke="none" fill="#93c131"><g><text style="font: 20px &quot;Roboto&quot;, sans-serif; white-space: pre;" font-size="20px" font-family="'Roboto', sans-serif"><tspan x="16.19" y="34" dominant-baseline="ideographic">Integración de </tspan><tspan x="38.66" y="58" dominant-baseline="ideographic">Múltiples </tspan><tspan x="44.04" y="82" dominant-baseline="ideographic">Fuentes</tspan></text></g></g></g><g id="g-root-cloc_18gbjm9lyo4ci-fill" data-item-order="1000000000" data-item-id="cloc_18gbjm9lyo4ci" data-item-class="Icon Stroke Indexed InsideFill InsideColorFill" data-item-index="2" data-renderer-id="0" transform="translate(255, 159)"></g><g id="g-root-sync_1q6z30xlyldl6-fill" data-item-order="1000000000" data-item-id="sync_1q6z30xlyldl6" data-item-class="Icon Stroke Indexed Indexed_1 InsideFill InsideColorFill" data-item-index="1" data-renderer-id="0" transform="translate(87, 159)"></g><g id="g-root-line_1cwrittlyqznv-fill" data-item-order="1000000000" data-item-id="line_1cwrittlyqznv" data-item-class="Icon Stroke Indexed InsideFill InsideColorFill" data-item-index="4" data-renderer-id="0" transform="translate(129, 315)"></g><g id="g-root-tx_soportea_1uo1g5tlytszm-fill" data-item-order="1000000000" data-item-id="tx_soportea_1uo1g5tlytszm" data-item-class="Label Stroke Indexed InsideFill InsideColorFill" data-item-index="5" data-renderer-id="0" transform="translate(321, 375)"><g id="tx_soportea_1uo1g5tlytszm-fill" stroke="none" fill="#dd8433"><g><text style="font: 20px &quot;Roboto&quot;, sans-serif; white-space: pre;" font-size="20px" font-family="'Roboto', sans-serif"><tspan x="12.37" y="34" dominant-baseline="ideographic">Soporte a la Toma </tspan><tspan x="31.43" y="58" dominant-baseline="ideographic">de Decisiones </tspan><tspan x="38.45" y="82" dominant-baseline="ideographic">Estratégicas</tspan></text></g></g></g><g id="g-root-data_qqahaplyh343-fill" data-item-order="1000000000" data-item-id="data_qqahaplyh343" data-item-class="Icon Stroke Title InsideFill ColorStrokeGray" data-item-index="none" data-renderer-id="0" transform="translate(255, 27)"></g><g id="g-root-line_1d14ufllyv766-fill" data-item-order="1000000000" data-item-id="line_1d14ufllyv766" data-item-class="Icon Stroke Indexed InsideFill InsideColorFill" data-item-index="5" data-renderer-id="0" transform="translate(381, 315)"></g><g id="g-root-tx_optimiza_qp1fyplytseg-fill" data-item-order="1000000000" data-item-id="tx_optimiza_qp1fyplytseg" data-item-class="Label Stroke Indexed InsideFill InsideColorFill" data-item-index="4" data-renderer-id="0" transform="translate(87, 375)"><g id="tx_optimiza_qp1fyplytseg-fill" stroke="none" fill="#e3cd09"><g><text style="font: 20px &quot;Roboto&quot;, sans-serif; white-space: pre;" font-size="20px" font-family="'Roboto', sans-serif"><tspan x="14.88" y="34" dominant-baseline="ideographic">Optimización </tspan><tspan x="34.78" y="58" dominant-baseline="ideographic">Analítica</tspan></text></g></g></g><g id="g-root-tx_almacnde_18lxte9lyv4sn-fill" data-item-order="1000000000" data-item-id="tx_almacnde_18lxte9lyv4sn" data-item-class="Label Stroke Title InsideFill ColorStrokeGray" data-item-index="none" data-renderer-id="0" transform="translate(195, 99)"><g id="tx_almacnde_18lxte9lyv4sn-fill" stroke="none" fill="#888888"><g><text style="font: 20px &quot;Roboto&quot;, sans-serif; white-space: pre;" font-size="20px" font-family="'Roboto', sans-serif"><tspan x="12.88" y="34" dominant-baseline="ideographic">Almacén de Datos</tspan></text></g></g></g><g id="g-root--1.cu-1_sy_13ymj2plytrt4-stroke" data-item-order="999735046" data-item-id="-1.cu-1_sy_13ymj2plytrt4" data-item-class="Part Fill Stroke ColorStrokeGray" data-item-index="-1" data-renderer-id="0" transform="translate(3, 3)"><g id="-1.cu-1_sy_13ymj2plytrt4-stroke" fill="none" stroke-linecap="round" stroke-linejoin="round" stroke-miterlimit="4" stroke="#888888" stroke-width="2"><g><path d="M 286 10L 562 130L 550 154L 22 154L 10 130L 286 10ZM 562 490L 10 490L 22 466L 550 466L 562 490Z"></path></g></g></g><g id="g-root--1.cu-1_sy_13ymj2plytrt4-stroke" data-item-order="999735046" data-item-id="-1.cu-1_sy_13ymj2plytrt4" data-item-class="Part Fill Stroke ColorStrokeGray" data-item-index="-1" data-renderer-id="0" transform="translate(3, 3)"><g id="-1.cu-1_sy_13ymj2plytrt4-stroke" fill="none" stroke-linecap="round" stroke-linejoin="round" stroke-miterlimit="4" stroke="#888888" stroke-width="2"><g><path d="M 286 10L 562 130L 550 154L 22 154L 10 130L 286 10ZM 562 490L 10 490L 22 466L 550 466L 562 490Z"></path></g></g></g><g id="g-root-5.cu_sy_zit0y9lytsld-stroke" data-item-order="999735050" data-item-id="5.cu_sy_zit0y9lytsld" data-item-class="Part Indexed Fill Stroke" data-item-index="5" data-renderer-id="0" transform="translate(279, 303)"><g id="5.cu_sy_zit0y9lytsld-stroke" fill="none" stroke-linecap="round" stroke-linejoin="round" stroke-miterlimit="4" stroke="#dd8433" stroke-width="2"><g><path d="M 10 166L 262 166L 262 10L 10 10L 10 166Z"></path></g></g></g><g id="g-root-5.cu_sy_zit0y9lytsld-stroke" data-item-order="999735050" data-item-id="5.cu_sy_zit0y9lytsld" data-item-class="Part Indexed Fill Stroke" data-item-index="5" data-renderer-id="0" transform="translate(279, 303)"><g id="5.cu_sy_zit0y9lytsld-stroke" fill="none" stroke-linecap="round" stroke-linejoin="round" stroke-miterlimit="4" stroke="#dd8433" stroke-width="2"><g><path d="M 10 166L 262 166L 262 10L 10 10L 10 166Z"></path></g></g></g><g id="g-root-4.cu_sy_qnshshlytq8a-stroke" data-item-order="999735054" data-item-id="4.cu_sy_qnshshlytq8a" data-item-class="Part Indexed Fill Stroke" data-item-index="4" data-renderer-id="0" transform="translate(27, 303)"><g id="4.cu_sy_qnshshlytq8a-stroke" fill="none" stroke-linecap="round" stroke-linejoin="round" stroke-miterlimit="4" stroke="#e3cd09" stroke-width="2"><g><path d="M 10 166L 262 166L 262 10L 10 10L 10 166Z"></path></g></g></g><g id="g-root-4.cu_sy_qnshshlytq8a-stroke" data-item-order="999735054" data-item-id="4.cu_sy_qnshshlytq8a" data-item-class="Part Indexed Fill Stroke" data-item-index="4" data-renderer-id="0" transform="translate(27, 303)"><g id="4.cu_sy_qnshshlytq8a-stroke" fill="none" stroke-linecap="round" stroke-linejoin="round" stroke-miterlimit="4" stroke="#e3cd09" stroke-width="2"><g><path d="M 10 166L 262 166L 262 10L 10 10L 10 166Z"></path></g></g></g><g id="g-root-3.cu_sy_dcbzf5lytrt7-stroke" data-item-order="999735058" data-item-id="3.cu_sy_dcbzf5lytrt7" data-item-class="Part Indexed Fill Stroke" data-item-index="3" data-renderer-id="0" transform="translate(363, 147)"><g id="3.cu_sy_dcbzf5lytrt7-stroke" fill="none" stroke-linecap="round" stroke-linejoin="round" stroke-miterlimit="4" stroke="#93c131" stroke-width="2"><g><path d="M 10 166L 178 166L 178 10L 10 10L 10 166Z"></path></g></g></g><g id="g-root-3.cu_sy_dcbzf5lytrt7-stroke" data-item-order="999735058" data-item-id="3.cu_sy_dcbzf5lytrt7" data-item-class="Part Indexed Fill Stroke" data-item-index="3" data-renderer-id="0" transform="translate(363, 147)"><g id="3.cu_sy_dcbzf5lytrt7-stroke" fill="none" stroke-linecap="round" stroke-linejoin="round" stroke-miterlimit="4" stroke="#93c131" stroke-width="2"><g><path d="M 10 166L 178 166L 178 10L 10 10L 10 166Z"></path></g></g></g><g id="g-root-2.cu_sy_8wihaplytslg-stroke" data-item-order="999735062" data-item-id="2.cu_sy_8wihaplytslg" data-item-class="Part Indexed Fill Stroke" data-item-index="2" data-renderer-id="0" transform="translate(195, 147)"><g id="2.cu_sy_8wihaplytslg-stroke" fill="none" stroke-linecap="round" stroke-linejoin="round" stroke-miterlimit="4" stroke="#3bc482" stroke-width="2"><g><path d="M 10 166L 94 166L 178 166L 178 10L 10 10L 10 166Z"></path></g></g></g><g id="g-root-2.cu_sy_8wihaplytslg-stroke" data-item-order="999735062" data-item-id="2.cu_sy_8wihaplytslg" data-item-class="Part Indexed Fill Stroke" data-item-index="2" data-renderer-id="0" transform="translate(195, 147)"><g id="2.cu_sy_8wihaplytslg-stroke" fill="none" stroke-linecap="round" stroke-linejoin="round" stroke-miterlimit="4" stroke="#3bc482" stroke-width="2"><g><path d="M 10 166L 94 166L 178 166L 178 10L 10 10L 10 166Z"></path></g></g></g><g id="g-root-1.cu_sy_1hy4xlytq8d-stroke" data-item-order="999735066" data-item-id="1.cu_sy_1hy4xlytq8d" data-item-class="Part Indexed Indexed_1 Fill Stroke" data-item-index="1" data-renderer-id="0" transform="translate(27, 147)"><g id="1.cu_sy_1hy4xlytq8d-stroke" fill="none" stroke-linecap="round" stroke-linejoin="round" stroke-miterlimit="4" stroke="#17b0e3" stroke-width="2"><g><path d="M 10 166L 178 166L 178 10L 10 10L 10 166Z"></path></g></g></g><g id="g-root-1.cu_sy_1hy4xlytq8d-stroke" data-item-order="999735066" data-item-id="1.cu_sy_1hy4xlytq8d" data-item-class="Part Indexed Indexed_1 Fill Stroke" data-item-index="1" data-renderer-id="0" transform="translate(27, 147)"><g id="1.cu_sy_1hy4xlytq8d-stroke" fill="none" stroke-linecap="round" stroke-linejoin="round" stroke-miterlimit="4" stroke="#17b0e3" stroke-width="2"><g><path d="M 10 166L 178 166L 178 10L 10 10L 10 166Z"></path></g></g></g><g id="g-root-plur_1hhktn5lyscg4-stroke" data-item-order="1000000000" data-item-id="plur_1hhktn5lyscg4" data-item-class="Icon Stroke Indexed InsideFill InsideColorFill" data-item-index="3" data-renderer-id="0" transform="translate(423, 159)"><g id="plur_1hhktn5lyscg4-stroke" fill="none" stroke-linecap="round" stroke-linejoin="round" stroke-miterlimit="4" stroke="#93c131" stroke-width="2"><g><path d="M 33.529999 57L 33.529999 30.018M 27.534 37.012001L 27.534 54.001999L 22.538 54.001999L 22.538 57M 15.542 57L 15.542 48.006001L 21.538 48.006001L 21.538 40.010002M 39.526001 37.012001L 39.526001 54.001999L 44.523998 54.001999L 44.523998 57M 51.52 57L 51.52 48.006001L 45.523998 48.006001L 45.523998 40.010002M 49 37.400002C 53.181938 36.334152 56.08078 32.530869 56 28.216C 56.001884 25.619896 54.946335 23.134996 53.076595 21.333933C 51.206856 19.532869 48.684216 18.571007 46.089996 18.669998C 43.484447 13.139819 37.459858 10.081257 31.45772 11.241485C 25.45558 12.401712 21.004866 17.485176 20.647999 23.587999C 18.534271 23.143478 16.332771 23.675255 14.655016 25.035618C 12.977261 26.395981 12.00195 28.440035 12 30.6C 11.812469 33.933861 14.140068 36.884327 17.426001 37.478001"></path></g></g></g><g id="g-root-tx_reposito_1umshzllytqti-stroke" data-item-order="1000000000" data-item-id="tx_reposito_1umshzllytqti" data-item-class="Label Stroke Indexed Indexed_1 InsideFill InsideColorFill" data-item-index="1" data-renderer-id="0" transform="translate(51, 219)"></g><g id="g-root-tx_almacena_18fozddlytt73-stroke" data-item-order="1000000000" data-item-id="tx_almacena_18fozddlytt73" data-item-class="Label Stroke Indexed InsideFill InsideColorFill" data-item-index="2" data-renderer-id="0" transform="translate(201, 219)"></g><g id="g-root-tx_integrac_de7eohlytqtl-stroke" data-item-order="1000000000" data-item-id="tx_integrac_de7eohlytqtl" data-item-class="Label Stroke Indexed InsideFill InsideColorFill" data-item-index="3" data-renderer-id="0" transform="translate(375, 219)"></g><g id="g-root-cloc_18gbjm9lyo4ci-stroke" data-item-order="1000000000" data-item-id="cloc_18gbjm9lyo4ci" data-item-class="Icon Stroke Indexed InsideFill InsideColorFill" data-item-index="2" data-renderer-id="0" transform="translate(255, 159)"><g id="cloc_18gbjm9lyo4ci-stroke" fill="none" stroke-linecap="round" stroke-linejoin="round" stroke-miterlimit="4" stroke="#3bc482" stroke-width="2"><g><path d="M 11.084 19.001999C 11.084 23.420277 19.59059 27.002001 30.084 27.002001C 40.577408 27.002001 49.084 23.420277 49.084 19.001999C 49.084 14.583722 40.577408 11.002 30.084 11.002C 19.59059 11.002 11.084 14.583722 11.084 19.001999ZM 30.084 35C 19.591999 35 11.084 31.42 11.084 27M 27.084 43.900002C 18.018 43.299999 11.084 39.989998 11.084 36.001999M 28.084 52.959999C 18.532 52.537998 11.084 49.136002 11.084 45.001999L 11.084 19M 49.084 19.001999L 49.084 28.002001M 33.073997 45.001999C 33.074001 51.629417 38.446587 57.002003 45.074001 57.002003C 51.70142 57.002003 57.074001 51.629417 57.074001 45.002003C 57.074001 38.374584 51.70142 33.001999 45.074001 33.001999C 38.446587 33.001999 33.074001 38.374584 33.074001 45.002003ZM 49.074001 45.001999L 45.074001 45.001999L 45.074001 39.001999"></path></g></g></g><g id="g-root-sync_1q6z30xlyldl6-stroke" data-item-order="1000000000" data-item-id="sync_1q6z30xlyldl6" data-item-class="Icon Stroke Indexed Indexed_1 InsideFill InsideColorFill" data-item-index="1" data-renderer-id="0" transform="translate(87, 159)"><g id="sync_1q6z30xlyldl6-stroke" fill="none" stroke-linecap="round" stroke-linejoin="round" stroke-miterlimit="4" stroke="#17b0e3" stroke-width="2"><g><path d="M 11 19C 11 23.418278 19.50659 27 30 27C 40.493408 27 49 23.418278 49 19C 49 14.581722 40.493408 11 30 11C 19.50659 11 11 14.581722 11 19M 30 35C 19.5 35 11 31.42 11 27M 28 44C 18.439999 43.540001 11 40.139999 11 36M 26 52.82C 17.42 52 11 48.84 11 45L 11 19M 49 19L 49 29M 48.18 40.279999L 54.259998 43L 57 36.860001M 32.639999 40.52C 34.336945 35.570831 39.24939 32.469467 44.447311 33.065716C 49.645233 33.661964 53.72781 37.795128 54.260002 43M 38.760002 49.720001L 32.68 47L 29.940001 53.139999M 54.299999 49.459999C 52.605865 54.408039 47.697712 57.511337 42.501217 56.920063C 37.304718 56.328785 33.219208 52.202156 32.68 47"></path></g></g></g><g id="g-root-line_1cwrittlyqznv-stroke" data-item-order="1000000000" data-item-id="line_1cwrittlyqznv" data-item-class="Icon Stroke Indexed InsideFill InsideColorFill" data-item-index="4" data-renderer-id="0" transform="translate(129, 315)"><g id="line_1cwrittlyqznv-stroke" fill="none" stroke-linecap="round" stroke-linejoin="round" stroke-miterlimit="4" stroke="#e3cd09" stroke-width="2"><g><path d="M 11 33.438L 25.498001 25.438C 27.771118 24.340263 30.364349 24.100899 32.799999 24.764L 40.211998 27.236C 42.510612 27.872299 44.973053 27.197374 46.625999 25.478001L 57 13.5L 57 55.5C 57 56.052284 56.552284 56.5 56 56.5L 12 56.5C 11.447716 56.5 11 56.052284 11 55.5L 11 11.5M 11 45.5L 23.514 38.461998C 25.838638 37.27578 28.392372 36.606472 31 36.5L 36 36.5C 38.632065 36.414696 41.23243 35.89922 43.697998 34.973999L 57 29.483999M 11 55.562L 23.709999 46.773998C 25.89522 45.418518 28.429409 44.732304 31 44.799999L 36.024002 45.188C 38.666168 45.324795 41.31498 45.123158 43.905998 44.587997L 57 41.5"></path></g></g></g><g id="g-root-tx_soportea_1uo1g5tlytszm-stroke" data-item-order="1000000000" data-item-id="tx_soportea_1uo1g5tlytszm" data-item-class="Label Stroke Indexed InsideFill InsideColorFill" data-item-index="5" data-renderer-id="0" transform="translate(321, 375)"></g><g id="g-root-data_qqahaplyh343-stroke" data-item-order="1000000000" data-item-id="data_qqahaplyh343" data-item-class="Icon Stroke Title InsideFill ColorStrokeGray" data-item-index="none" data-renderer-id="0" transform="translate(255, 27)"><g id="data_qqahaplyh343-stroke" fill="none" stroke-linecap="round" stroke-linejoin="round" stroke-miterlimit="4" stroke="#888888" stroke-width="2"><g><path d="M 18.006001 17.001999C 18.006001 20.315708 25.617159 23.001999 35.006001 23.001999C 44.39484 23.001999 52.006001 20.315708 52.006001 17.002001C 52.006001 13.688292 44.39484 11.002 35.006001 11.002C 25.617159 11.002 18.006001 13.688292 18.006001 17.002001ZM 52 25C 52 28.313999 44.388 31 35 31C 25.612 31 18 28.316 18 25M 52 33C 52 36.313999 44.388 39 35 39C 25.612 39 18 36.316002 18 33M 52 17L 52 41C 52 44.313999 44.388 47 35 47C 25.612 47 18 44.316002 18 41L 18 17M 22 57.001999L 46 57.001999M 34.006001 47.001999L 34.006001 57.001999M 12.5 56.001999L 12.5 56.001999M 12.5 56C 12.223858 56 12 56.223858 12 56.5C 12 56.776142 12.223858 57 12.5 57C 12.776142 57 13 56.776142 13 56.5C 13 56.223858 12.776142 56 12.5 56M 17.5 56.001999L 17.5 56.001999M 17.5 56C 17.223858 56 17 56.223858 17 56.5C 17 56.776142 17.223858 57 17.5 57C 17.776142 57 18 56.776142 18 56.5C 18 56.223858 17.776142 56 17.5 56M 50.5 56.001999L 50.5 56.001999M 50.5 56C 50.223858 56 50 56.223858 50 56.5C 50 56.776142 50.223858 57 50.5 57C 50.776142 57 51 56.776142 51 56.5C 51 56.223858 50.776142 56 50.5 56M 55.5 56.001999L 55.5 56.001999M 55.5 56C 55.223858 56 55 56.223858 55 56.5C 55 56.776142 55.223858 57 55.5 57C 55.776142 57 56 56.776142 56 56.5C 56 56.223858 55.776142 56 55.5 56"></path></g></g></g><g id="g-root-line_1d14ufllyv766-stroke" data-item-order="1000000000" data-item-id="line_1d14ufllyv766" data-item-class="Icon Stroke Indexed InsideFill InsideColorFill" data-item-index="5" data-renderer-id="0" transform="translate(381, 315)"><g id="line_1d14ufllyv766-stroke" fill="none" stroke-linecap="round" stroke-linejoin="round" stroke-miterlimit="4" stroke="#dd8433" stroke-width="2"><g><path d="M 13.007999 17L 55.007999 17C 55.007999 17 57.007999 17 57.007999 19L 57.007999 49C 57.007999 49 57.007999 51 55.007999 51L 13.007999 51C 13.007999 51 11.008 51 11.008 49L 11.008 19C 11.008 19 11.008 17 13.007999 17M 19 41L 24.142 32.43C 24.322607 32.128315 24.648384 31.943649 25 31.943649C 25.351616 31.943649 25.677393 32.128315 25.858 32.43L 30.284 39.799999C 30.450567 40.077888 30.741442 40.257866 31.064463 40.282898C 31.387482 40.307926 31.70261 40.174911 31.91 39.926003L 35.239998 35.926003C 35.429993 35.698166 35.711342 35.566452 36.007999 35.566452C 36.304657 35.566452 36.586006 35.698166 36.776001 35.926003L 40.085999 39.898003C 40.295769 40.149513 40.615395 40.282368 40.941643 40.253654C 41.267887 40.224937 41.559395 40.038288 41.722 39.753998L 49 27"></path></g></g></g><g id="g-root-tx_optimiza_qp1fyplytseg-stroke" data-item-order="1000000000" data-item-id="tx_optimiza_qp1fyplytseg" data-item-class="Label Stroke Indexed InsideFill InsideColorFill" data-item-index="4" data-renderer-id="0" transform="translate(87, 375)"></g><g id="g-root-tx_almacnde_18lxte9lyv4sn-stroke" data-item-order="1000000000" data-item-id="tx_almacnde_18lxte9lyv4sn" data-item-class="Label Stroke Title InsideFill ColorStrokeGray" data-item-index="none" data-renderer-id="0" transform="translate(195, 99)"></g></g></g></svg>