<?xml version="1.0" encoding="utf-8" standalone="yes"?>
<!DOCTYPE svg PUBLIC "-//W3C//DTD SVG 1.1//EN" "http://www.w3.org/Graphics/SVG/1.1/DTD/svg11.dtd">
<svg width="578" height="468" viewBox="0 0 578 468" style="fill:none;stroke:none;fill-rule:evenodd;clip-rule:evenodd;stroke-linecap:round;stroke-linejoin:round;stroke-miterlimit:1.5;" version="1.1" xmlns="http://www.w3.org/2000/svg" xmlns:xlink="http://www.w3.org/1999/xlink"><style id="fontImports">@import url("https://fonts.googleapis.com/css2?family=Roboto:wght@400;700&amp;display=block");</style><g id="items" style="isolation: isolate"><g id="blend" style="mix-blend-mode:normal"><g id="g-root-4.cu_sy_8zmxwhkuocg7-fill" data-item-order="999907271" data-item-id="4.cu_sy_8zmxwhkuocg7" data-item-class="Part Indexed Stroke ColorStrokeGray" data-item-index="4" data-renderer-id="0" transform="translate(110.95700073242188, 254.75)"></g><g id="g-root-3.Exclude_sy_8zmxwhkuocg8-fill" data-item-order="999907274" data-item-id="3.Exclude_sy_8zmxwhkuocg8" data-item-class="Part Indexed Fill Stroke ColorFillGray ColorStrokeGray" data-item-index="3" data-renderer-id="0" transform="translate(232.055908203125, 268)"><g id="3.Exclude_sy_8zmxwhkuocg8-fill" stroke="none" fill="#f6f6f6"><g><path d="M 56.944107 10C 49.471107 10 43.195107 15.122 41.436107 22.047L 10.134107 124.12C 9.542107 126.049 10.984107 128 13.002107 128L 100.886107 128C 102.903107 128 104.346107 126.049 103.754107 124.12L 72.454107 22.054C 70.696107 15.126 64.419107 10 56.944107 10ZM 56.944107 33C 60.810107 33 63.944107 29.866 63.944107 26C 63.944107 22.134 60.810107 19 56.944107 19C 53.078107 19 49.944107 22.134 49.944107 26C 49.944107 29.866 53.078107 33 56.944107 33Z"></path></g></g></g><g id="g-root-2.right-bucket_sy_1upahi9kuodu1-fill" data-item-order="999907278" data-item-id="2.right-bucket_sy_1upahi9kuodu1" data-item-class="Part Indexed Fill Stroke" data-item-index="2" data-renderer-id="0" transform="translate(327, 218)"><g id="2.right-bucket_sy_1upahi9kuodu1-fill" stroke="none" fill="#e9fbf3"><g><path d="M 11.081 15.729C 10.338 14.904 10 13.826 10 12.716L 10 12.716C 10 11.216 11.216 10 12.716 10L 235.284 10C 236.784 10 238 11.216 238 12.716L 238 12.716C 238 13.826 237.662 14.904 236.919 15.729C 231.551 21.692 204.717 46 124 46C 43.283 46 16.449 21.692 11.081 15.729Z"></path></g></g></g><g id="g-root-1.left-bucket_sy_1upahi9kuodu2-fill" data-item-order="999907282" data-item-id="1.left-bucket_sy_1upahi9kuodu2" data-item-class="Part Indexed Indexed_1 Fill Stroke" data-item-index="1" data-renderer-id="0" transform="translate(3, 218)"><g id="1.left-bucket_sy_1upahi9kuodu2-fill" stroke="none" fill="#ffe7e6"><g><path d="M 11.0812 15.729C 10.3384 14.904 10 13.826 10 12.716L 10 12.716C 10 11.216 11.2158 10 12.7157 10L 235.284 10C 236.784 10 238 11.216 238 12.716L 238 12.716C 238 13.826 237.662 14.904 236.919 15.729C 231.551 21.692 204.717 46 124 46C 43.2826 46 16.4488 21.692 11.0812 15.729Z"></path></g></g></g><g id="g-root-comp_1czvzflkuy7t9-fill" data-item-order="1000000000" data-item-id="comp_1czvzflkuy7t9" data-item-class="Icon Stroke Indexed Indexed_1" data-item-index="1" data-renderer-id="0" transform="translate(15, 14)"></g><g id="g-root-tx_integrac_1hclag1kuhds5-fill" data-item-order="1000000000" data-item-id="tx_integrac_1hclag1kuhds5" data-item-class="Label Stroke Indexed Indexed_1" data-item-index="1" data-renderer-id="0" transform="translate(75, 14)"><g id="tx_integrac_1hclag1kuhds5-fill" stroke="none" fill="#484848"><g><text style="font: 20px &quot;Roboto&quot;, sans-serif; white-space: pre;" font-size="20px" font-family="'Roboto', sans-serif"><tspan x="12" y="34" dominant-baseline="ideographic">Integración de </tspan><tspan x="12" y="58" dominant-baseline="ideographic">Datos Compleja</tspan></text></g></g></g><g id="g-root-data_ddla8xkuhd6y-fill" data-item-order="1000000000" data-item-id="data_ddla8xkuhd6y" data-item-class="Icon Stroke Indexed" data-item-index="4" data-renderer-id="0" transform="translate(339, 14)"></g><g id="g-root-tx_integrac_8zn7dtkuhczk-fill" data-item-order="1000000000" data-item-id="tx_integrac_8zn7dtkuhczk" data-item-class="Label Stroke Indexed" data-item-index="4" data-renderer-id="0" transform="translate(399, 2)"><g id="tx_integrac_8zn7dtkuhczk-fill" stroke="none" fill="#484848"><g><text style="font: 20px &quot;Roboto&quot;, sans-serif; white-space: pre;" font-size="20px" font-family="'Roboto', sans-serif"><tspan x="12" y="34" dominant-baseline="ideographic">Integración de </tspan><tspan x="12" y="58" dominant-baseline="ideographic">Datos </tspan><tspan x="12" y="82" dominant-baseline="ideographic">Simplificada</tspan></text></g></g></g><g id="g-root-refr_1lpwmqpkuzl6w-fill" data-item-order="1000000000" data-item-id="refr_1lpwmqpkuzl6w" data-item-class="Icon Stroke Indexed" data-item-index="2" data-renderer-id="0" transform="translate(15, 86)"></g><g id="g-root-tx_solodato_1lseskhkuhczw-fill" data-item-order="1000000000" data-item-id="tx_solodato_1lseskhkuhczw" data-item-class="Label Stroke Indexed" data-item-index="2" data-renderer-id="0" transform="translate(75, 74)"><g id="tx_solodato_1lseskhkuhczw-fill" stroke="none" fill="#484848"><g><text style="font: 20px &quot;Roboto&quot;, sans-serif; white-space: pre;" font-size="20px" font-family="'Roboto', sans-serif"><tspan x="12" y="34" dominant-baseline="ideographic">Reportes </tspan><tspan x="12" y="58" dominant-baseline="ideographic">Operativos </tspan><tspan x="12" y="82" dominant-baseline="ideographic">Datos Actuales</tspan></text></g></g></g><g id="g-root-tree_1upanttkutyx8-fill" data-item-order="1000000000" data-item-id="tree_1upanttkutyx8" data-item-class="Icon Stroke Indexed" data-item-index="5" data-renderer-id="0" transform="translate(339, 86)"></g><g id="g-root-tx_accesoad_qqaqshkuhds7-fill" data-item-order="1000000000" data-item-id="tx_accesoad_qqaqshkuhds7" data-item-class="Label Stroke Indexed" data-item-index="5" data-renderer-id="0" transform="translate(399, 86)"><g id="tx_accesoad_qqaqshkuhds7-fill" stroke="none" fill="#484848"><g><text style="font: 20px &quot;Roboto&quot;, sans-serif; white-space: pre;" font-size="20px" font-family="'Roboto', sans-serif"><tspan x="12" y="34" dominant-baseline="ideographic">Acceso a Datos </tspan><tspan x="12" y="58" dominant-baseline="ideographic">Históricos</tspan></text></g></g></g><g id="g-root-tx_riesgode_ddla8xkuhd6z-fill" data-item-order="1000000000" data-item-id="tx_riesgode_ddla8xkuhd6z" data-item-class="Label Stroke Indexed" data-item-index="3" data-renderer-id="0" transform="translate(75, 134)"><g id="tx_riesgode_ddla8xkuhd6z-fill" stroke="none" fill="#484848"><g><text style="font: 20px &quot;Roboto&quot;, sans-serif; white-space: pre;" font-size="20px" font-family="'Roboto', sans-serif"><tspan x="12" y="58" dominant-baseline="ideographic">Lento antes grandes </tspan><tspan x="12" y="82" dominant-baseline="ideographic">volumenes de datos</tspan></text></g></g></g><g id="g-root-1_24ie9kuvd3d-fill" data-item-order="1000000000" data-item-id="1_24ie9kuvd3d" data-item-class="Icon Stroke Indexed" data-item-index="3" data-renderer-id="0" transform="translate(15, 158)"></g><g id="g-root-beng_141r601kuodmv-fill" data-item-order="1000000000" data-item-id="beng_141r601kuodmv" data-item-class="Icon Stroke Indexed" data-item-index="6" data-renderer-id="0" transform="translate(339, 158)"></g><g id="g-root-tx_rendimie_v648wxkuhczy-fill" data-item-order="1000000000" data-item-id="tx_rendimie_v648wxkuhczy" data-item-class="Label Stroke Indexed" data-item-index="6" data-renderer-id="0" transform="translate(399, 158)"><g id="tx_rendimie_v648wxkuhczy-fill" stroke="none" fill="#484848"><g><text style="font: 20px &quot;Roboto&quot;, sans-serif; white-space: pre;" font-size="20px" font-family="'Roboto', sans-serif"><tspan x="12" y="34" dominant-baseline="ideographic">Rendimiento </tspan><tspan x="12" y="58" dominant-baseline="ideographic">Mejorado</tspan></text></g></g></g><g id="g-root-tx_basededa_4074xkuhds9-fill" data-item-order="1000000000" data-item-id="tx_basededa_4074xkuhds9" data-item-class="Label Stroke Indexed" data-item-index="none" data-renderer-id="0" transform="translate(45, 314)"><g id="tx_basededa_4074xkuhds9-fill" stroke="none" fill="#484848"><g><text style="font: 20px &quot;Roboto&quot;, sans-serif; white-space: pre;" font-size="20px" font-family="'Roboto', sans-serif"><tspan x="15.48" y="34" dominant-baseline="ideographic">Base de Datos </tspan><tspan x="37.22" y="58" dominant-baseline="ideographic">Operativa</tspan></text></g></g></g><g id="g-root-tx_almacnde_1lua7ttkuhc0a-fill" data-item-order="1000000000" data-item-id="tx_almacnde_1lua7ttkuhc0a" data-item-class="Label Stroke Indexed" data-item-index="none" data-renderer-id="0" transform="translate(357, 326)"><g id="tx_almacnde_1lua7ttkuhc0a-fill" stroke="none" fill="#484848"><g><text style="font: 20px &quot;Roboto&quot;, sans-serif; white-space: pre;" font-size="20px" font-family="'Roboto', sans-serif"><tspan x="12.88" y="34" dominant-baseline="ideographic">Almacén de Datos</tspan></text></g></g></g><g id="g-root-tx_elijaele_18itpghkuhdl7-fill" data-item-order="1000000000" data-item-id="tx_elijaele_18itpghkuhdl7" data-item-class="Label Stroke Title" data-item-index="none" data-renderer-id="0" transform="translate(33, 398)"><g id="tx_elijaele_18itpghkuhdl7-fill" stroke="none" fill="#484848"><g><text style="font: 20px &quot;Roboto&quot;, sans-serif; white-space: pre;" font-size="20px" font-family="'Roboto', sans-serif"><tspan x="13.05" y="34" dominant-baseline="ideographic">Elija el enfoque de análisis de datos adecuado para un </tspan><tspan x="163.9" y="58" dominant-baseline="ideographic">rendimiento óptimo.</tspan></text></g></g></g><g id="g-root-4.cu_sy_8zmxwhkuocg7-stroke" data-item-order="999907271" data-item-id="4.cu_sy_8zmxwhkuocg7" data-item-class="Part Indexed Stroke ColorStrokeGray" data-item-index="4" data-renderer-id="0" transform="translate(110.95700073242188, 254.75)"><g id="4.cu_sy_8zmxwhkuocg7-stroke" fill="none" stroke-linecap="round" stroke-linejoin="round" stroke-miterlimit="4" stroke="#888888" stroke-width="2"><g><path d="M 340.042999 45.25C 343.356999 45.25 346.042999 42.564 346.042999 39.25C 346.042999 35.936 343.356999 33.25 340.042999 33.25C 336.728999 33.25 334.042999 35.936 334.042999 39.25C 334.042999 42.564 336.728999 45.25 340.042999 45.25ZM 16.021999 45.25C 19.346999 45.25 22.042999 42.564 22.042999 39.25C 22.042999 35.936 19.346999 33.25 16.021999 33.25C 12.695999 33.25 9.999999 35.936 9.999999 39.25C 9.999999 42.564 12.695999 45.25 16.021999 45.25ZM 340.042999 33.25L 340.042999 10M 16.042999 10.25L 16.042999 33.25M 334.057999 39.275L 195.042999 39.275M 161.042999 39.275L 22.042999 39.275"></path></g></g></g><g id="g-root-3.Exclude_sy_8zmxwhkuocg8-stroke" data-item-order="999907274" data-item-id="3.Exclude_sy_8zmxwhkuocg8" data-item-class="Part Indexed Fill Stroke ColorFillGray ColorStrokeGray" data-item-index="3" data-renderer-id="0" transform="translate(232.055908203125, 268)"><g id="3.Exclude_sy_8zmxwhkuocg8-stroke" fill="none" stroke-linecap="round" stroke-linejoin="round" stroke-miterlimit="4" stroke="#888888" stroke-width="2"><g><path d="M 56.944107 10C 49.471107 10 43.195107 15.122 41.436107 22.047L 10.134107 124.12C 9.542107 126.049 10.984107 128 13.002107 128L 100.886107 128C 102.903107 128 104.346107 126.049 103.754107 124.12L 72.454107 22.054C 70.696107 15.126 64.419107 10 56.944107 10ZM 56.944107 33C 60.810107 33 63.944107 29.866 63.944107 26C 63.944107 22.134 60.810107 19 56.944107 19C 53.078107 19 49.944107 22.134 49.944107 26C 49.944107 29.866 53.078107 33 56.944107 33Z"></path></g></g></g><g id="g-root-2.right-bucket_sy_1upahi9kuodu1-stroke" data-item-order="999907278" data-item-id="2.right-bucket_sy_1upahi9kuodu1" data-item-class="Part Indexed Fill Stroke" data-item-index="2" data-renderer-id="0" transform="translate(327, 218)"><g id="2.right-bucket_sy_1upahi9kuodu1-stroke" fill="none" stroke-linecap="round" stroke-linejoin="round" stroke-miterlimit="4" stroke="#3bc482" stroke-width="2"><g><path d="M 11.081 15.729C 10.338 14.904 10 13.826 10 12.716L 10 12.716C 10 11.216 11.216 10 12.716 10L 235.284 10C 236.784 10 238 11.216 238 12.716L 238 12.716C 238 13.826 237.662 14.904 236.919 15.729C 231.551 21.692 204.717 46 124 46C 43.283 46 16.449 21.692 11.081 15.729Z"></path></g></g></g><g id="g-root-1.left-bucket_sy_1upahi9kuodu2-stroke" data-item-order="999907282" data-item-id="1.left-bucket_sy_1upahi9kuodu2" data-item-class="Part Indexed Indexed_1 Fill Stroke" data-item-index="1" data-renderer-id="0" transform="translate(3, 218)"><g id="1.left-bucket_sy_1upahi9kuodu2-stroke" fill="none" stroke-linecap="round" stroke-linejoin="round" stroke-miterlimit="4" stroke="#e15e5a" stroke-width="2"><g><path d="M 11.0812 15.729C 10.3384 14.904 10 13.826 10 12.716L 10 12.716C 10 11.216 11.2158 10 12.7157 10L 235.284 10C 236.784 10 238 11.216 238 12.716L 238 12.716C 238 13.826 237.662 14.904 236.919 15.729C 231.551 21.692 204.717 46 124 46C 43.2826 46 16.4488 21.692 11.0812 15.729Z"></path></g></g></g><g id="g-root-comp_1czvzflkuy7t9-stroke" data-item-order="1000000000" data-item-id="comp_1czvzflkuy7t9" data-item-class="Icon Stroke Indexed Indexed_1" data-item-index="1" data-renderer-id="0" transform="translate(15, 14)"><g id="comp_1czvzflkuy7t9-stroke" fill="none" stroke-linecap="round" stroke-linejoin="round" stroke-miterlimit="4" stroke="#484848" stroke-width="2"><g><path d="M 11 19C 11 23.418278 19.50659 27 30 27C 40.493408 27 49 23.418278 49 19C 49 14.581722 40.493408 11 30 11C 19.50659 11 11 14.581722 11 19M 30 35C 19.5 35 11 31.42 11 27M 28 44C 18.439999 43.540001 11 40.139999 11 36M 26 52.82C 17.42 52 11 48.84 11 45L 11 19M 49 19L 49 29M 48.18 40.279999L 54.259998 43L 57 36.860001M 32.639999 40.52C 34.336945 35.570831 39.24939 32.469467 44.447311 33.065716C 49.645233 33.661964 53.72781 37.795128 54.260002 43M 38.760002 49.720001L 32.68 47L 29.940001 53.139999M 54.299999 49.459999C 52.605865 54.408039 47.697712 57.511337 42.501217 56.920063C 37.304718 56.328785 33.219208 52.202156 32.68 47"></path></g></g></g><g id="g-root-tx_integrac_1hclag1kuhds5-stroke" data-item-order="1000000000" data-item-id="tx_integrac_1hclag1kuhds5" data-item-class="Label Stroke Indexed Indexed_1" data-item-index="1" data-renderer-id="0" transform="translate(75, 14)"></g><g id="g-root-data_ddla8xkuhd6y-stroke" data-item-order="1000000000" data-item-id="data_ddla8xkuhd6y" data-item-class="Icon Stroke Indexed" data-item-index="4" data-renderer-id="0" transform="translate(339, 14)"><g id="data_ddla8xkuhd6y-stroke" fill="none" stroke-linecap="round" stroke-linejoin="round" stroke-miterlimit="4" stroke="#484848" stroke-width="2"><g><path d="M 37.045998 50.866001C 39.58651 50.865997 41.645996 48.806507 41.645996 46.265999C 41.645996 43.725487 39.58651 41.666 37.045998 41.666C 34.505489 41.666 32.445999 43.725487 32.445999 46.265999C 32.445999 48.806507 34.505489 50.865997 37.045998 50.865997ZM 52.380001 57C 54.920509 56.999996 56.98 54.940506 56.98 52.399998C 56.98 49.859489 54.920509 47.799999 52.379997 47.799999C 49.839489 47.799999 47.779999 49.859489 47.779999 52.399998C 47.779999 54.940506 49.839489 56.999996 52.379997 56.999996ZM 52.380001 41.667999C 54.920509 41.667999 56.98 39.608509 56.98 37.068001C 56.98 34.527489 54.920509 32.467999 52.379997 32.467999C 49.839489 32.467999 47.779999 34.527489 47.779999 37.068001C 47.779999 39.608509 49.839489 41.667999 52.379997 41.667999ZM 40.98 43.916L 48.442001 39.440002M 41.316002 47.984001L 48.116001 50.703999M 11.02 18.973999L 49.883999 18.973999M 11.02 35.952L 38.274002 35.952M 11.02 27.476L 44.714001 27.476M 26.893999 18.973999L 26.893999 44.736M 38.274002 18.973999L 38.274002 35.952M 26.364 44.731998L 15.12 44.731998C 12.86226 44.731998 11.032 42.901741 11.032 40.643997L 11.032 15.087999C 11.032 12.830259 12.86226 11 15.12 11L 45.785999 11C 48.043739 11 49.874001 12.830259 49.874001 15.087999L 49.874001 25.026001"></path></g></g></g><g id="g-root-tx_integrac_8zn7dtkuhczk-stroke" data-item-order="1000000000" data-item-id="tx_integrac_8zn7dtkuhczk" data-item-class="Label Stroke Indexed" data-item-index="4" data-renderer-id="0" transform="translate(399, 2)"></g><g id="g-root-refr_1lpwmqpkuzl6w-stroke" data-item-order="1000000000" data-item-id="refr_1lpwmqpkuzl6w" data-item-class="Icon Stroke Indexed" data-item-index="2" data-renderer-id="0" transform="translate(15, 86)"><g id="refr_1lpwmqpkuzl6w-stroke" fill="none" stroke-linecap="round" stroke-linejoin="round" stroke-miterlimit="4" stroke="#484848" stroke-width="2"><g><path d="M 40 47.001999L 33 47.001999L 33 54.001999M 55.834 49.467999C 54.143093 54.425598 49.227779 57.536457 44.023506 56.942753C 38.819233 56.349052 34.730865 52.211056 34.199997 47M 50 43.001999L 57 43.001999L 57 36.001999M 34.166 40.535999C 35.856342 35.578629 40.770798 32.467384 45.974785 33.060093C 51.178772 33.652802 55.267723 37.789482 55.799999 43M 29 47L 13 47C 11.895431 47 11 46.104568 11 45L 11 17C 11 15.895431 11.895431 15 13 15L 49 15C 50.104568 15 51 15.895431 51 17L 51 30M 21 11.002L 21 21.001999M 41 11.002L 41 21.001999M 11 25.001999L 51 25.001999"></path></g></g></g><g id="g-root-tx_solodato_1lseskhkuhczw-stroke" data-item-order="1000000000" data-item-id="tx_solodato_1lseskhkuhczw" data-item-class="Label Stroke Indexed" data-item-index="2" data-renderer-id="0" transform="translate(75, 74)"></g><g id="g-root-tree_1upanttkutyx8-stroke" data-item-order="1000000000" data-item-id="tree_1upanttkutyx8" data-item-class="Icon Stroke Indexed" data-item-index="5" data-renderer-id="0" transform="translate(339, 86)"><g id="tree_1upanttkutyx8-stroke" fill="none" stroke-linecap="round" stroke-linejoin="round" stroke-miterlimit="4" stroke="#484848" stroke-width="2"><g><path d="M 10.882 49L 56.882 49M 18.882 49L 18.882 40C 18.882 39.447716 18.434284 39 17.882 39L 13.882 39C 13.329716 39 12.882 39.447716 12.882 40L 12.882 49M 30.882 49L 30.882 30C 30.882 29.447716 30.434284 29 29.882 29L 25.882 29C 25.329716 29 24.882 29.447716 24.882 30L 24.882 49M 42.882 49L 42.882 34C 42.882 33.447716 42.434284 33 41.882 33L 37.882 33C 37.329716 33 36.882 33.447716 36.882 34L 36.882 49M 54.882 49L 54.882 20C 54.882 19.447716 54.434284 19 53.882 19L 49.882 19C 49.329716 19 48.882 19.447716 48.882 20L 48.882 49"></path></g></g></g><g id="g-root-tx_accesoad_qqaqshkuhds7-stroke" data-item-order="1000000000" data-item-id="tx_accesoad_qqaqshkuhds7" data-item-class="Label Stroke Indexed" data-item-index="5" data-renderer-id="0" transform="translate(399, 86)"></g><g id="g-root-tx_riesgode_ddla8xkuhd6z-stroke" data-item-order="1000000000" data-item-id="tx_riesgode_ddla8xkuhd6z" data-item-class="Label Stroke Indexed" data-item-index="3" data-renderer-id="0" transform="translate(75, 134)"></g><g id="g-root-1_24ie9kuvd3d-stroke" data-item-order="1000000000" data-item-id="1_24ie9kuvd3d" data-item-class="Icon Stroke Indexed" data-item-index="3" data-renderer-id="0" transform="translate(15, 158)"><g id="1_24ie9kuvd3d-stroke" fill="none" stroke-linecap="round" stroke-linejoin="round" stroke-miterlimit="4" stroke="#484848" stroke-width="2"><g><path d="M 39 49L 57 49C 56.420979 45.572449 53.475784 43.047997 50 43L 49.400002 43M 39 49L 23 49C 16.372583 49 11 43.627419 11 37C 11 30 18 30 21 35C 22.240044 37.450615 24.571346 39.16568 27.280001 39.620003M 27 37C 27 43.627419 32.372581 49 39 49C 45.627419 49 51 43.627419 51 37C 51 30.372583 45.627419 25 39 25C 32.372581 25 27 30.372583 27 37M 16 36.5C 16.276142 36.5 16.5 36.723858 16.5 37M 15.5 37C 15.5 36.723858 15.723858 36.5 16 36.5M 16 37.5C 15.723858 37.5 15.5 37.276142 15.5 37M 16.5 37C 16.5 37.276142 16.276142 37.5 16 37.5M 13 23L 16 31.459999M 21 23L 16 31.459999M 11 21C 11 22.104568 11.895431 23 13 23C 14.104569 23 15 22.104568 15 21C 15 19.895432 14.104569 19 13 19C 11.895431 19 11 19.895432 11 21M 19 21C 19 22.104568 19.895432 23 21 23C 22.104568 23 23 22.104568 23 21C 23 19.895432 22.104568 19 21 19C 19.895432 19 19 19.895432 19 21M 41.779999 49C 38.977684 49.005322 36.288612 47.894463 34.307076 45.912926C 32.325539 43.931385 31.214678 41.242317 31.220001 38.440002L 31.219999 38C 31.219999 33.581722 34.80172 30 39.220001 30C 42.972836 30.054539 45.989487 33.106781 46 36.860001C 46 40.063255 43.403252 42.66 40.200001 42.66C 38.816841 42.761898 37.492847 42.081718 36.770164 40.89798C 36.047478 39.714245 36.047478 38.225754 36.770164 37.042015C 37.492847 35.858276 38.816841 35.178101 40.199997 35.279999"></path></g></g></g><g id="g-root-beng_141r601kuodmv-stroke" data-item-order="1000000000" data-item-id="beng_141r601kuodmv" data-item-class="Icon Stroke Indexed" data-item-index="6" data-renderer-id="0" transform="translate(339, 158)"><g id="beng_141r601kuodmv-stroke" fill="none" stroke-linecap="round" stroke-linejoin="round" stroke-miterlimit="4" stroke="#484848" stroke-width="2"><g><path d="M 22.84 28.42C 28.42 27.299999 30.66 30.66 30.66 30.66C 30.66 30.66 30.66 31.139999 29.540001 40.059998C 30.497387 41.574707 32.213303 42.436512 34 42.300003C 35.799057 42.424072 37.517899 41.537674 38.459999 40C 37.34 31.08 37.34 30.6 37.34 30.6C 37.34 30.6 39.580002 27.24 45.16 28.360001M 14.48 23.200001C 14 25.439999 12.8 29.5 11.66 34C 10.320968 38.59906 10.870269 43.542156 13.186306 47.73505C 15.502343 51.92794 19.394077 55.024769 24 56.34M 46 15.3C 42.424835 12.976011 38.263786 11.713826 34 11.66C 29.73723 11.72035 25.57795 12.981998 22 15.3M 34 42.299999L 34 44.540001C 33.71608 47.275143 31.276781 49.267681 28.540001 49C 23.48 49 22.32 43.619999 23.459999 40.84M 34 42.299999L 34 44.540001C 34.283924 47.275143 36.723221 49.267681 39.459999 49C 44.52 49 45.68 43.619999 44.540001 40.84M 34 11.66L 34 25.060001M 27.299999 18.92C 27.299999 18.92 28.639999 17.799999 34 17.799999C 39.360001 17.799999 40.700001 18.92 40.700001 18.92M 25.619999 32.879997C 25.929279 32.879997 26.18 33.130722 26.18 33.440002M 25.060001 33.440002C 25.070343 33.135109 25.315107 32.890343 25.619999 32.879997M 25.619999 34C 25.31072 34 25.059999 33.749279 25.059999 33.440002M 26.18 33.440002C 26.185675 33.590187 26.128498 33.735947 26.022223 33.842224C 25.915947 33.948498 25.770189 34.005676 25.619999 34M 42.380001 32.879997C 42.684891 32.890343 42.929653 33.135109 42.939999 33.439999M 41.82 33.440002C 41.82 33.130722 42.070721 32.879997 42.380001 32.879997M 42.380001 34C 42.229813 34.005676 42.084053 33.948498 41.977776 33.842224C 41.871506 33.735947 41.814327 33.590187 41.82 33.440002M 42.939999 33.440002C 42.939999 33.749279 42.689278 34 42.380001 34M 11.32 35.68C 13.347774 37.368706 15.769403 38.517601 18.360001 39.019997M 17.26 24C 14.993209 24.008095 12.945116 22.648846 12.072037 20.556923C 11.198958 18.465 11.673121 16.053066 13.273125 14.447329C 14.873129 12.84159 17.28335 12.358801 19.378384 13.224389C 21.473415 14.089977 22.839985 16.133194 22.84 18.4M 53.52 23.200001C 53.959999 25.439999 55.200001 29.5 56.34 34C 57.679031 38.59906 57.12973 43.542156 54.813694 47.73505C 52.497658 51.92794 48.605923 55.024769 44 56.34M 56.68 35.68C 54.652225 37.368706 52.230595 38.517601 49.639999 39.019997M 56.720001 42.380001C 55.292542 43.484329 53.629322 44.244068 51.860001 44.600002M 11.28 42.380001C 12.707462 43.484329 14.37068 44.244068 16.139999 44.600002M 50.740002 24C 53.00679 24.008095 55.054886 22.648846 55.927963 20.556923C 56.801041 18.465 56.326878 16.053066 54.726875 14.447329C 53.126873 12.84159 50.716652 12.358801 48.621616 13.224389C 46.526585 14.089977 45.160015 16.133194 45.16 18.4M 28.540001 49C 28.540001 49 26.18 56.34 34 56.34C 41.82 56.34 39.459999 49 39.459999 49"></path></g></g></g><g id="g-root-tx_rendimie_v648wxkuhczy-stroke" data-item-order="1000000000" data-item-id="tx_rendimie_v648wxkuhczy" data-item-class="Label Stroke Indexed" data-item-index="6" data-renderer-id="0" transform="translate(399, 158)"></g><g id="g-root-tx_basededa_4074xkuhds9-stroke" data-item-order="1000000000" data-item-id="tx_basededa_4074xkuhds9" data-item-class="Label Stroke Indexed" data-item-index="none" data-renderer-id="0" transform="translate(45, 314)"></g><g id="g-root-tx_almacnde_1lua7ttkuhc0a-stroke" data-item-order="1000000000" data-item-id="tx_almacnde_1lua7ttkuhc0a" data-item-class="Label Stroke Indexed" data-item-index="none" data-renderer-id="0" transform="translate(357, 326)"></g><g id="g-root-tx_elijaele_18itpghkuhdl7-stroke" data-item-order="1000000000" data-item-id="tx_elijaele_18itpghkuhdl7" data-item-class="Label Stroke Title" data-item-index="none" data-renderer-id="0" transform="translate(33, 398)"></g></g></g></svg>