<?xml version="1.0" encoding="utf-8" standalone="yes"?>
<!DOCTYPE svg PUBLIC "-//W3C//DTD SVG 1.1//EN" "http://www.w3.org/Graphics/SVG/1.1/DTD/svg11.dtd">
<svg width="588" height="445" viewBox="0 0 588 445" style="fill:none;stroke:none;fill-rule:evenodd;clip-rule:evenodd;stroke-linecap:round;stroke-linejoin:round;stroke-miterlimit:1.5;" version="1.1" xmlns="http://www.w3.org/2000/svg" xmlns:xlink="http://www.w3.org/1999/xlink"><style id="fontImports">@import url("https://fonts.googleapis.com/css2?family=Roboto:wght@400;700&amp;display=block");</style><g id="items" style="isolation: isolate"><g id="blend" style="mix-blend-mode:normal"><g id="g-root-5.cu_sy_mahf29i2v8xu-fill" data-item-order="999968326" data-item-id="5.cu_sy_mahf29i2v8xu" data-item-class="Part Indexed Stroke ColorStrokeGray" data-item-index="5" data-renderer-id="0" transform="translate(200, 226)"></g><g id="g-root-5.cu_sy_mahf29i2v8xu-fill" data-item-order="999968326" data-item-id="5.cu_sy_mahf29i2v8xu" data-item-class="Part Indexed Stroke ColorStrokeGray" data-item-index="5" data-renderer-id="0" transform="translate(200, 226)"></g><g id="g-root-4.cu_sy_deuetdi2v9qj-fill" data-item-order="999968329" data-item-id="4.cu_sy_deuetdi2v9qj" data-item-class="Part Indexed Fill Stroke ColorFillGray ColorStrokeGray" data-item-index="4" data-renderer-id="0" transform="translate(272, 237)"><g id="4.cu_sy_deuetdi2v9qj-fill" stroke="none" fill="#f6f6f6"><g><path d="M 34.086 22C 34.086 28.627 28.695 34 22.043 34C 15.392 34 10 28.627 10 22C 10 15.373 15.392 10 22.043 10C 28.695 10 34.086 15.373 34.086 22ZM 28 22C 28 25.314 25.314 28 22 28C 18.686 28 16 25.314 16 22C 16 18.686 18.686 16 22 16C 25.314 16 28 18.686 28 22Z"></path></g></g></g><g id="g-root-4.cu_sy_deuetdi2v9qj-fill" data-item-order="999968329" data-item-id="4.cu_sy_deuetdi2v9qj" data-item-class="Part Indexed Fill Stroke ColorFillGray ColorStrokeGray" data-item-index="4" data-renderer-id="0" transform="translate(272, 237)"><g id="4.cu_sy_deuetdi2v9qj-fill" stroke="none" fill="#f6f6f6"><g><path d="M 34.086 22C 34.086 28.627 28.695 34 22.043 34C 15.392 34 10 28.627 10 22C 10 15.373 15.392 10 22.043 10C 28.695 10 34.086 15.373 34.086 22ZM 28 22C 28 25.314 25.314 28 22 28C 18.686 28 16 25.314 16 22C 16 18.686 18.686 16 22 16C 25.314 16 28 18.686 28 22Z"></path></g></g></g><g id="g-root-3.cu_sy_8znds1i2v7d0-fill" data-item-order="999968333" data-item-id="3.cu_sy_8znds1i2v7d0" data-item-class="Part Indexed Fill Stroke ColorFillGray ColorStrokeGray" data-item-index="3" data-renderer-id="0" transform="translate(236, 258.32598876953125)"><g id="3.cu_sy_8znds1i2v7d0-fill" stroke="none" fill="#f6f6f6"><g><path d="M 22 78.674011L 94 78.674011C 94 78.674011 73.992 28.166011 65.959 10.058011C 63.725 11.952011 61.073 12.997011 58.043 12.997011C 54.986 12.997011 52.288 11.933011 50.072 10.000011C 42.047 28.114011 22 78.674011 22 78.674011ZM 18 78.679011C 13.582 78.679011 10 82.260011 10 86.679011L 10 88.679011C 10 89.783011 10.895 90.679011 12 90.679011L 104 90.679011C 105.105 90.679011 106 89.783011 106 88.679011L 106 86.679011C 106 82.260011 102.418 78.679011 98 78.679011L 18 78.679011Z"></path></g></g></g><g id="g-root-3.cu_sy_8znds1i2v7d0-fill" data-item-order="999968333" data-item-id="3.cu_sy_8znds1i2v7d0" data-item-class="Part Indexed Fill Stroke ColorFillGray ColorStrokeGray" data-item-index="3" data-renderer-id="0" transform="translate(236, 258.32598876953125)"><g id="3.cu_sy_8znds1i2v7d0-fill" stroke="none" fill="#f6f6f6"><g><path d="M 22 78.674011L 94 78.674011C 94 78.674011 73.992 28.166011 65.959 10.058011C 63.725 11.952011 61.073 12.997011 58.043 12.997011C 54.986 12.997011 52.288 11.933011 50.072 10.000011C 42.047 28.114011 22 78.674011 22 78.674011ZM 18 78.679011C 13.582 78.679011 10 82.260011 10 86.679011L 10 88.679011C 10 89.783011 10.895 90.679011 12 90.679011L 104 90.679011C 105.105 90.679011 106 89.783011 106 88.679011L 106 86.679011C 106 82.260011 102.418 78.679011 98 78.679011L 18 78.679011Z"></path></g></g></g><g id="g-root-2.right-bucket_sy_40dj5i2v85p-fill" data-item-order="999968337" data-item-id="2.right-bucket_sy_40dj5i2v85p" data-item-class="Part Indexed Fill Stroke" data-item-index="2" data-renderer-id="0" transform="translate(332, 207)"><g id="2.right-bucket_sy_40dj5i2v85p-fill" stroke="none" fill="#e6efff"><g><path d="M 10 11.8C 10 10.806 10.806 10 11.8 10L 80.2 10C 81.194 10 82 10.806 82 11.8C 82 20.747 74.747 28 65.8 28L 26.2 28C 17.253 28 10 20.747 10 11.8Z"></path></g></g></g><g id="g-root-2.right-bucket_sy_40dj5i2v85p-fill" data-item-order="999968337" data-item-id="2.right-bucket_sy_40dj5i2v85p" data-item-class="Part Indexed Fill Stroke" data-item-index="2" data-renderer-id="0" transform="translate(332, 207)"><g id="2.right-bucket_sy_40dj5i2v85p-fill" stroke="none" fill="#e6efff"><g><path d="M 10 11.8C 10 10.806 10.806 10 11.8 10L 80.2 10C 81.194 10 82 10.806 82 11.8C 82 20.747 74.747 28 65.8 28L 26.2 28C 17.253 28 10 20.747 10 11.8Z"></path></g></g></g><g id="g-root-1.left-bucket_sy_1upaxdti2v8qu-fill" data-item-order="999968341" data-item-id="1.left-bucket_sy_1upaxdti2v8qu" data-item-class="Part Indexed Indexed_1 Fill Stroke" data-item-index="1" data-renderer-id="0" transform="translate(164, 207)"><g id="1.left-bucket_sy_1upaxdti2v8qu-fill" stroke="none" fill="#e6f9ff"><g><path d="M 10 11.8C 10 10.806 10.806 10 11.8 10L 80.2 10C 81.194 10 82 10.806 82 11.8C 82 20.747 74.747 28 65.8 28L 26.2 28C 17.253 28 10 20.747 10 11.8Z"></path></g></g></g><g id="g-root-1.left-bucket_sy_1upaxdti2v8qu-fill" data-item-order="999968341" data-item-id="1.left-bucket_sy_1upaxdti2v8qu" data-item-class="Part Indexed Indexed_1 Fill Stroke" data-item-index="1" data-renderer-id="0" transform="translate(164, 207)"><g id="1.left-bucket_sy_1upaxdti2v8qu-fill" stroke="none" fill="#e6f9ff"><g><path d="M 10 11.8C 10 10.806 10.806 10 11.8 10L 80.2 10C 81.194 10 82 10.806 82 11.8C 82 20.747 74.747 28 65.8 28L 26.2 28C 17.253 28 10 20.747 10 11.8Z"></path></g></g></g><g id="g-root-bloc_v6qwe9i2zhn2-fill" data-item-order="1000000000" data-item-id="bloc_v6qwe9i2zhn2" data-item-class="Icon Stroke Indexed" data-item-index="2" data-renderer-id="0" transform="translate(176, 75)"></g><g id="g-root-bloc_v6qwe9i2zhn2-fill" data-item-order="1000000000" data-item-id="bloc_v6qwe9i2zhn2" data-item-class="Icon Stroke Indexed" data-item-index="2" data-renderer-id="0" transform="translate(176, 75)"></g><g id="g-root-2_1cws1vli2k0zu-fill" data-item-order="1000000000" data-item-id="2_1cws1vli2k0zu" data-item-class="Icon Stroke Indexed" data-item-index="5" data-renderer-id="0" transform="translate(344, 75)"></g><g id="g-root-2_1cws1vli2k0zu-fill" data-item-order="1000000000" data-item-id="2_1cws1vli2k0zu" data-item-class="Icon Stroke Indexed" data-item-index="5" data-renderer-id="0" transform="translate(344, 75)"></g><g id="g-root-tx_senecesi_hwjfcxi2le6h-fill" data-item-order="1000000000" data-item-id="tx_senecesi_hwjfcxi2le6h" data-item-class="Label Stroke Indexed Indexed_1" data-item-index="1" data-renderer-id="0" transform="translate(8, 3)"><g id="tx_senecesi_hwjfcxi2le6h-fill" stroke="none" fill="#484848"><g><text style="font: 20px &quot;Roboto&quot;, sans-serif; white-space: pre;" font-size="20px" font-family="'Roboto', sans-serif"><tspan x="50.27" y="34" dominant-baseline="ideographic">Se necesitan </tspan><tspan x="20.68" y="58" dominant-baseline="ideographic">menos recursos</tspan></text></g></g></g><g id="g-root-tx_implemen_1lvjfk1i2lern-fill" data-item-order="1000000000" data-item-id="tx_implemen_1lvjfk1i2lern" data-item-class="Label Stroke Indexed" data-item-index="5" data-renderer-id="0" transform="translate(404, 75)"><g id="tx_implemen_1lvjfk1i2lern-fill" stroke="none" fill="#484848"><g><text style="font: 20px &quot;Roboto&quot;, sans-serif; white-space: pre;" font-size="20px" font-family="'Roboto', sans-serif"><tspan x="12" y="34" dominant-baseline="ideographic">Implementación </tspan><tspan x="12" y="58" dominant-baseline="ideographic">más larga</tspan></text></g></g></g><g id="g-root-tx_solucind_1cynh4xi2lde7-fill" data-item-order="1000000000" data-item-id="tx_solucind_1cynh4xi2lde7" data-item-class="Label Stroke Indexed" data-item-index="3" data-renderer-id="0" transform="translate(32, 147)"><g id="tx_solucind_1cynh4xi2lde7-fill" stroke="none" fill="#484848"><g><text style="font: 20px &quot;Roboto&quot;, sans-serif; white-space: pre;" font-size="20px" font-family="'Roboto', sans-serif"><tspan x="36.27" y="34" dominant-baseline="ideographic">Solución de </tspan><tspan x="19.72" y="58" dominant-baseline="ideographic">menor escala</tspan></text></g></g></g><g id="g-root-tx_solucind_1cynh4xi2lde7-fill" data-item-order="1000000000" data-item-id="tx_solucind_1cynh4xi2lde7" data-item-class="Label Stroke Indexed" data-item-index="3" data-renderer-id="0" transform="translate(32, 147)"><g id="tx_solucind_1cynh4xi2lde7-fill" stroke="none" fill="#484848"><g><text style="font: 20px &quot;Roboto&quot;, sans-serif; white-space: pre;" font-size="20px" font-family="'Roboto', sans-serif"><tspan x="36.27" y="34" dominant-baseline="ideographic">Solución de </tspan><tspan x="19.72" y="58" dominant-baseline="ideographic">menor escala</tspan></text></g></g></g><g id="g-root-buil_90681i2wlqf-fill" data-item-order="1000000000" data-item-id="buil_90681i2wlqf" data-item-class="Icon Stroke Indexed" data-item-index="3" data-renderer-id="0" transform="translate(176, 147)"></g><g id="g-root-buil_90681i2wlqf-fill" data-item-order="1000000000" data-item-id="buil_90681i2wlqf" data-item-class="Icon Stroke Indexed" data-item-index="3" data-renderer-id="0" transform="translate(176, 147)"></g><g id="g-root-2_18mkqddi33nkd-fill" data-item-order="1000000000" data-item-id="2_18mkqddi33nkd" data-item-class="Icon Stroke Indexed" data-item-index="6" data-renderer-id="0" transform="translate(344, 147)"></g><g id="g-root-2_18mkqddi33nkd-fill" data-item-order="1000000000" data-item-id="2_18mkqddi33nkd" data-item-class="Icon Stroke Indexed" data-item-index="6" data-renderer-id="0" transform="translate(344, 147)"></g><g id="g-root-tx_solucind_4l2wzli2lfre-fill" data-item-order="1000000000" data-item-id="tx_solucind_4l2wzli2lfre" data-item-class="Label Stroke Indexed" data-item-index="6" data-renderer-id="0" transform="translate(404, 147)"><g id="tx_solucind_4l2wzli2lfre-fill" stroke="none" fill="#484848"><g><text style="font: 20px &quot;Roboto&quot;, sans-serif; white-space: pre;" font-size="20px" font-family="'Roboto', sans-serif"><tspan x="12" y="34" dominant-baseline="ideographic">Solución de </tspan><tspan x="12" y="58" dominant-baseline="ideographic">mayor escala</tspan></text></g></g></g><g id="g-root-tx_solucind_4l2wzli2lfre-fill" data-item-order="1000000000" data-item-id="tx_solucind_4l2wzli2lfre" data-item-class="Label Stroke Indexed" data-item-index="6" data-renderer-id="0" transform="translate(404, 147)"><g id="tx_solucind_4l2wzli2lfre-fill" stroke="none" fill="#484848"><g><text style="font: 20px &quot;Roboto&quot;, sans-serif; white-space: pre;" font-size="20px" font-family="'Roboto', sans-serif"><tspan x="12" y="34" dominant-baseline="ideographic">Solución de </tspan><tspan x="12" y="58" dominant-baseline="ideographic">mayor escala</tspan></text></g></g></g><g id="g-root-tx_implemen_v7dgn5i2lfrc-fill" data-item-order="1000000000" data-item-id="tx_implemen_v7dgn5i2lfrc" data-item-class="Label Stroke Indexed" data-item-index="2" data-renderer-id="0" transform="translate(8, 75)"><g id="tx_implemen_v7dgn5i2lfrc-fill" stroke="none" fill="#484848"><g><text style="font: 20px &quot;Roboto&quot;, sans-serif; white-space: pre;" font-size="20px" font-family="'Roboto', sans-serif"><tspan x="20.03" y="34" dominant-baseline="ideographic">Implementación </tspan><tspan x="108.5" y="58" dominant-baseline="ideographic">rápida</tspan></text></g></g></g><g id="g-root-tx_implemen_v7dgn5i2lfrc-fill" data-item-order="1000000000" data-item-id="tx_implemen_v7dgn5i2lfrc" data-item-class="Label Stroke Indexed" data-item-index="2" data-renderer-id="0" transform="translate(8, 75)"><g id="tx_implemen_v7dgn5i2lfrc-fill" stroke="none" fill="#484848"><g><text style="font: 20px &quot;Roboto&quot;, sans-serif; white-space: pre;" font-size="20px" font-family="'Roboto', sans-serif"><tspan x="20.03" y="34" dominant-baseline="ideographic">Implementación </tspan><tspan x="108.5" y="58" dominant-baseline="ideographic">rápida</tspan></text></g></g></g><g id="g-root-tx_senecesi_18kpe9ti2ld6s-fill" data-item-order="1000000000" data-item-id="tx_senecesi_18kpe9ti2ld6s" data-item-class="Label Stroke Indexed" data-item-index="4" data-renderer-id="0" transform="translate(404, 3)"><g id="tx_senecesi_18kpe9ti2ld6s-fill" stroke="none" fill="#484848"><g><text style="font: 20px &quot;Roboto&quot;, sans-serif; white-space: pre;" font-size="20px" font-family="'Roboto', sans-serif"><tspan x="12" y="34" dominant-baseline="ideographic">Se necesitan </tspan><tspan x="12" y="58" dominant-baseline="ideographic">más recursos</tspan></text></g></g></g><g id="g-root-tx_senecesi_18kpe9ti2ld6s-fill" data-item-order="1000000000" data-item-id="tx_senecesi_18kpe9ti2ld6s" data-item-class="Label Stroke Indexed" data-item-index="4" data-renderer-id="0" transform="translate(404, 3)"><g id="tx_senecesi_18kpe9ti2ld6s-fill" stroke="none" fill="#484848"><g><text style="font: 20px &quot;Roboto&quot;, sans-serif; white-space: pre;" font-size="20px" font-family="'Roboto', sans-serif"><tspan x="12" y="34" dominant-baseline="ideographic">Se necesitan </tspan><tspan x="12" y="58" dominant-baseline="ideographic">más recursos</tspan></text></g></g></g><g id="g-root-tx_eligelae_4myc8xi2lerr-fill" data-item-order="1000000000" data-item-id="tx_eligelae_4myc8xi2lerr" data-item-class="Label Stroke Title" data-item-index="none" data-renderer-id="0" transform="translate(2, 375)"><g id="tx_eligelae_4myc8xi2lerr-fill" stroke="none" fill="#484848"><g><text style="font: 20px &quot;Roboto&quot;, sans-serif; white-space: pre;" font-size="20px" font-family="'Roboto', sans-serif"><tspan x="16.19" y="34" dominant-baseline="ideographic">Elige la escala adecuada para tus necesidades de inteligencia </tspan><tspan x="237.99" y="58" dominant-baseline="ideographic">de negocio.</tspan></text></g></g></g><g id="g-root-open_1lto0api2lfra-fill" data-item-order="1000000000" data-item-id="open_1lto0api2lfra" data-item-class="Icon Stroke Indexed" data-item-index="4" data-renderer-id="0" transform="translate(344, 3)"></g><g id="g-root-open_1lto0api2lfra-fill" data-item-order="1000000000" data-item-id="open_1lto0api2lfra" data-item-class="Icon Stroke Indexed" data-item-index="4" data-renderer-id="0" transform="translate(344, 3)"></g><g id="g-root-2_1ha3khti328sl-fill" data-item-order="1000000000" data-item-id="2_1ha3khti328sl" data-item-class="Icon Stroke Indexed Indexed_1" data-item-index="1" data-renderer-id="0" transform="translate(176, 3)"></g><g id="g-root-2_1ha3khti328sl-fill" data-item-order="1000000000" data-item-id="2_1ha3khti328sl" data-item-class="Icon Stroke Indexed Indexed_1" data-item-index="1" data-renderer-id="0" transform="translate(176, 3)"></g><g id="g-root-tx_datamart_v98vwhi2lerp-fill" data-item-order="1000000000" data-item-id="tx_datamart_v98vwhi2lerp" data-item-class="Label Stroke Indexed" data-item-index="none" data-renderer-id="0" transform="translate(68, 303)"><g id="tx_datamart_v98vwhi2lerp-fill" stroke="none" fill="#484848"><g><text style="font: 20px &quot;Roboto&quot;, sans-serif; white-space: pre;" font-size="20px" font-family="'Roboto', sans-serif"><tspan x="16.19" y="34" dominant-baseline="ideographic">Datamart</tspan></text></g></g></g><g id="g-root-tx_datamart_v98vwhi2lerp-fill" data-item-order="1000000000" data-item-id="tx_datamart_v98vwhi2lerp" data-item-class="Label Stroke Indexed" data-item-index="none" data-renderer-id="0" transform="translate(68, 303)"><g id="tx_datamart_v98vwhi2lerp-fill" stroke="none" fill="#484848"><g><text style="font: 20px &quot;Roboto&quot;, sans-serif; white-space: pre;" font-size="20px" font-family="'Roboto', sans-serif"><tspan x="16.19" y="34" dominant-baseline="ideographic">Datamart</tspan></text></g></g></g><g id="g-root-tx_dataware_hyeum9i2ld6u-fill" data-item-order="1000000000" data-item-id="tx_dataware_hyeum9i2ld6u" data-item-class="Label Stroke Indexed" data-item-index="none" data-renderer-id="0" transform="translate(374, 303)"><g id="tx_dataware_hyeum9i2ld6u-fill" stroke="none" fill="#484848"><g><text style="font: 20px &quot;Roboto&quot;, sans-serif; white-space: pre;" font-size="20px" font-family="'Roboto', sans-serif"><tspan x="14.89" y="34" dominant-baseline="ideographic">Data Warehouse</tspan></text></g></g></g><g id="g-root-tx_dataware_hyeum9i2ld6u-fill" data-item-order="1000000000" data-item-id="tx_dataware_hyeum9i2ld6u" data-item-class="Label Stroke Indexed" data-item-index="none" data-renderer-id="0" transform="translate(374, 303)"><g id="tx_dataware_hyeum9i2ld6u-fill" stroke="none" fill="#484848"><g><text style="font: 20px &quot;Roboto&quot;, sans-serif; white-space: pre;" font-size="20px" font-family="'Roboto', sans-serif"><tspan x="14.89" y="34" dominant-baseline="ideographic">Data Warehouse</tspan></text></g></g></g><g id="g-root-tx_senecesi_hwjfcxi2le6h-fill" data-item-order="1000000000" data-item-id="tx_senecesi_hwjfcxi2le6h" data-item-class="Label Stroke Indexed Indexed_1" data-item-index="1" data-renderer-id="0" transform="translate(8, 3)"><g id="tx_senecesi_hwjfcxi2le6h-fill" stroke="none" fill="#484848"><g><text style="font: 20px &quot;Roboto&quot;, sans-serif; white-space: pre;" font-size="20px" font-family="'Roboto', sans-serif"><tspan x="50.27" y="34" dominant-baseline="ideographic">Se necesitan </tspan><tspan x="20.68" y="58" dominant-baseline="ideographic">menos recursos</tspan></text></g></g></g><g id="g-root-tx_implemen_1lvjfk1i2lern-fill" data-item-order="1000000000" data-item-id="tx_implemen_1lvjfk1i2lern" data-item-class="Label Stroke Indexed" data-item-index="5" data-renderer-id="0" transform="translate(404, 75)"><g id="tx_implemen_1lvjfk1i2lern-fill" stroke="none" fill="#484848"><g><text style="font: 20px &quot;Roboto&quot;, sans-serif; white-space: pre;" font-size="20px" font-family="'Roboto', sans-serif"><tspan x="12" y="34" dominant-baseline="ideographic">Implementación </tspan><tspan x="12" y="58" dominant-baseline="ideographic">más larga</tspan></text></g></g></g><g id="g-root-5.cu_sy_mahf29i2v8xu-stroke" data-item-order="999968326" data-item-id="5.cu_sy_mahf29i2v8xu" data-item-class="Part Indexed Stroke ColorStrokeGray" data-item-index="5" data-renderer-id="0" transform="translate(200, 226)"><g id="5.cu_sy_mahf29i2v8xu-stroke" fill="none" stroke-linecap="round" stroke-linejoin="round" stroke-miterlimit="4" stroke="#888888" stroke-width="2"><g><path d="M 178 10L 178 24.978C 178 29.395 174.42 32.976 170.003 32.978L 107 33M 10 10L 10 25.025C 10 29.444 13.582 33.025 18 33.025L 82 33.025"></path></g></g></g><g id="g-root-5.cu_sy_mahf29i2v8xu-stroke" data-item-order="999968326" data-item-id="5.cu_sy_mahf29i2v8xu" data-item-class="Part Indexed Stroke ColorStrokeGray" data-item-index="5" data-renderer-id="0" transform="translate(200, 226)"><g id="5.cu_sy_mahf29i2v8xu-stroke" fill="none" stroke-linecap="round" stroke-linejoin="round" stroke-miterlimit="4" stroke="#888888" stroke-width="2"><g><path d="M 178 10L 178 24.978C 178 29.395 174.42 32.976 170.003 32.978L 107 33M 10 10L 10 25.025C 10 29.444 13.582 33.025 18 33.025L 82 33.025"></path></g></g></g><g id="g-root-4.cu_sy_deuetdi2v9qj-stroke" data-item-order="999968329" data-item-id="4.cu_sy_deuetdi2v9qj" data-item-class="Part Indexed Fill Stroke ColorFillGray ColorStrokeGray" data-item-index="4" data-renderer-id="0" transform="translate(272, 237)"><g id="4.cu_sy_deuetdi2v9qj-stroke" fill="none" stroke-linecap="round" stroke-linejoin="round" stroke-miterlimit="4" stroke="#888888" stroke-width="2"><g><path d="M 34.086 22C 34.086 28.627 28.695 34 22.043 34C 15.392 34 10 28.627 10 22C 10 15.373 15.392 10 22.043 10C 28.695 10 34.086 15.373 34.086 22ZM 28 22C 28 25.314 25.314 28 22 28C 18.686 28 16 25.314 16 22C 16 18.686 18.686 16 22 16C 25.314 16 28 18.686 28 22Z"></path></g></g></g><g id="g-root-4.cu_sy_deuetdi2v9qj-stroke" data-item-order="999968329" data-item-id="4.cu_sy_deuetdi2v9qj" data-item-class="Part Indexed Fill Stroke ColorFillGray ColorStrokeGray" data-item-index="4" data-renderer-id="0" transform="translate(272, 237)"><g id="4.cu_sy_deuetdi2v9qj-stroke" fill="none" stroke-linecap="round" stroke-linejoin="round" stroke-miterlimit="4" stroke="#888888" stroke-width="2"><g><path d="M 34.086 22C 34.086 28.627 28.695 34 22.043 34C 15.392 34 10 28.627 10 22C 10 15.373 15.392 10 22.043 10C 28.695 10 34.086 15.373 34.086 22ZM 28 22C 28 25.314 25.314 28 22 28C 18.686 28 16 25.314 16 22C 16 18.686 18.686 16 22 16C 25.314 16 28 18.686 28 22Z"></path></g></g></g><g id="g-root-3.cu_sy_8znds1i2v7d0-stroke" data-item-order="999968333" data-item-id="3.cu_sy_8znds1i2v7d0" data-item-class="Part Indexed Fill Stroke ColorFillGray ColorStrokeGray" data-item-index="3" data-renderer-id="0" transform="translate(236, 258.32598876953125)"><g id="3.cu_sy_8znds1i2v7d0-stroke" fill="none" stroke-linecap="round" stroke-linejoin="round" stroke-miterlimit="4" stroke="#888888" stroke-width="2"><g><path d="M 22 78.674011L 94 78.674011C 94 78.674011 73.992 28.166011 65.959 10.058011C 63.725 11.952011 61.073 12.997011 58.043 12.997011C 54.986 12.997011 52.288 11.933011 50.072 10.000011C 42.047 28.114011 22 78.674011 22 78.674011ZM 18 78.679011C 13.582 78.679011 10 82.260011 10 86.679011L 10 88.679011C 10 89.783011 10.895 90.679011 12 90.679011L 104 90.679011C 105.105 90.679011 106 89.783011 106 88.679011L 106 86.679011C 106 82.260011 102.418 78.679011 98 78.679011L 18 78.679011Z"></path></g></g><g id="3.cu_sy_8znds1i2v7d0-stroke" fill="none" stroke-linecap="round" stroke-linejoin="round" stroke-miterlimit="4" stroke="#888888" stroke-width="2"><g><path d="M 58 58.679011L 54 62.679011L 54 71.749011C 55.177 71.068011 56.543 70.679011 58 70.679011C 59.457 70.679011 60.823 71.068011 62 71.749011L 62 62.679011L 58 58.679011ZM 62 71.749011C 60.823 71.068011 59.457 70.679011 58 70.679011C 56.543 70.679011 55.177 71.068011 54 71.749011C 51.609 73.132011 50 75.718011 50 78.679011L 66 78.679011C 66 75.718011 64.391 73.132011 62 71.749011ZM 58 49.679011L 58 55.479011M 78.503 58.176011L 74.404 62.274011M 37.497 58.176011L 41.596 62.274011M 64.747 53.468011L 64.003 56.262011M 44.94 56.078011L 46.4 58.591011M 71.031 56.068011L 69.59 58.572011M 51.224 53.478011L 51.978 56.271011"></path></g></g></g><g id="g-root-3.cu_sy_8znds1i2v7d0-stroke" data-item-order="999968333" data-item-id="3.cu_sy_8znds1i2v7d0" data-item-class="Part Indexed Fill Stroke ColorFillGray ColorStrokeGray" data-item-index="3" data-renderer-id="0" transform="translate(236, 258.32598876953125)"><g id="3.cu_sy_8znds1i2v7d0-stroke" fill="none" stroke-linecap="round" stroke-linejoin="round" stroke-miterlimit="4" stroke="#888888" stroke-width="2"><g><path d="M 22 78.674011L 94 78.674011C 94 78.674011 73.992 28.166011 65.959 10.058011C 63.725 11.952011 61.073 12.997011 58.043 12.997011C 54.986 12.997011 52.288 11.933011 50.072 10.000011C 42.047 28.114011 22 78.674011 22 78.674011ZM 18 78.679011C 13.582 78.679011 10 82.260011 10 86.679011L 10 88.679011C 10 89.783011 10.895 90.679011 12 90.679011L 104 90.679011C 105.105 90.679011 106 89.783011 106 88.679011L 106 86.679011C 106 82.260011 102.418 78.679011 98 78.679011L 18 78.679011Z"></path></g></g><g id="3.cu_sy_8znds1i2v7d0-stroke" fill="none" stroke-linecap="round" stroke-linejoin="round" stroke-miterlimit="4" stroke="#888888" stroke-width="2"><g><path d="M 58 58.679011L 54 62.679011L 54 71.749011C 55.177 71.068011 56.543 70.679011 58 70.679011C 59.457 70.679011 60.823 71.068011 62 71.749011L 62 62.679011L 58 58.679011ZM 62 71.749011C 60.823 71.068011 59.457 70.679011 58 70.679011C 56.543 70.679011 55.177 71.068011 54 71.749011C 51.609 73.132011 50 75.718011 50 78.679011L 66 78.679011C 66 75.718011 64.391 73.132011 62 71.749011ZM 58 49.679011L 58 55.479011M 78.503 58.176011L 74.404 62.274011M 37.497 58.176011L 41.596 62.274011M 64.747 53.468011L 64.003 56.262011M 44.94 56.078011L 46.4 58.591011M 71.031 56.068011L 69.59 58.572011M 51.224 53.478011L 51.978 56.271011"></path></g></g></g><g id="g-root-2.right-bucket_sy_40dj5i2v85p-stroke" data-item-order="999968337" data-item-id="2.right-bucket_sy_40dj5i2v85p" data-item-class="Part Indexed Fill Stroke" data-item-index="2" data-renderer-id="0" transform="translate(332, 207)"><g id="2.right-bucket_sy_40dj5i2v85p-stroke" fill="none" stroke-linecap="round" stroke-linejoin="round" stroke-miterlimit="4" stroke="#4682e3" stroke-width="2"><g><path d="M 10 11.8C 10 10.806 10.806 10 11.8 10L 80.2 10C 81.194 10 82 10.806 82 11.8C 82 20.747 74.747 28 65.8 28L 26.2 28C 17.253 28 10 20.747 10 11.8Z"></path></g></g></g><g id="g-root-2.right-bucket_sy_40dj5i2v85p-stroke" data-item-order="999968337" data-item-id="2.right-bucket_sy_40dj5i2v85p" data-item-class="Part Indexed Fill Stroke" data-item-index="2" data-renderer-id="0" transform="translate(332, 207)"><g id="2.right-bucket_sy_40dj5i2v85p-stroke" fill="none" stroke-linecap="round" stroke-linejoin="round" stroke-miterlimit="4" stroke="#4682e3" stroke-width="2"><g><path d="M 10 11.8C 10 10.806 10.806 10 11.8 10L 80.2 10C 81.194 10 82 10.806 82 11.8C 82 20.747 74.747 28 65.8 28L 26.2 28C 17.253 28 10 20.747 10 11.8Z"></path></g></g></g><g id="g-root-1.left-bucket_sy_1upaxdti2v8qu-stroke" data-item-order="999968341" data-item-id="1.left-bucket_sy_1upaxdti2v8qu" data-item-class="Part Indexed Indexed_1 Fill Stroke" data-item-index="1" data-renderer-id="0" transform="translate(164, 207)"><g id="1.left-bucket_sy_1upaxdti2v8qu-stroke" fill="none" stroke-linecap="round" stroke-linejoin="round" stroke-miterlimit="4" stroke="#17b0e3" stroke-width="2"><g><path d="M 10 11.8C 10 10.806 10.806 10 11.8 10L 80.2 10C 81.194 10 82 10.806 82 11.8C 82 20.747 74.747 28 65.8 28L 26.2 28C 17.253 28 10 20.747 10 11.8Z"></path></g></g></g><g id="g-root-1.left-bucket_sy_1upaxdti2v8qu-stroke" data-item-order="999968341" data-item-id="1.left-bucket_sy_1upaxdti2v8qu" data-item-class="Part Indexed Indexed_1 Fill Stroke" data-item-index="1" data-renderer-id="0" transform="translate(164, 207)"><g id="1.left-bucket_sy_1upaxdti2v8qu-stroke" fill="none" stroke-linecap="round" stroke-linejoin="round" stroke-miterlimit="4" stroke="#17b0e3" stroke-width="2"><g><path d="M 10 11.8C 10 10.806 10.806 10 11.8 10L 80.2 10C 81.194 10 82 10.806 82 11.8C 82 20.747 74.747 28 65.8 28L 26.2 28C 17.253 28 10 20.747 10 11.8Z"></path></g></g></g><g id="g-root-bloc_v6qwe9i2zhn2-stroke" data-item-order="1000000000" data-item-id="bloc_v6qwe9i2zhn2" data-item-class="Icon Stroke Indexed" data-item-index="2" data-renderer-id="0" transform="translate(176, 75)"><g id="bloc_v6qwe9i2zhn2-stroke" fill="none" stroke-linecap="round" stroke-linejoin="round" stroke-miterlimit="4" stroke="#484848" stroke-width="2"><g><path d="M 19.9 26.712C 23.299999 29.112 27.9 28.312 30.299999 24.911999C 32.299999 22.112 32.099998 18.312 29.9 15.712C 29.1 14.912001 29.1 13.712 29.700001 12.712C 30.5 11.712 31.9 11.312 33.099998 12.112L 45.900002 21.112C 47.299999 22.112 47.5 23.911999 46.700001 25.312C 44.700001 29.712 42.700001 33.711998 40.5 37.512001C 36.700001 43.712002 32.099998 49.112 26.1 54.911999C 25.1 56.312 23.299999 56.512001 21.9 55.712002L 19.700001 54.312C 17.9 53.112 16.9 51.112 17.1 48.911999C 20.700001 40.112 20.700001 34.112 19.9 26.712ZM 43.445999 19.382C 36.846001 33.382 29.976 43.486 19.375999 54.085999M 24.700001 33.512001L 20.312 35.155998M 24.1 40.512001L 19.375999 41.968002M 11.5 56.312L 56.5 56.312M 24.5 56.312L 48.5 38.312L 56.5 56.312M 19.9 26.712L 11.5 19.911999M 29.280001 14.25L 26.700001 12.312"></path></g></g></g><g id="g-root-bloc_v6qwe9i2zhn2-stroke" data-item-order="1000000000" data-item-id="bloc_v6qwe9i2zhn2" data-item-class="Icon Stroke Indexed" data-item-index="2" data-renderer-id="0" transform="translate(176, 75)"><g id="bloc_v6qwe9i2zhn2-stroke" fill="none" stroke-linecap="round" stroke-linejoin="round" stroke-miterlimit="4" stroke="#484848" stroke-width="2"><g><path d="M 19.9 26.712C 23.299999 29.112 27.9 28.312 30.299999 24.911999C 32.299999 22.112 32.099998 18.312 29.9 15.712C 29.1 14.912001 29.1 13.712 29.700001 12.712C 30.5 11.712 31.9 11.312 33.099998 12.112L 45.900002 21.112C 47.299999 22.112 47.5 23.911999 46.700001 25.312C 44.700001 29.712 42.700001 33.711998 40.5 37.512001C 36.700001 43.712002 32.099998 49.112 26.1 54.911999C 25.1 56.312 23.299999 56.512001 21.9 55.712002L 19.700001 54.312C 17.9 53.112 16.9 51.112 17.1 48.911999C 20.700001 40.112 20.700001 34.112 19.9 26.712ZM 43.445999 19.382C 36.846001 33.382 29.976 43.486 19.375999 54.085999M 24.700001 33.512001L 20.312 35.155998M 24.1 40.512001L 19.375999 41.968002M 11.5 56.312L 56.5 56.312M 24.5 56.312L 48.5 38.312L 56.5 56.312M 19.9 26.712L 11.5 19.911999M 29.280001 14.25L 26.700001 12.312"></path></g></g></g><g id="g-root-2_1cws1vli2k0zu-stroke" data-item-order="1000000000" data-item-id="2_1cws1vli2k0zu" data-item-class="Icon Stroke Indexed" data-item-index="5" data-renderer-id="0" transform="translate(344, 75)"><g id="2_1cws1vli2k0zu-stroke" fill="none" stroke-linecap="round" stroke-linejoin="round" stroke-miterlimit="4" stroke="#484848" stroke-width="2"><g><path d="M 34.559998 16C 34.560001 18.761425 36.798576 21 39.560001 21C 42.321423 21 44.560001 18.761425 44.560001 16C 44.560001 13.238577 42.321423 11 39.560001 11C 36.798576 11 34.560001 13.238577 34.560001 16M 49.972 19.872C 49.309978 19.828217 48.657856 20.050453 48.160339 20.489395C 47.662823 20.928335 47.361057 21.54768 47.322002 22.209999C 47.321999 22.25 46.978001 26.362 44.046001 27.01C 41.63319 27.142214 39.219704 26.762571 36.964001 25.896C 33.930489 24.733789 30.65984 24.326759 27.434 24.709999C 23.644579 25.457848 20.677982 28.413395 19.916 32.199997C 19.690887 33.562309 20.611933 34.849442 21.974001 35.076C 22.110888 35.09824 22.249319 35.109612 22.388 35.110001C 23.608608 35.107147 24.649008 34.223949 24.85 33.02C 25.276142 31.250198 26.711178 29.901564 28.504 29.585999C 30.080715 29.407778 31.677305 29.566618 33.188 30.052L 30.188 37.571999C 30.153908 37.655624 30.124529 37.741089 30.099998 37.827999L 28.639999 43.099998C 28 46.299999 26.902 46.900002 22.071999 48.209999L 18.852001 49.088001C 17.982285 49.31572 17.301815 49.992889 17.069866 50.861485C 16.837921 51.730083 17.090221 52.656334 17.730633 53.287312C 18.371048 53.918289 19.300941 54.156815 20.166 53.911999L 23.386 53.035999C 27.936001 51.792 32.236 50.622002 33.5 44.262001L 33.928001 42.717999C 36.506599 45.757256 37.337971 49.910347 36.128002 53.708004C 35.690155 55.018051 36.397697 56.434921 37.708 56.872002C 37.962955 56.955982 38.229568 56.99918 38.498001 57C 39.573807 57.000332 40.529186 56.312393 40.870003 55.292C 43.022766 48.839424 40.915276 41.72924 35.594002 37.492001L 38.040001 31.378C 40.325912 32.097595 42.748505 32.272247 45.113998 31.887999C 50.402 30.732 52.113998 25.459999 52.313999 22.524C 52.356682 21.861378 52.133583 21.209061 51.694057 20.711357C 51.254532 20.213655 50.634815 19.911594 49.972 19.872ZM 11 40.431999C 18.306654 38.349617 25.874737 37.328506 33.472 37.400002C 40.872002 37.400002 51 44.534 55.872002 38.436001C 58.161999 35.573997 56.518002 33.365997 54.694 32.001999"></path></g></g></g><g id="g-root-2_1cws1vli2k0zu-stroke" data-item-order="1000000000" data-item-id="2_1cws1vli2k0zu" data-item-class="Icon Stroke Indexed" data-item-index="5" data-renderer-id="0" transform="translate(344, 75)"><g id="2_1cws1vli2k0zu-stroke" fill="none" stroke-linecap="round" stroke-linejoin="round" stroke-miterlimit="4" stroke="#484848" stroke-width="2"><g><path d="M 34.559998 16C 34.560001 18.761425 36.798576 21 39.560001 21C 42.321423 21 44.560001 18.761425 44.560001 16C 44.560001 13.238577 42.321423 11 39.560001 11C 36.798576 11 34.560001 13.238577 34.560001 16M 49.972 19.872C 49.309978 19.828217 48.657856 20.050453 48.160339 20.489395C 47.662823 20.928335 47.361057 21.54768 47.322002 22.209999C 47.321999 22.25 46.978001 26.362 44.046001 27.01C 41.63319 27.142214 39.219704 26.762571 36.964001 25.896C 33.930489 24.733789 30.65984 24.326759 27.434 24.709999C 23.644579 25.457848 20.677982 28.413395 19.916 32.199997C 19.690887 33.562309 20.611933 34.849442 21.974001 35.076C 22.110888 35.09824 22.249319 35.109612 22.388 35.110001C 23.608608 35.107147 24.649008 34.223949 24.85 33.02C 25.276142 31.250198 26.711178 29.901564 28.504 29.585999C 30.080715 29.407778 31.677305 29.566618 33.188 30.052L 30.188 37.571999C 30.153908 37.655624 30.124529 37.741089 30.099998 37.827999L 28.639999 43.099998C 28 46.299999 26.902 46.900002 22.071999 48.209999L 18.852001 49.088001C 17.982285 49.31572 17.301815 49.992889 17.069866 50.861485C 16.837921 51.730083 17.090221 52.656334 17.730633 53.287312C 18.371048 53.918289 19.300941 54.156815 20.166 53.911999L 23.386 53.035999C 27.936001 51.792 32.236 50.622002 33.5 44.262001L 33.928001 42.717999C 36.506599 45.757256 37.337971 49.910347 36.128002 53.708004C 35.690155 55.018051 36.397697 56.434921 37.708 56.872002C 37.962955 56.955982 38.229568 56.99918 38.498001 57C 39.573807 57.000332 40.529186 56.312393 40.870003 55.292C 43.022766 48.839424 40.915276 41.72924 35.594002 37.492001L 38.040001 31.378C 40.325912 32.097595 42.748505 32.272247 45.113998 31.887999C 50.402 30.732 52.113998 25.459999 52.313999 22.524C 52.356682 21.861378 52.133583 21.209061 51.694057 20.711357C 51.254532 20.213655 50.634815 19.911594 49.972 19.872ZM 11 40.431999C 18.306654 38.349617 25.874737 37.328506 33.472 37.400002C 40.872002 37.400002 51 44.534 55.872002 38.436001C 58.161999 35.573997 56.518002 33.365997 54.694 32.001999"></path></g></g></g><g id="g-root-tx_senecesi_hwjfcxi2le6h-stroke" data-item-order="1000000000" data-item-id="tx_senecesi_hwjfcxi2le6h" data-item-class="Label Stroke Indexed Indexed_1" data-item-index="1" data-renderer-id="0" transform="translate(8, 3)"></g><g id="g-root-tx_implemen_1lvjfk1i2lern-stroke" data-item-order="1000000000" data-item-id="tx_implemen_1lvjfk1i2lern" data-item-class="Label Stroke Indexed" data-item-index="5" data-renderer-id="0" transform="translate(404, 75)"></g><g id="g-root-tx_solucind_1cynh4xi2lde7-stroke" data-item-order="1000000000" data-item-id="tx_solucind_1cynh4xi2lde7" data-item-class="Label Stroke Indexed" data-item-index="3" data-renderer-id="0" transform="translate(32, 147)"></g><g id="g-root-tx_solucind_1cynh4xi2lde7-stroke" data-item-order="1000000000" data-item-id="tx_solucind_1cynh4xi2lde7" data-item-class="Label Stroke Indexed" data-item-index="3" data-renderer-id="0" transform="translate(32, 147)"></g><g id="g-root-buil_90681i2wlqf-stroke" data-item-order="1000000000" data-item-id="buil_90681i2wlqf" data-item-class="Icon Stroke Indexed" data-item-index="3" data-renderer-id="0" transform="translate(176, 147)"><g id="buil_90681i2wlqf-stroke" fill="none" stroke-linecap="round" stroke-linejoin="round" stroke-miterlimit="4" stroke="#484848" stroke-width="2"><g><path d="M 11 56.987999L 41 56.987999C 41 53.674294 38.313709 50.988003 35 50.988003L 27.5 50.987999C 27.5 47.674294 24.813709 44.988003 21.5 44.988003L 11 44.987999M 21.5 50.987999L 27.5 50.987999M 29 44.012001L 49 44.012001C 53.155914 41.234581 56.03466 36.916466 57 32.012001L 44.799999 32.012001L 40.863998 35.012001L 29.959999 35.012001L 15 35.012001C 15 35.012001 14.032 36.711998 18.200001 40.982002M 42.082001 26.011999L 56.082001 26.011999C 56.082001 22.534 48.222 11.012 42.082001 11.012ZM 29.5 26.011999L 29.5 35.007999M 23 26.011999L 37 26.011999C 37 22.534 29.139999 11.012 23 11.012ZM 48.582001 26.011999L 48.582001 32.012001"></path></g></g></g><g id="g-root-buil_90681i2wlqf-stroke" data-item-order="1000000000" data-item-id="buil_90681i2wlqf" data-item-class="Icon Stroke Indexed" data-item-index="3" data-renderer-id="0" transform="translate(176, 147)"><g id="buil_90681i2wlqf-stroke" fill="none" stroke-linecap="round" stroke-linejoin="round" stroke-miterlimit="4" stroke="#484848" stroke-width="2"><g><path d="M 11 56.987999L 41 56.987999C 41 53.674294 38.313709 50.988003 35 50.988003L 27.5 50.987999C 27.5 47.674294 24.813709 44.988003 21.5 44.988003L 11 44.987999M 21.5 50.987999L 27.5 50.987999M 29 44.012001L 49 44.012001C 53.155914 41.234581 56.03466 36.916466 57 32.012001L 44.799999 32.012001L 40.863998 35.012001L 29.959999 35.012001L 15 35.012001C 15 35.012001 14.032 36.711998 18.200001 40.982002M 42.082001 26.011999L 56.082001 26.011999C 56.082001 22.534 48.222 11.012 42.082001 11.012ZM 29.5 26.011999L 29.5 35.007999M 23 26.011999L 37 26.011999C 37 22.534 29.139999 11.012 23 11.012ZM 48.582001 26.011999L 48.582001 32.012001"></path></g></g></g><g id="g-root-2_18mkqddi33nkd-stroke" data-item-order="1000000000" data-item-id="2_18mkqddi33nkd" data-item-class="Icon Stroke Indexed" data-item-index="6" data-renderer-id="0" transform="translate(344, 147)"><g id="2_18mkqddi33nkd-stroke" fill="none" stroke-linecap="round" stroke-linejoin="round" stroke-miterlimit="4" stroke="#484848" stroke-width="2"><g><path d="M 50.5 49L 47.5 49M 50.5 42L 47.5 42M 40.5 49L 37.5 49M 30.5 49L 27.5 49M 20.5 49L 17.5 49M 40.5 42L 40.5 36C 40.5 34.895432 41.395432 34 42.5 34L 54.5 34C 55.604568 34 56.5 34.895432 56.5 36L 56.5 56L 11.5 56L 11.5 44C 11.5 42.895432 12.395431 42 13.5 42ZM 33 42L 27 42L 27 24L 33 24ZM 52.5 34L 46.5 34L 46.5 28L 52.5 28ZM 20.5 42L 14.5 42L 14.5 28L 20.5 28ZM 51.5 12C 49.713768 12.004197 48.066711 12.965109 47.184002 14.518C 45.933792 13.669181 44.247395 13.882736 43.248238 15.016402C 42.249077 16.150068 42.249077 17.849932 43.248238 18.983599C 44.247395 20.117264 45.933792 20.33082 47.184002 19.482C 48.39135 21.593315 50.942818 22.529594 53.229229 21.700333C 55.515636 20.871071 56.873672 18.516851 56.446835 16.12245C 56.019997 13.72805 53.932121 11.988114 51.5 12ZM 32.5 17C 32.5 18.656855 33.843147 20 35.5 20C 37.156853 20 38.5 18.656855 38.5 17C 38.5 15.343145 37.156853 14 35.5 14C 33.843147 14 32.5 15.343145 32.5 17"></path></g></g></g><g id="g-root-2_18mkqddi33nkd-stroke" data-item-order="1000000000" data-item-id="2_18mkqddi33nkd" data-item-class="Icon Stroke Indexed" data-item-index="6" data-renderer-id="0" transform="translate(344, 147)"><g id="2_18mkqddi33nkd-stroke" fill="none" stroke-linecap="round" stroke-linejoin="round" stroke-miterlimit="4" stroke="#484848" stroke-width="2"><g><path d="M 50.5 49L 47.5 49M 50.5 42L 47.5 42M 40.5 49L 37.5 49M 30.5 49L 27.5 49M 20.5 49L 17.5 49M 40.5 42L 40.5 36C 40.5 34.895432 41.395432 34 42.5 34L 54.5 34C 55.604568 34 56.5 34.895432 56.5 36L 56.5 56L 11.5 56L 11.5 44C 11.5 42.895432 12.395431 42 13.5 42ZM 33 42L 27 42L 27 24L 33 24ZM 52.5 34L 46.5 34L 46.5 28L 52.5 28ZM 20.5 42L 14.5 42L 14.5 28L 20.5 28ZM 51.5 12C 49.713768 12.004197 48.066711 12.965109 47.184002 14.518C 45.933792 13.669181 44.247395 13.882736 43.248238 15.016402C 42.249077 16.150068 42.249077 17.849932 43.248238 18.983599C 44.247395 20.117264 45.933792 20.33082 47.184002 19.482C 48.39135 21.593315 50.942818 22.529594 53.229229 21.700333C 55.515636 20.871071 56.873672 18.516851 56.446835 16.12245C 56.019997 13.72805 53.932121 11.988114 51.5 12ZM 32.5 17C 32.5 18.656855 33.843147 20 35.5 20C 37.156853 20 38.5 18.656855 38.5 17C 38.5 15.343145 37.156853 14 35.5 14C 33.843147 14 32.5 15.343145 32.5 17"></path></g></g></g><g id="g-root-tx_solucind_4l2wzli2lfre-stroke" data-item-order="1000000000" data-item-id="tx_solucind_4l2wzli2lfre" data-item-class="Label Stroke Indexed" data-item-index="6" data-renderer-id="0" transform="translate(404, 147)"></g><g id="g-root-tx_solucind_4l2wzli2lfre-stroke" data-item-order="1000000000" data-item-id="tx_solucind_4l2wzli2lfre" data-item-class="Label Stroke Indexed" data-item-index="6" data-renderer-id="0" transform="translate(404, 147)"></g><g id="g-root-tx_implemen_v7dgn5i2lfrc-stroke" data-item-order="1000000000" data-item-id="tx_implemen_v7dgn5i2lfrc" data-item-class="Label Stroke Indexed" data-item-index="2" data-renderer-id="0" transform="translate(8, 75)"></g><g id="g-root-tx_implemen_v7dgn5i2lfrc-stroke" data-item-order="1000000000" data-item-id="tx_implemen_v7dgn5i2lfrc" data-item-class="Label Stroke Indexed" data-item-index="2" data-renderer-id="0" transform="translate(8, 75)"></g><g id="g-root-tx_senecesi_18kpe9ti2ld6s-stroke" data-item-order="1000000000" data-item-id="tx_senecesi_18kpe9ti2ld6s" data-item-class="Label Stroke Indexed" data-item-index="4" data-renderer-id="0" transform="translate(404, 3)"></g><g id="g-root-tx_senecesi_18kpe9ti2ld6s-stroke" data-item-order="1000000000" data-item-id="tx_senecesi_18kpe9ti2ld6s" data-item-class="Label Stroke Indexed" data-item-index="4" data-renderer-id="0" transform="translate(404, 3)"></g><g id="g-root-tx_eligelae_4myc8xi2lerr-stroke" data-item-order="1000000000" data-item-id="tx_eligelae_4myc8xi2lerr" data-item-class="Label Stroke Title" data-item-index="none" data-renderer-id="0" transform="translate(2, 375)"></g><g id="g-root-open_1lto0api2lfra-stroke" data-item-order="1000000000" data-item-id="open_1lto0api2lfra" data-item-class="Icon Stroke Indexed" data-item-index="4" data-renderer-id="0" transform="translate(344, 3)"><g id="open_1lto0api2lfra-stroke" fill="none" stroke-linecap="round" stroke-linejoin="round" stroke-miterlimit="4" stroke="#484848" stroke-width="2"><g><path d="M 30.482 50.709999C 29.820431 50.709499 29.186485 50.444687 28.721132 49.974449C 28.255779 49.504215 27.997599 48.867538 28.004 48.206001L 28.004 48.206001C 28.018253 46.8465 29.124424 45.751926 30.484001 45.751999L 37.624001 45.751999C 38.992104 45.754208 40.100002 46.863895 40.099998 48.232002L 40.099998 48.231998C 40.0989 49.600105 38.990105 50.708897 37.622002 50.709999L 30.482 50.709999ZM 56.5 40.868L 56.5 54.023998C 56.5 55.104 55.625999 55.978001 54.546001 55.978001L 13.534 55.978001C 12.454836 55.978001 11.58 55.103165 11.58 54.023998L 11.58 40.868M 56.5 40.868L 11.58 40.868M 11.5 20.812L 11.5 13.976C 11.5 12.896 12.374001 12.022 13.454 12.022L 54.466 12.022C 55.546001 12.022 56.419998 12.896 56.419998 13.976L 56.419998 20.812M 27.504 30.493999C 26.674015 31.685698 25.500551 32.596146 24.139999 33.104L 24.116001 40.868L 19.060001 40.868L 19.086 33.087997C 16.308346 32.029343 14.476141 29.361723 14.485033 26.389175C 14.493927 23.416626 16.34206 20.760019 19.125999 19.718L 19.112 25.138L 21.632 27.674L 24.164 25.153999L 24.18 19.734001C 26.235029 20.517237 27.814951 22.203094 28.463358 24.304562C 29.111767 26.406031 28.756432 28.689011 27.5 30.493999ZM 31.875999 40.868L 31.902 33.528L 38.138 33.531998L 38.138 40.868L 31.878 40.868ZM 32.348 19.720001L 37.697998 19.720001L 37.697998 22.360001C 37.697998 23.83736 36.500359 25.035 35.022999 25.035C 33.545639 25.035 32.348 23.83736 32.348 22.360001L 32.348 19.720001ZM 35.007999 25.038L 35.007999 33.528M 50.122002 30.594C 52.726933 29.322203 54.097816 26.410728 53.41864 23.592594C 52.739464 20.77446 50.192783 18.807125 47.294476 18.861622C 44.396168 18.916119 41.92524 20.977798 41.352486 23.819471C 40.779732 26.661146 42.25909 29.519028 44.909996 30.691999L 44.896 40.868L 50.122002 40.868L 50.122002 30.594ZM 45.085999 25.038C 45.085838 26.322729 46.12727 27.364292 47.411999 27.364292C 48.696728 27.364292 49.738159 26.322729 49.737999 25.038C 49.738159 23.753271 48.696728 22.711708 47.411999 22.711708C 46.12727 22.711708 45.085838 23.753271 45.085999 25.038"></path></g></g></g><g id="g-root-open_1lto0api2lfra-stroke" data-item-order="1000000000" data-item-id="open_1lto0api2lfra" data-item-class="Icon Stroke Indexed" data-item-index="4" data-renderer-id="0" transform="translate(344, 3)"><g id="open_1lto0api2lfra-stroke" fill="none" stroke-linecap="round" stroke-linejoin="round" stroke-miterlimit="4" stroke="#484848" stroke-width="2"><g><path d="M 30.482 50.709999C 29.820431 50.709499 29.186485 50.444687 28.721132 49.974449C 28.255779 49.504215 27.997599 48.867538 28.004 48.206001L 28.004 48.206001C 28.018253 46.8465 29.124424 45.751926 30.484001 45.751999L 37.624001 45.751999C 38.992104 45.754208 40.100002 46.863895 40.099998 48.232002L 40.099998 48.231998C 40.0989 49.600105 38.990105 50.708897 37.622002 50.709999L 30.482 50.709999ZM 56.5 40.868L 56.5 54.023998C 56.5 55.104 55.625999 55.978001 54.546001 55.978001L 13.534 55.978001C 12.454836 55.978001 11.58 55.103165 11.58 54.023998L 11.58 40.868M 56.5 40.868L 11.58 40.868M 11.5 20.812L 11.5 13.976C 11.5 12.896 12.374001 12.022 13.454 12.022L 54.466 12.022C 55.546001 12.022 56.419998 12.896 56.419998 13.976L 56.419998 20.812M 27.504 30.493999C 26.674015 31.685698 25.500551 32.596146 24.139999 33.104L 24.116001 40.868L 19.060001 40.868L 19.086 33.087997C 16.308346 32.029343 14.476141 29.361723 14.485033 26.389175C 14.493927 23.416626 16.34206 20.760019 19.125999 19.718L 19.112 25.138L 21.632 27.674L 24.164 25.153999L 24.18 19.734001C 26.235029 20.517237 27.814951 22.203094 28.463358 24.304562C 29.111767 26.406031 28.756432 28.689011 27.5 30.493999ZM 31.875999 40.868L 31.902 33.528L 38.138 33.531998L 38.138 40.868L 31.878 40.868ZM 32.348 19.720001L 37.697998 19.720001L 37.697998 22.360001C 37.697998 23.83736 36.500359 25.035 35.022999 25.035C 33.545639 25.035 32.348 23.83736 32.348 22.360001L 32.348 19.720001ZM 35.007999 25.038L 35.007999 33.528M 50.122002 30.594C 52.726933 29.322203 54.097816 26.410728 53.41864 23.592594C 52.739464 20.77446 50.192783 18.807125 47.294476 18.861622C 44.396168 18.916119 41.92524 20.977798 41.352486 23.819471C 40.779732 26.661146 42.25909 29.519028 44.909996 30.691999L 44.896 40.868L 50.122002 40.868L 50.122002 30.594ZM 45.085999 25.038C 45.085838 26.322729 46.12727 27.364292 47.411999 27.364292C 48.696728 27.364292 49.738159 26.322729 49.737999 25.038C 49.738159 23.753271 48.696728 22.711708 47.411999 22.711708C 46.12727 22.711708 45.085838 23.753271 45.085999 25.038"></path></g></g></g><g id="g-root-2_1ha3khti328sl-stroke" data-item-order="1000000000" data-item-id="2_1ha3khti328sl" data-item-class="Icon Stroke Indexed Indexed_1" data-item-index="1" data-renderer-id="0" transform="translate(176, 3)"><g id="2_1ha3khti328sl-stroke" fill="none" stroke-linecap="round" stroke-linejoin="round" stroke-miterlimit="4" stroke="#484848" stroke-width="2"><g><path d="M 29.059999 25.307999C 28.356613 26.903687 27.183916 28.247301 25.697998 29.159998L 27.677999 39.48L 21.49 39.48L 19.734001 30.302C 16.215942 29.690422 13.443654 26.96526 12.771853 23.458204C 12.100054 19.951149 13.668999 16.394394 16.712 14.526L 17.938 20.92L 21.49 23.33L 23.9 19.779999L 22.674 13.384C 25.276871 13.835477 27.526892 15.460291 28.774094 17.78908C 30.021297 20.11787 30.126753 22.891222 29.059999 25.307999ZM 43.051998 14.592C 42.453999 17.282 39.290001 19.076 34.954002 18.112L 34.108002 21.914L 54.388 26.422001L 56.360001 17.549999L 43.051998 14.592ZM 39.015999 39.48L 42.504002 23.788L 48.278 25.071999L 44.911999 39.482002L 39.015999 39.482002ZM 56.5 52.66L 56.5 39.48L 11.5 39.48L 11.5 52.66C 11.5 53.740002 12.375999 54.618 13.456 54.618L 54.543999 54.618C 55.624001 54.618 56.5 53.740002 56.5 52.66ZM 36.933998 42.416C 36.933998 44.036404 35.620403 45.350002 34 45.350002C 32.379597 45.350002 31.066 44.036404 31.066 42.416L 31.066 39.482002L 36.933998 39.482002L 36.933998 42.416Z"></path></g></g></g><g id="g-root-2_1ha3khti328sl-stroke" data-item-order="1000000000" data-item-id="2_1ha3khti328sl" data-item-class="Icon Stroke Indexed Indexed_1" data-item-index="1" data-renderer-id="0" transform="translate(176, 3)"><g id="2_1ha3khti328sl-stroke" fill="none" stroke-linecap="round" stroke-linejoin="round" stroke-miterlimit="4" stroke="#484848" stroke-width="2"><g><path d="M 29.059999 25.307999C 28.356613 26.903687 27.183916 28.247301 25.697998 29.159998L 27.677999 39.48L 21.49 39.48L 19.734001 30.302C 16.215942 29.690422 13.443654 26.96526 12.771853 23.458204C 12.100054 19.951149 13.668999 16.394394 16.712 14.526L 17.938 20.92L 21.49 23.33L 23.9 19.779999L 22.674 13.384C 25.276871 13.835477 27.526892 15.460291 28.774094 17.78908C 30.021297 20.11787 30.126753 22.891222 29.059999 25.307999ZM 43.051998 14.592C 42.453999 17.282 39.290001 19.076 34.954002 18.112L 34.108002 21.914L 54.388 26.422001L 56.360001 17.549999L 43.051998 14.592ZM 39.015999 39.48L 42.504002 23.788L 48.278 25.071999L 44.911999 39.482002L 39.015999 39.482002ZM 56.5 52.66L 56.5 39.48L 11.5 39.48L 11.5 52.66C 11.5 53.740002 12.375999 54.618 13.456 54.618L 54.543999 54.618C 55.624001 54.618 56.5 53.740002 56.5 52.66ZM 36.933998 42.416C 36.933998 44.036404 35.620403 45.350002 34 45.350002C 32.379597 45.350002 31.066 44.036404 31.066 42.416L 31.066 39.482002L 36.933998 39.482002L 36.933998 42.416Z"></path></g></g></g><g id="g-root-tx_datamart_v98vwhi2lerp-stroke" data-item-order="1000000000" data-item-id="tx_datamart_v98vwhi2lerp" data-item-class="Label Stroke Indexed" data-item-index="none" data-renderer-id="0" transform="translate(68, 303)"></g><g id="g-root-tx_datamart_v98vwhi2lerp-stroke" data-item-order="1000000000" data-item-id="tx_datamart_v98vwhi2lerp" data-item-class="Label Stroke Indexed" data-item-index="none" data-renderer-id="0" transform="translate(68, 303)"></g><g id="g-root-tx_dataware_hyeum9i2ld6u-stroke" data-item-order="1000000000" data-item-id="tx_dataware_hyeum9i2ld6u" data-item-class="Label Stroke Indexed" data-item-index="none" data-renderer-id="0" transform="translate(374, 303)"></g><g id="g-root-tx_dataware_hyeum9i2ld6u-stroke" data-item-order="1000000000" data-item-id="tx_dataware_hyeum9i2ld6u" data-item-class="Label Stroke Indexed" data-item-index="none" data-renderer-id="0" transform="translate(374, 303)"></g><g id="g-root-tx_senecesi_hwjfcxi2le6h-stroke" data-item-order="1000000000" data-item-id="tx_senecesi_hwjfcxi2le6h" data-item-class="Label Stroke Indexed Indexed_1" data-item-index="1" data-renderer-id="0" transform="translate(8, 3)"></g><g id="g-root-tx_implemen_1lvjfk1i2lern-stroke" data-item-order="1000000000" data-item-id="tx_implemen_1lvjfk1i2lern" data-item-class="Label Stroke Indexed" data-item-index="5" data-renderer-id="0" transform="translate(404, 75)"></g></g></g></svg>