<?xml version="1.0" encoding="utf-8" standalone="yes"?>
<!DOCTYPE svg PUBLIC "-//W3C//DTD SVG 1.1//EN" "http://www.w3.org/Graphics/SVG/1.1/DTD/svg11.dtd">
<svg width="578" height="374" viewBox="0 0 578 374" style="fill:none;stroke:none;fill-rule:evenodd;clip-rule:evenodd;stroke-linecap:round;stroke-linejoin:round;stroke-miterlimit:1.5;" version="1.1" xmlns="http://www.w3.org/2000/svg" xmlns:xlink="http://www.w3.org/1999/xlink"><style id="fontImports">@import url("https://fonts.googleapis.com/css2?family=Roboto:wght@400;700&amp;display=block");</style><g id="items" style="isolation: isolate"><g id="blend" style="mix-blend-mode:normal"><g id="g-root--1.cu-1_sy_hz1eshicxm9v-fill" data-item-order="999807910" data-item-id="-1.cu-1_sy_hz1eshicxm9v" data-item-class="Part Fill Stroke ColorStrokeGray" data-item-index="-1" data-renderer-id="0" transform="translate(3, 3)"><g id="-1.cu-1_sy_hz1eshicxm9v-fill" stroke="none" fill="#f0f0f0"><g><path d="M 286 10L 562 130L 550 154L 22 154L 10 130L 286 10ZM 562 358L 10 358L 22 334L 550 334L 562 358Z"></path></g></g></g><g id="g-root--1.cu-1_sy_hz1eshicxm9v-fill" data-item-order="999807910" data-item-id="-1.cu-1_sy_hz1eshicxm9v" data-item-class="Part Fill Stroke ColorStrokeGray" data-item-index="-1" data-renderer-id="0" transform="translate(3, 3)"><g id="-1.cu-1_sy_hz1eshicxm9v-fill" stroke="none" fill="#f0f0f0"><g><path d="M 286 10L 562 130L 550 154L 22 154L 10 130L 286 10ZM 562 358L 10 358L 22 334L 550 334L 562 358Z"></path></g></g></g><g id="g-root-3.cu_sy_93eejlicxn2k-fill" data-item-order="999807914" data-item-id="3.cu_sy_93eejlicxn2k" data-item-class="Part Indexed Fill Stroke" data-item-index="3" data-renderer-id="0" transform="translate(363, 147)"><g id="3.cu_sy_93eejlicxn2k-fill" stroke="none" fill="#f5fbe9"><g><path d="M 10 190L 178 190L 178 10L 10 10L 10 190Z"></path></g></g></g><g id="g-root-3.cu_sy_93eejlicxn2k-fill" data-item-order="999807914" data-item-id="3.cu_sy_93eejlicxn2k" data-item-class="Part Indexed Fill Stroke" data-item-index="3" data-renderer-id="0" transform="translate(363, 147)"><g id="3.cu_sy_93eejlicxn2k-fill" stroke="none" fill="#f5fbe9"><g><path d="M 10 190L 178 190L 178 10L 10 10L 10 190Z"></path></g></g></g><g id="g-root-2.cu_sy_4nkwf5icxnut-fill" data-item-order="999807918" data-item-id="2.cu_sy_4nkwf5icxnut" data-item-class="Part Indexed Fill Stroke" data-item-index="2" data-renderer-id="0" transform="translate(195, 147)"><g id="2.cu_sy_4nkwf5icxnut-fill" stroke="none" fill="#e9fbf3"><g><path d="M 10 190L 94 190L 178 190L 178 10L 10 10L 10 190Z"></path></g></g></g><g id="g-root-2.cu_sy_4nkwf5icxnut-fill" data-item-order="999807918" data-item-id="2.cu_sy_4nkwf5icxnut" data-item-class="Part Indexed Fill Stroke" data-item-index="2" data-renderer-id="0" transform="translate(195, 147)"><g id="2.cu_sy_4nkwf5icxnut-fill" stroke="none" fill="#e9fbf3"><g><path d="M 10 190L 94 190L 178 190L 178 10L 10 10L 10 190Z"></path></g></g></g><g id="g-root-1.cu_sy_1ut1y5dicxoge-fill" data-item-order="999807922" data-item-id="1.cu_sy_1ut1y5dicxoge" data-item-class="Part Indexed Indexed_1 Fill Stroke" data-item-index="1" data-renderer-id="0" transform="translate(27, 147)"><g id="1.cu_sy_1ut1y5dicxoge-fill" stroke="none" fill="#e6f9ff"><g><path d="M 10 190L 178 190L 178 10L 10 10L 10 190Z"></path></g></g></g><g id="g-root-1.cu_sy_1ut1y5dicxoge-fill" data-item-order="999807922" data-item-id="1.cu_sy_1ut1y5dicxoge" data-item-class="Part Indexed Indexed_1 Fill Stroke" data-item-index="1" data-renderer-id="0" transform="translate(27, 147)"><g id="1.cu_sy_1ut1y5dicxoge-fill" stroke="none" fill="#e6f9ff"><g><path d="M 10 190L 178 190L 178 10L 10 10L 10 190Z"></path></g></g></g><g id="g-root-cloc_1hbcowxid38cn-fill" data-item-order="1000000000" data-item-id="cloc_1hbcowxid38cn" data-item-class="Icon Stroke Title InsideFill ColorStrokeGray" data-item-index="none" data-renderer-id="0" transform="translate(255, 27)"></g><g id="g-root-tx_basededa_3zeoximht6o-fill" data-item-order="1000000000" data-item-id="tx_basededa_3zeoximht6o" data-item-class="Label Stroke Title InsideFill ColorStrokeGray" data-item-index="none" data-renderer-id="0" transform="translate(165, 99)"><g id="tx_basededa_3zeoximht6o-fill" stroke="none" fill="#888888"><g><text style="font: 20px &quot;Roboto&quot;, sans-serif; white-space: pre;" font-size="20px" font-family="'Roboto', sans-serif"><tspan x="15.17" y="34" dominant-baseline="ideographic">Base de Datos Operativa</tspan></text></g></g></g><g id="g-root-tran_1hbbgo1imlzbf-fill" data-item-order="1000000000" data-item-id="tran_1hbbgo1imlzbf" data-item-class="Icon Stroke Indexed Indexed_1 InsideFill InsideColorFill" data-item-index="1" data-renderer-id="0" transform="translate(87, 171)"></g><g id="g-root-1_1ltmv4ximrlz7-fill" data-item-order="1000000000" data-item-id="1_1ltmv4ximrlz7" data-item-class="Icon Stroke Indexed InsideFill InsideColorFill" data-item-index="2" data-renderer-id="0" transform="translate(255, 171)"></g><g id="g-root-hack_1up9yjlimhszz-fill" data-item-order="1000000000" data-item-id="hack_1up9yjlimhszz" data-item-class="Icon Stroke Indexed InsideFill InsideColorFill" data-item-index="3" data-renderer-id="0" transform="translate(423, 171)"></g><g id="g-root-tx_procesam_1qdux41icxm2v-fill" data-item-order="1000000000" data-item-id="tx_procesam_1qdux41icxm2v" data-item-class="Label Stroke Indexed Indexed_1 InsideFill InsideColorFill" data-item-index="1" data-renderer-id="0" transform="translate(39, 231)"><g id="tx_procesam_1qdux41icxm2v-fill" stroke="none" fill="#17b0e3"><g><text style="font: 20px &quot;Roboto&quot;, sans-serif; white-space: pre;" font-size="20px" font-family="'Roboto', sans-serif"><tspan x="35.5" y="34" dominant-baseline="ideographic">Manejo de </tspan><tspan x="17.08" y="58" dominant-baseline="ideographic">Transacciones</tspan><tspan x="52.08" y="82" dominant-baseline="ideographic">diarias</tspan></text></g></g></g><g id="g-root-tx_operacio_1d2eeqpicxnns-fill" data-item-order="1000000000" data-item-id="tx_operacio_1d2eeqpicxnns" data-item-class="Label Stroke Indexed InsideFill InsideColorFill" data-item-index="2" data-renderer-id="0" transform="translate(207, 231)"><g id="tx_operacio_1d2eeqpicxnns-fill" stroke="none" fill="#3bc482"><g><text style="font: 20px &quot;Roboto&quot;, sans-serif; white-space: pre;" font-size="20px" font-family="'Roboto', sans-serif"><tspan x="12.47" y="34" dominant-baseline="ideographic">Operaciones en </tspan><tspan x="25.96" y="58" dominant-baseline="ideographic">Tiempo Real</tspan></text></g></g></g><g id="g-root-tx_informac_zrkdghicxm2x-fill" data-item-order="1000000000" data-item-id="tx_informac_zrkdghicxm2x" data-item-class="Label Stroke Indexed InsideFill InsideColorFill" data-item-index="3" data-renderer-id="0" transform="translate(387, 231)"><g id="tx_informac_zrkdghicxm2x-fill" stroke="none" fill="#93c131"><g><text style="font: 20px &quot;Roboto&quot;, sans-serif; white-space: pre;" font-size="20px" font-family="'Roboto', sans-serif"><tspan x="13.65" y="34" dominant-baseline="ideographic">Información </tspan><tspan x="38.8" y="58" dominant-baseline="ideographic">Crítica</tspan><tspan x="15.22" y="82" dominant-baseline="ideographic">Actualizada</tspan></text></g></g></g><g id="g-root--1.cu-1_sy_hz1eshicxm9v-stroke" data-item-order="999807910" data-item-id="-1.cu-1_sy_hz1eshicxm9v" data-item-class="Part Fill Stroke ColorStrokeGray" data-item-index="-1" data-renderer-id="0" transform="translate(3, 3)"><g id="-1.cu-1_sy_hz1eshicxm9v-stroke" fill="none" stroke-linecap="round" stroke-linejoin="round" stroke-miterlimit="4" stroke="#888888" stroke-width="2"><g><path d="M 286 10L 562 130L 550 154L 22 154L 10 130L 286 10ZM 562 358L 10 358L 22 334L 550 334L 562 358Z"></path></g></g></g><g id="g-root--1.cu-1_sy_hz1eshicxm9v-stroke" data-item-order="999807910" data-item-id="-1.cu-1_sy_hz1eshicxm9v" data-item-class="Part Fill Stroke ColorStrokeGray" data-item-index="-1" data-renderer-id="0" transform="translate(3, 3)"><g id="-1.cu-1_sy_hz1eshicxm9v-stroke" fill="none" stroke-linecap="round" stroke-linejoin="round" stroke-miterlimit="4" stroke="#888888" stroke-width="2"><g><path d="M 286 10L 562 130L 550 154L 22 154L 10 130L 286 10ZM 562 358L 10 358L 22 334L 550 334L 562 358Z"></path></g></g></g><g id="g-root-3.cu_sy_93eejlicxn2k-stroke" data-item-order="999807914" data-item-id="3.cu_sy_93eejlicxn2k" data-item-class="Part Indexed Fill Stroke" data-item-index="3" data-renderer-id="0" transform="translate(363, 147)"><g id="3.cu_sy_93eejlicxn2k-stroke" fill="none" stroke-linecap="round" stroke-linejoin="round" stroke-miterlimit="4" stroke="#93c131" stroke-width="2"><g><path d="M 10 190L 178 190L 178 10L 10 10L 10 190Z"></path></g></g></g><g id="g-root-3.cu_sy_93eejlicxn2k-stroke" data-item-order="999807914" data-item-id="3.cu_sy_93eejlicxn2k" data-item-class="Part Indexed Fill Stroke" data-item-index="3" data-renderer-id="0" transform="translate(363, 147)"><g id="3.cu_sy_93eejlicxn2k-stroke" fill="none" stroke-linecap="round" stroke-linejoin="round" stroke-miterlimit="4" stroke="#93c131" stroke-width="2"><g><path d="M 10 190L 178 190L 178 10L 10 10L 10 190Z"></path></g></g></g><g id="g-root-2.cu_sy_4nkwf5icxnut-stroke" data-item-order="999807918" data-item-id="2.cu_sy_4nkwf5icxnut" data-item-class="Part Indexed Fill Stroke" data-item-index="2" data-renderer-id="0" transform="translate(195, 147)"><g id="2.cu_sy_4nkwf5icxnut-stroke" fill="none" stroke-linecap="round" stroke-linejoin="round" stroke-miterlimit="4" stroke="#3bc482" stroke-width="2"><g><path d="M 10 190L 94 190L 178 190L 178 10L 10 10L 10 190Z"></path></g></g></g><g id="g-root-2.cu_sy_4nkwf5icxnut-stroke" data-item-order="999807918" data-item-id="2.cu_sy_4nkwf5icxnut" data-item-class="Part Indexed Fill Stroke" data-item-index="2" data-renderer-id="0" transform="translate(195, 147)"><g id="2.cu_sy_4nkwf5icxnut-stroke" fill="none" stroke-linecap="round" stroke-linejoin="round" stroke-miterlimit="4" stroke="#3bc482" stroke-width="2"><g><path d="M 10 190L 94 190L 178 190L 178 10L 10 10L 10 190Z"></path></g></g></g><g id="g-root-1.cu_sy_1ut1y5dicxoge-stroke" data-item-order="999807922" data-item-id="1.cu_sy_1ut1y5dicxoge" data-item-class="Part Indexed Indexed_1 Fill Stroke" data-item-index="1" data-renderer-id="0" transform="translate(27, 147)"><g id="1.cu_sy_1ut1y5dicxoge-stroke" fill="none" stroke-linecap="round" stroke-linejoin="round" stroke-miterlimit="4" stroke="#17b0e3" stroke-width="2"><g><path d="M 10 190L 178 190L 178 10L 10 10L 10 190Z"></path></g></g></g><g id="g-root-1.cu_sy_1ut1y5dicxoge-stroke" data-item-order="999807922" data-item-id="1.cu_sy_1ut1y5dicxoge" data-item-class="Part Indexed Indexed_1 Fill Stroke" data-item-index="1" data-renderer-id="0" transform="translate(27, 147)"><g id="1.cu_sy_1ut1y5dicxoge-stroke" fill="none" stroke-linecap="round" stroke-linejoin="round" stroke-miterlimit="4" stroke="#17b0e3" stroke-width="2"><g><path d="M 10 190L 178 190L 178 10L 10 10L 10 190Z"></path></g></g></g><g id="g-root-cloc_1hbcowxid38cn-stroke" data-item-order="1000000000" data-item-id="cloc_1hbcowxid38cn" data-item-class="Icon Stroke Title InsideFill ColorStrokeGray" data-item-index="none" data-renderer-id="0" transform="translate(255, 27)"><g id="cloc_1hbcowxid38cn-stroke" fill="none" stroke-linecap="round" stroke-linejoin="round" stroke-miterlimit="4" stroke="#888888" stroke-width="2"><g><path d="M 11.084 19.001999C 11.084 23.420277 19.59059 27.002001 30.084 27.002001C 40.577408 27.002001 49.084 23.420277 49.084 19.001999C 49.084 14.583722 40.577408 11.002 30.084 11.002C 19.59059 11.002 11.084 14.583722 11.084 19.001999ZM 30.084 35C 19.591999 35 11.084 31.42 11.084 27M 27.084 43.900002C 18.018 43.299999 11.084 39.989998 11.084 36.001999M 28.084 52.959999C 18.532 52.537998 11.084 49.136002 11.084 45.001999L 11.084 19M 49.084 19.001999L 49.084 28.002001M 33.073997 45.001999C 33.074001 51.629417 38.446587 57.002003 45.074001 57.002003C 51.70142 57.002003 57.074001 51.629417 57.074001 45.002003C 57.074001 38.374584 51.70142 33.001999 45.074001 33.001999C 38.446587 33.001999 33.074001 38.374584 33.074001 45.002003ZM 49.074001 45.001999L 45.074001 45.001999L 45.074001 39.001999"></path></g></g></g><g id="g-root-tx_basededa_3zeoximht6o-stroke" data-item-order="1000000000" data-item-id="tx_basededa_3zeoximht6o" data-item-class="Label Stroke Title InsideFill ColorStrokeGray" data-item-index="none" data-renderer-id="0" transform="translate(165, 99)"></g><g id="g-root-tran_1hbbgo1imlzbf-stroke" data-item-order="1000000000" data-item-id="tran_1hbbgo1imlzbf" data-item-class="Icon Stroke Indexed Indexed_1 InsideFill InsideColorFill" data-item-index="1" data-renderer-id="0" transform="translate(87, 171)"><g id="tran_1hbbgo1imlzbf-stroke" fill="none" stroke-linecap="round" stroke-linejoin="round" stroke-miterlimit="4" stroke="#17b0e3" stroke-width="2"><g><path d="M 21 29L 12.846 29C 11.784322 28.956684 10.958291 28.061743 11 27L 11 13C 10.959408 11.938669 11.784822 11.044396 12.846001 11L 33.153999 11C 34.215179 11.044396 35.040592 11.938669 35 13L 35 25M 15 33L 21 33M 11 25L 35 25M 41 53L 41 56.938M 33 57L 49 57M 57 49.400002C 57.104771 51.275791 55.675137 52.884129 53.799999 53L 28.200001 53C 26.325378 52.883064 24.896343 51.275402 25 49.399998L 25 32.599998C 24.897457 30.724987 26.325895 29.117992 28.199999 29L 53.799999 29C 55.674618 29.116932 57.103653 30.724598 56.999996 32.599998ZM 24.998001 47L 57 47"></path></g></g></g><g id="g-root-1_1ltmv4ximrlz7-stroke" data-item-order="1000000000" data-item-id="1_1ltmv4ximrlz7" data-item-class="Icon Stroke Indexed InsideFill InsideColorFill" data-item-index="2" data-renderer-id="0" transform="translate(255, 171)"><g id="1_1ltmv4ximrlz7-stroke" fill="none" stroke-linecap="round" stroke-linejoin="round" stroke-miterlimit="4" stroke="#3bc482" stroke-width="2"><g><path d="M 17.812 49L 15 49C 12.790861 49 11 47.209141 11 45L 11 15C 11 12.790861 12.790861 11 15 11L 53 11C 55.209141 11 57 12.790861 57 15L 57 45C 57 47.209141 55.209141 49 53 49L 49.976002 49M 11 21L 57 21M 18 15.5C 18.276142 15.5 18.5 15.723858 18.5 16C 18.5 16.276142 18.276142 16.5 18 16.5C 17.723858 16.5 17.5 16.276142 17.5 16C 17.5 15.723858 17.723858 15.5 18 15.5M 24 15.5C 24.276142 15.5 24.5 15.723858 24.5 16C 24.5 16.276142 24.276142 16.5 24 16.5C 23.723858 16.5 23.5 16.276142 23.5 16C 23.5 15.723858 23.723858 15.5 24 15.5M 30 15.5C 30.276142 15.5 30.5 15.723858 30.5 16C 30.5 16.276142 30.276142 16.5 30 16.5C 29.723858 16.5 29.5 16.276142 29.5 16C 29.5 15.723858 29.723858 15.5 30 15.5M 22 45C 22 51.627419 27.372583 57 34 57C 40.627419 57 46 51.627419 46 45C 46 38.372581 40.627419 33 34 33C 27.372583 33 22 38.372581 22 45ZM 34 33L 34 27M 31 27L 37 27M 24 33L 26.573999 35.573997M 44 33L 41.426003 35.573997M 35.059998 43.939999L 38.242001 40.757999M 33.646 44.646C 33.841393 44.451099 34.157745 44.451366 34.352806 44.646595C 34.547874 44.841824 34.547874 45.158176 34.352806 45.353405C 34.157745 45.548634 33.841393 45.548901 33.646 45.354C 33.452332 45.157734 33.452332 44.842266 33.646 44.646"></path></g></g></g><g id="g-root-hack_1up9yjlimhszz-stroke" data-item-order="1000000000" data-item-id="hack_1up9yjlimhszz" data-item-class="Icon Stroke Indexed InsideFill InsideColorFill" data-item-index="3" data-renderer-id="0" transform="translate(423, 171)"><g id="hack_1up9yjlimhszz-stroke" fill="none" stroke-linecap="round" stroke-linejoin="round" stroke-miterlimit="4" stroke="#93c131" stroke-width="2"><g><path d="M 37 32.902L 37 55C 37 56.104568 36.104568 57 35 57L 15 57C 13.895431 57 13 56.104568 13 55L 13 29C 13 27.89543 13.895431 27 15 27L 34.512001 27M 19 35L 24 35M 19 42L 31 42M 19 49L 31 49M 54.956001 11L 46.169998 17L 34.725998 17C 30.474001 17 26.926001 23.92 24.566 27M 37.718002 23L 31.743999 30.454C 30.704128 31.493965 30.704168 33.179993 31.744085 34.219913C 32.784004 35.259834 34.470032 35.259872 35.510002 34.220001L 43.667999 27L 48.778 27C 51.200001 27 55 23.552 55 23.552"></path></g></g></g><g id="g-root-tx_procesam_1qdux41icxm2v-stroke" data-item-order="1000000000" data-item-id="tx_procesam_1qdux41icxm2v" data-item-class="Label Stroke Indexed Indexed_1 InsideFill InsideColorFill" data-item-index="1" data-renderer-id="0" transform="translate(39, 231)"></g><g id="g-root-tx_operacio_1d2eeqpicxnns-stroke" data-item-order="1000000000" data-item-id="tx_operacio_1d2eeqpicxnns" data-item-class="Label Stroke Indexed InsideFill InsideColorFill" data-item-index="2" data-renderer-id="0" transform="translate(207, 231)"></g><g id="g-root-tx_informac_zrkdghicxm2x-stroke" data-item-order="1000000000" data-item-id="tx_informac_zrkdghicxm2x" data-item-class="Label Stroke Indexed InsideFill InsideColorFill" data-item-index="3" data-renderer-id="0" transform="translate(387, 231)"></g></g></g></svg>