<?xml version="1.0" encoding="utf-8" standalone="yes"?>
<!DOCTYPE svg PUBLIC "-//W3C//DTD SVG 1.1//EN" "http://www.w3.org/Graphics/SVG/1.1/DTD/svg11.dtd">
<svg width="624" height="325" viewBox="0 0 624 325" style="fill:none;stroke:none;fill-rule:evenodd;clip-rule:evenodd;stroke-linecap:round;stroke-linejoin:round;stroke-miterlimit:1.5;" version="1.1" xmlns="http://www.w3.org/2000/svg" xmlns:xlink="http://www.w3.org/1999/xlink"><style id="fontImports">@import url("https://fonts.googleapis.com/css2?family=Roboto:wght@400;700&amp;display=block");</style><g id="items" style="isolation: isolate"><g id="blend" style="mix-blend-mode:normal"><g id="g-root-3.cu_sy_deu8gqqye03x-fill" data-item-order="999907846" transform="translate(302, 62)"><g id="3.cu_sy_deu8gqqye03x-fill" stroke="none" fill="#e9fbf3"><g><path d="M 10 226.009C 39.147 204.116 58 169.26 58 130C 58 90.74 39.147 55.884 10 33.991C 30.056 18.927 54.985 10 82 10C 148.274 10 202 63.726 202 130C 202 196.274 148.274 250 82 250C 54.985 250 30.056 241.073 10 226.009Z"></path></g></g></g><g id="g-root-3.cu_sy_deu8gqqye03x-fill" data-item-order="999907846" transform="translate(302, 62)"><g id="3.cu_sy_deu8gqqye03x-fill" stroke="none" fill="#e9fbf3"><g><path d="M 10 226.009C 39.147 204.116 58 169.26 58 130C 58 90.74 39.147 55.884 10 33.991C 30.056 18.927 54.985 10 82 10C 148.274 10 202 63.726 202 130C 202 196.274 148.274 250 82 250C 54.985 250 30.056 241.073 10 226.009Z"></path></g></g></g><g id="g-root-1.cu_sy_8z0qcaqye0w6-fill" data-item-order="999907850" transform="translate(110, 62)"><g id="1.cu_sy_8z0qcaqye0w6-fill" stroke="none" fill="#e6efff"><g><path d="M 202 33.991C 172.853 55.884 154 90.74 154 130C 154 169.26 172.853 204.116 202 226.009C 181.944 241.073 157.015 250 130 250C 63.726 250 10 196.274 10 130C 10 63.726 63.726 10 130 10C 157.015 10 181.944 18.927 202 33.991Z"></path></g></g></g><g id="g-root-1.cu_sy_8z0qcaqye0w6-fill" data-item-order="999907850" transform="translate(110, 62)"><g id="1.cu_sy_8z0qcaqye0w6-fill" stroke="none" fill="#e6efff"><g><path d="M 202 33.991C 172.853 55.884 154 90.74 154 130C 154 169.26 172.853 204.116 202 226.009C 181.944 241.073 157.015 250 130 250C 63.726 250 10 196.274 10 130C 10 63.726 63.726 10 130 10C 157.015 10 181.944 18.927 202 33.991Z"></path></g></g></g><g id="g-root-2.cu_sy_3dq3eqye1ov-fill" data-item-order="999907854" transform="translate(254, 86)"><g id="2.cu_sy_3dq3eqye1ov-fill" stroke="none" fill="#e6f9ff"><g><path d="M 58 202.018C 87.147 180.125 106 145.268 106 106.009C 106 66.749 87.147 31.893 58 10C 28.853 31.893 10 66.749 10 106.009C 10 145.268 28.853 180.125 58 202.018Z"></path></g></g></g><g id="g-root-2.cu_sy_3dq3eqye1ov-fill" data-item-order="999907854" transform="translate(254, 86)"><g id="2.cu_sy_3dq3eqye1ov-fill" stroke="none" fill="#e6f9ff"><g><path d="M 58 202.018C 87.147 180.125 106 145.268 106 106.009C 106 66.749 87.147 31.893 58 10C 28.853 31.893 10 66.749 10 106.009C 10 145.268 28.853 180.125 58 202.018Z"></path></g></g></g><g id="g-root-tx_diseocen_4mblneqyqolp-fill" data-item-order="1000000000" transform="translate(200, 2)"><g id="tx_diseocen_4mblneqyqolp-fill" stroke="none" fill="#484848"><g><text style="font: 20px &quot;Roboto&quot;, sans-serif; white-space: pre;" font-size="20px" font-family="'Roboto', sans-serif"><tspan x="12.33" y="34" dominant-baseline="ideographic">Diseño Centrado en el </tspan><tspan x="75.42" y="58" dominant-baseline="ideographic">Usuario</tspan></text></g></g></g><g id="g-root-tx_diseocen_4mblneqyqolp-fill" data-item-order="1000000000" transform="translate(200, 2)"><g id="tx_diseocen_4mblneqyqolp-fill" stroke="none" fill="#484848"><g><text style="font: 20px &quot;Roboto&quot;, sans-serif; white-space: pre;" font-size="20px" font-family="'Roboto', sans-serif"><tspan x="12.33" y="34" dominant-baseline="ideographic">Diseño Centrado en el </tspan><tspan x="75.42" y="58" dominant-baseline="ideographic">Usuario</tspan></text></g></g></g><g id="g-root-tx_diseoux_1hdu8nuqye0p5-fill" data-item-order="1000000000" transform="translate(2, 170)"><g id="tx_diseoux_1hdu8nuqye0p5-fill" stroke="none" fill="#484848"><g><text style="font: 20px &quot;Roboto&quot;, sans-serif; white-space: pre;" font-size="20px" font-family="'Roboto', sans-serif"><tspan x="12.23" y="34" dominant-baseline="ideographic">Diseño UX</tspan></text></g></g></g><g id="g-root-tx_diseoux_1hdu8nuqye0p5-fill" data-item-order="1000000000" transform="translate(2, 170)"><g id="tx_diseoux_1hdu8nuqye0p5-fill" stroke="none" fill="#484848"><g><text style="font: 20px &quot;Roboto&quot;, sans-serif; white-space: pre;" font-size="20px" font-family="'Roboto', sans-serif"><tspan x="12.23" y="34" dominant-baseline="ideographic">Diseño UX</tspan></text></g></g></g><g id="g-root-mode_qssn6iqyqpdw-fill" data-item-order="1000000000" transform="translate(170, 158)"></g><g id="g-root-mode_qssn6iqyqpdw-fill" data-item-order="1000000000" transform="translate(170, 158)"></g><g id="g-root-1_8vwcwqqyp9mr-fill" data-item-order="1000000000" transform="translate(278, 158)"></g><g id="g-root-1_8vwcwqqyp9mr-fill" data-item-order="1000000000" transform="translate(278, 158)"></g><g id="g-root-3_1hegpqyqyl1qf-fill" data-item-order="1000000000" transform="translate(386, 158)"></g><g id="g-root-3_1hegpqyqyl1qf-fill" data-item-order="1000000000" transform="translate(386, 158)"></g><g id="g-root-tx_diseoui_1uoo9y2qye2a0-fill" data-item-order="1000000000" transform="translate(506, 170)"><g id="tx_diseoui_1uoo9y2qye2a0-fill" stroke="none" fill="#484848"><g><text style="font: 20px &quot;Roboto&quot;, sans-serif; white-space: pre;" font-size="20px" font-family="'Roboto', sans-serif"><tspan x="12" y="34" dominant-baseline="ideographic">Diseño UI</tspan></text></g></g></g><g id="g-root-tx_diseoui_1uoo9y2qye2a0-fill" data-item-order="1000000000" transform="translate(506, 170)"><g id="tx_diseoui_1uoo9y2qye2a0-fill" stroke="none" fill="#484848"><g><text style="font: 20px &quot;Roboto&quot;, sans-serif; white-space: pre;" font-size="20px" font-family="'Roboto', sans-serif"><tspan x="12" y="34" dominant-baseline="ideographic">Diseño UI</tspan></text></g></g></g><g id="g-root-3.cu_sy_deu8gqqye03x-stroke" data-item-order="999907846" transform="translate(302, 62)"><g id="3.cu_sy_deu8gqqye03x-stroke" fill="none" stroke-linecap="round" stroke-linejoin="round" stroke-miterlimit="4" stroke="#3bc482" stroke-width="2"><g><path d="M 10 226.009C 39.147 204.116 58 169.26 58 130C 58 90.74 39.147 55.884 10 33.991C 30.056 18.927 54.985 10 82 10C 148.274 10 202 63.726 202 130C 202 196.274 148.274 250 82 250C 54.985 250 30.056 241.073 10 226.009Z"></path></g></g></g><g id="g-root-3.cu_sy_deu8gqqye03x-stroke" data-item-order="999907846" transform="translate(302, 62)"><g id="3.cu_sy_deu8gqqye03x-stroke" fill="none" stroke-linecap="round" stroke-linejoin="round" stroke-miterlimit="4" stroke="#3bc482" stroke-width="2"><g><path d="M 10 226.009C 39.147 204.116 58 169.26 58 130C 58 90.74 39.147 55.884 10 33.991C 30.056 18.927 54.985 10 82 10C 148.274 10 202 63.726 202 130C 202 196.274 148.274 250 82 250C 54.985 250 30.056 241.073 10 226.009Z"></path></g></g></g><g id="g-root-1.cu_sy_8z0qcaqye0w6-stroke" data-item-order="999907850" transform="translate(110, 62)"><g id="1.cu_sy_8z0qcaqye0w6-stroke" fill="none" stroke-linecap="round" stroke-linejoin="round" stroke-miterlimit="4" stroke="#4682e3" stroke-width="2"><g><path d="M 202 33.991C 172.853 55.884 154 90.74 154 130C 154 169.26 172.853 204.116 202 226.009C 181.944 241.073 157.015 250 130 250C 63.726 250 10 196.274 10 130C 10 63.726 63.726 10 130 10C 157.015 10 181.944 18.927 202 33.991Z"></path></g></g></g><g id="g-root-1.cu_sy_8z0qcaqye0w6-stroke" data-item-order="999907850" transform="translate(110, 62)"><g id="1.cu_sy_8z0qcaqye0w6-stroke" fill="none" stroke-linecap="round" stroke-linejoin="round" stroke-miterlimit="4" stroke="#4682e3" stroke-width="2"><g><path d="M 202 33.991C 172.853 55.884 154 90.74 154 130C 154 169.26 172.853 204.116 202 226.009C 181.944 241.073 157.015 250 130 250C 63.726 250 10 196.274 10 130C 10 63.726 63.726 10 130 10C 157.015 10 181.944 18.927 202 33.991Z"></path></g></g></g><g id="g-root-2.cu_sy_3dq3eqye1ov-stroke" data-item-order="999907854" transform="translate(254, 86)"><g id="2.cu_sy_3dq3eqye1ov-stroke" fill="none" stroke-linecap="round" stroke-linejoin="round" stroke-miterlimit="4" stroke="#17b0e3" stroke-width="2"><g><path d="M 58 202.018C 87.147 180.125 106 145.268 106 106.009C 106 66.749 87.147 31.893 58 10C 28.853 31.893 10 66.749 10 106.009C 10 145.268 28.853 180.125 58 202.018Z"></path></g></g></g><g id="g-root-2.cu_sy_3dq3eqye1ov-stroke" data-item-order="999907854" transform="translate(254, 86)"><g id="2.cu_sy_3dq3eqye1ov-stroke" fill="none" stroke-linecap="round" stroke-linejoin="round" stroke-miterlimit="4" stroke="#17b0e3" stroke-width="2"><g><path d="M 58 202.018C 87.147 180.125 106 145.268 106 106.009C 106 66.749 87.147 31.893 58 10C 28.853 31.893 10 66.749 10 106.009C 10 145.268 28.853 180.125 58 202.018Z"></path></g></g></g><g id="g-root-tx_diseocen_4mblneqyqolp-stroke" data-item-order="1000000000" transform="translate(200, 2)"></g><g id="g-root-tx_diseocen_4mblneqyqolp-stroke" data-item-order="1000000000" transform="translate(200, 2)"></g><g id="g-root-tx_diseoux_1hdu8nuqye0p5-stroke" data-item-order="1000000000" transform="translate(2, 170)"></g><g id="g-root-tx_diseoux_1hdu8nuqye0p5-stroke" data-item-order="1000000000" transform="translate(2, 170)"></g><g id="g-root-mode_qssn6iqyqpdw-stroke" data-item-order="1000000000" transform="translate(170, 158)"><g id="mode_qssn6iqyqpdw-stroke" fill="none" stroke-linecap="round" stroke-linejoin="round" stroke-miterlimit="4" stroke="#4682e3" stroke-width="2"><g><path d="M 54 29C 52.16 29 51.48 23.959999 50.66 22.32C 49.645622 20.288136 47.570999 19.003105 45.299999 19L 22.700001 19C 20.429001 19.003105 18.354378 20.288136 17.34 22.32C 16.52 24 15.84 29 14 29M 25.02 44.959999L 23 49M 42.98 44.959999L 45 49M 31 35L 31 27C 31.003227 26.68449 30.854345 26.386724 30.6 26.200001C 30.35111 26.00556 30.028479 25.932236 29.719999 26C 27.28941 26.700104 24.71059 26.700104 22.279999 26C 21.977425 25.920904 21.655367 25.97946 21.4 26.159998C 21.145655 26.346724 20.996773 26.644489 21 26.960001L 21 32M 47 32L 47 27C 47.003227 26.68449 46.854347 26.386724 46.599998 26.200001C 46.351109 26.00556 46.028477 25.932236 45.719997 26C 43.28941 26.700104 40.710587 26.700104 38.279999 26C 37.977425 25.920904 37.655365 25.97946 37.399998 26.159998C 37.145653 26.346724 36.996773 26.644489 37 26.960001L 37 34.959999M 54.860001 29.120001C 53.277374 28.663326 51.618942 29.550188 51.119999 31.119999C 51.119999 31.440001 48.619999 39 42 39L 26 39C 19.380001 39 16.959999 31.440001 16.880001 31.120001C 16.381056 29.550188 14.722626 28.663326 13.139999 29.119999C 11.570188 29.618944 10.683327 31.277372 11.14 32.860001C 11.28 33.360001 14.9 45 26 45L 42 45C 53.099998 45 56.720001 33.360001 56.880001 32.860001C 57.334961 31.271534 56.437843 29.610531 54.860001 29.119999Z"></path></g></g></g><g id="g-root-mode_qssn6iqyqpdw-stroke" data-item-order="1000000000" transform="translate(170, 158)"><g id="mode_qssn6iqyqpdw-stroke" fill="none" stroke-linecap="round" stroke-linejoin="round" stroke-miterlimit="4" stroke="#4682e3" stroke-width="2"><g><path d="M 54 29C 52.16 29 51.48 23.959999 50.66 22.32C 49.645622 20.288136 47.570999 19.003105 45.299999 19L 22.700001 19C 20.429001 19.003105 18.354378 20.288136 17.34 22.32C 16.52 24 15.84 29 14 29M 25.02 44.959999L 23 49M 42.98 44.959999L 45 49M 31 35L 31 27C 31.003227 26.68449 30.854345 26.386724 30.6 26.200001C 30.35111 26.00556 30.028479 25.932236 29.719999 26C 27.28941 26.700104 24.71059 26.700104 22.279999 26C 21.977425 25.920904 21.655367 25.97946 21.4 26.159998C 21.145655 26.346724 20.996773 26.644489 21 26.960001L 21 32M 47 32L 47 27C 47.003227 26.68449 46.854347 26.386724 46.599998 26.200001C 46.351109 26.00556 46.028477 25.932236 45.719997 26C 43.28941 26.700104 40.710587 26.700104 38.279999 26C 37.977425 25.920904 37.655365 25.97946 37.399998 26.159998C 37.145653 26.346724 36.996773 26.644489 37 26.960001L 37 34.959999M 54.860001 29.120001C 53.277374 28.663326 51.618942 29.550188 51.119999 31.119999C 51.119999 31.440001 48.619999 39 42 39L 26 39C 19.380001 39 16.959999 31.440001 16.880001 31.120001C 16.381056 29.550188 14.722626 28.663326 13.139999 29.119999C 11.570188 29.618944 10.683327 31.277372 11.14 32.860001C 11.28 33.360001 14.9 45 26 45L 42 45C 53.099998 45 56.720001 33.360001 56.880001 32.860001C 57.334961 31.271534 56.437843 29.610531 54.860001 29.119999Z"></path></g></g></g><g id="g-root-1_8vwcwqqyp9mr-stroke" data-item-order="1000000000" transform="translate(278, 158)"><g id="1_8vwcwqqyp9mr-stroke" fill="none" stroke-linecap="round" stroke-linejoin="round" stroke-miterlimit="4" stroke="#17b0e3" stroke-width="2"><g><path d="M 29 57C 26 53 18.166 39.653999 18.166 39.653999C 17.483364 38.664886 17.637575 37.323349 18.52684 36.514923C 19.416107 35.706501 20.766224 35.680466 21.686001 36.454002L 27 41L 27 18C 27 16.343145 28.343147 15 30 15C 31.656855 15 33 16.343145 33 18L 33 27L 37 27C 38.104568 27 39 27.89543 39 29L 43 29C 44.104568 29 45 29.89543 45 31L 47 31C 49.209141 31 51 32.790863 51 35L 51 40.200001C 50.999474 42.058846 50.740322 43.908581 50.230003 45.696003L 47 57M 39 28.996L 39 32.996002M 33 26.996L 33 32.996002M 45 30.996L 45 34.996002"></path></g></g></g><g id="g-root-1_8vwcwqqyp9mr-stroke" data-item-order="1000000000" transform="translate(278, 158)"><g id="1_8vwcwqqyp9mr-stroke" fill="none" stroke-linecap="round" stroke-linejoin="round" stroke-miterlimit="4" stroke="#17b0e3" stroke-width="2"><g><path d="M 29 57C 26 53 18.166 39.653999 18.166 39.653999C 17.483364 38.664886 17.637575 37.323349 18.52684 36.514923C 19.416107 35.706501 20.766224 35.680466 21.686001 36.454002L 27 41L 27 18C 27 16.343145 28.343147 15 30 15C 31.656855 15 33 16.343145 33 18L 33 27L 37 27C 38.104568 27 39 27.89543 39 29L 43 29C 44.104568 29 45 29.89543 45 31L 47 31C 49.209141 31 51 32.790863 51 35L 51 40.200001C 50.999474 42.058846 50.740322 43.908581 50.230003 45.696003L 47 57M 39 28.996L 39 32.996002M 33 26.996L 33 32.996002M 45 30.996L 45 34.996002"></path></g></g></g><g id="g-root-3_1hegpqyqyl1qf-stroke" data-item-order="1000000000" transform="translate(386, 158)"><g id="3_1hegpqyqyl1qf-stroke" fill="none" stroke-linecap="round" stroke-linejoin="round" stroke-miterlimit="4" stroke="#3bc482" stroke-width="2"><g><path d="M 40.857143 32.285713L 54.57143 32.285713C 54.57143 32.285713 56.285713 32.285713 56.285713 34L 56.285713 54.57143C 56.285713 54.57143 56.285713 56.285713 54.57143 56.285713L 40.857143 56.285713C 40.857143 56.285713 39.142857 56.285713 39.142857 54.57143L 39.142857 34C 39.142857 34 39.142857 32.285713 40.857143 32.285713M 40.857143 11.714286L 54.57143 11.714286C 54.57143 11.714286 56.285713 11.714286 56.285713 13.428572L 56.285713 20.32C 56.285713 20.32 56.285713 22.034286 54.57143 22.034286L 40.857143 22.034286C 40.857143 22.034286 39.142857 22.034286 39.142857 20.32L 39.142857 13.428572C 39.142857 13.428572 39.142857 11.714286 40.857143 11.714286M 13.428572 11.714286L 27.142857 11.714286C 27.142857 11.714286 28.857143 11.714286 28.857143 13.428572L 28.857143 34C 28.857143 34 28.857143 35.714287 27.142857 35.714287L 13.428572 35.714287C 13.428572 35.714287 11.714286 35.714287 11.714286 34L 11.714286 13.428572C 11.714286 13.428572 11.714286 11.714286 13.428572 11.714286M 13.428572 45.965714L 27.142857 45.965714C 27.142857 45.965714 28.857143 45.965714 28.857143 47.68L 28.857143 54.57143C 28.857143 54.57143 28.857143 56.285713 27.142857 56.285713L 13.428572 56.285713C 13.428572 56.285713 11.714286 56.285713 11.714286 54.57143L 11.714286 47.68C 11.714286 47.68 11.714286 45.965714 13.428572 45.965714"></path></g></g></g><g id="g-root-3_1hegpqyqyl1qf-stroke" data-item-order="1000000000" transform="translate(386, 158)"><g id="3_1hegpqyqyl1qf-stroke" fill="none" stroke-linecap="round" stroke-linejoin="round" stroke-miterlimit="4" stroke="#3bc482" stroke-width="2"><g><path d="M 40.857143 32.285713L 54.57143 32.285713C 54.57143 32.285713 56.285713 32.285713 56.285713 34L 56.285713 54.57143C 56.285713 54.57143 56.285713 56.285713 54.57143 56.285713L 40.857143 56.285713C 40.857143 56.285713 39.142857 56.285713 39.142857 54.57143L 39.142857 34C 39.142857 34 39.142857 32.285713 40.857143 32.285713M 40.857143 11.714286L 54.57143 11.714286C 54.57143 11.714286 56.285713 11.714286 56.285713 13.428572L 56.285713 20.32C 56.285713 20.32 56.285713 22.034286 54.57143 22.034286L 40.857143 22.034286C 40.857143 22.034286 39.142857 22.034286 39.142857 20.32L 39.142857 13.428572C 39.142857 13.428572 39.142857 11.714286 40.857143 11.714286M 13.428572 11.714286L 27.142857 11.714286C 27.142857 11.714286 28.857143 11.714286 28.857143 13.428572L 28.857143 34C 28.857143 34 28.857143 35.714287 27.142857 35.714287L 13.428572 35.714287C 13.428572 35.714287 11.714286 35.714287 11.714286 34L 11.714286 13.428572C 11.714286 13.428572 11.714286 11.714286 13.428572 11.714286M 13.428572 45.965714L 27.142857 45.965714C 27.142857 45.965714 28.857143 45.965714 28.857143 47.68L 28.857143 54.57143C 28.857143 54.57143 28.857143 56.285713 27.142857 56.285713L 13.428572 56.285713C 13.428572 56.285713 11.714286 56.285713 11.714286 54.57143L 11.714286 47.68C 11.714286 47.68 11.714286 45.965714 13.428572 45.965714"></path></g></g></g><g id="g-root-tx_diseoui_1uoo9y2qye2a0-stroke" data-item-order="1000000000" transform="translate(506, 170)"></g><g id="g-root-tx_diseoui_1uoo9y2qye2a0-stroke" data-item-order="1000000000" transform="translate(506, 170)"></g></g></g></svg>