<?xml version="1.0" encoding="utf-8" standalone="yes"?>
<!DOCTYPE svg PUBLIC "-//W3C//DTD SVG 1.1//EN" "http://www.w3.org/Graphics/SVG/1.1/DTD/svg11.dtd">
<svg width="684" height="448" viewBox="0 0 684 448" style="fill:none;stroke:none;fill-rule:evenodd;clip-rule:evenodd;stroke-linecap:round;stroke-linejoin:round;stroke-miterlimit:1.5;" version="1.1" xmlns="http://www.w3.org/2000/svg" xmlns:xlink="http://www.w3.org/1999/xlink"><style id="fontImports">@import url("https://fonts.googleapis.com/css2?family=Roboto:wght@400;700&amp;display=block");</style><g id="items" style="isolation: isolate"><g id="blend" style="mix-blend-mode:normal"><g id="g-root-0.cu_sy_40aetuahlhe-fill" data-item-order="999894166" transform="translate(271.893798828125, 359.410888671875)"><g id="0.cu_sy_40aetuahlhe-fill" stroke="none" fill="#f0f0f0"><g><path d="M 39.435547 68.531982C 41.182947 72.624482 46.395047 75.588982 52.565747 75.588982C 58.736447 75.588982 63.948447 72.624482 65.695847 68.531982C 61.851647 69.560082 57.358447 70.158982 52.565747 70.158982C 47.772947 70.158982 43.279747 69.560082 39.435547 68.531982ZM 26.854553 59.329101C 27.803153 65.387901 38.946253 70.159201 52.565753 70.159201C 66.185153 70.159201 77.338253 65.378001 78.276853 59.329101C 72.235953 61.045901 62.969953 62.143901 52.565753 62.143901C 42.161453 62.143901 32.885453 61.045901 26.854553 59.329101ZM 14.8427 10C 11.7473 13.5834 10 16.7176 10 18.3446C 10 19.4925 10.8787 20.5905 12.4762 21.6186C 14.5731 22.9561 15.272 25.6612 14.0338 27.8172C 13.275 29.1348 12.8757 30.2327 12.8757 30.9814C 12.8757 32.1392 13.8342 33.2472 15.5715 34.2653C 17.7283 35.523 18.577 38.258 17.3389 40.434C 16.6599 41.6218 16.3004 42.6199 16.3004 43.2987C 16.3004 44.3467 17.1592 45.3449 18.7168 46.2732C 20.8436 47.5309 21.4527 50.2858 20.3144 52.4718C 19.8551 53.3601 19.6055 54.0988 19.6055 54.6278C 19.6055 58.7802 34.3632 62.144 52.5557 62.144C 70.7482 62.144 85.5059 58.7802 85.5059 54.6278C 85.5059 54.0988 85.2662 53.3601 84.7969 52.4718C 83.6586 50.2858 84.2778 47.5309 86.3946 46.2732C 87.9522 45.3549 88.8109 44.3467 88.8109 43.2987C 88.8109 42.6199 88.4515 41.6317 87.7725 40.434C 86.5344 38.2679 87.383 35.533 89.5397 34.2653C 91.2871 33.2472 92.2357 32.1392 92.2357 30.9814C 92.2357 30.2327 91.8363 29.1348 91.0775 27.8172C 89.8393 25.6612 90.5383 22.9461 92.6352 21.6186C 94.2427 20.6005 95.1114 19.4925 95.1114 18.3446C 95.1114 16.7176 93.3441 13.5834 90.2487 10C 83.1395 13.0943 68.9309 15.2104 52.5457 15.2104C 36.1605 15.2104 21.9519 13.0943 14.8427 10Z"></path></g></g></g><g id="g-root-0.cu_sy_40aetuahlhe-fill" data-item-order="999894166" transform="translate(271.893798828125, 359.410888671875)"><g id="0.cu_sy_40aetuahlhe-fill" stroke="none" fill="#f0f0f0"><g><path d="M 39.435547 68.531982C 41.182947 72.624482 46.395047 75.588982 52.565747 75.588982C 58.736447 75.588982 63.948447 72.624482 65.695847 68.531982C 61.851647 69.560082 57.358447 70.158982 52.565747 70.158982C 47.772947 70.158982 43.279747 69.560082 39.435547 68.531982ZM 26.854553 59.329101C 27.803153 65.387901 38.946253 70.159201 52.565753 70.159201C 66.185153 70.159201 77.338253 65.378001 78.276853 59.329101C 72.235953 61.045901 62.969953 62.143901 52.565753 62.143901C 42.161453 62.143901 32.885453 61.045901 26.854553 59.329101ZM 14.8427 10C 11.7473 13.5834 10 16.7176 10 18.3446C 10 19.4925 10.8787 20.5905 12.4762 21.6186C 14.5731 22.9561 15.272 25.6612 14.0338 27.8172C 13.275 29.1348 12.8757 30.2327 12.8757 30.9814C 12.8757 32.1392 13.8342 33.2472 15.5715 34.2653C 17.7283 35.523 18.577 38.258 17.3389 40.434C 16.6599 41.6218 16.3004 42.6199 16.3004 43.2987C 16.3004 44.3467 17.1592 45.3449 18.7168 46.2732C 20.8436 47.5309 21.4527 50.2858 20.3144 52.4718C 19.8551 53.3601 19.6055 54.0988 19.6055 54.6278C 19.6055 58.7802 34.3632 62.144 52.5557 62.144C 70.7482 62.144 85.5059 58.7802 85.5059 54.6278C 85.5059 54.0988 85.2662 53.3601 84.7969 52.4718C 83.6586 50.2858 84.2778 47.5309 86.3946 46.2732C 87.9522 45.3549 88.8109 44.3467 88.8109 43.2987C 88.8109 42.6199 88.4515 41.6317 87.7725 40.434C 86.5344 38.2679 87.383 35.533 89.5397 34.2653C 91.2871 33.2472 92.2357 32.1392 92.2357 30.9814C 92.2357 30.2327 91.8363 29.1348 91.0775 27.8172C 89.8393 25.6612 90.5383 22.9461 92.6352 21.6186C 94.2427 20.6005 95.1114 19.4925 95.1114 18.3446C 95.1114 16.7176 93.3441 13.5834 90.2487 10C 83.1395 13.0943 68.9309 15.2104 52.5457 15.2104C 36.1605 15.2104 21.9519 13.0943 14.8427 10Z"></path></g></g></g><g id="g-root-5.cu_sy_1luab3puahjpf-fill" data-item-order="999894170" transform="translate(237.75531005859375, 289.59912109375)"><g id="5.cu_sy_1luab3puahjpf-fill" stroke="none" fill="#ffe7e6"><g><path d="M 17.5786 17.1269C 14.9326 14.871 12.4064 12.4954 10 10L 162.48 10C 160.013 12.5553 157.417 14.9908 154.701 17.2866C 138.815 30.7318 129.729 50.5154 129.2 71.2772C 129.16 72.8443 128.83 74.3814 128.142 75.7789C 127.423 77.2362 126.354 78.8931 124.976 79.5419C 118.097 82.796 103.4588 85.0418 86.6043 85.0418C 69.7498 85.0418 55.1718 82.8059 48.2822 79.5619C 47.3736 79.1327 46.5847 78.3441 45.9557 77.4757C 44.6876 75.7489 44.0785 73.6328 44.0086 71.4868C 43.3396 50.4755 33.6543 30.8017 17.5786 17.1269Z"></path></g></g></g><g id="g-root-5.cu_sy_1luab3puahjpf-fill" data-item-order="999894170" transform="translate(237.75531005859375, 289.59912109375)"><g id="5.cu_sy_1luab3puahjpf-fill" stroke="none" fill="#ffe7e6"><g><path d="M 17.5786 17.1269C 14.9326 14.871 12.4064 12.4954 10 10L 162.48 10C 160.013 12.5553 157.417 14.9908 154.701 17.2866C 138.815 30.7318 129.729 50.5154 129.2 71.2772C 129.16 72.8443 128.83 74.3814 128.142 75.7789C 127.423 77.2362 126.354 78.8931 124.976 79.5419C 118.097 82.796 103.4588 85.0418 86.6043 85.0418C 69.7498 85.0418 55.1718 82.8059 48.2822 79.5619C 47.3736 79.1327 46.5847 78.3441 45.9557 77.4757C 44.6876 75.7489 44.0785 73.6328 44.0086 71.4868C 43.3396 50.4755 33.6543 30.8017 17.5786 17.1269Z"></path></g></g></g><g id="g-root-5.line_sy_1cynautuahki4-fill" data-item-order="999894175" transform="translate(146, 326)"></g><g id="g-root-5.line_sy_1cynautuahki4-fill" data-item-order="999894175" transform="translate(146, 326)"></g><g id="g-root-4.cu_sy_1cynautuahki5-fill" data-item-order="999894178" transform="translate(314.349609375, 199.794677734375)"><g id="4.cu_sy_1cynautuahki5-fill" stroke="none" fill="#fef2e6"><g><path d="M 115.65 26.1902C 115.65 54.7975 104.3076 80.7397 85.8854 99.8046L 10 99.8146L 10.01 10.01L 114.432 10L 114.422 10.02C 115.231 15.2903 115.65 20.6903 115.65 26.1902Z"></path></g></g></g><g id="g-root-4.cu_sy_1cynautuahki5-fill" data-item-order="999894178" transform="translate(314.349609375, 199.794677734375)"><g id="4.cu_sy_1cynautuahki5-fill" stroke="none" fill="#fef2e6"><g><path d="M 115.65 26.1902C 115.65 54.7975 104.3076 80.7397 85.8854 99.8046L 10 99.8146L 10.01 10.01L 114.432 10L 114.422 10.02C 115.231 15.2903 115.65 20.6903 115.65 26.1902Z"></path></g></g></g><g id="g-root-4.line_sy_zn6shhuahm32-fill" data-item-order="999894183" transform="translate(433.99993896484375, 230)"></g><g id="g-root-4.line_sy_zn6shhuahm32-fill" data-item-order="999894183" transform="translate(433.99993896484375, 230)"></g><g id="g-root-3.cu_sy_v7zrg5uahjpj-fill" data-item-order="999894186" transform="translate(208, 199.774658203125)"><g id="3.cu_sy_v7zrg5uahjpj-fill" stroke="none" fill="#fffce6"><g><path d="M 10.0203 24.0741C 10.1201 19.3029 10.5395 14.6115 11.2484 10.01L 116.39 10L 116.38 99.8046L 39.7653 99.8046C 20.8938 80.2706 9.4511 53.5099 10.0203 24.0741Z"></path></g></g></g><g id="g-root-3.cu_sy_v7zrg5uahjpj-fill" data-item-order="999894186" transform="translate(208, 199.774658203125)"><g id="3.cu_sy_v7zrg5uahjpj-fill" stroke="none" fill="#fffce6"><g><path d="M 10.0203 24.0741C 10.1201 19.3029 10.5395 14.6115 11.2484 10.01L 116.39 10L 116.38 99.8046L 39.7653 99.8046C 20.8938 80.2706 9.4511 53.5099 10.0203 24.0741Z"></path></g></g></g><g id="g-root-3.line_sy_v7zrg5uahjpk-fill" data-item-order="999894191" transform="translate(146, 230)"></g><g id="g-root-3.line_sy_v7zrg5uahjpk-fill" data-item-order="999894191" transform="translate(146, 230)"></g><g id="g-root-2.cu_sy_qs69bpuahkht-fill" data-item-order="999894194" transform="translate(314.379638671875, 110)"><g id="2.cu_sy_qs69bpuahkht-fill" stroke="none" fill="#f5fbe9"><g><path d="M 10.0099 10C 62.89 10.1797 106.654 49.0581 114.422 99.7947L 10 99.8046L 10.0099 10Z"></path></g></g></g><g id="g-root-2.cu_sy_qs69bpuahkht-fill" data-item-order="999894194" transform="translate(314.379638671875, 110)"><g id="2.cu_sy_qs69bpuahkht-fill" stroke="none" fill="#f5fbe9"><g><path d="M 10.0099 10C 62.89 10.1797 106.654 49.0581 114.422 99.7947L 10 99.8046L 10.0099 10Z"></path></g></g></g><g id="g-root-2.line_sy_hwj92tuahlai-fill" data-item-order="999894199" transform="translate(398, 122)"></g><g id="g-root-2.line_sy_hwj92tuahlai-fill" data-item-order="999894199" transform="translate(398, 122)"></g><g id="g-root-1.cu_sy_dgpqyduahm2r-fill" data-item-order="999894204" transform="translate(209.2384033203125, 110)"><g id="1.cu_sy_dgpqyduahm2r-fill" stroke="none" fill="#e9fbf3"><g><path d="M 113.254 10L 115.131 10L 115.141 99.7847L 10 99.7847C 17.7683 49.5771 61.1627 10.7287 113.254 10Z"></path></g></g></g><g id="g-root-1.cu_sy_dgpqyduahm2r-fill" data-item-order="999894204" transform="translate(209.2384033203125, 110)"><g id="1.cu_sy_dgpqyduahm2r-fill" stroke="none" fill="#e9fbf3"><g><path d="M 113.254 10L 115.131 10L 115.141 99.7847L 10 99.7847C 17.7683 49.5771 61.1627 10.7287 113.254 10Z"></path></g></g></g><g id="g-root-1.line_sy_4lp7sluahjpo-fill" data-item-order="999894209" transform="translate(146, 122)"></g><g id="g-root-1.line_sy_4lp7sluahjpo-fill" data-item-order="999894209" transform="translate(146, 122)"></g><g id="g-root-tx_accesibi_zqbfedua0r9o-fill" data-item-order="1000000000" transform="translate(2, 218)"><g id="tx_accesibi_zqbfedua0r9o-fill" stroke="none" fill="#484848"><g><text style="font: 20px &quot;Roboto&quot;, sans-serif; white-space: pre;" font-size="20px" font-family="'Roboto', sans-serif"><tspan x="21.03" y="34" dominant-baseline="ideographic">Accesibilidad</tspan></text></g></g></g><g id="g-root-tx_accesibi_zqbfedua0r9o-fill" data-item-order="1000000000" transform="translate(2, 218)"><g id="tx_accesibi_zqbfedua0r9o-fill" stroke="none" fill="#484848"><g><text style="font: 20px &quot;Roboto&quot;, sans-serif; white-space: pre;" font-size="20px" font-family="'Roboto', sans-serif"><tspan x="21.03" y="34" dominant-baseline="ideographic">Accesibilidad</tspan></text></g></g></g><g id="g-root-left_1qclz1xua0r9m-fill" data-item-order="1000000000" transform="translate(338, 146)"></g><g id="g-root-left_1qclz1xua0r9m-fill" data-item-order="1000000000" transform="translate(338, 146)"></g><g id="g-root-whee_mgq5ytualu6j-fill" data-item-order="1000000000" transform="translate(248, 224)"></g><g id="g-root-whee_mgq5ytualu6j-fill" data-item-order="1000000000" transform="translate(248, 224)"></g><g id="g-root-repl_2rik5uahki5-fill" data-item-order="1000000000" transform="translate(345, 224)"></g><g id="g-root-repl_2rik5uahki5-fill" data-item-order="1000000000" transform="translate(345, 224)"></g><g id="g-root-patt_i0wnudua24um-fill" data-item-order="1000000000" transform="translate(254, 146)"></g><g id="g-root-patt_i0wnudua24um-fill" data-item-order="1000000000" transform="translate(254, 146)"></g><g id="g-root-tx_retroali_940vqtua0r9q-fill" data-item-order="1000000000" transform="translate(494, 218)"><g id="tx_retroali_940vqtua0r9q-fill" stroke="none" fill="#484848"><g><text style="font: 20px &quot;Roboto&quot;, sans-serif; white-space: pre;" font-size="20px" font-family="'Roboto', sans-serif"><tspan x="12" y="34" dominant-baseline="ideographic">Retroalimentación</tspan></text></g></g></g><g id="g-root-tx_retroali_940vqtua0r9q-fill" data-item-order="1000000000" transform="translate(494, 218)"><g id="tx_retroali_940vqtua0r9q-fill" stroke="none" fill="#484848"><g><text style="font: 20px &quot;Roboto&quot;, sans-serif; white-space: pre;" font-size="20px" font-family="'Roboto', sans-serif"><tspan x="12" y="34" dominant-baseline="ideographic">Retroalimentación</tspan></text></g></g></g><g id="g-root-tx_simplici_1uuawfpua0phr-fill" data-item-order="1000000000" transform="translate(494, 110)"><g id="tx_simplici_1uuawfpua0phr-fill" stroke="none" fill="#484848"><g><text style="font: 20px &quot;Roboto&quot;, sans-serif; white-space: pre;" font-size="20px" font-family="'Roboto', sans-serif"><tspan x="12" y="34" dominant-baseline="ideographic">Simplicidad</tspan></text></g></g></g><g id="g-root-tx_simplici_1uuawfpua0phr-fill" data-item-order="1000000000" transform="translate(494, 110)"><g id="tx_simplici_1uuawfpua0phr-fill" stroke="none" fill="#484848"><g><text style="font: 20px &quot;Roboto&quot;, sans-serif; white-space: pre;" font-size="20px" font-family="'Roboto', sans-serif"><tspan x="12" y="34" dominant-baseline="ideographic">Simplicidad</tspan></text></g></g></g><g id="g-root-hand_1umt48lua6dj6-fill" data-item-order="1000000000" transform="translate(296, 308)"></g><g id="g-root-hand_1umt48lua6dj6-fill" data-item-order="1000000000" transform="translate(296, 308)"></g><g id="g-root-tx_flexibil_mfhe45ua0pot-fill" data-item-order="1000000000" transform="translate(26, 326)"><g id="tx_flexibil_mfhe45ua0pot-fill" stroke="none" fill="#484848"><g><text style="font: 20px &quot;Roboto&quot;, sans-serif; white-space: pre;" font-size="20px" font-family="'Roboto', sans-serif"><tspan x="15.52" y="34" dominant-baseline="ideographic">Flexibilidad</tspan></text></g></g></g><g id="g-root-tx_principi_5vpo5uahkhx-fill" data-item-order="1000000000" transform="translate(188, 2)"><g id="tx_principi_5vpo5uahkhx-fill" stroke="none" fill="#484848"><g><text style="font: 20px &quot;Roboto&quot;, sans-serif; white-space: pre;" font-size="20px" font-family="'Roboto', sans-serif"><tspan x="15.98" y="34" dominant-baseline="ideographic">Principios Clave del Diseño</tspan></text></g></g></g><g id="g-root-tx_consiste_1d1rxrpua0por-fill" data-item-order="1000000000" transform="translate(14, 110)"><g id="tx_consiste_1d1rxrpua0por-fill" stroke="none" fill="#484848"><g><text style="font: 20px &quot;Roboto&quot;, sans-serif; white-space: pre;" font-size="20px" font-family="'Roboto', sans-serif"><tspan x="12.7" y="34" dominant-baseline="ideographic">Consistencia</tspan></text></g></g></g><g id="g-root-tx_consiste_1d1rxrpua0por-fill" data-item-order="1000000000" transform="translate(14, 110)"><g id="tx_consiste_1d1rxrpua0por-fill" stroke="none" fill="#484848"><g><text style="font: 20px &quot;Roboto&quot;, sans-serif; white-space: pre;" font-size="20px" font-family="'Roboto', sans-serif"><tspan x="12.7" y="34" dominant-baseline="ideographic">Consistencia</tspan></text></g></g></g><g id="g-root-tx_flexibil_mfhe45ua0pot-fill" data-item-order="1000000000" transform="translate(26, 326)"><g id="tx_flexibil_mfhe45ua0pot-fill" stroke="none" fill="#484848"><g><text style="font: 20px &quot;Roboto&quot;, sans-serif; white-space: pre;" font-size="20px" font-family="'Roboto', sans-serif"><tspan x="15.52" y="34" dominant-baseline="ideographic">Flexibilidad</tspan></text></g></g></g><g id="g-root-0.cu_sy_40aetuahlhe-stroke" data-item-order="999894166" transform="translate(271.893798828125, 359.410888671875)"><g id="0.cu_sy_40aetuahlhe-stroke" fill="none" stroke-linecap="round" stroke-linejoin="round" stroke-miterlimit="4" stroke="#484848" stroke-width="2"><g><path d="M 39.435547 68.531982C 41.182947 72.624482 46.395047 75.588982 52.565747 75.588982C 58.736447 75.588982 63.948447 72.624482 65.695847 68.531982C 61.851647 69.560082 57.358447 70.158982 52.565747 70.158982C 47.772947 70.158982 43.279747 69.560082 39.435547 68.531982ZM 26.854553 59.329101C 27.803153 65.387901 38.946253 70.159201 52.565753 70.159201C 66.185153 70.159201 77.338253 65.378001 78.276853 59.329101C 72.235953 61.045901 62.969953 62.143901 52.565753 62.143901C 42.161453 62.143901 32.885453 61.045901 26.854553 59.329101ZM 14.8427 10C 11.7473 13.5834 10 16.7176 10 18.3446C 10 19.4925 10.8787 20.5905 12.4762 21.6186C 14.5731 22.9561 15.272 25.6612 14.0338 27.8172C 13.275 29.1348 12.8757 30.2327 12.8757 30.9814C 12.8757 32.1392 13.8342 33.2472 15.5715 34.2653C 17.7283 35.523 18.577 38.258 17.3389 40.434C 16.6599 41.6218 16.3004 42.6199 16.3004 43.2987C 16.3004 44.3467 17.1592 45.3449 18.7168 46.2732C 20.8436 47.5309 21.4527 50.2858 20.3144 52.4718C 19.8551 53.3602 19.6055 54.0988 19.6055 54.6278C 19.6055 58.7802 34.3632 62.144 52.5557 62.144C 70.7482 62.144 85.5059 58.7802 85.5059 54.6278C 85.5059 54.0988 85.2662 53.3602 84.7969 52.4718C 83.6586 50.2858 84.2778 47.5309 86.3946 46.2732C 87.9522 45.3549 88.8109 44.3467 88.8109 43.2987C 88.8109 42.6199 88.4515 41.6317 87.7725 40.434C 86.5344 38.2679 87.383 35.533 89.5397 34.2653C 91.2871 33.2472 92.2357 32.1392 92.2357 30.9814C 92.2357 30.2327 91.8363 29.1348 91.0775 27.8172C 89.8393 25.6612 90.5383 22.9461 92.6352 21.6186C 94.2427 20.6005 95.1114 19.4925 95.1114 18.3446C 95.1114 16.7176 93.3441 13.5834 90.2487 10C 83.1395 13.0943 68.9309 15.2104 52.5457 15.2104C 36.1605 15.2104 21.9519 13.0943 14.8427 10ZM 16.300415 43.298584C 16.300415 47.870184 32.535915 51.573384 52.565715 51.573384C 72.595415 51.573384 88.830815 47.870184 88.830815 43.298584M 12.875671 30.991455C 12.875671 35.992255 30.648771 40.044755 52.565671 40.044755C 74.482571 40.044755 92.255771 35.992255 92.255771 30.991455M 10 18.344482C 10 23.704582 29.0612 28.056582 52.5657 28.056582C 76.0702 28.056582 95.1314 23.704582 95.1314 18.344482"></path></g></g></g><g id="g-root-0.cu_sy_40aetuahlhe-stroke" data-item-order="999894166" transform="translate(271.893798828125, 359.410888671875)"><g id="0.cu_sy_40aetuahlhe-stroke" fill="none" stroke-linecap="round" stroke-linejoin="round" stroke-miterlimit="4" stroke="#484848" stroke-width="2"><g><path d="M 39.435547 68.531982C 41.182947 72.624482 46.395047 75.588982 52.565747 75.588982C 58.736447 75.588982 63.948447 72.624482 65.695847 68.531982C 61.851647 69.560082 57.358447 70.158982 52.565747 70.158982C 47.772947 70.158982 43.279747 69.560082 39.435547 68.531982ZM 26.854553 59.329101C 27.803153 65.387901 38.946253 70.159201 52.565753 70.159201C 66.185153 70.159201 77.338253 65.378001 78.276853 59.329101C 72.235953 61.045901 62.969953 62.143901 52.565753 62.143901C 42.161453 62.143901 32.885453 61.045901 26.854553 59.329101ZM 14.8427 10C 11.7473 13.5834 10 16.7176 10 18.3446C 10 19.4925 10.8787 20.5905 12.4762 21.6186C 14.5731 22.9561 15.272 25.6612 14.0338 27.8172C 13.275 29.1348 12.8757 30.2327 12.8757 30.9814C 12.8757 32.1392 13.8342 33.2472 15.5715 34.2653C 17.7283 35.523 18.577 38.258 17.3389 40.434C 16.6599 41.6218 16.3004 42.6199 16.3004 43.2987C 16.3004 44.3467 17.1592 45.3449 18.7168 46.2732C 20.8436 47.5309 21.4527 50.2858 20.3144 52.4718C 19.8551 53.3602 19.6055 54.0988 19.6055 54.6278C 19.6055 58.7802 34.3632 62.144 52.5557 62.144C 70.7482 62.144 85.5059 58.7802 85.5059 54.6278C 85.5059 54.0988 85.2662 53.3602 84.7969 52.4718C 83.6586 50.2858 84.2778 47.5309 86.3946 46.2732C 87.9522 45.3549 88.8109 44.3467 88.8109 43.2987C 88.8109 42.6199 88.4515 41.6317 87.7725 40.434C 86.5344 38.2679 87.383 35.533 89.5397 34.2653C 91.2871 33.2472 92.2357 32.1392 92.2357 30.9814C 92.2357 30.2327 91.8363 29.1348 91.0775 27.8172C 89.8393 25.6612 90.5383 22.9461 92.6352 21.6186C 94.2427 20.6005 95.1114 19.4925 95.1114 18.3446C 95.1114 16.7176 93.3441 13.5834 90.2487 10C 83.1395 13.0943 68.9309 15.2104 52.5457 15.2104C 36.1605 15.2104 21.9519 13.0943 14.8427 10ZM 16.300415 43.298584C 16.300415 47.870184 32.535915 51.573384 52.565715 51.573384C 72.595415 51.573384 88.830815 47.870184 88.830815 43.298584M 12.875671 30.991455C 12.875671 35.992255 30.648771 40.044755 52.565671 40.044755C 74.482571 40.044755 92.255771 35.992255 92.255771 30.991455M 10 18.344482C 10 23.704582 29.0612 28.056582 52.5657 28.056582C 76.0702 28.056582 95.1314 23.704582 95.1314 18.344482"></path></g></g></g><g id="g-root-5.cu_sy_1luab3puahjpf-stroke" data-item-order="999894170" transform="translate(237.75531005859375, 289.59912109375)"><g id="5.cu_sy_1luab3puahjpf-stroke" fill="none" stroke-linecap="round" stroke-linejoin="round" stroke-miterlimit="4" stroke="#e15e5a" stroke-width="2"><g><path d="M 10 10C 12.4064 12.4954 14.9326 14.871 17.5786 17.1269C 33.6543 30.8017 43.3396 50.4755 44.0086 71.4868C 44.0785 73.6328 44.6876 75.7489 45.9557 77.4757C 46.5847 78.3441 47.3736 79.1327 48.2822 79.5619C 55.1718 82.8059 69.7498 85.0418 86.6043 85.0418C 103.4588 85.0418 118.0967 82.796 124.9763 79.5419C 126.3542 78.8931 127.4226 77.2362 128.1415 75.7789C 128.8305 74.3814 129.16 72.8443 129.1999 71.2772C 129.7291 50.5154 138.8154 30.7318 154.7014 17.2866C 157.4173 14.9908 160.0134 12.5553 162.4797 10L 10 10Z"></path></g></g></g><g id="g-root-5.cu_sy_1luab3puahjpf-stroke" data-item-order="999894170" transform="translate(237.75531005859375, 289.59912109375)"><g id="5.cu_sy_1luab3puahjpf-stroke" fill="none" stroke-linecap="round" stroke-linejoin="round" stroke-miterlimit="4" stroke="#e15e5a" stroke-width="2"><g><path d="M 10 10C 12.4064 12.4954 14.9326 14.871 17.5786 17.1269C 33.6543 30.8017 43.3396 50.4755 44.0086 71.4868C 44.0785 73.6328 44.6876 75.7489 45.9557 77.4757C 46.5847 78.3441 47.3736 79.1327 48.2822 79.5619C 55.1718 82.8059 69.7498 85.0418 86.6043 85.0418C 103.4588 85.0418 118.0967 82.796 124.9763 79.5419C 126.3542 78.8931 127.4226 77.2362 128.1415 75.7789C 128.8305 74.3814 129.16 72.8443 129.1999 71.2772C 129.7291 50.5154 138.8154 30.7318 154.7014 17.2866C 157.4173 14.9908 160.0134 12.5553 162.4797 10L 10 10Z"></path></g></g></g><g id="g-root-5.line_sy_1cynautuahki4-stroke" data-item-order="999894175" transform="translate(146, 326)"><g id="5.line_sy_1cynautuahki4-stroke" fill="none" stroke-linecap="round" stroke-linejoin="round" stroke-miterlimit="4" stroke="#484848" stroke-width="2"><g><path d="M 10 22.000034L 100 22.000034L 110.59 11.410034"></path><path d="M 110.9 20.210034L 110.9 11.110034L 101.7 11.110034" stroke-dasharray="none"></path></g></g></g><g id="g-root-5.line_sy_1cynautuahki4-stroke" data-item-order="999894175" transform="translate(146, 326)"><g id="5.line_sy_1cynautuahki4-stroke" fill="none" stroke-linecap="round" stroke-linejoin="round" stroke-miterlimit="4" stroke="#484848" stroke-width="2"><g><path d="M 10 22.000034L 100 22.000034L 110.59 11.410034"></path><path d="M 110.9 20.210034L 110.9 11.110034L 101.7 11.110034" stroke-dasharray="none"></path></g></g></g><g id="g-root-4.cu_sy_1cynautuahki5-stroke" data-item-order="999894178" transform="translate(314.349609375, 199.794677734375)"><g id="4.cu_sy_1cynautuahki5-stroke" fill="none" stroke-linecap="round" stroke-linejoin="round" stroke-miterlimit="4" stroke="#dd8433" stroke-width="2"><g><path d="M 10.01 10.01L 114.4322 10L 114.4222 10.02M 10.01 10.01L 114.4222 10.02M 10.01 10.01L 10 99.8146L 85.8854 99.8046C 104.3076 80.7397 115.6504 54.7975 115.6504 26.1902C 115.6504 20.6903 115.231 15.2903 114.4222 10.02"></path></g></g></g><g id="g-root-4.cu_sy_1cynautuahki5-stroke" data-item-order="999894178" transform="translate(314.349609375, 199.794677734375)"><g id="4.cu_sy_1cynautuahki5-stroke" fill="none" stroke-linecap="round" stroke-linejoin="round" stroke-miterlimit="4" stroke="#dd8433" stroke-width="2"><g><path d="M 10.01 10.01L 114.4322 10L 114.4222 10.02M 10.01 10.01L 114.4222 10.02M 10.01 10.01L 10 99.8146L 85.8854 99.8046C 104.3076 80.7397 115.6504 54.7975 115.6504 26.1902C 115.6504 20.6903 115.231 15.2903 114.4222 10.02"></path></g></g></g><g id="g-root-4.line_sy_zn6shhuahm32-stroke" data-item-order="999894183" transform="translate(433.99993896484375, 230)"><g id="4.line_sy_zn6shhuahm32-stroke" fill="none" stroke-linecap="round" stroke-linejoin="round" stroke-miterlimit="4" stroke="#484848" stroke-width="2"><g><path d="M 58.000061 10L 12.000061 10"></path><path d="M 18.000061 3.5L 11.500061 10L 18.000061 16.5" stroke-dasharray="none"></path></g></g></g><g id="g-root-4.line_sy_zn6shhuahm32-stroke" data-item-order="999894183" transform="translate(433.99993896484375, 230)"><g id="4.line_sy_zn6shhuahm32-stroke" fill="none" stroke-linecap="round" stroke-linejoin="round" stroke-miterlimit="4" stroke="#484848" stroke-width="2"><g><path d="M 58.000061 10L 12.000061 10"></path><path d="M 18.000061 3.5L 11.500061 10L 18.000061 16.5" stroke-dasharray="none"></path></g></g></g><g id="g-root-3.cu_sy_v7zrg5uahjpj-stroke" data-item-order="999894186" transform="translate(208, 199.774658203125)"><g id="3.cu_sy_v7zrg5uahjpj-stroke" fill="none" stroke-linecap="round" stroke-linejoin="round" stroke-miterlimit="4" stroke="#e3cd09" stroke-width="2"><g><path d="M 116.3796 99.8046L 116.3895 10L 11.2484 10.01C 10.5395 14.6115 10.1201 19.3029 10.0203 24.0741C 9.4511 53.5099 20.8938 80.2706 39.7653 99.8046L 116.3796 99.8046Z"></path></g></g></g><g id="g-root-3.cu_sy_v7zrg5uahjpj-stroke" data-item-order="999894186" transform="translate(208, 199.774658203125)"><g id="3.cu_sy_v7zrg5uahjpj-stroke" fill="none" stroke-linecap="round" stroke-linejoin="round" stroke-miterlimit="4" stroke="#e3cd09" stroke-width="2"><g><path d="M 116.3796 99.8046L 116.3895 10L 11.2484 10.01C 10.5395 14.6115 10.1201 19.3029 10.0203 24.0741C 9.4511 53.5099 20.8938 80.2706 39.7653 99.8046L 116.3796 99.8046Z"></path></g></g></g><g id="g-root-3.line_sy_v7zrg5uahjpk-stroke" data-item-order="999894191" transform="translate(146, 230)"><g id="3.line_sy_v7zrg5uahjpk-stroke" fill="none" stroke-linecap="round" stroke-linejoin="round" stroke-miterlimit="4" stroke="#484848" stroke-width="2"><g><path d="M 10 10L 56.5 10"></path><path d="M 50.5 16.5L 57 10L 50.5 3.5" stroke-dasharray="none"></path></g></g></g><g id="g-root-3.line_sy_v7zrg5uahjpk-stroke" data-item-order="999894191" transform="translate(146, 230)"><g id="3.line_sy_v7zrg5uahjpk-stroke" fill="none" stroke-linecap="round" stroke-linejoin="round" stroke-miterlimit="4" stroke="#484848" stroke-width="2"><g><path d="M 10 10L 56.5 10"></path><path d="M 50.5 16.5L 57 10L 50.5 3.5" stroke-dasharray="none"></path></g></g></g><g id="g-root-2.cu_sy_qs69bpuahkht-stroke" data-item-order="999894194" transform="translate(314.379638671875, 110)"><g id="2.cu_sy_qs69bpuahkht-stroke" fill="none" stroke-linecap="round" stroke-linejoin="round" stroke-miterlimit="4" stroke="#93c131" stroke-width="2"><g><path d="M 10 99.8046L 114.4222 99.7947C 106.654 49.0581 62.89 10.1797 10.0099 10L 10 99.8046Z"></path></g></g></g><g id="g-root-2.cu_sy_qs69bpuahkht-stroke" data-item-order="999894194" transform="translate(314.379638671875, 110)"><g id="2.cu_sy_qs69bpuahkht-stroke" fill="none" stroke-linecap="round" stroke-linejoin="round" stroke-miterlimit="4" stroke="#93c131" stroke-width="2"><g><path d="M 10 99.8046L 114.4222 99.7947C 106.654 49.0581 62.89 10.1797 10.0099 10L 10 99.8046Z"></path></g></g></g><g id="g-root-2.line_sy_hwj92tuahlai-stroke" data-item-order="999894199" transform="translate(398, 122)"><g id="2.line_sy_hwj92tuahlai-stroke" fill="none" stroke-linecap="round" stroke-linejoin="round" stroke-miterlimit="4" stroke="#484848" stroke-width="2"><g><path d="M 94.000034 10L 22.000034 10L 11.410034 20.59"></path><path d="M 11.110034 11.7L 11.110034 20.9L 20.210034 20.9" stroke-dasharray="none"></path></g></g></g><g id="g-root-2.line_sy_hwj92tuahlai-stroke" data-item-order="999894199" transform="translate(398, 122)"><g id="2.line_sy_hwj92tuahlai-stroke" fill="none" stroke-linecap="round" stroke-linejoin="round" stroke-miterlimit="4" stroke="#484848" stroke-width="2"><g><path d="M 94.000034 10L 22.000034 10L 11.410034 20.59"></path><path d="M 11.110034 11.7L 11.110034 20.9L 20.210034 20.9" stroke-dasharray="none"></path></g></g></g><g id="g-root-1.cu_sy_dgpqyduahm2r-stroke" data-item-order="999894204" transform="translate(209.2384033203125, 110)"><g id="1.cu_sy_dgpqyduahm2r-stroke" fill="none" stroke-linecap="round" stroke-linejoin="round" stroke-miterlimit="4" stroke="#3bc482" stroke-width="2"><g><path d="M 115.1412 99.7847L 10 99.7847C 17.7683 49.5771 61.1627 10.7287 113.254 10C 113.8831 10 114.5021 10 115.1312 10L 115.1412 99.7847Z"></path></g></g></g><g id="g-root-1.cu_sy_dgpqyduahm2r-stroke" data-item-order="999894204" transform="translate(209.2384033203125, 110)"><g id="1.cu_sy_dgpqyduahm2r-stroke" fill="none" stroke-linecap="round" stroke-linejoin="round" stroke-miterlimit="4" stroke="#3bc482" stroke-width="2"><g><path d="M 115.1412 99.7847L 10 99.7847C 17.7683 49.5771 61.1627 10.7287 113.254 10C 113.8831 10 114.5021 10 115.1312 10L 115.1412 99.7847Z"></path></g></g></g><g id="g-root-1.line_sy_4lp7sluahjpo-stroke" data-item-order="999894209" transform="translate(146, 122)"><g id="1.line_sy_4lp7sluahjpo-stroke" fill="none" stroke-linecap="round" stroke-linejoin="round" stroke-miterlimit="4" stroke="#484848" stroke-width="2"><g><path d="M 10 10L 82 10L 92.59 20.59"></path><path d="M 83.7 20.9L 92.9 20.9L 92.9 11.7" stroke-dasharray="none"></path></g></g></g><g id="g-root-1.line_sy_4lp7sluahjpo-stroke" data-item-order="999894209" transform="translate(146, 122)"><g id="1.line_sy_4lp7sluahjpo-stroke" fill="none" stroke-linecap="round" stroke-linejoin="round" stroke-miterlimit="4" stroke="#484848" stroke-width="2"><g><path d="M 10 10L 82 10L 92.59 20.59"></path><path d="M 83.7 20.9L 92.9 20.9L 92.9 11.7" stroke-dasharray="none"></path></g></g></g><g id="g-root-tx_accesibi_zqbfedua0r9o-stroke" data-item-order="1000000000" transform="translate(2, 218)"></g><g id="g-root-tx_accesibi_zqbfedua0r9o-stroke" data-item-order="1000000000" transform="translate(2, 218)"></g><g id="g-root-left_1qclz1xua0r9m-stroke" data-item-order="1000000000" transform="translate(338, 146)"><g id="left_1qclz1xua0r9m-stroke" fill="none" stroke-linecap="round" stroke-linejoin="round" stroke-miterlimit="4" stroke="#93c131" stroke-width="2"><g><path d="M 31.317142 11.285714L 15.528571 27.1C 15.279972 27.333313 15.138952 27.659063 15.138952 27.999998C 15.138952 28.340935 15.279972 28.666685 15.528571 28.899998L 31.317142 44.714287M 40.857143 11.285714L 40.857143 44.714287"></path></g></g></g><g id="g-root-left_1qclz1xua0r9m-stroke" data-item-order="1000000000" transform="translate(338, 146)"><g id="left_1qclz1xua0r9m-stroke" fill="none" stroke-linecap="round" stroke-linejoin="round" stroke-miterlimit="4" stroke="#93c131" stroke-width="2"><g><path d="M 31.317142 11.285714L 15.528571 27.1C 15.279972 27.333313 15.138952 27.659063 15.138952 27.999998C 15.138952 28.340935 15.279972 28.666685 15.528571 28.899998L 31.317142 44.714287M 40.857143 11.285714L 40.857143 44.714287"></path></g></g></g><g id="g-root-whee_mgq5ytualu6j-stroke" data-item-order="1000000000" transform="translate(248, 224)"><g id="whee_mgq5ytualu6j-stroke" fill="none" stroke-linecap="round" stroke-linejoin="round" stroke-miterlimit="4" stroke="#e3cd09" stroke-width="2"><g><path d="M 22.669001 14.5C 22.669001 16.571068 24.347933 18.25 26.419001 18.25C 28.490067 18.25 30.169001 16.571068 30.169001 14.5C 30.169001 12.428932 28.490067 10.75 26.419001 10.75C 24.347933 10.75 22.669001 12.428932 22.669001 14.5ZM 28.669001 23.5C 28.669001 22.257359 27.66164 21.25 26.419001 21.25C 25.176359 21.25 24.169001 22.257359 24.169001 23.5L 24.169001 35.5C 24.169001 36.742641 25.176359 37.75 26.419001 37.75L 33.168999 37.75C 33.427593 37.75 33.667946 37.883217 33.805 38.102501L 36.673 42.692501C 37.331463 43.746582 38.719845 44.067146 39.773773 43.40844C 40.827705 42.749733 41.147949 41.361279 40.488998 40.307499L 37.620998 35.717499C 36.66573 34.178173 34.980637 33.244221 33.168999 33.25L 29.419001 33.25C 29.004787 33.25 28.669001 32.914215 28.669001 32.5ZM 31.867001 40.913498C 29.793055 44.332535 25.711885 45.973087 21.848564 44.940727C 17.985241 43.908371 15.266417 40.450718 15.174404 36.452896C 15.082393 32.455078 17.639263 28.876003 21.451 27.667"></path></g></g></g><g id="g-root-whee_mgq5ytualu6j-stroke" data-item-order="1000000000" transform="translate(248, 224)"><g id="whee_mgq5ytualu6j-stroke" fill="none" stroke-linecap="round" stroke-linejoin="round" stroke-miterlimit="4" stroke="#e3cd09" stroke-width="2"><g><path d="M 22.669001 14.5C 22.669001 16.571068 24.347933 18.25 26.419001 18.25C 28.490067 18.25 30.169001 16.571068 30.169001 14.5C 30.169001 12.428932 28.490067 10.75 26.419001 10.75C 24.347933 10.75 22.669001 12.428932 22.669001 14.5ZM 28.669001 23.5C 28.669001 22.257359 27.66164 21.25 26.419001 21.25C 25.176359 21.25 24.169001 22.257359 24.169001 23.5L 24.169001 35.5C 24.169001 36.742641 25.176359 37.75 26.419001 37.75L 33.168999 37.75C 33.427593 37.75 33.667946 37.883217 33.805 38.102501L 36.673 42.692501C 37.331463 43.746582 38.719845 44.067146 39.773773 43.40844C 40.827705 42.749733 41.147949 41.361279 40.488998 40.307499L 37.620998 35.717499C 36.66573 34.178173 34.980637 33.244221 33.168999 33.25L 29.419001 33.25C 29.004787 33.25 28.669001 32.914215 28.669001 32.5ZM 31.867001 40.913498C 29.793055 44.332535 25.711885 45.973087 21.848564 44.940727C 17.985241 43.908371 15.266417 40.450718 15.174404 36.452896C 15.082393 32.455078 17.639263 28.876003 21.451 27.667"></path></g></g></g><g id="g-root-repl_2rik5uahki5-stroke" data-item-order="1000000000" transform="translate(345, 224)"><g id="repl_2rik5uahki5-stroke" fill="none" stroke-linecap="round" stroke-linejoin="round" stroke-miterlimit="4" stroke="#dd8433" stroke-width="2"><g><path d="M 25 22.681C 25 22.681 43.75 20.431 43.75 39.181C 37.75 27.931 25 31.681 25 31.681L 25 37.681L 12.25 27.181L 25 16.681Z"></path></g></g></g><g id="g-root-repl_2rik5uahki5-stroke" data-item-order="1000000000" transform="translate(345, 224)"><g id="repl_2rik5uahki5-stroke" fill="none" stroke-linecap="round" stroke-linejoin="round" stroke-miterlimit="4" stroke="#dd8433" stroke-width="2"><g><path d="M 25 22.681C 25 22.681 43.75 20.431 43.75 39.181C 37.75 27.931 25 31.681 25 31.681L 25 37.681L 12.25 27.181L 25 16.681Z"></path></g></g></g><g id="g-root-patt_i0wnudua24um-stroke" data-item-order="1000000000" transform="translate(254, 146)"><g id="patt_i0wnudua24um-stroke" fill="none" stroke-linecap="round" stroke-linejoin="round" stroke-miterlimit="4" stroke="#3bc482" stroke-width="2"><g><path d="M 43.75 42.625C 43.75 43.867641 42.742641 44.875 41.5 44.875L 14.5 44.875C 13.25736 44.875 12.25 43.867641 12.25 42.625L 12.25 13.375C 12.25 12.13236 13.25736 11.125 14.5 11.125L 37 11.125C 37.585762 11.12584 38.148098 11.355082 38.567501 11.764L 43.067501 16.088501C 43.502647 16.511072 43.748749 17.091436 43.75 17.698ZM 22.400501 25.758999L 22.400501 37.557999C 22.400499 37.94429 22.713211 38.257675 23.099499 38.258499L 32.900501 38.258499C 33.286789 38.257675 33.599503 37.94429 33.599499 37.557999L 33.599499 25.758999M 33.599499 29.959L 37.100498 29.959C 37.48679 29.958172 37.7995 29.644791 37.7995 29.258499L 37.7995 24.358C 37.7995 21.265482 35.292519 18.758501 32.200001 18.758501L 30.800499 18.758501C 30.800501 20.305174 29.546675 21.559 28 21.559C 26.453327 21.559 25.199501 20.305174 25.199501 18.758501L 23.799999 18.758501C 20.707481 18.758501 18.2005 21.265482 18.2005 24.358002L 18.2005 29.258499C 18.200499 29.644791 18.51321 29.958172 18.8995 29.959L 22.400501 29.959M 22.400501 27.25L 33.599499 27.25M 22.400501 31.75L 33.599499 31.75"></path></g></g></g><g id="g-root-patt_i0wnudua24um-stroke" data-item-order="1000000000" transform="translate(254, 146)"><g id="patt_i0wnudua24um-stroke" fill="none" stroke-linecap="round" stroke-linejoin="round" stroke-miterlimit="4" stroke="#3bc482" stroke-width="2"><g><path d="M 43.75 42.625C 43.75 43.867641 42.742641 44.875 41.5 44.875L 14.5 44.875C 13.25736 44.875 12.25 43.867641 12.25 42.625L 12.25 13.375C 12.25 12.13236 13.25736 11.125 14.5 11.125L 37 11.125C 37.585762 11.12584 38.148098 11.355082 38.567501 11.764L 43.067501 16.088501C 43.502647 16.511072 43.748749 17.091436 43.75 17.698ZM 22.400501 25.758999L 22.400501 37.557999C 22.400499 37.94429 22.713211 38.257675 23.099499 38.258499L 32.900501 38.258499C 33.286789 38.257675 33.599503 37.94429 33.599499 37.557999L 33.599499 25.758999M 33.599499 29.959L 37.100498 29.959C 37.48679 29.958172 37.7995 29.644791 37.7995 29.258499L 37.7995 24.358C 37.7995 21.265482 35.292519 18.758501 32.200001 18.758501L 30.800499 18.758501C 30.800501 20.305174 29.546675 21.559 28 21.559C 26.453327 21.559 25.199501 20.305174 25.199501 18.758501L 23.799999 18.758501C 20.707481 18.758501 18.2005 21.265482 18.2005 24.358002L 18.2005 29.258499C 18.200499 29.644791 18.51321 29.958172 18.8995 29.959L 22.400501 29.959M 22.400501 27.25L 33.599499 27.25M 22.400501 31.75L 33.599499 31.75"></path></g></g></g><g id="g-root-tx_retroali_940vqtua0r9q-stroke" data-item-order="1000000000" transform="translate(494, 218)"></g><g id="g-root-tx_retroali_940vqtua0r9q-stroke" data-item-order="1000000000" transform="translate(494, 218)"></g><g id="g-root-tx_simplici_1uuawfpua0phr-stroke" data-item-order="1000000000" transform="translate(494, 110)"></g><g id="g-root-tx_simplici_1uuawfpua0phr-stroke" data-item-order="1000000000" transform="translate(494, 110)"></g><g id="g-root-hand_1umt48lua6dj6-stroke" data-item-order="1000000000" transform="translate(296, 308)"><g id="hand_1umt48lua6dj6-stroke" fill="none" stroke-linecap="round" stroke-linejoin="round" stroke-miterlimit="4" stroke="#e15e5a" stroke-width="2"><g><path d="M 43 45.25L 43.75 40.75C 43.835957 40.105793 43.470448 39.486282 42.864998 39.25L 36.235001 36.34L 36.235001 29.875C 36.298439 29.167847 35.957016 28.485518 35.353004 28.112343C 34.748993 27.73917 33.986008 27.73917 33.381996 28.112343C 32.777985 28.485518 32.436562 29.167847 32.5 29.875L 32.5 41.785L 29.92 38.695C 29.608208 38.319656 29.133324 38.119427 28.646914 38.158218C 28.160503 38.197014 27.723358 38.469978 27.474998 38.889999C 27.186981 39.348522 27.186981 39.93148 27.474998 40.389999L 30.174999 45.310001M 16.75 36.25L 13 36.25C 11.75736 36.25 10.75 35.242641 10.75 34L 10.75 13C 10.75 11.75736 11.75736 10.75 13 10.75L 26.5 10.75C 27.742641 10.75 28.75 11.75736 28.75 13L 28.75 19.75M 10.75 31.75L 16.75 31.75M 24.25 24.25L 24.25 37M 33.25 10.75L 37.75 10.75C 37.75 10.75 39.25 10.75 39.25 12.25L 39.25 22.75C 39.25 22.75 39.25 24.25 37.75 24.25L 33.25 24.25C 33.25 24.25 31.75 24.25 31.75 22.75L 31.75 12.25C 31.75 12.25 31.75 10.75 33.25 10.75M 31.75 21.25L 39.25 21.25M 10.75 15.25L 28.75 15.25M 40.75 28L 40.75 34.75M 42.25 24.25L 43 24.25C 44.242641 24.25 45.25 25.25736 45.25 26.5L 45.25 36.25M 28.75 24.25L 22 24.25C 20.75736 24.25 19.75 25.25736 19.75 26.5L 19.75 38.5C 19.75 39.742641 20.75736 40.75 22 40.75L 24.25 40.75"></path></g></g></g><g id="g-root-hand_1umt48lua6dj6-stroke" data-item-order="1000000000" transform="translate(296, 308)"><g id="hand_1umt48lua6dj6-stroke" fill="none" stroke-linecap="round" stroke-linejoin="round" stroke-miterlimit="4" stroke="#e15e5a" stroke-width="2"><g><path d="M 43 45.25L 43.75 40.75C 43.835957 40.105793 43.470448 39.486282 42.864998 39.25L 36.235001 36.34L 36.235001 29.875C 36.298439 29.167847 35.957016 28.485518 35.353004 28.112343C 34.748993 27.73917 33.986008 27.73917 33.381996 28.112343C 32.777985 28.485518 32.436562 29.167847 32.5 29.875L 32.5 41.785L 29.92 38.695C 29.608208 38.319656 29.133324 38.119427 28.646914 38.158218C 28.160503 38.197014 27.723358 38.469978 27.474998 38.889999C 27.186981 39.348522 27.186981 39.93148 27.474998 40.389999L 30.174999 45.310001M 16.75 36.25L 13 36.25C 11.75736 36.25 10.75 35.242641 10.75 34L 10.75 13C 10.75 11.75736 11.75736 10.75 13 10.75L 26.5 10.75C 27.742641 10.75 28.75 11.75736 28.75 13L 28.75 19.75M 10.75 31.75L 16.75 31.75M 24.25 24.25L 24.25 37M 33.25 10.75L 37.75 10.75C 37.75 10.75 39.25 10.75 39.25 12.25L 39.25 22.75C 39.25 22.75 39.25 24.25 37.75 24.25L 33.25 24.25C 33.25 24.25 31.75 24.25 31.75 22.75L 31.75 12.25C 31.75 12.25 31.75 10.75 33.25 10.75M 31.75 21.25L 39.25 21.25M 10.75 15.25L 28.75 15.25M 40.75 28L 40.75 34.75M 42.25 24.25L 43 24.25C 44.242641 24.25 45.25 25.25736 45.25 26.5L 45.25 36.25M 28.75 24.25L 22 24.25C 20.75736 24.25 19.75 25.25736 19.75 26.5L 19.75 38.5C 19.75 39.742641 20.75736 40.75 22 40.75L 24.25 40.75"></path></g></g></g><g id="g-root-tx_flexibil_mfhe45ua0pot-stroke" data-item-order="1000000000" transform="translate(26, 326)"></g><g id="g-root-tx_principi_5vpo5uahkhx-stroke" data-item-order="1000000000" transform="translate(188, 2)"></g><g id="g-root-tx_consiste_1d1rxrpua0por-stroke" data-item-order="1000000000" transform="translate(14, 110)"></g><g id="g-root-tx_consiste_1d1rxrpua0por-stroke" data-item-order="1000000000" transform="translate(14, 110)"></g><g id="g-root-tx_flexibil_mfhe45ua0pot-stroke" data-item-order="1000000000" transform="translate(26, 326)"></g></g></g></svg>