<?xml version="1.0" encoding="utf-8" standalone="yes"?>
<!DOCTYPE svg PUBLIC "-//W3C//DTD SVG 1.1//EN" "http://www.w3.org/Graphics/SVG/1.1/DTD/svg11.dtd">
<svg width="756" height="432" viewBox="0 0 756 432" style="fill:none;stroke:none;fill-rule:evenodd;clip-rule:evenodd;stroke-linecap:round;stroke-linejoin:round;stroke-miterlimit:1.5;" version="1.1" xmlns="http://www.w3.org/2000/svg" xmlns:xlink="http://www.w3.org/1999/xlink"><style id="fontImports">@import url("https://fonts.googleapis.com/css2?family=Roboto:wght@400;700&amp;display=block");</style><g id="items" style="isolation: isolate"><g id="blend" style="mix-blend-mode:normal"><g id="g-root-0.cu_sy_zs5vx5swgu80-fill" data-item-order="999897394" transform="translate(267.00006103515625, 121.999755859375)"><g id="0.cu_sy_zs5vx5swgu80-fill" stroke="none" fill="#f0f0f0"><g><path d="M 25.7548 70.52L 69.5204 70.52L 69.52 26.333C 87.2784 15.9502 107.9443 10 130 10C 151.233 10 171.177 15.5145 188.48 25.1894L 188.48 70.5201L 234.245 70.5201C 244.27 88.0525 250 108.3571 250 130C 250 151.643 244.27 171.948 234.245 189.48L 188.481 189.48L 188.481 234.81C 171.178 244.485 151.233 250 130 250C 107.9443 250 87.2784 244.05 69.5199 233.667L 69.5199 189.48L 25.7551 189.48C 15.7297 171.948 10 151.643 10 130C 10 108.3571 15.7296 88.0524 25.7548 70.52Z"></path></g></g></g><g id="g-root-0.cu_sy_zs5vx5swgu80-fill" data-item-order="999897394" transform="translate(267.00006103515625, 121.999755859375)"><g id="0.cu_sy_zs5vx5swgu80-fill" stroke="none" fill="#f0f0f0"><g><path d="M 25.7548 70.52L 69.5204 70.52L 69.52 26.333C 87.2784 15.9502 107.9443 10 130 10C 151.233 10 171.177 15.5145 188.48 25.1894L 188.48 70.5201L 234.245 70.5201C 244.27 88.0525 250 108.3571 250 130C 250 151.643 244.27 171.948 234.245 189.48L 188.481 189.48L 188.481 234.81C 171.178 244.485 151.233 250 130 250C 107.9443 250 87.2784 244.05 69.5199 233.667L 69.5199 189.48L 25.7551 189.48C 15.7297 171.948 10 151.643 10 130C 10 108.3571 15.7296 88.0524 25.7548 70.52Z"></path></g></g></g><g id="g-root-4.cu_sy_qn5rdlswi6fd-fill" data-item-order="999897398" transform="translate(230.51995849609375, 86.5198974609375)"><g id="4.cu_sy_qn5rdlswi6fd-fill" stroke="none" fill="#fef2e6"><g><path d="M 58.000443 105.999985C 45.716019 106.000122 33.431595 101.313843 24.058884 91.941147C 5.313706 73.195953 5.313706 42.804077 24.058884 24.058891C 42.804093 5.313705 73.195938 5.313705 91.941147 24.058891C 101.313706 33.431442 105.999985 45.715729 105.999985 58.000015L 106.000748 106.000336L 58.011399 106.000046C 58.007797 105.999985 58.004105 105.999985 58.000443 105.999985Z"></path></g></g></g><g id="g-root-4.cu_sy_qn5rdlswi6fd-fill" data-item-order="999897398" transform="translate(230.51995849609375, 86.5198974609375)"><g id="4.cu_sy_qn5rdlswi6fd-fill" stroke="none" fill="#fef2e6"><g><path d="M 58.000443 105.999985C 45.716019 106.000122 33.431595 101.313843 24.058884 91.941147C 5.313706 73.195953 5.313706 42.804077 24.058884 24.058891C 42.804093 5.313705 73.195938 5.313705 91.941147 24.058891C 101.313706 33.431442 105.999985 45.715729 105.999985 58.000015L 106.000748 106.000336L 58.011399 106.000046C 58.007797 105.999985 58.004105 105.999985 58.000443 105.999985Z"></path></g></g></g><g id="g-root-3.cu_sy_dbp909swi80a-fill" data-item-order="999897402" transform="translate(230.51992797851562, 301.479736328125)"><g id="3.cu_sy_dbp909swi80a-fill" stroke="none" fill="#f5fbe9"><g><path d="M 105.999969 58.000305C 106.000122 70.284729 101.313843 82.569153 91.941132 91.941864C 73.195953 110.687043 42.804077 110.687043 24.058899 91.941864C 5.313705 73.196656 5.313705 42.80481 24.058899 24.059601C 33.431457 14.687043 45.715729 10.000763 58.00003 10.000763L 106.000336 10L 106.000061 57.98935C 105.999969 57.992951 105.999969 57.996643 105.999969 58.000305Z"></path></g></g></g><g id="g-root-3.cu_sy_dbp909swi80a-fill" data-item-order="999897402" transform="translate(230.51992797851562, 301.479736328125)"><g id="3.cu_sy_dbp909swi80a-fill" stroke="none" fill="#f5fbe9"><g><path d="M 105.999969 58.000305C 106.000122 70.284729 101.313843 82.569153 91.941132 91.941864C 73.195953 110.687043 42.804077 110.687043 24.058899 91.941864C 5.313705 73.196656 5.313705 42.80481 24.058899 24.059601C 33.431457 14.687043 45.715729 10.000763 58.00003 10.000763L 106.000336 10L 106.000061 57.98935C 105.999969 57.992951 105.999969 57.996643 105.999969 58.000305Z"></path></g></g></g><g id="g-root-2.cu_sy_8vvqvtswi8sj-fill" data-item-order="999897406" transform="translate(445.48046875, 301.480224609375)"><g id="2.cu_sy_8vvqvtswi8sj-fill" stroke="none" fill="#e6f9ff"><g><path d="M 10.000061 57.999969C 9.999939 70.284393 14.68628 82.568878 24.058899 91.941497C 42.804077 110.686706 73.19632 110.687042 91.941498 91.941864C 110.686676 73.196685 110.68631 42.804443 91.941132 24.059265C 82.568573 14.686706 70.284333 10.000427 58.000031 10.000427L 10.000061 10L 10 57.988983C 10.000061 57.992614 10.000061 57.996276 10.000061 57.999969Z"></path></g></g></g><g id="g-root-2.cu_sy_8vvqvtswi8sj-fill" data-item-order="999897406" transform="translate(445.48046875, 301.480224609375)"><g id="2.cu_sy_8vvqvtswi8sj-fill" stroke="none" fill="#e6f9ff"><g><path d="M 10.000061 57.999969C 9.999939 70.284393 14.68628 82.568878 24.058899 91.941497C 42.804077 110.686706 73.19632 110.687042 91.941498 91.941864C 110.686676 73.196685 110.68631 42.804443 91.941132 24.059265C 82.568573 14.686706 70.284333 10.000427 58.000031 10.000427L 10.000061 10L 10 57.988983C 10.000061 57.992614 10.000061 57.996276 10.000061 57.999969Z"></path></g></g></g><g id="g-root-1.cu_sy_1um5rkpswi70k-fill" data-item-order="999897410" transform="translate(445.47979736328125, 86.52001953125)"><g id="1.cu_sy_1um5rkpswi70k-fill" stroke="none" fill="#e9fbf3"><g><path d="M 57.999939 106.000161C 70.284363 106.000298 82.568909 101.313942 91.941529 91.941323C 110.686707 73.196129 110.687073 42.803902 91.941834 24.058709C 73.196656 5.313523 42.804444 5.313881 24.059266 24.059067C 14.686707 33.431618 10.000428 45.715905 10.000428 58.000191L 10 106.000161L 57.989014 106.000222C 57.992615 106.000161 57.996277 106.000161 57.999939 106.000161Z"></path></g></g></g><g id="g-root-1.cu_sy_1um5rkpswi70k-fill" data-item-order="999897410" transform="translate(445.47979736328125, 86.52001953125)"><g id="1.cu_sy_1um5rkpswi70k-fill" stroke="none" fill="#e9fbf3"><g><path d="M 57.999939 106.000161C 70.284363 106.000298 82.568909 101.313942 91.941529 91.941323C 110.686707 73.196129 110.687073 42.803902 91.941834 24.058709C 73.196656 5.313523 42.804444 5.313881 24.059266 24.059067C 14.686707 33.431618 10.000428 45.715905 10.000428 58.000191L 10 106.000161L 57.989014 106.000222C 57.992615 106.000161 57.996277 106.000161 57.999939 106.000161Z"></path></g></g></g><g id="g-root-tx_asegural_1hi7h7dsw2sch-fill" data-item-order="1000000000" transform="translate(38, 122)"><g id="tx_asegural_1hi7h7dsw2sch-fill" stroke="none" fill="#484848"><g><text style="font: 15px &quot;Roboto&quot;, sans-serif; white-space: pre;" font-size="15px" font-family="'Roboto', sans-serif"><tspan x="33.52" y="28" dominant-baseline="ideographic">Asegura la alineación </tspan><tspan x="20.28" y="46" dominant-baseline="ideographic">entre diseño, desarrollo </tspan><tspan x="57.23" y="64" dominant-baseline="ideographic">y necesidades del </tspan><tspan x="126.3" y="82" dominant-baseline="ideographic">usuario</tspan></text></g></g></g><g id="g-root-tx_asegural_1hi7h7dsw2sch-fill" data-item-order="1000000000" transform="translate(38, 122)"><g id="tx_asegural_1hi7h7dsw2sch-fill" stroke="none" fill="#484848"><g><text style="font: 15px &quot;Roboto&quot;, sans-serif; white-space: pre;" font-size="15px" font-family="'Roboto', sans-serif"><tspan x="33.52" y="28" dominant-baseline="ideographic">Asegura la alineación </tspan><tspan x="20.28" y="46" dominant-baseline="ideographic">entre diseño, desarrollo </tspan><tspan x="57.23" y="64" dominant-baseline="ideographic">y necesidades del </tspan><tspan x="126.3" y="82" dominant-baseline="ideographic">usuario</tspan></text></g></g></g><g id="g-root-hand_djtiahswnton-fill" data-item-order="1000000000" transform="translate(254, 110)"></g><g id="g-root-hand_djtiahswnton-fill" data-item-order="1000000000" transform="translate(254, 110)"></g><g id="g-root-tx_colabora_hs5r6hsw46py-fill" data-item-order="1000000000" transform="translate(74, 86)"><g id="tx_colabora_hs5r6hsw46py-fill" stroke="none" fill="#dd8433"><g><text style="font: bold 20px &quot;Roboto&quot;, sans-serif; white-space: pre;" font-weight="bold" font-size="20px" font-family="'Roboto', sans-serif"><tspan x="21.03" y="34" dominant-baseline="ideographic">Colaboración</tspan></text></g></g></g><g id="g-root-tx_colabora_hs5r6hsw46py-fill" data-item-order="1000000000" transform="translate(74, 86)"><g id="tx_colabora_hs5r6hsw46py-fill" stroke="none" fill="#dd8433"><g><text style="font: bold 20px &quot;Roboto&quot;, sans-serif; white-space: pre;" font-weight="bold" font-size="20px" font-family="'Roboto', sans-serif"><tspan x="21.03" y="34" dominant-baseline="ideographic">Colaboración</tspan></text></g></g></g><g id="g-root-tx_elemento_1lqirbtswi7t9-fill" data-item-order="1000000000" transform="translate(225, 2)"><g id="tx_elemento_1lqirbtswi7t9-fill" stroke="none" fill="#484848"><g><text style="font: bold 20px &quot;Roboto&quot;, sans-serif; white-space: pre;" font-weight="bold" font-size="20px" font-family="'Roboto', sans-serif"><tspan x="12.07" y="34" dominant-baseline="ideographic">Elementos Clave del Diseño UI Exitoso</tspan></text></g></g></g><g id="g-root-1_1cuw6vtsw9rm7-fill" data-item-order="1000000000" transform="translate(470, 110)"></g><g id="g-root-tx_establec_1lpwt7dsw4550-fill" data-item-order="1000000000" transform="translate(566, 122)"><g id="tx_establec_1lpwt7dsw4550-fill" stroke="none" fill="#484848"><g><text style="font: 15px &quot;Roboto&quot;, sans-serif; white-space: pre;" font-size="15px" font-family="'Roboto', sans-serif"><tspan x="12" y="31" dominant-baseline="ideographic">Establece estándares </tspan><tspan x="12" y="49" dominant-baseline="ideographic">visuales e interacción </tspan><tspan x="12" y="67" dominant-baseline="ideographic">para la consistencia</tspan></text></g></g></g><g id="g-root-tx_establec_1lpwt7dsw4550-fill" data-item-order="1000000000" transform="translate(566, 122)"><g id="tx_establec_1lpwt7dsw4550-fill" stroke="none" fill="#484848"><g><text style="font: 15px &quot;Roboto&quot;, sans-serif; white-space: pre;" font-size="15px" font-family="'Roboto', sans-serif"><tspan x="12" y="31" dominant-baseline="ideographic">Establece estándares </tspan><tspan x="12" y="49" dominant-baseline="ideographic">visuales e interacción </tspan><tspan x="12" y="67" dominant-baseline="ideographic">para la consistencia</tspan></text></g></g></g><g id="g-root-phon_1utnzkpsw2qrk-fill" data-item-order="1000000000" transform="translate(338, 194)"></g><g id="g-root-phon_1utnzkpsw2qrk-fill" data-item-order="1000000000" transform="translate(338, 194)"></g><g id="g-root-tx_flujoden_zital5sw47il-fill" data-item-order="1000000000" transform="translate(566, 278)"><g id="tx_flujoden_zital5sw47il-fill" stroke="none" fill="#17b0e3"><g><text style="font: bold 20px &quot;Roboto&quot;, sans-serif; white-space: pre;" font-weight="bold" font-size="20px" font-family="'Roboto', sans-serif"><tspan x="12" y="34" dominant-baseline="ideographic">Flujo de </tspan><tspan x="12" y="58" dominant-baseline="ideographic">Navegación</tspan></text></g></g></g><g id="g-root-tx_flujoden_zital5sw47il-fill" data-item-order="1000000000" transform="translate(566, 278)"><g id="tx_flujoden_zital5sw47il-fill" stroke="none" fill="#17b0e3"><g><text style="font: bold 20px &quot;Roboto&quot;, sans-serif; white-space: pre;" font-weight="bold" font-size="20px" font-family="'Roboto', sans-serif"><tspan x="12" y="34" dominant-baseline="ideographic">Flujo de </tspan><tspan x="12" y="58" dominant-baseline="ideographic">Navegación</tspan></text></g></g></g><g id="g-root-tx_maquetas_4hbpw9sw4553-fill" data-item-order="1000000000" transform="translate(2, 302)"><g id="tx_maquetas_4hbpw9sw4553-fill" stroke="none" fill="#93c131"><g><text style="font: bold 20px &quot;Roboto&quot;, sans-serif; white-space: pre;" font-weight="bold" font-size="20px" font-family="'Roboto', sans-serif"><tspan x="18.02" y="34" dominant-baseline="ideographic">Mockups / Prototipos</tspan></text></g></g></g><g id="g-root-tx_maquetas_4hbpw9sw4553-fill" data-item-order="1000000000" transform="translate(2, 302)"><g id="tx_maquetas_4hbpw9sw4553-fill" stroke="none" fill="#93c131"><g><text style="font: bold 20px &quot;Roboto&quot;, sans-serif; white-space: pre;" font-weight="bold" font-size="20px" font-family="'Roboto', sans-serif"><tspan x="18.02" y="34" dominant-baseline="ideographic">Mockups / Prototipos</tspan></text></g></g></g><g id="g-root-tx_defineel_dl2w9lsw2qrn-fill" data-item-order="1000000000" transform="translate(566, 338)"><g id="tx_defineel_dl2w9lsw2qrn-fill" stroke="none" fill="#484848"><g><text style="font: 15px &quot;Roboto&quot;, sans-serif; white-space: pre;" font-size="15px" font-family="'Roboto', sans-serif"><tspan x="12" y="31" dominant-baseline="ideographic">Define el movimiento del </tspan><tspan x="12" y="49" dominant-baseline="ideographic">usuario y la interacción </tspan><tspan x="12" y="67" dominant-baseline="ideographic">dentro de la interfaz</tspan></text></g></g></g><g id="g-root-tx_guasdedi_1q6z9i1sw46iw-fill" data-item-order="1000000000" transform="translate(566, 86)"><g id="tx_guasdedi_1q6z9i1sw46iw-fill" stroke="none" fill="#3bc482"><g><text style="font: bold 20px &quot;Roboto&quot;, sans-serif; white-space: pre;" font-weight="bold" font-size="20px" font-family="'Roboto', sans-serif"><tspan x="12" y="34" dominant-baseline="ideographic">Guías de Diseño</tspan></text></g></g></g><g id="g-root-tx_guasdedi_1q6z9i1sw46iw-fill" data-item-order="1000000000" transform="translate(566, 86)"><g id="tx_guasdedi_1q6z9i1sw46iw-fill" stroke="none" fill="#3bc482"><g><text style="font: bold 20px &quot;Roboto&quot;, sans-serif; white-space: pre;" font-weight="bold" font-size="20px" font-family="'Roboto', sans-serif"><tspan x="12" y="34" dominant-baseline="ideographic">Guías de Diseño</tspan></text></g></g></g><g id="g-root-tx_proporci_vbqfo9sw2rka-fill" data-item-order="1000000000" transform="translate(62, 338)"><g id="tx_proporci_vbqfo9sw2rka-fill" stroke="none" fill="#484848"><g><text style="font: 15px &quot;Roboto&quot;, sans-serif; white-space: pre;" font-size="15px" font-family="'Roboto', sans-serif"><tspan x="70.67" y="28" dominant-baseline="ideographic">Proporciona </tspan><tspan x="36.78" y="46" dominant-baseline="ideographic">representaciones </tspan><tspan x="24.62" y="64" dominant-baseline="ideographic">visuales detalladas </tspan><tspan x="20.78" y="82" dominant-baseline="ideographic">antes del desarrollo</tspan></text></g></g></g><g id="g-root-1_htefvdsw9tsa-fill" data-item-order="1000000000" transform="translate(254, 326)"></g><g id="g-root-1_1uljn4psw6yvj-fill" data-item-order="1000000000" transform="translate(470, 326)"></g><g id="g-root-1_1cuw6vtsw9rm7-fill" data-item-order="1000000000" transform="translate(470, 110)"></g><g id="g-root-0.cu_sy_zs5vx5swgu80-stroke" data-item-order="999897394" transform="translate(267.00006103515625, 121.999755859375)"><g id="0.cu_sy_zs5vx5swgu80-stroke" fill="none" stroke-linecap="round" stroke-linejoin="round" stroke-miterlimit="4" stroke="#888888" stroke-width="2"><g><path d="M 25.7548 70.52C 15.7296 88.0524 10 108.3571 10 130C 10 151.6431 15.7297 171.948 25.7551 189.4805M 69.52 26.333C 87.2784 15.9502 107.9443 10 130 10C 151.2327 10 171.1774 15.5145 188.4801 25.1894M 234.2453 70.5201C 244.2704 88.0525 250 108.3571 250 130C 250 151.6431 244.2703 171.948 234.2449 189.4805M 188.4805 234.8104C 171.1778 244.4854 151.2329 250 130 250C 107.9443 250 87.2784 244.0497 69.5199 233.6669"></path></g></g></g><g id="g-root-0.cu_sy_zs5vx5swgu80-stroke" data-item-order="999897394" transform="translate(267.00006103515625, 121.999755859375)"><g id="0.cu_sy_zs5vx5swgu80-stroke" fill="none" stroke-linecap="round" stroke-linejoin="round" stroke-miterlimit="4" stroke="#888888" stroke-width="2"><g><path d="M 25.7548 70.52C 15.7296 88.0524 10 108.3571 10 130C 10 151.6431 15.7297 171.948 25.7551 189.4805M 69.52 26.333C 87.2784 15.9502 107.9443 10 130 10C 151.2327 10 171.1774 15.5145 188.4801 25.1894M 234.2453 70.5201C 244.2704 88.0525 250 108.3571 250 130C 250 151.6431 244.2703 171.948 234.2449 189.4805M 188.4805 234.8104C 171.1778 244.4854 151.2329 250 130 250C 107.9443 250 87.2784 244.0497 69.5199 233.6669"></path></g></g></g><g id="g-root-4.cu_sy_qn5rdlswi6fd-stroke" data-item-order="999897398" transform="translate(230.51995849609375, 86.5198974609375)"><g id="4.cu_sy_qn5rdlswi6fd-stroke" fill="none" stroke-linecap="round" stroke-linejoin="round" stroke-miterlimit="4" stroke="#dd8433" stroke-width="2"><g><path d="M 58.000443 105.999985C 45.716019 106.000122 33.431595 101.313843 24.058884 91.941147C 5.313706 73.195953 5.313706 42.804077 24.058884 24.058891C 42.804093 5.313705 73.195938 5.313705 91.941147 24.058891C 101.313706 33.431442 105.999985 45.715729 105.999985 58.000015L 106.000412 105.999985L 58.011399 106.000046C 58.007797 105.999985 58.004105 105.999985 58.000443 105.999985Z"></path></g></g></g><g id="g-root-4.cu_sy_qn5rdlswi6fd-stroke" data-item-order="999897398" transform="translate(230.51995849609375, 86.5198974609375)"><g id="4.cu_sy_qn5rdlswi6fd-stroke" fill="none" stroke-linecap="round" stroke-linejoin="round" stroke-miterlimit="4" stroke="#dd8433" stroke-width="2"><g><path d="M 58.000443 105.999985C 45.716019 106.000122 33.431595 101.313843 24.058884 91.941147C 5.313706 73.195953 5.313706 42.804077 24.058884 24.058891C 42.804093 5.313705 73.195938 5.313705 91.941147 24.058891C 101.313706 33.431442 105.999985 45.715729 105.999985 58.000015L 106.000412 105.999985L 58.011399 106.000046C 58.007797 105.999985 58.004105 105.999985 58.000443 105.999985Z"></path></g></g></g><g id="g-root-3.cu_sy_dbp909swi80a-stroke" data-item-order="999897402" transform="translate(230.51992797851562, 301.479736328125)"><g id="3.cu_sy_dbp909swi80a-stroke" fill="none" stroke-linecap="round" stroke-linejoin="round" stroke-miterlimit="4" stroke="#93c131" stroke-width="2"><g><path d="M 105.999969 58.000305C 106.000122 70.284729 101.313843 82.569153 91.941132 91.941864C 73.195953 110.687043 42.804077 110.687043 24.058899 91.941864C 5.313705 73.196656 5.313705 42.80481 24.058899 24.059601C 33.431457 14.687043 45.715729 10.000763 58.00003 10.000763L 105.999969 10.000336L 106.000061 57.98935C 105.999969 57.992951 105.999969 57.996643 105.999969 58.000305Z"></path></g></g></g><g id="g-root-3.cu_sy_dbp909swi80a-stroke" data-item-order="999897402" transform="translate(230.51992797851562, 301.479736328125)"><g id="3.cu_sy_dbp909swi80a-stroke" fill="none" stroke-linecap="round" stroke-linejoin="round" stroke-miterlimit="4" stroke="#93c131" stroke-width="2"><g><path d="M 105.999969 58.000305C 106.000122 70.284729 101.313843 82.569153 91.941132 91.941864C 73.195953 110.687043 42.804077 110.687043 24.058899 91.941864C 5.313705 73.196656 5.313705 42.80481 24.058899 24.059601C 33.431457 14.687043 45.715729 10.000763 58.00003 10.000763L 105.999969 10.000336L 106.000061 57.98935C 105.999969 57.992951 105.999969 57.996643 105.999969 58.000305Z"></path></g></g></g><g id="g-root-2.cu_sy_8vvqvtswi8sj-stroke" data-item-order="999897406" transform="translate(445.48046875, 301.480224609375)"><g id="2.cu_sy_8vvqvtswi8sj-stroke" fill="none" stroke-linecap="round" stroke-linejoin="round" stroke-miterlimit="4" stroke="#17b0e3" stroke-width="2"><g><path d="M 10.000061 57.999969C 9.999939 70.284393 14.68628 82.568878 24.058899 91.941497C 42.804077 110.686706 73.195954 110.686706 91.941132 91.941497C 110.686371 73.196319 110.68631 42.804443 91.941132 24.059265C 82.568573 14.686706 70.284333 10.000427 58.000031 10.000427L 10.000061 10L 10 57.988983C 10.000061 57.992614 10.000061 57.996276 10.000061 57.999969Z"></path></g></g></g><g id="g-root-2.cu_sy_8vvqvtswi8sj-stroke" data-item-order="999897406" transform="translate(445.48046875, 301.480224609375)"><g id="2.cu_sy_8vvqvtswi8sj-stroke" fill="none" stroke-linecap="round" stroke-linejoin="round" stroke-miterlimit="4" stroke="#17b0e3" stroke-width="2"><g><path d="M 10.000061 57.999969C 9.999939 70.284393 14.68628 82.568878 24.058899 91.941497C 42.804077 110.686706 73.195954 110.686706 91.941132 91.941497C 110.686371 73.196319 110.68631 42.804443 91.941132 24.059265C 82.568573 14.686706 70.284333 10.000427 58.000031 10.000427L 10.000061 10L 10 57.988983C 10.000061 57.992614 10.000061 57.996276 10.000061 57.999969Z"></path></g></g></g><g id="g-root-1.cu_sy_1um5rkpswi70k-stroke" data-item-order="999897410" transform="translate(445.47979736328125, 86.52001953125)"><g id="1.cu_sy_1um5rkpswi70k-stroke" fill="none" stroke-linecap="round" stroke-linejoin="round" stroke-miterlimit="4" stroke="#3bc482" stroke-width="2"><g><path d="M 57.999939 106.000161C 70.284363 106.000298 82.568909 101.313942 91.941529 91.941323C 110.686707 73.196129 110.686707 42.804253 91.941529 24.059067C 73.196289 5.313881 42.804444 5.313881 24.059266 24.059067C 14.686707 33.431618 10.000428 45.715905 10.000428 58.000191L 10 106.000161L 57.989014 106.000222C 57.992615 106.000161 57.996277 106.000161 57.999939 106.000161Z"></path></g></g></g><g id="g-root-1.cu_sy_1um5rkpswi70k-stroke" data-item-order="999897410" transform="translate(445.47979736328125, 86.52001953125)"><g id="1.cu_sy_1um5rkpswi70k-stroke" fill="none" stroke-linecap="round" stroke-linejoin="round" stroke-miterlimit="4" stroke="#3bc482" stroke-width="2"><g><path d="M 57.999939 106.000161C 70.284363 106.000298 82.568909 101.313942 91.941529 91.941323C 110.686707 73.196129 110.686707 42.804253 91.941529 24.059067C 73.196289 5.313881 42.804444 5.313881 24.059266 24.059067C 14.686707 33.431618 10.000428 45.715905 10.000428 58.000191L 10 106.000161L 57.989014 106.000222C 57.992615 106.000161 57.996277 106.000161 57.999939 106.000161Z"></path></g></g></g><g id="g-root-tx_asegural_1hi7h7dsw2sch-stroke" data-item-order="1000000000" transform="translate(38, 122)"></g><g id="g-root-tx_asegural_1hi7h7dsw2sch-stroke" data-item-order="1000000000" transform="translate(38, 122)"></g><g id="g-root-hand_djtiahswnton-stroke" data-item-order="1000000000" transform="translate(254, 110)"><g id="hand_djtiahswnton-stroke" fill="none" stroke-linecap="round" stroke-linejoin="round" stroke-miterlimit="4" stroke="#dd8433" stroke-width="2"><g><path d="M 40.620003 56.894001L 33.464001 46.153999C 30.622 41.813999 37.624001 40.354 40.863998 47.584L 40.863998 28.826C 40.874992 27.529968 41.929924 26.485756 43.226002 26.488001C 43.843906 26.48851 44.436035 26.735706 44.870892 27.174692C 45.305744 27.613678 45.547333 28.208117 45.542 28.826L 45.542 39.945999L 54.844002 42.625999C 56.375362 43.069363 57.292484 44.633041 56.932003 46.186001L 56.731998 47.043999L 54.942001 56.894001M 50.209999 36.844002C 51.502022 36.844002 52.549107 35.796021 52.548 34.503998L 52.548 15.8L 47.748001 15.8C 47.202538 15.807907 46.726841 15.430861 46.610001 14.898001C 46.180508 12.702247 44.256363 11.118 42.018997 11.118C 39.781635 11.118 37.857491 12.702247 37.428001 14.898C 37.31131 15.430117 36.836716 15.80695 36.292 15.8L 31.492001 15.8L 31.492001 20.6C 31.484468 21.14559 31.862654 21.620831 32.396004 21.736C 34.590385 22.167656 36.172707 24.09156 36.172707 26.327999C 36.172707 28.564438 34.590385 30.488342 32.396 30.92C 31.862215 31.034468 31.483685 31.510143 31.492002 32.056L 31.492001 36.856003L 36.169998 36.856003M 11.076 36.844002L 31.511999 36.844002L 31.511999 32.043999C 31.506641 31.496035 31.888027 31.020138 32.424 30.906C 34.617355 30.474449 36.198902 28.551409 36.198902 26.316C 36.198902 24.080589 34.617355 22.157551 32.424 21.726C 31.889185 21.61092 31.509466 21.135015 31.515999 20.587999L 31.516001 15.8L 26.716 15.8C 26.17757 15.7873 25.704483 16.155069 25.584 16.68C 25.331177 18.002155 24.521057 19.151325 23.360741 19.833729C 22.20042 20.516134 20.802376 20.66563 19.523998 20.243999C 17.93491 19.667068 16.751625 18.317009 16.388 16.666C 16.258062 16.150002 15.790039 15.791321 15.258 15.8L 11 15.8Z"></path></g></g></g><g id="g-root-hand_djtiahswnton-stroke" data-item-order="1000000000" transform="translate(254, 110)"><g id="hand_djtiahswnton-stroke" fill="none" stroke-linecap="round" stroke-linejoin="round" stroke-miterlimit="4" stroke="#dd8433" stroke-width="2"><g><path d="M 40.620003 56.894001L 33.464001 46.153999C 30.622 41.813999 37.624001 40.354 40.863998 47.584L 40.863998 28.826C 40.874992 27.529968 41.929924 26.485756 43.226002 26.488001C 43.843906 26.48851 44.436035 26.735706 44.870892 27.174692C 45.305744 27.613678 45.547333 28.208117 45.542 28.826L 45.542 39.945999L 54.844002 42.625999C 56.375362 43.069363 57.292484 44.633041 56.932003 46.186001L 56.731998 47.043999L 54.942001 56.894001M 50.209999 36.844002C 51.502022 36.844002 52.549107 35.796021 52.548 34.503998L 52.548 15.8L 47.748001 15.8C 47.202538 15.807907 46.726841 15.430861 46.610001 14.898001C 46.180508 12.702247 44.256363 11.118 42.018997 11.118C 39.781635 11.118 37.857491 12.702247 37.428001 14.898C 37.31131 15.430117 36.836716 15.80695 36.292 15.8L 31.492001 15.8L 31.492001 20.6C 31.484468 21.14559 31.862654 21.620831 32.396004 21.736C 34.590385 22.167656 36.172707 24.09156 36.172707 26.327999C 36.172707 28.564438 34.590385 30.488342 32.396 30.92C 31.862215 31.034468 31.483685 31.510143 31.492002 32.056L 31.492001 36.856003L 36.169998 36.856003M 11.076 36.844002L 31.511999 36.844002L 31.511999 32.043999C 31.506641 31.496035 31.888027 31.020138 32.424 30.906C 34.617355 30.474449 36.198902 28.551409 36.198902 26.316C 36.198902 24.080589 34.617355 22.157551 32.424 21.726C 31.889185 21.61092 31.509466 21.135015 31.515999 20.587999L 31.516001 15.8L 26.716 15.8C 26.17757 15.7873 25.704483 16.155069 25.584 16.68C 25.331177 18.002155 24.521057 19.151325 23.360741 19.833729C 22.20042 20.516134 20.802376 20.66563 19.523998 20.243999C 17.93491 19.667068 16.751625 18.317009 16.388 16.666C 16.258062 16.150002 15.790039 15.791321 15.258 15.8L 11 15.8Z"></path></g></g></g><g id="g-root-tx_colabora_hs5r6hsw46py-stroke" data-item-order="1000000000" transform="translate(74, 86)"></g><g id="g-root-tx_colabora_hs5r6hsw46py-stroke" data-item-order="1000000000" transform="translate(74, 86)"></g><g id="g-root-tx_elemento_1lqirbtswi7t9-stroke" data-item-order="1000000000" transform="translate(225, 2)"></g><g id="g-root-1_1cuw6vtsw9rm7-stroke" data-item-order="1000000000" transform="translate(470, 110)"><g id="1_1cuw6vtsw9rm7-stroke" fill="none" stroke-linecap="round" stroke-linejoin="round" stroke-miterlimit="4" stroke="#3bc482" stroke-width="2"><g><path d="M 30 16C 30 18.209139 31.790861 20 34 20C 36.209137 20 38 18.209139 38 16C 38 13.790861 36.209137 12 34 12C 31.790861 12 30 13.790861 30 16M 30 52C 30 54.209141 31.790861 56 34 56C 36.209137 56 38 54.209141 38 52C 38 49.790859 36.209137 48 34 48C 31.790861 48 30 49.790859 30 52M 48 34C 48 36.209137 49.790859 38 52 38C 54.209141 38 56 36.209137 56 34C 56 31.790861 54.209141 30 52 30C 49.790859 30 48 31.790861 48 34M 12 34C 12 36.209137 13.790861 38 16 38C 18.209139 38 20 36.209137 20 34C 20 31.790861 18.209139 30 16 30C 13.790861 30 12 31.790861 12 34M 34 20L 34 48M 20 34L 48 34M 42.720001 46.720001C 42.720001 48.929138 44.51086 50.720001 46.720001 50.720001C 48.929138 50.720001 50.720001 48.929138 50.720001 46.720001C 50.720001 44.51086 48.929138 42.720001 46.720001 42.720001C 44.51086 42.720001 42.720001 44.51086 42.720001 46.720001M 17.280001 21.279999C 17.280001 23.48914 19.070862 25.279999 21.279999 25.279999C 23.48914 25.279999 25.279999 23.48914 25.279999 21.279999C 25.279999 19.070862 23.48914 17.280001 21.279999 17.280001C 19.070862 17.280001 17.280001 19.070862 17.280001 21.279999M 24.1 24.1L 30 30M 38 38L 43.900002 43.900002M 42.720001 21.279999C 42.720001 23.48914 44.51086 25.279999 46.720001 25.279999C 48.929138 25.279999 50.720001 23.48914 50.720001 21.279999C 50.720001 19.070862 48.929138 17.280001 46.720001 17.280001C 44.51086 17.280001 42.720001 19.070862 42.720001 21.279999M 17.280001 46.720001C 17.280001 48.929138 19.070862 50.720001 21.279999 50.720001C 23.48914 50.720001 25.279999 48.929138 25.279999 46.720001C 25.279999 44.51086 23.48914 42.720001 21.279999 42.720001C 19.070862 42.720001 17.280001 44.51086 17.280001 46.720001M 38 30L 43.900002 24.1M 24.1 43.900002L 30 38"></path></g></g></g><g id="g-root-tx_establec_1lpwt7dsw4550-stroke" data-item-order="1000000000" transform="translate(566, 122)"></g><g id="g-root-tx_establec_1lpwt7dsw4550-stroke" data-item-order="1000000000" transform="translate(566, 122)"></g><g id="g-root-phon_1utnzkpsw2qrk-stroke" data-item-order="1000000000" transform="translate(338, 194)"><g id="phon_1utnzkpsw2qrk-stroke" fill="none" stroke-linecap="round" stroke-linejoin="round" stroke-miterlimit="4" stroke="#888888" stroke-width="2"><g><path d="M 78 60L 94 60M 50 88L 50 100C 50 102.209137 48.209141 104 46 104L 26 104C 23.790861 104 22 102.209137 22 100L 22 68C 22 65.790863 23.790861 64 26 64L 32 64M 22 96L 50 96M 42 56L 42 18C 42 14.686292 44.686291 12 48 12L 88 12C 91.313713 12 94 14.686292 94 18L 94 66C 94 69.313705 91.313713 72 88 72L 62 72M 66 52L 38 80M 54 52L 66 52L 66 64M 38 68L 38 80L 50 80"></path></g></g></g><g id="g-root-phon_1utnzkpsw2qrk-stroke" data-item-order="1000000000" transform="translate(338, 194)"><g id="phon_1utnzkpsw2qrk-stroke" fill="none" stroke-linecap="round" stroke-linejoin="round" stroke-miterlimit="4" stroke="#888888" stroke-width="2"><g><path d="M 78 60L 94 60M 50 88L 50 100C 50 102.209137 48.209141 104 46 104L 26 104C 23.790861 104 22 102.209137 22 100L 22 68C 22 65.790863 23.790861 64 26 64L 32 64M 22 96L 50 96M 42 56L 42 18C 42 14.686292 44.686291 12 48 12L 88 12C 91.313713 12 94 14.686292 94 18L 94 66C 94 69.313705 91.313713 72 88 72L 62 72M 66 52L 38 80M 54 52L 66 52L 66 64M 38 68L 38 80L 50 80"></path></g></g></g><g id="g-root-tx_flujoden_zital5sw47il-stroke" data-item-order="1000000000" transform="translate(566, 278)"></g><g id="g-root-tx_flujoden_zital5sw47il-stroke" data-item-order="1000000000" transform="translate(566, 278)"></g><g id="g-root-tx_maquetas_4hbpw9sw4553-stroke" data-item-order="1000000000" transform="translate(2, 302)"></g><g id="g-root-tx_maquetas_4hbpw9sw4553-stroke" data-item-order="1000000000" transform="translate(2, 302)"></g><g id="g-root-tx_defineel_dl2w9lsw2qrn-stroke" data-item-order="1000000000" transform="translate(566, 338)"></g><g id="g-root-tx_guasdedi_1q6z9i1sw46iw-stroke" data-item-order="1000000000" transform="translate(566, 86)"></g><g id="g-root-tx_guasdedi_1q6z9i1sw46iw-stroke" data-item-order="1000000000" transform="translate(566, 86)"></g><g id="g-root-tx_proporci_vbqfo9sw2rka-stroke" data-item-order="1000000000" transform="translate(62, 338)"></g><g id="g-root-1_htefvdsw9tsa-stroke" data-item-order="1000000000" transform="translate(254, 326)"><g id="1_htefvdsw9tsa-stroke" fill="none" stroke-linecap="round" stroke-linejoin="round" stroke-miterlimit="4" stroke="#93c131" stroke-width="2"><g><path d="M 39.142857 37.428574L 28.857143 39.279999L 30.571428 28.857143L 46.78857 12.708571C 47.432343 12.0595 48.308674 11.694406 49.222855 11.694406C 50.137043 11.694406 51.013374 12.0595 51.657143 12.708571L 55.291428 16.342857C 55.940502 16.986629 56.305595 17.862957 56.305595 18.777143C 56.305595 19.691328 55.940502 20.567657 55.291428 21.211428ZM 46 42.57143L 46 52.857143C 46 54.750694 44.464977 56.285713 42.57143 56.285713L 15.142858 56.285713C 13.24931 56.285713 11.714286 54.750694 11.714286 52.857143L 11.714286 15.142858C 11.714286 13.24931 13.24931 11.714286 15.142858 11.714286L 34 11.714286M 26.285715 47.714287L 31.428572 47.714287"></path></g></g></g><g id="g-root-1_1uljn4psw6yvj-stroke" data-item-order="1000000000" transform="translate(470, 326)"><g id="1_1uljn4psw6yvj-stroke" fill="none" stroke-linecap="round" stroke-linejoin="round" stroke-miterlimit="4" stroke="#17b0e3" stroke-width="2"><g><path d="M 29 48.987999L 29 53.938C 29.000668 54.320091 29.219004 54.668404 29.562605 54.835526C 29.906208 55.002647 30.31501 54.95937 30.615999 54.723999L 56 34.779999C 56.241051 34.590401 56.381775 34.300682 56.381775 33.993999C 56.381775 33.687321 56.241051 33.397598 56 33.208L 30.615999 13.266C 30.31501 13.030632 29.906208 12.98735 29.562605 13.154474C 29.219004 13.321598 29.000668 13.66991 29 14.052L 29 18.987999M 13 53.936001C 13.000667 54.318089 13.219004 54.666401 13.562606 54.833527C 13.906208 55.000648 14.31501 54.957367 14.616 54.722L 40 34.779999C 40.241051 34.590401 40.381775 34.300682 40.381775 33.993999C 40.381775 33.687321 40.241051 33.397598 40 33.208L 14.616 13.266C 14.31501 13.030632 13.906208 12.98735 13.562606 13.154474C 13.219004 13.321598 13.000667 13.66991 13 14.052L 13 53.936001Z"></path></g></g></g><g id="g-root-1_1cuw6vtsw9rm7-stroke" data-item-order="1000000000" transform="translate(470, 110)"><g id="1_1cuw6vtsw9rm7-stroke" fill="none" stroke-linecap="round" stroke-linejoin="round" stroke-miterlimit="4" stroke="#3bc482" stroke-width="2"><g><path d="M 30 16C 30 18.209139 31.790861 20 34 20C 36.209137 20 38 18.209139 38 16C 38 13.790861 36.209137 12 34 12C 31.790861 12 30 13.790861 30 16M 30 52C 30 54.209141 31.790861 56 34 56C 36.209137 56 38 54.209141 38 52C 38 49.790859 36.209137 48 34 48C 31.790861 48 30 49.790859 30 52M 48 34C 48 36.209137 49.790859 38 52 38C 54.209141 38 56 36.209137 56 34C 56 31.790861 54.209141 30 52 30C 49.790859 30 48 31.790861 48 34M 12 34C 12 36.209137 13.790861 38 16 38C 18.209139 38 20 36.209137 20 34C 20 31.790861 18.209139 30 16 30C 13.790861 30 12 31.790861 12 34M 34 20L 34 48M 20 34L 48 34M 42.720001 46.720001C 42.720001 48.929138 44.51086 50.720001 46.720001 50.720001C 48.929138 50.720001 50.720001 48.929138 50.720001 46.720001C 50.720001 44.51086 48.929138 42.720001 46.720001 42.720001C 44.51086 42.720001 42.720001 44.51086 42.720001 46.720001M 17.280001 21.279999C 17.280001 23.48914 19.070862 25.279999 21.279999 25.279999C 23.48914 25.279999 25.279999 23.48914 25.279999 21.279999C 25.279999 19.070862 23.48914 17.280001 21.279999 17.280001C 19.070862 17.280001 17.280001 19.070862 17.280001 21.279999M 24.1 24.1L 30 30M 38 38L 43.900002 43.900002M 42.720001 21.279999C 42.720001 23.48914 44.51086 25.279999 46.720001 25.279999C 48.929138 25.279999 50.720001 23.48914 50.720001 21.279999C 50.720001 19.070862 48.929138 17.280001 46.720001 17.280001C 44.51086 17.280001 42.720001 19.070862 42.720001 21.279999M 17.280001 46.720001C 17.280001 48.929138 19.070862 50.720001 21.279999 50.720001C 23.48914 50.720001 25.279999 48.929138 25.279999 46.720001C 25.279999 44.51086 23.48914 42.720001 21.279999 42.720001C 19.070862 42.720001 17.280001 44.51086 17.280001 46.720001M 38 30L 43.900002 24.1M 24.1 43.900002L 30 38"></path></g></g></g></g></g></svg>