<?xml version="1.0" encoding="utf-8" standalone="yes"?>
<!DOCTYPE svg PUBLIC "-//W3C//DTD SVG 1.1//EN" "http://www.w3.org/Graphics/SVG/1.1/DTD/svg11.dtd">
<svg width="684" height="504" viewBox="0 0 684 504" style="fill:none;stroke:none;fill-rule:evenodd;clip-rule:evenodd;stroke-linecap:round;stroke-linejoin:round;stroke-miterlimit:1.5;" version="1.1" xmlns="http://www.w3.org/2000/svg" xmlns:xlink="http://www.w3.org/1999/xlink"><style id="fontImports">@import url("https://fonts.googleapis.com/css2?family=Roboto:wght@400;700&amp;display=block");</style><g id="items" style="isolation: isolate"><g id="blend" style="mix-blend-mode:normal"><g id="g-root-5.cr-small-5_cr_147dpbttg1xce-fill" data-item-order="999886203" transform="translate(161.1328125, 162.025146484375)"><g id="5.cr-small-5_cr_147dpbttg1xce-fill" stroke="none" fill="#ffe7e6"><g><path d="M 10 46C 10 65.882251 26.117749 82 46 82C 65.882251 82 82 65.882251 82 46C 82 26.117749 65.882251 10 46 10C 26.117749 10 10 26.117749 10 46"></path></g></g></g><g id="g-root-5.cr-small-5_cr_147dpbttg1xce-fill" data-item-order="999886203" transform="translate(161.1328125, 162.025146484375)"><g id="5.cr-small-5_cr_147dpbttg1xce-fill" stroke="none" fill="#ffe7e6"><g><path d="M 10 46C 10 65.882251 26.117749 82 46 82C 65.882251 82 82 65.882251 82 46C 82 26.117749 65.882251 10 46 10C 26.117749 10 10 26.117749 10 46"></path></g></g></g><g id="g-root-5.line_sy_zrk77dtg1y4n-fill" data-item-order="999886208" transform="translate(188.130126953125, 247.31689453125)"></g><g id="g-root-5.line_sy_zrk77dtg1y4n-fill" data-item-order="999886208" transform="translate(188.130126953125, 247.31689453125)"></g><g id="g-root-4.cr-small-4_cr_zrk77dtg1y4o-fill" data-item-order="999886211" transform="translate(211.375, 322.9501953125)"><g id="4.cr-small-4_cr_zrk77dtg1y4o-fill" stroke="none" fill="#fef2e6"><g><path d="M 10 46C 10 65.882251 26.117749 82 46 82C 65.882251 82 82 65.882251 82 46C 82 26.117749 65.882251 10 46 10C 26.117749 10 10 26.117749 10 46"></path></g></g></g><g id="g-root-4.cr-small-4_cr_zrk77dtg1y4o-fill" data-item-order="999886211" transform="translate(211.375, 322.9501953125)"><g id="4.cr-small-4_cr_zrk77dtg1y4o-fill" stroke="none" fill="#fef2e6"><g><path d="M 10 46C 10 65.882251 26.117749 82 46 82C 65.882251 82 82 65.882251 82 46C 82 26.117749 65.882251 10 46 10C 26.117749 10 10 26.117749 10 46"></path></g></g></g><g id="g-root-4.line_sy_vbqp2xtg1ywx-fill" data-item-order="999886216" transform="translate(292.4609375, 380.5267333984375)"></g><g id="g-root-4.line_sy_vbqp2xtg1ywx-fill" data-item-order="999886216" transform="translate(292.4609375, 380.5267333984375)"></g><g id="g-root-3.cr-small-3_cr_vbqp2xtg1ywy-fill" data-item-order="999886219" transform="translate(380.5625, 322.9501953125)"><g id="3.cr-small-3_cr_vbqp2xtg1ywy-fill" stroke="none" fill="#fffce6"><g><path d="M 10 46C 10 65.882251 26.117749 82 46 82C 65.882251 82 82 65.882251 82 46C 82 26.117749 65.882251 10 46 10C 26.117749 10 10 26.117749 10 46"></path></g></g></g><g id="g-root-3.cr-small-3_cr_vbqp2xtg1ywy-fill" data-item-order="999886219" transform="translate(380.5625, 322.9501953125)"><g id="3.cr-small-3_cr_vbqp2xtg1ywy-fill" stroke="none" fill="#fffce6"><g><path d="M 10 46C 10 65.882251 26.117749 82 46 82C 65.882251 82 82 65.882251 82 46C 82 26.117749 65.882251 10 46 10C 26.117749 10 10 26.117749 10 46"></path></g></g></g><g id="g-root-3.line_sy_vbqp2xtg1ywz-fill" data-item-order="999886224" transform="translate(451.2607421875, 245.5068359375)"></g><g id="g-root-3.line_sy_vbqp2xtg1ywz-fill" data-item-order="999886224" transform="translate(451.2607421875, 245.5068359375)"></g><g id="g-root-2.cr-small-2_cr_mg3ou1tg1zpo-fill" data-item-order="999886227" transform="translate(430.9345703125, 162.025146484375)"><g id="2.cr-small-2_cr_mg3ou1tg1zpo-fill" stroke="none" fill="#f5fbe9"><g><path d="M 10 46C 10 65.882251 26.117749 82 46 82C 65.882251 82 82 65.882251 82 46C 82 26.117749 65.882251 10 46 10C 26.117749 10 10 26.117749 10 46"></path></g></g></g><g id="g-root-2.cr-small-2_cr_mg3ou1tg1zpo-fill" data-item-order="999886227" transform="translate(430.9345703125, 162.025146484375)"><g id="2.cr-small-2_cr_mg3ou1tg1zpo-fill" stroke="none" fill="#f5fbe9"><g><path d="M 10 46C 10 65.882251 26.117749 82 46 82C 65.882251 82 82 65.882251 82 46C 82 26.117749 65.882251 10 46 10C 26.117749 10 10 26.117749 10 46"></path></g></g></g><g id="g-root-2.line_sy_i0wnsptg1xc5-fill" data-item-order="999886232" transform="translate(379.900390625, 106.64697265625)"></g><g id="g-root-2.line_sy_i0wnsptg1xc5-fill" data-item-order="999886232" transform="translate(379.900390625, 106.64697265625)"></g><g id="g-root-2.line-start_sy_i0wnsptg1xc6-fill" data-item-order="999886234" transform="translate(435.38995361328125, 143.4407958984375)"></g><g id="g-root-2.line-start_sy_i0wnsptg1xc6-fill" data-item-order="999886234" transform="translate(435.38995361328125, 143.4407958984375)"></g><g id="g-root-1.cr-small-1_cr_i0wnsptg1xc7-fill" data-item-order="999886237" transform="translate(296, 62)"><g id="1.cr-small-1_cr_i0wnsptg1xc7-fill" stroke="none" fill="#e9fbf3"><g><path d="M 10 46C 10 65.882251 26.117749 82 46 82C 65.882251 82 82 65.882251 82 46C 82 26.117749 65.882251 10 46 10C 26.117749 10 10 26.117749 10 46"></path></g></g></g><g id="g-root-1.cr-small-1_cr_i0wnsptg1xc7-fill" data-item-order="999886237" transform="translate(296, 62)"><g id="1.cr-small-1_cr_i0wnsptg1xc7-fill" stroke="none" fill="#e9fbf3"><g><path d="M 10 46C 10 65.882251 26.117749 82 46 82C 65.882251 82 82 65.882251 82 46C 82 26.117749 65.882251 10 46 10C 26.117749 10 10 26.117749 10 46"></path></g></g></g><g id="g-root-1.line_sy_i0wnsptg1xc8-fill" data-item-order="999886242" transform="translate(217.900390625, 106.99688720703125)"></g><g id="g-root-1.line_sy_i0wnsptg1xc8-fill" data-item-order="999886242" transform="translate(217.900390625, 106.99688720703125)"></g><g id="g-root-0.cr-big_cr_dl35o9tg1y4h-fill" data-item-order="999886287" transform="translate(248, 158)"><g id="0.cr-big_cr_dl35o9tg1y4h-fill" stroke="none" fill="#f6f6f6"><g><path d="M 10 94C 10.000002 140.391921 47.608083 178.000002 94.000002 178.000002C 140.391921 178.000002 178.000002 140.391921 178.000002 94.000002C 178.000002 47.608083 140.391921 10.000002 94.000002 10.000002C 47.608083 10.000002 10.000002 47.608083 10.000002 94.000002"></path></g></g></g><g id="g-root-0.cr-big_cr_dl35o9tg1y4h-fill" data-item-order="999886287" transform="translate(248, 158)"><g id="0.cr-big_cr_dl35o9tg1y4h-fill" stroke="none" fill="#f6f6f6"><g><path d="M 10 94C 10.000002 140.391921 47.608083 178.000002 94.000002 178.000002C 140.391921 178.000002 178.000002 140.391921 178.000002 94.000002C 178.000002 47.608083 140.391921 10.000002 94.000002 10.000002C 47.608083 10.000002 10.000002 47.608083 10.000002 94.000002"></path></g></g></g><g id="g-root-4_18kpb3ttgemmc-fill" data-item-order="1000000000" transform="translate(443, 174)"></g><g id="g-root-4_18kpb3ttgemmc-fill" data-item-order="1000000000" transform="translate(443, 174)"></g><g id="g-root-tx_arquitec_18egk8ptg3e2t-fill" data-item-order="1000000000" transform="translate(518, 176)"><g id="tx_arquitec_18egk8ptg3e2t-fill" stroke="none" fill="#484848"><g><text style="font: 20px &quot;Roboto&quot;, sans-serif; white-space: pre;" font-size="20px" font-family="'Roboto', sans-serif"><tspan x="12" y="34" dominant-baseline="ideographic">Arquitectura de </tspan><tspan x="12" y="58" dominant-baseline="ideographic">la Información</tspan></text></g></g></g><g id="g-root-tx_arquitec_18egk8ptg3e2t-fill" data-item-order="1000000000" transform="translate(518, 176)"><g id="tx_arquitec_18egk8ptg3e2t-fill" stroke="none" fill="#484848"><g><text style="font: 20px &quot;Roboto&quot;, sans-serif; white-space: pre;" font-size="20px" font-family="'Roboto', sans-serif"><tspan x="12" y="34" dominant-baseline="ideographic">Arquitectura de </tspan><tspan x="12" y="58" dominant-baseline="ideographic">la Información</tspan></text></g></g></g><g id="g-root-hand_v98vw9tg4s9a-fill" data-item-order="1000000000" transform="translate(302, 182)"></g><g id="g-root-hand_v98vw9tg4s9a-fill" data-item-order="1000000000" transform="translate(302, 182)"></g><g id="g-root-forw_1hi7qm1tg7kek-fill" data-item-order="1000000000" transform="translate(173, 174)"></g><g id="g-root-forw_1hi7qm1tg7kek-fill" data-item-order="1000000000" transform="translate(173, 174)"></g><g id="g-root-tx_diseoux_1uuaq2htgiubt-fill" data-item-order="1000000000" transform="translate(284.0009765625, 266.0098876953125)"><g id="tx_diseoux_1uuaq2htgiubt-fill" stroke="none" fill="#888888"><g><text style="font: 20px &quot;Roboto&quot;, sans-serif; white-space: pre;" font-size="20px" font-family="'Roboto', sans-serif"><tspan x="12.12" y="34" dominant-baseline="ideographic">Diseño UX</tspan></text></g></g></g><g id="g-root-tx_diseoux_1uuaq2htgiubt-fill" data-item-order="1000000000" transform="translate(284.0009765625, 266.0098876953125)"><g id="tx_diseoux_1uuaq2htgiubt-fill" stroke="none" fill="#888888"><g><text style="font: 20px &quot;Roboto&quot;, sans-serif; white-space: pre;" font-size="20px" font-family="'Roboto', sans-serif"><tspan x="12.12" y="34" dominant-baseline="ideographic">Diseño UX</tspan></text></g></g></g><g id="g-root-tx_mejoraba_dl35o9tg1y4i-fill" data-item-order="1000000000" transform="translate(2, 176)"><g id="tx_mejoraba_dl35o9tg1y4i-fill" stroke="none" fill="#484848"><g><text style="font: 20px &quot;Roboto&quot;, sans-serif; white-space: pre;" font-size="20px" font-family="'Roboto', sans-serif"><tspan x="18.83" y="34" dominant-baseline="ideographic">Mejora Basada </tspan><tspan x="39.38" y="58" dominant-baseline="ideographic">en Feedback</tspan></text></g></g></g><g id="g-root-tx_mejoraba_dl35o9tg1y4i-fill" data-item-order="1000000000" transform="translate(2, 176)"><g id="tx_mejoraba_dl35o9tg1y4i-fill" stroke="none" fill="#484848"><g><text style="font: 20px &quot;Roboto&quot;, sans-serif; white-space: pre;" font-size="20px" font-family="'Roboto', sans-serif"><tspan x="18.83" y="34" dominant-baseline="ideographic">Mejora Basada </tspan><tspan x="39.38" y="58" dominant-baseline="ideographic">en Feedback</tspan></text></g></g></g><g id="g-root-view_dkgol5tgis5r-fill" data-item-order="1000000000" transform="translate(308, 74)"></g><g id="g-root-view_dkgol5tgis5r-fill" data-item-order="1000000000" transform="translate(308, 74)"></g><g id="g-root-chec_qp1z09tgaebt-fill" data-item-order="1000000000" transform="translate(224, 335)"></g><g id="g-root-chec_qp1z09tgaebt-fill" data-item-order="1000000000" transform="translate(224, 335)"></g><g id="g-root-tx_diseocen_1cua2d5tg3dak-fill" data-item-order="1000000000" transform="translate(416, 410)"><g id="tx_diseocen_1cua2d5tg3dak-fill" stroke="none" fill="#484848"><g><text style="font: 20px &quot;Roboto&quot;, sans-serif; white-space: pre;" font-size="20px" font-family="'Roboto', sans-serif"><tspan x="12" y="34" dominant-baseline="ideographic">Diseño </tspan><tspan x="12" y="58" dominant-baseline="ideographic">Centrado en el </tspan><tspan x="12" y="82" dominant-baseline="ideographic">Usuario</tspan></text></g></g></g><g id="g-root-circ_1hbcinttgbsi7-fill" data-item-order="1000000000" transform="translate(392, 335)"></g><g id="g-root-tx_investig_v3miyhtg3chy-fill" data-item-order="1000000000" transform="translate(266, 2)"><g id="tx_investig_v3miyhtg3chy-fill" stroke="none" fill="#484848"><g><text style="font: 20px &quot;Roboto&quot;, sans-serif; white-space: pre;" font-size="20px" font-family="'Roboto', sans-serif"><tspan x="14.43" y="34" dominant-baseline="ideographic">Investigación </tspan><tspan x="20.85" y="58" dominant-baseline="ideographic">de Usuarios</tspan></text></g></g></g><g id="g-root-tx_pruebasd_1q5qkqhtg3bpn-fill" data-item-order="1000000000" transform="translate(140, 410)"><g id="tx_pruebasd_1q5qkqhtg3bpn-fill" stroke="none" fill="#484848"><g><text style="font: 20px &quot;Roboto&quot;, sans-serif; white-space: pre;" font-size="20px" font-family="'Roboto', sans-serif"><tspan x="15.73" y="34" dominant-baseline="ideographic">Pruebas de </tspan><tspan x="22.62" y="58" dominant-baseline="ideographic">Usabilidad</tspan></text></g></g></g><g id="g-root-tx_pruebasd_1q5qkqhtg3bpn-fill" data-item-order="1000000000" transform="translate(140, 410)"><g id="tx_pruebasd_1q5qkqhtg3bpn-fill" stroke="none" fill="#484848"><g><text style="font: 20px &quot;Roboto&quot;, sans-serif; white-space: pre;" font-size="20px" font-family="'Roboto', sans-serif"><tspan x="15.73" y="34" dominant-baseline="ideographic">Pruebas de </tspan><tspan x="22.62" y="58" dominant-baseline="ideographic">Usabilidad</tspan></text></g></g></g><g id="g-root-tx_diseocen_1cua2d5tg3dak-fill" data-item-order="1000000000" transform="translate(416, 410)"><g id="tx_diseocen_1cua2d5tg3dak-fill" stroke="none" fill="#484848"><g><text style="font: 20px &quot;Roboto&quot;, sans-serif; white-space: pre;" font-size="20px" font-family="'Roboto', sans-serif"><tspan x="12" y="34" dominant-baseline="ideographic">Diseño </tspan><tspan x="12" y="58" dominant-baseline="ideographic">Centrado en el </tspan><tspan x="12" y="82" dominant-baseline="ideographic">Usuario</tspan></text></g></g></g><g id="g-root-tx_investig_v3miyhtg3chy-fill" data-item-order="1000000000" transform="translate(266, 2)"><g id="tx_investig_v3miyhtg3chy-fill" stroke="none" fill="#484848"><g><text style="font: 20px &quot;Roboto&quot;, sans-serif; white-space: pre;" font-size="20px" font-family="'Roboto', sans-serif"><tspan x="14.43" y="34" dominant-baseline="ideographic">Investigación </tspan><tspan x="20.85" y="58" dominant-baseline="ideographic">de Usuarios</tspan></text></g></g></g><g id="g-root-circ_1hbcinttgbsi7-fill" data-item-order="1000000000" transform="translate(392, 335)"></g><g id="g-root-5.cr-small-5_cr_147dpbttg1xce-stroke" data-item-order="999886203" transform="translate(161.1328125, 162.025146484375)"><g id="5.cr-small-5_cr_147dpbttg1xce-stroke" fill="none" stroke-linecap="round" stroke-linejoin="round" stroke-miterlimit="4" stroke="#e15e5a" stroke-width="2"><g><path d="M 10 46C 10 65.882251 26.117749 82 46 82C 65.882251 82 82 65.882251 82 46C 82 26.117749 65.882251 10 46 10C 26.117749 10 10 26.117749 10 46"></path></g></g></g><g id="g-root-5.cr-small-5_cr_147dpbttg1xce-stroke" data-item-order="999886203" transform="translate(161.1328125, 162.025146484375)"><g id="5.cr-small-5_cr_147dpbttg1xce-stroke" fill="none" stroke-linecap="round" stroke-linejoin="round" stroke-miterlimit="4" stroke="#e15e5a" stroke-width="2"><g><path d="M 10 46C 10 65.882251 26.117749 82 46 82C 65.882251 82 82 65.882251 82 46C 82 26.117749 65.882251 10 46 10C 26.117749 10 10 26.117749 10 46"></path></g></g></g><g id="g-root-5.line_sy_zrk77dtg1y4n-stroke" data-item-order="999886208" transform="translate(188.130126953125, 247.31689453125)"><g id="5.line_sy_zrk77dtg1y4n-stroke" fill="none" stroke-linecap="round" stroke-linejoin="round" stroke-miterlimit="4" stroke="#484848" stroke-width="2"><g><path d="M 10.079895 11.933105C 11.359895 39.913105 20.639895 65.793105 35.669895 87.383105"></path><path d="M 17.079895 17.533105L 10.079895 11.533105L 4.079895 18.433105" stroke-dasharray="none"></path></g></g></g><g id="g-root-5.line_sy_zrk77dtg1y4n-stroke" data-item-order="999886208" transform="translate(188.130126953125, 247.31689453125)"><g id="5.line_sy_zrk77dtg1y4n-stroke" fill="none" stroke-linecap="round" stroke-linejoin="round" stroke-miterlimit="4" stroke="#484848" stroke-width="2"><g><path d="M 10.079895 11.933105C 11.359895 39.913105 20.639895 65.793105 35.669895 87.383105"></path><path d="M 17.079895 17.533105L 10.079895 11.533105L 4.079895 18.433105" stroke-dasharray="none"></path></g></g></g><g id="g-root-4.cr-small-4_cr_zrk77dtg1y4o-stroke" data-item-order="999886211" transform="translate(211.375, 322.9501953125)"><g id="4.cr-small-4_cr_zrk77dtg1y4o-stroke" fill="none" stroke-linecap="round" stroke-linejoin="round" stroke-miterlimit="4" stroke="#dd8433" stroke-width="2"><g><path d="M 10 46C 10 65.882251 26.117749 82 46 82C 65.882251 82 82 65.882251 82 46C 82 26.117749 65.882251 10 46 10C 26.117749 10 10 26.117749 10 46"></path></g></g></g><g id="g-root-4.cr-small-4_cr_zrk77dtg1y4o-stroke" data-item-order="999886211" transform="translate(211.375, 322.9501953125)"><g id="4.cr-small-4_cr_zrk77dtg1y4o-stroke" fill="none" stroke-linecap="round" stroke-linejoin="round" stroke-miterlimit="4" stroke="#dd8433" stroke-width="2"><g><path d="M 10 46C 10 65.882251 26.117749 82 46 82C 65.882251 82 82 65.882251 82 46C 82 26.117749 65.882251 10 46 10C 26.117749 10 10 26.117749 10 46"></path></g></g></g><g id="g-root-4.line_sy_vbqp2xtg1ywx-stroke" data-item-order="999886216" transform="translate(292.4609375, 380.5267333984375)"><g id="4.line_sy_vbqp2xtg1ywx-stroke" fill="none" stroke-linecap="round" stroke-linejoin="round" stroke-miterlimit="4" stroke="#484848" stroke-width="2"><g><path d="M 11.999023 11.003296C 23.979023 14.233296 36.589023 15.973296 49.589023 15.973296C 63.319023 15.973296 77.679023 13.883296 90.709023 10.003296"></path><path d="M 19.299023 6.003296L 11.499023 10.803296L 16.299023 18.603296" stroke-dasharray="none"></path></g></g></g><g id="g-root-4.line_sy_vbqp2xtg1ywx-stroke" data-item-order="999886216" transform="translate(292.4609375, 380.5267333984375)"><g id="4.line_sy_vbqp2xtg1ywx-stroke" fill="none" stroke-linecap="round" stroke-linejoin="round" stroke-miterlimit="4" stroke="#484848" stroke-width="2"><g><path d="M 11.999023 11.003296C 23.979023 14.233296 36.589023 15.973296 49.589023 15.973296C 63.319023 15.973296 77.679023 13.883296 90.709023 10.003296"></path><path d="M 19.299023 6.003296L 11.499023 10.803296L 16.299023 18.603296" stroke-dasharray="none"></path></g></g></g><g id="g-root-3.cr-small-3_cr_vbqp2xtg1ywy-stroke" data-item-order="999886219" transform="translate(380.5625, 322.9501953125)"><g id="3.cr-small-3_cr_vbqp2xtg1ywy-stroke" fill="none" stroke-linecap="round" stroke-linejoin="round" stroke-miterlimit="4" stroke="#e3cd09" stroke-width="2"><g><path d="M 10 46C 10 65.882251 26.117749 82 46 82C 65.882251 82 82 65.882251 82 46C 82 26.117749 65.882251 10 46 10C 26.117749 10 10 26.117749 10 46"></path></g></g></g><g id="g-root-3.cr-small-3_cr_vbqp2xtg1ywy-stroke" data-item-order="999886219" transform="translate(380.5625, 322.9501953125)"><g id="3.cr-small-3_cr_vbqp2xtg1ywy-stroke" fill="none" stroke-linecap="round" stroke-linejoin="round" stroke-miterlimit="4" stroke="#e3cd09" stroke-width="2"><g><path d="M 10 46C 10 65.882251 26.117749 82 46 82C 65.882251 82 82 65.882251 82 46C 82 26.117749 65.882251 10 46 10C 26.117749 10 10 26.117749 10 46"></path></g></g></g><g id="g-root-3.line_sy_vbqp2xtg1ywz-stroke" data-item-order="999886224" transform="translate(451.2607421875, 245.5068359375)"><g id="3.line_sy_vbqp2xtg1ywz-stroke" fill="none" stroke-linecap="round" stroke-linejoin="round" stroke-miterlimit="4" stroke="#484848" stroke-width="2"><g><path d="M 11.099243 86.133174C 25.549243 64.203174 34.169243 38.083174 34.739243 10.003174"></path><path d="M 8.699243 77.503174L 10.799243 86.503174L 19.699243 84.403174" stroke-dasharray="none"></path></g></g></g><g id="g-root-3.line_sy_vbqp2xtg1ywz-stroke" data-item-order="999886224" transform="translate(451.2607421875, 245.5068359375)"><g id="3.line_sy_vbqp2xtg1ywz-stroke" fill="none" stroke-linecap="round" stroke-linejoin="round" stroke-miterlimit="4" stroke="#484848" stroke-width="2"><g><path d="M 11.099243 86.133174C 25.549243 64.203174 34.169243 38.083174 34.739243 10.003174"></path><path d="M 8.699243 77.503174L 10.799243 86.503174L 19.699243 84.403174" stroke-dasharray="none"></path></g></g></g><g id="g-root-2.cr-small-2_cr_mg3ou1tg1zpo-stroke" data-item-order="999886227" transform="translate(430.9345703125, 162.025146484375)"><g id="2.cr-small-2_cr_mg3ou1tg1zpo-stroke" fill="none" stroke-linecap="round" stroke-linejoin="round" stroke-miterlimit="4" stroke="#93c131" stroke-width="2"><g><path d="M 10 46C 10 65.882251 26.117749 82 46 82C 65.882251 82 82 65.882251 82 46C 82 26.117749 65.882251 10 46 10C 26.117749 10 10 26.117749 10 46"></path></g></g></g><g id="g-root-2.cr-small-2_cr_mg3ou1tg1zpo-stroke" data-item-order="999886227" transform="translate(430.9345703125, 162.025146484375)"><g id="2.cr-small-2_cr_mg3ou1tg1zpo-stroke" fill="none" stroke-linecap="round" stroke-linejoin="round" stroke-miterlimit="4" stroke="#93c131" stroke-width="2"><g><path d="M 10 46C 10 65.882251 26.117749 82 46 82C 65.882251 82 82 65.882251 82 46C 82 26.117749 65.882251 10 46 10C 26.117749 10 10 26.117749 10 46"></path></g></g></g><g id="g-root-2.line_sy_i0wnsptg1xc5-stroke" data-item-order="999886232" transform="translate(379.900390625, 106.64697265625)"><g id="2.line_sy_i0wnsptg1xc5-stroke" fill="none" stroke-linecap="round" stroke-linejoin="round" stroke-miterlimit="4" stroke="#484848" stroke-width="2"><g><path d="M 74.299634 55.543052C 57.679634 34.913052 35.479634 18.973052 9.999634 10.003052"></path><path d="M 65.399634 55.203052L 74.599634 56.003052L 75.299634 46.803052" stroke-dasharray="none"></path></g></g></g><g id="g-root-2.line_sy_i0wnsptg1xc5-stroke" data-item-order="999886232" transform="translate(379.900390625, 106.64697265625)"><g id="2.line_sy_i0wnsptg1xc5-stroke" fill="none" stroke-linecap="round" stroke-linejoin="round" stroke-miterlimit="4" stroke="#484848" stroke-width="2"><g><path d="M 74.299634 55.543052C 57.679634 34.913052 35.479634 18.973052 9.999634 10.003052"></path><path d="M 65.399634 55.203052L 74.599634 56.003052L 75.299634 46.803052" stroke-dasharray="none"></path></g></g></g><g id="g-root-2.line-start_sy_i0wnsptg1xc6-stroke" data-item-order="999886234" transform="translate(435.38995361328125, 143.4407958984375)"><g id="2.line-start_sy_i0wnsptg1xc6-stroke" fill="none" stroke-linecap="round" stroke-linejoin="round" stroke-miterlimit="4" stroke="#484848" stroke-width="2"><g><path d="M 20.233429 10L 19.125366 19.125367L 10 18.017304"></path></g></g></g><g id="g-root-2.line-start_sy_i0wnsptg1xc6-stroke" data-item-order="999886234" transform="translate(435.38995361328125, 143.4407958984375)"><g id="2.line-start_sy_i0wnsptg1xc6-stroke" fill="none" stroke-linecap="round" stroke-linejoin="round" stroke-miterlimit="4" stroke="#484848" stroke-width="2"><g><path d="M 20.233429 10L 19.125366 19.125367L 10 18.017304"></path></g></g></g><g id="g-root-1.cr-small-1_cr_i0wnsptg1xc7-stroke" data-item-order="999886237" transform="translate(296, 62)"><g id="1.cr-small-1_cr_i0wnsptg1xc7-stroke" fill="none" stroke-linecap="round" stroke-linejoin="round" stroke-miterlimit="4" stroke="#3bc482" stroke-width="2"><g><path d="M 10 46C 10 65.882251 26.117749 82 46 82C 65.882251 82 82 65.882251 82 46C 82 26.117749 65.882251 10 46 10C 26.117749 10 10 26.117749 10 46"></path></g></g></g><g id="g-root-1.cr-small-1_cr_i0wnsptg1xc7-stroke" data-item-order="999886237" transform="translate(296, 62)"><g id="1.cr-small-1_cr_i0wnsptg1xc7-stroke" fill="none" stroke-linecap="round" stroke-linejoin="round" stroke-miterlimit="4" stroke="#3bc482" stroke-width="2"><g><path d="M 10 46C 10 65.882251 26.117749 82 46 82C 65.882251 82 82 65.882251 82 46C 82 26.117749 65.882251 10 46 10C 26.117749 10 10 26.117749 10 46"></path></g></g></g><g id="g-root-1.line_sy_i0wnsptg1xc8-stroke" data-item-order="999886242" transform="translate(217.900390625, 106.99688720703125)"><g id="1.line_sy_i0wnsptg1xc8-stroke" fill="none" stroke-linecap="round" stroke-linejoin="round" stroke-miterlimit="4" stroke="#484848" stroke-width="2"><g><path d="M 73.399603 10.703125C 48.109603 20.233125 26.209603 36.663125 9.999603 57.713125"></path><path d="M 70.399603 19.003125L 73.899603 10.603125L 65.399603 7.003125" stroke-dasharray="none"></path></g></g></g><g id="g-root-1.line_sy_i0wnsptg1xc8-stroke" data-item-order="999886242" transform="translate(217.900390625, 106.99688720703125)"><g id="1.line_sy_i0wnsptg1xc8-stroke" fill="none" stroke-linecap="round" stroke-linejoin="round" stroke-miterlimit="4" stroke="#484848" stroke-width="2"><g><path d="M 73.399603 10.703125C 48.109603 20.233125 26.209603 36.663125 9.999603 57.713125"></path><path d="M 70.399603 19.003125L 73.899603 10.603125L 65.399603 7.003125" stroke-dasharray="none"></path></g></g></g><g id="g-root-0.cr-big_cr_dl35o9tg1y4h-stroke" data-item-order="999886287" transform="translate(248, 158)"><g id="0.cr-big_cr_dl35o9tg1y4h-stroke" fill="none" stroke-linecap="round" stroke-linejoin="round" stroke-miterlimit="4" stroke="#888888" stroke-width="2"><g><path d="M 10 94C 10.000002 140.391921 47.608083 178.000002 94.000002 178.000002C 140.391921 178.000002 178.000002 140.391921 178.000002 94.000002C 178.000002 47.608083 140.391921 10.000002 94.000002 10.000002C 47.608083 10.000002 10.000002 47.608083 10.000002 94.000002"></path></g></g></g><g id="g-root-0.cr-big_cr_dl35o9tg1y4h-stroke" data-item-order="999886287" transform="translate(248, 158)"><g id="0.cr-big_cr_dl35o9tg1y4h-stroke" fill="none" stroke-linecap="round" stroke-linejoin="round" stroke-miterlimit="4" stroke="#888888" stroke-width="2"><g><path d="M 10 94C 10.000002 140.391921 47.608083 178.000002 94.000002 178.000002C 140.391921 178.000002 178.000002 140.391921 178.000002 94.000002C 178.000002 47.608083 140.391921 10.000002 94.000002 10.000002C 47.608083 10.000002 10.000002 47.608083 10.000002 94.000002"></path></g></g></g><g id="g-root-4_18kpb3ttgemmc-stroke" data-item-order="1000000000" transform="translate(443, 174)"><g id="4_18kpb3ttgemmc-stroke" fill="none" stroke-linecap="round" stroke-linejoin="round" stroke-miterlimit="4" stroke="#93c131" stroke-width="2"><g><path d="M 16.857143 18.571428C 16.857143 22.358524 19.927191 25.428572 23.714287 25.428572C 27.501381 25.428572 30.571428 22.358524 30.571428 18.571428C 30.571428 14.784333 27.501381 11.714286 23.714287 11.714286C 19.927191 11.714286 16.857143 14.784333 16.857143 18.571428M 16.857143 49.428574C 16.857143 53.215668 19.927191 56.285713 23.714287 56.285713C 27.501381 56.285713 30.571428 53.215668 30.571428 49.428574C 30.571428 45.641476 27.501381 42.57143 23.714287 42.57143C 19.927191 42.57143 16.857143 45.641476 16.857143 49.428574M 37.428574 35.714287C 37.428574 39.501381 40.498619 42.57143 44.285713 42.57143C 48.072811 42.57143 51.142857 39.501381 51.142857 35.714287C 51.142857 31.927191 48.072811 28.857143 44.285713 28.857143C 40.498619 28.857143 37.428574 31.927191 37.428574 35.714287M 23.714287 25.428572L 23.714287 42.57143M 37.428574 35.714287L 34 35.714287C 28.319357 35.714287 23.714287 31.109217 23.714287 25.428572"></path></g></g></g><g id="g-root-4_18kpb3ttgemmc-stroke" data-item-order="1000000000" transform="translate(443, 174)"><g id="4_18kpb3ttgemmc-stroke" fill="none" stroke-linecap="round" stroke-linejoin="round" stroke-miterlimit="4" stroke="#93c131" stroke-width="2"><g><path d="M 16.857143 18.571428C 16.857143 22.358524 19.927191 25.428572 23.714287 25.428572C 27.501381 25.428572 30.571428 22.358524 30.571428 18.571428C 30.571428 14.784333 27.501381 11.714286 23.714287 11.714286C 19.927191 11.714286 16.857143 14.784333 16.857143 18.571428M 16.857143 49.428574C 16.857143 53.215668 19.927191 56.285713 23.714287 56.285713C 27.501381 56.285713 30.571428 53.215668 30.571428 49.428574C 30.571428 45.641476 27.501381 42.57143 23.714287 42.57143C 19.927191 42.57143 16.857143 45.641476 16.857143 49.428574M 37.428574 35.714287C 37.428574 39.501381 40.498619 42.57143 44.285713 42.57143C 48.072811 42.57143 51.142857 39.501381 51.142857 35.714287C 51.142857 31.927191 48.072811 28.857143 44.285713 28.857143C 40.498619 28.857143 37.428574 31.927191 37.428574 35.714287M 23.714287 25.428572L 23.714287 42.57143M 37.428574 35.714287L 34 35.714287C 28.319357 35.714287 23.714287 31.109217 23.714287 25.428572"></path></g></g></g><g id="g-root-tx_arquitec_18egk8ptg3e2t-stroke" data-item-order="1000000000" transform="translate(518, 176)"></g><g id="g-root-tx_arquitec_18egk8ptg3e2t-stroke" data-item-order="1000000000" transform="translate(518, 176)"></g><g id="g-root-hand_v98vw9tg4s9a-stroke" data-item-order="1000000000" transform="translate(302, 182)"><g id="hand_v98vw9tg4s9a-stroke" fill="none" stroke-linecap="round" stroke-linejoin="round" stroke-miterlimit="4" stroke="#888888" stroke-width="2"><g><path d="M 65 68.75L 66.25 61.25C 66.393265 60.176319 65.784081 59.143799 64.775002 58.75L 53.724998 53.899998L 53.724998 43.125C 53.830734 41.946411 53.261696 40.809196 52.255005 40.187241C 51.248322 39.565281 49.976681 39.565281 48.969994 40.187241C 47.963306 40.809196 47.394264 41.946411 47.5 43.125L 47.5 62.975002L 43.200001 57.824997C 42.680344 57.199425 41.888874 56.865711 41.07819 56.930367C 40.267506 56.995018 39.538933 57.449966 39.125 58.150002C 38.644966 58.914204 38.644966 59.885796 39.125 60.650002L 43.625 68.850006M 21.25 53.75L 15 53.75C 12.928932 53.75 11.25 52.071072 11.25 50L 11.25 15C 11.25 12.928932 12.928932 11.25 15 11.25L 37.5 11.25C 39.571068 11.25 41.25 12.928932 41.25 15L 41.25 26.25M 11.25 46.25L 21.25 46.25M 33.75 33.75L 33.75 55M 48.75 11.25L 56.25 11.25C 56.25 11.25 58.75 11.25 58.75 13.75L 58.75 31.25C 58.75 31.25 58.75 33.75 56.25 33.75L 48.75 33.75C 48.75 33.75 46.25 33.75 46.25 31.25L 46.25 13.75C 46.25 13.75 46.25 11.25 48.75 11.25M 46.25 28.75L 58.75 28.75M 11.25 18.75L 41.25 18.75M 61.25 40L 61.25 51.25M 63.75 33.75L 65 33.75C 67.071068 33.75 68.75 35.428932 68.75 37.5L 68.75 53.75M 41.25 33.75L 30 33.75C 27.928932 33.75 26.25 35.428932 26.25 37.5L 26.25 57.5C 26.25 59.571072 27.928932 61.25 30 61.25L 33.75 61.25"></path></g></g></g><g id="g-root-hand_v98vw9tg4s9a-stroke" data-item-order="1000000000" transform="translate(302, 182)"><g id="hand_v98vw9tg4s9a-stroke" fill="none" stroke-linecap="round" stroke-linejoin="round" stroke-miterlimit="4" stroke="#888888" stroke-width="2"><g><path d="M 65 68.75L 66.25 61.25C 66.393265 60.176319 65.784081 59.143799 64.775002 58.75L 53.724998 53.899998L 53.724998 43.125C 53.830734 41.946411 53.261696 40.809196 52.255005 40.187241C 51.248322 39.565281 49.976681 39.565281 48.969994 40.187241C 47.963306 40.809196 47.394264 41.946411 47.5 43.125L 47.5 62.975002L 43.200001 57.824997C 42.680344 57.199425 41.888874 56.865711 41.07819 56.930367C 40.267506 56.995018 39.538933 57.449966 39.125 58.150002C 38.644966 58.914204 38.644966 59.885796 39.125 60.650002L 43.625 68.850006M 21.25 53.75L 15 53.75C 12.928932 53.75 11.25 52.071072 11.25 50L 11.25 15C 11.25 12.928932 12.928932 11.25 15 11.25L 37.5 11.25C 39.571068 11.25 41.25 12.928932 41.25 15L 41.25 26.25M 11.25 46.25L 21.25 46.25M 33.75 33.75L 33.75 55M 48.75 11.25L 56.25 11.25C 56.25 11.25 58.75 11.25 58.75 13.75L 58.75 31.25C 58.75 31.25 58.75 33.75 56.25 33.75L 48.75 33.75C 48.75 33.75 46.25 33.75 46.25 31.25L 46.25 13.75C 46.25 13.75 46.25 11.25 48.75 11.25M 46.25 28.75L 58.75 28.75M 11.25 18.75L 41.25 18.75M 61.25 40L 61.25 51.25M 63.75 33.75L 65 33.75C 67.071068 33.75 68.75 35.428932 68.75 37.5L 68.75 53.75M 41.25 33.75L 30 33.75C 27.928932 33.75 26.25 35.428932 26.25 37.5L 26.25 57.5C 26.25 59.571072 27.928932 61.25 30 61.25L 33.75 61.25"></path></g></g></g><g id="g-root-forw_1hi7qm1tg7kek-stroke" data-item-order="1000000000" transform="translate(173, 174)"><g id="forw_1hi7qm1tg7kek-stroke" fill="none" stroke-linecap="round" stroke-linejoin="round" stroke-miterlimit="4" stroke="#e15e5a" stroke-width="2"><g><path d="M 51.132 31.073999C 50.850582 30.198589 50.500839 29.346636 50.085999 28.525999M 51.862 38.849998C 51.954521 38.106926 52.00061 37.35881 52 36.610001C 52 36.027336 51.972668 35.452 51.917999 34.884003M 49.222 46.222C 49.903881 45.143009 50.469059 43.994549 50.908001 42.796001M 43.674 51.799999C 44.760693 51.109669 45.770435 50.305092 46.686001 49.400002M 36.040001 54.495998C 37.340286 54.348728 38.620567 54.059673 39.858002 53.633999M 38 18.5L 34 18.5C 24.434523 18.527994 16.550327 26.010302 16.022373 35.561241C 15.494419 45.112175 22.505886 53.417885 32.010002 54.5M 31 13.5L 38 18.5L 31 23.5"></path></g></g></g><g id="g-root-forw_1hi7qm1tg7kek-stroke" data-item-order="1000000000" transform="translate(173, 174)"><g id="forw_1hi7qm1tg7kek-stroke" fill="none" stroke-linecap="round" stroke-linejoin="round" stroke-miterlimit="4" stroke="#e15e5a" stroke-width="2"><g><path d="M 51.132 31.073999C 50.850582 30.198589 50.500839 29.346636 50.085999 28.525999M 51.862 38.849998C 51.954521 38.106926 52.00061 37.35881 52 36.610001C 52 36.027336 51.972668 35.452 51.917999 34.884003M 49.222 46.222C 49.903881 45.143009 50.469059 43.994549 50.908001 42.796001M 43.674 51.799999C 44.760693 51.109669 45.770435 50.305092 46.686001 49.400002M 36.040001 54.495998C 37.340286 54.348728 38.620567 54.059673 39.858002 53.633999M 38 18.5L 34 18.5C 24.434523 18.527994 16.550327 26.010302 16.022373 35.561241C 15.494419 45.112175 22.505886 53.417885 32.010002 54.5M 31 13.5L 38 18.5L 31 23.5"></path></g></g></g><g id="g-root-tx_diseoux_1uuaq2htgiubt-stroke" data-item-order="1000000000" transform="translate(284.0009765625, 266.0098876953125)"></g><g id="g-root-tx_diseoux_1uuaq2htgiubt-stroke" data-item-order="1000000000" transform="translate(284.0009765625, 266.0098876953125)"></g><g id="g-root-tx_mejoraba_dl35o9tg1y4i-stroke" data-item-order="1000000000" transform="translate(2, 176)"></g><g id="g-root-tx_mejoraba_dl35o9tg1y4i-stroke" data-item-order="1000000000" transform="translate(2, 176)"></g><g id="g-root-view_dkgol5tgis5r-stroke" data-item-order="1000000000" transform="translate(308, 74)"><g id="view_dkgol5tgis5r-stroke" fill="none" stroke-linecap="round" stroke-linejoin="round" stroke-miterlimit="4" stroke="#3bc482" stroke-width="2"><g><path d="M 35 44.057999C 35 49.060593 39.055405 53.115997 44.057999 53.115997C 49.060593 53.115997 53.115997 49.060593 53.115997 44.057999C 53.115997 39.055405 49.060593 35 44.057999 35C 39.055405 35 35 39.055405 35 44.057999ZM 10 10M 57 57L 50.504002 50.504002M 31 43L 11 43C 11.846 38.428001 11.706 35.84 14.218 34.764L 23 31L 23 27C 23 27 21.110001 26.299999 21.110001 22C 19.147999 22 19.147999 18 21.110001 18C 21.110001 17.424 17.822001 13.14 21.954 14C 22.936001 10 32.615997 10 33.598 14C 33.857128 15.397466 33.5397 16.840317 32.718002 18C 34.620003 18 34.099998 22 32.732002 22C 32.732002 26.299999 31 27 31 27L 31 31L 36.031998 33.155998"></path></g></g></g><g id="g-root-view_dkgol5tgis5r-stroke" data-item-order="1000000000" transform="translate(308, 74)"><g id="view_dkgol5tgis5r-stroke" fill="none" stroke-linecap="round" stroke-linejoin="round" stroke-miterlimit="4" stroke="#3bc482" stroke-width="2"><g><path d="M 35 44.057999C 35 49.060593 39.055405 53.115997 44.057999 53.115997C 49.060593 53.115997 53.115997 49.060593 53.115997 44.057999C 53.115997 39.055405 49.060593 35 44.057999 35C 39.055405 35 35 39.055405 35 44.057999ZM 10 10M 57 57L 50.504002 50.504002M 31 43L 11 43C 11.846 38.428001 11.706 35.84 14.218 34.764L 23 31L 23 27C 23 27 21.110001 26.299999 21.110001 22C 19.147999 22 19.147999 18 21.110001 18C 21.110001 17.424 17.822001 13.14 21.954 14C 22.936001 10 32.615997 10 33.598 14C 33.857128 15.397466 33.5397 16.840317 32.718002 18C 34.620003 18 34.099998 22 32.732002 22C 32.732002 26.299999 31 27 31 27L 31 31L 36.031998 33.155998"></path></g></g></g><g id="g-root-chec_qp1z09tgaebt-stroke" data-item-order="1000000000" transform="translate(224, 335)"><g id="chec_qp1z09tgaebt-stroke" fill="none" stroke-linecap="round" stroke-linejoin="round" stroke-miterlimit="4" stroke="#dd8433" stroke-width="2"><g><path d="M 30 57L 13 57C 11.895431 57 11 56.104568 11 55L 11 17C 11 15.895431 11.895431 15 13 15L 17 15M 41 15L 45 15C 46.104568 15 47 15.895431 47 17L 47 29M 33 15C 33 12.790861 31.209139 11 29 11C 26.790861 11 25 12.790861 25 15L 21 15L 21 21L 37 21L 37 15ZM 43 29L 43 20C 43 19.447716 42.552284 19 42 19L 37 19M 21 19L 16 19C 15.447716 19 15 19.447716 15 20L 15 52C 15 52.552284 15.447716 53 16 53L 30 53M 21 26.997999L 37 26.997999M 21 32.998001L 33 32.998001M 21 38.998001L 29 38.998001M 33 44.998001C 33 51.62542 38.372581 56.998001 45 56.998001C 51.627419 56.998001 57 51.62542 57 44.998001C 57 38.370583 51.627419 32.998001 45 32.998001C 38.372581 32.998001 33 38.370583 33 44.998001ZM 50.348 41.510002L 44.537998 49.257999C 44.276993 49.605556 43.878059 49.822807 43.444496 49.8535C 43.010933 49.884197 42.585373 49.725319 42.278 49.417999L 39.278 46.417999"></path></g></g></g><g id="g-root-chec_qp1z09tgaebt-stroke" data-item-order="1000000000" transform="translate(224, 335)"><g id="chec_qp1z09tgaebt-stroke" fill="none" stroke-linecap="round" stroke-linejoin="round" stroke-miterlimit="4" stroke="#dd8433" stroke-width="2"><g><path d="M 30 57L 13 57C 11.895431 57 11 56.104568 11 55L 11 17C 11 15.895431 11.895431 15 13 15L 17 15M 41 15L 45 15C 46.104568 15 47 15.895431 47 17L 47 29M 33 15C 33 12.790861 31.209139 11 29 11C 26.790861 11 25 12.790861 25 15L 21 15L 21 21L 37 21L 37 15ZM 43 29L 43 20C 43 19.447716 42.552284 19 42 19L 37 19M 21 19L 16 19C 15.447716 19 15 19.447716 15 20L 15 52C 15 52.552284 15.447716 53 16 53L 30 53M 21 26.997999L 37 26.997999M 21 32.998001L 33 32.998001M 21 38.998001L 29 38.998001M 33 44.998001C 33 51.62542 38.372581 56.998001 45 56.998001C 51.627419 56.998001 57 51.62542 57 44.998001C 57 38.370583 51.627419 32.998001 45 32.998001C 38.372581 32.998001 33 38.370583 33 44.998001ZM 50.348 41.510002L 44.537998 49.257999C 44.276993 49.605556 43.878059 49.822807 43.444496 49.8535C 43.010933 49.884197 42.585373 49.725319 42.278 49.417999L 39.278 46.417999"></path></g></g></g><g id="g-root-tx_diseocen_1cua2d5tg3dak-stroke" data-item-order="1000000000" transform="translate(416, 410)"></g><g id="g-root-circ_1hbcinttgbsi7-stroke" data-item-order="1000000000" transform="translate(392, 335)"><g id="circ_1hbcinttgbsi7-stroke" fill="none" stroke-linecap="round" stroke-linejoin="round" stroke-miterlimit="4" stroke="#e3cd09" stroke-width="2"><g><path d="M 25.428572 28.857143C 25.428572 33.591011 29.266132 37.428574 34 37.428574C 38.733868 37.428574 42.57143 33.591011 42.57143 28.857143C 42.57143 24.123276 38.733868 20.285715 34 20.285715C 29.266132 20.285715 25.428572 24.123276 25.428572 28.857143M 19.360001 50.799999C 22.471447 45.69273 28.019588 42.576107 34 42.576107C 39.980412 42.576107 45.528553 45.69273 48.640003 50.800003M 11.714286 34C 11.714287 46.308064 21.69194 56.285713 34 56.285713C 46.308064 56.285713 56.285713 46.308064 56.285713 34C 56.285713 21.69194 46.308064 11.714287 34 11.714287C 21.69194 11.714287 11.714287 21.69194 11.714287 34"></path></g></g></g><g id="g-root-tx_investig_v3miyhtg3chy-stroke" data-item-order="1000000000" transform="translate(266, 2)"></g><g id="g-root-tx_pruebasd_1q5qkqhtg3bpn-stroke" data-item-order="1000000000" transform="translate(140, 410)"></g><g id="g-root-tx_pruebasd_1q5qkqhtg3bpn-stroke" data-item-order="1000000000" transform="translate(140, 410)"></g><g id="g-root-tx_diseocen_1cua2d5tg3dak-stroke" data-item-order="1000000000" transform="translate(416, 410)"></g><g id="g-root-tx_investig_v3miyhtg3chy-stroke" data-item-order="1000000000" transform="translate(266, 2)"></g><g id="g-root-circ_1hbcinttgbsi7-stroke" data-item-order="1000000000" transform="translate(392, 335)"><g id="circ_1hbcinttgbsi7-stroke" fill="none" stroke-linecap="round" stroke-linejoin="round" stroke-miterlimit="4" stroke="#e3cd09" stroke-width="2"><g><path d="M 25.428572 28.857143C 25.428572 33.591011 29.266132 37.428574 34 37.428574C 38.733868 37.428574 42.57143 33.591011 42.57143 28.857143C 42.57143 24.123276 38.733868 20.285715 34 20.285715C 29.266132 20.285715 25.428572 24.123276 25.428572 28.857143M 19.360001 50.799999C 22.471447 45.69273 28.019588 42.576107 34 42.576107C 39.980412 42.576107 45.528553 45.69273 48.640003 50.800003M 11.714286 34C 11.714287 46.308064 21.69194 56.285713 34 56.285713C 46.308064 56.285713 56.285713 46.308064 56.285713 34C 56.285713 21.69194 46.308064 11.714287 34 11.714287C 21.69194 11.714287 11.714287 21.69194 11.714287 34"></path></g></g></g></g></g></svg>