<?xml version="1.0" encoding="utf-8" standalone="yes"?>
<!DOCTYPE svg PUBLIC "-//W3C//DTD SVG 1.1//EN" "http://www.w3.org/Graphics/SVG/1.1/DTD/svg11.dtd">
<svg width="600" height="456" viewBox="0 0 600 456" style="fill:none;stroke:none;fill-rule:evenodd;clip-rule:evenodd;stroke-linecap:round;stroke-linejoin:round;stroke-miterlimit:1.5;" version="1.1" xmlns="http://www.w3.org/2000/svg" xmlns:xlink="http://www.w3.org/1999/xlink"><style id="fontImports">@import url("https://fonts.googleapis.com/css2?family=Roboto:wght@400;700&amp;display=block");</style><g id="items" style="isolation: isolate"><g id="blend" style="mix-blend-mode:normal"><g id="g-root-4.cu_sy_1d0ijt7i2ttzc-fill" data-item-order="999890988" data-item-id="4.cu_sy_1d0ijt7i2ttzc" data-item-class="Part Indexed Fill Stroke" data-item-index="4" data-renderer-id="0" transform="translate(373.2734375, 195.3515625)"><g id="4.cu_sy_1d0ijt7i2ttzc-fill" stroke="none" fill="#fffce6"><g><path d="M 82.7263 93.0966C 57.6155 95.773501 33.297301 99.300501 10 103.7652L 10.8481 103.503101C 17.539301 100.7154 22.726201 80.898501 22.726201 56.866301C 22.726201 32.919501 17.576001 13.1581 10.9194 10.259901L 10.1058 10C 33.370901 14.455101 57.653501 17.9754 82.7263 20.648301C 89.353701 20.648301 94.7263 36.866401 94.7263 56.872501C 94.7263 76.8785 89.353701 93.0966 82.7263 93.0966Z"></path></g></g></g><g id="g-root-4.cu_sy_1d0ijt7i2ttzc-fill" data-item-order="999890988" data-item-id="4.cu_sy_1d0ijt7i2ttzc" data-item-class="Part Indexed Fill Stroke" data-item-index="4" data-renderer-id="0" transform="translate(373.2734375, 195.3515625)"><g id="4.cu_sy_1d0ijt7i2ttzc-fill" stroke="none" fill="#fffce6"><g><path d="M 82.7263 93.0966C 57.6155 95.773501 33.297301 99.300501 10 103.7652L 10.8481 103.503101C 17.539301 100.7154 22.726201 80.898501 22.726201 56.866301C 22.726201 32.919501 17.576001 13.1581 10.9194 10.259901L 10.1058 10C 33.370901 14.455101 57.653501 17.9754 82.7263 20.648301C 89.353701 20.648301 94.7263 36.866401 94.7263 56.872501C 94.7263 76.8785 89.353701 93.0966 82.7263 93.0966Z"></path></g></g></g><g id="g-root-4.line_sy_18kp1ori2turl-fill" data-item-order="999890993" data-item-id="4.line_sy_18kp1ori2turl" data-item-class="Curve Stroke Part LeaderLine Indexed" data-item-index="4" data-renderer-id="0" transform="translate(410, 283.052734375)"></g><g id="g-root-4.line_sy_18kp1ori2turl-fill" data-item-order="999890993" data-item-id="4.line_sy_18kp1ori2turl" data-item-class="Curve Stroke Part LeaderLine Indexed" data-item-index="4" data-renderer-id="0" transform="translate(410, 283.052734375)"></g><g id="g-root-3.cu_sy_zp21fvi2tvka-fill" data-item-order="999890996" data-item-id="3.cu_sy_zp21fvi2tvka" data-item-class="Part Indexed Fill Stroke" data-item-index="3" data-renderer-id="0" transform="translate(299.92578125, 176.99853515625)"><g id="3.cu_sy_zp21fvi2tvka-fill" stroke="none" fill="#f5fbe9"><g><path d="M 83.3475 122.118C 57.5424 127.063 32.9898 133.159 10 140.525L 10.8594 140.248C 18.3473 136.593 24.0735 108.6372 24.0735 75.103C 24.0735 41.7837 18.3462 14.1622 10.9277 10.2271L 10.2305 10C 33.1853 17.3424 57.6957 23.4205 83.4533 28.3529L 84.267 28.613C 90.9237 31.5111 96.0739 51.2726 96.0739 75.2194C 96.0739 99.2516 90.8869 119.068 84.1958 121.856L 83.3475 122.118Z"></path></g></g></g><g id="g-root-3.cu_sy_zp21fvi2tvka-fill" data-item-order="999890996" data-item-id="3.cu_sy_zp21fvi2tvka" data-item-class="Part Indexed Fill Stroke" data-item-index="3" data-renderer-id="0" transform="translate(299.92578125, 176.99853515625)"><g id="3.cu_sy_zp21fvi2tvka-fill" stroke="none" fill="#f5fbe9"><g><path d="M 83.3475 122.118C 57.5424 127.063 32.9898 133.159 10 140.525L 10.8594 140.248C 18.3473 136.593 24.0735 108.6372 24.0735 75.103C 24.0735 41.7837 18.3462 14.1622 10.9277 10.2271L 10.2305 10C 33.1853 17.3424 57.6957 23.4205 83.4533 28.3529L 84.267 28.613C 90.9237 31.5111 96.0739 51.2726 96.0739 75.2194C 96.0739 99.2516 90.8869 119.068 84.1958 121.856L 83.3475 122.118Z"></path></g></g></g><g id="g-root-3.line_sy_zp21fvi2tvkb-fill" data-item-order="999891001" data-item-id="3.line_sy_zp21fvi2tvkb" data-item-class="Curve Stroke Part LeaderLine Indexed" data-item-index="3" data-renderer-id="0" transform="translate(338, 134)"></g><g id="g-root-3.line_sy_zp21fvi2tvkb-fill" data-item-order="999891001" data-item-id="3.line_sy_zp21fvi2tvkb" data-item-class="Curve Stroke Part LeaderLine Indexed" data-item-index="3" data-renderer-id="0" transform="translate(338, 134)"></g><g id="g-root-2.cu_sy_me805ni2ttzg-fill" data-item-order="999891004" data-item-id="2.cu_sy_me805ni2ttzg" data-item-class="Part Indexed Fill Stroke" data-item-index="2" data-renderer-id="0" transform="translate(227.01953125, 146.15087890625)"><g id="2.cu_sy_me805ni2ttzg-fill" stroke="none" fill="#e9fbf3"><g><path d="M 82.9059 171.372C 56.3858 179.869 31.9453 190.055 10.0608 202.113L 10.6285 201.796C 18.7741 195.903 24.9797 155.172 24.9797 106.0054C 24.9797 56.9585 18.7295 16.396 10.6127 10.3488L 10 10C 31.9634 22.1079 56.5028 32.3288 83.1364 40.8479L 83.834 41.0747C 91.2525 45.0099 96.9798 72.6314 96.9798 105.9507C 96.9798 139.485 91.2535 167.441 83.7656 171.095L 82.9059 171.372Z"></path></g></g></g><g id="g-root-2.cu_sy_me805ni2ttzg-fill" data-item-order="999891004" data-item-id="2.cu_sy_me805ni2ttzg" data-item-class="Part Indexed Fill Stroke" data-item-index="2" data-renderer-id="0" transform="translate(227.01953125, 146.15087890625)"><g id="2.cu_sy_me805ni2ttzg-fill" stroke="none" fill="#e9fbf3"><g><path d="M 82.9059 171.372C 56.3858 179.869 31.9453 190.055 10.0608 202.113L 10.6285 201.796C 18.7741 195.903 24.9797 155.172 24.9797 106.0054C 24.9797 56.9585 18.7295 16.396 10.6127 10.3488L 10 10C 31.9634 22.1079 56.5028 32.3288 83.1364 40.8479L 83.834 41.0747C 91.2525 45.0099 96.9798 72.6314 96.9798 105.9507C 96.9798 139.485 91.2535 167.441 83.7656 171.095L 82.9059 171.372Z"></path></g></g></g><g id="g-root-2.line_sy_me805ni2ttzh-fill" data-item-order="999891009" data-item-id="2.line_sy_me805ni2ttzh" data-item-class="Curve Stroke Part LeaderLine Indexed" data-item-index="2" data-renderer-id="0" transform="translate(266, 320.00048828125)"></g><g id="g-root-2.line_sy_me805ni2ttzh-fill" data-item-order="999891009" data-item-id="2.line_sy_me805ni2ttzh" data-item-class="Curve Stroke Part LeaderLine Indexed" data-item-index="2" data-renderer-id="0" transform="translate(266, 320.00048828125)"></g><g id="g-root-1.cu_sy_hyei17i2turq-fill" data-item-order="999891012" data-item-id="1.cu_sy_hyei17i2turq" data-item-class="Part Indexed Indexed_1 Fill Stroke" data-item-index="1" data-renderer-id="0" transform="translate(134, 86.22412109375)"><g id="1.cu_sy_hyei17i2turq-fill" stroke="none" fill="#e6f9ff"><g><path d="M 30.9924 12.1459C 30.0192 10.7345 29.0195 10 28 10C 18.0589 10 10 79.8436 10 166C 10 252.156 18.0589 322 28 322C 28.8612 322 29.7084 321.476 30.5373 320.462L 30.9901 319.857L 30.9908 319.857C 49.8599 297.057 74.2525 277.924 103.0802 262.04L 103.648 261.723C 111.794 255.83 117.999 215.099 117.999 165.932C 117.999 116.885 111.749 76.323 103.6322 70.2758L 103.0194 69.927C 74.219 54.0501 49.848 34.9288 30.9924 12.1459Z"></path></g></g></g><g id="g-root-1.cu_sy_hyei17i2turq-fill" data-item-order="999891012" data-item-id="1.cu_sy_hyei17i2turq" data-item-class="Part Indexed Indexed_1 Fill Stroke" data-item-index="1" data-renderer-id="0" transform="translate(134, 86.22412109375)"><g id="1.cu_sy_hyei17i2turq-fill" stroke="none" fill="#e6f9ff"><g><path d="M 30.9924 12.1459C 30.0192 10.7345 29.0195 10 28 10C 18.0589 10 10 79.8436 10 166C 10 252.156 18.0589 322 28 322C 28.8612 322 29.7084 321.476 30.5373 320.462L 30.9901 319.857L 30.9908 319.857C 49.8599 297.057 74.2525 277.924 103.0802 262.04L 103.648 261.723C 111.794 255.83 117.999 215.099 117.999 165.932C 117.999 116.885 111.749 76.323 103.6322 70.2758L 103.0194 69.927C 74.219 54.0501 49.848 34.9288 30.9924 12.1459Z"></path></g></g></g><g id="g-root-1.line_sy_92rhsbi2tvkf-fill" data-item-order="999891017" data-item-id="1.line_sy_92rhsbi2tvkf" data-item-class="Curve Stroke Part LeaderLine Indexed Indexed_1" data-item-index="1" data-renderer-id="0" transform="translate(194, 61.75)"></g><g id="g-root-1.line_sy_92rhsbi2tvkf-fill" data-item-order="999891017" data-item-id="1.line_sy_92rhsbi2tvkf" data-item-class="Curve Stroke Part LeaderLine Indexed Indexed_1" data-item-index="1" data-renderer-id="0" transform="translate(194, 61.75)"></g><g id="g-root-tx_recopila_v64fd7i2lg5c-fill" data-item-order="1000000000" data-item-id="tx_recopila_v64fd7i2lg5c" data-item-class="Label Stroke" data-item-index="none" data-renderer-id="0" transform="translate(2, 206)"><g id="tx_recopila_v64fd7i2lg5c-fill" stroke="none" fill="#484848"><g><text style="font: 20px &quot;Roboto&quot;, sans-serif; white-space: pre;" font-size="20px" font-family="'Roboto', sans-serif"><tspan x="13.67" y="34" dominant-baseline="ideographic">Recopilación </tspan><tspan x="49.12" y="58" dominant-baseline="ideographic">de Datos </tspan><tspan x="69.7" y="82" dominant-baseline="ideographic">Brutos</tspan></text></g></g></g><g id="g-root-tx_recopila_v64fd7i2lg5c-fill" data-item-order="1000000000" data-item-id="tx_recopila_v64fd7i2lg5c" data-item-class="Label Stroke" data-item-index="none" data-renderer-id="0" transform="translate(2, 206)"><g id="tx_recopila_v64fd7i2lg5c-fill" stroke="none" fill="#484848"><g><text style="font: 20px &quot;Roboto&quot;, sans-serif; white-space: pre;" font-size="20px" font-family="'Roboto', sans-serif"><tspan x="13.67" y="34" dominant-baseline="ideographic">Recopilación </tspan><tspan x="49.12" y="58" dominant-baseline="ideographic">de Datos </tspan><tspan x="69.7" y="82" dominant-baseline="ideographic">Brutos</tspan></text></g></g></g><g id="g-root-1_zkozbfi2ld6y-fill" data-item-order="1000000000" data-item-id="1_zkozbfi2ld6y" data-item-class="Icon Stroke Indexed Indexed_1 InsideFill InsideColorFill" data-item-index="1" data-renderer-id="0" transform="translate(182, 218)"></g><g id="g-root-tx_limpieza_1cxefuzi2lds6-fill" data-item-order="1000000000" data-item-id="tx_limpieza_1cxefuzi2lds6" data-item-class="Label Stroke Indexed" data-item-index="2" data-renderer-id="0" transform="translate(206, 386)"><g id="tx_limpieza_1cxefuzi2lds6-fill" stroke="none" fill="#484848"><g><text style="font: 20px &quot;Roboto&quot;, sans-serif; white-space: pre;" font-size="20px" font-family="'Roboto', sans-serif"><tspan x="13.8" y="34" dominant-baseline="ideographic">Limpieza de </tspan><tspan x="41.5" y="58" dominant-baseline="ideographic">Datos</tspan></text></g></g></g><g id="g-root-1_18n74cri2wmis-fill" data-item-order="1000000000" data-item-id="1_18n74cri2wmis" data-item-class="Icon Stroke Indexed InsideFill InsideColorFill" data-item-index="2" data-renderer-id="0" transform="translate(254, 218)"></g><g id="g-root-1_18n74cri2wmis-fill" data-item-order="1000000000" data-item-id="1_18n74cri2wmis" data-item-class="Icon Stroke Indexed InsideFill InsideColorFill" data-item-index="2" data-renderer-id="0" transform="translate(254, 218)"></g><g id="g-root-sear_zkoszvi2qzus-fill" data-item-order="1000000000" data-item-id="sear_zkoszvi2qzus" data-item-class="Icon Stroke Indexed InsideFill InsideColorFill" data-item-index="3" data-renderer-id="0" transform="translate(326, 218)"></g><g id="g-root-sear_zkoszvi2qzus-fill" data-item-order="1000000000" data-item-id="sear_zkoszvi2qzus" data-item-class="Icon Stroke Indexed InsideFill InsideColorFill" data-item-index="3" data-renderer-id="0" transform="translate(326, 218)"></g><g id="g-root-info_4lp4nfi2lerz-fill" data-item-order="1000000000" data-item-id="info_4lp4nfi2lerz" data-item-class="Icon Stroke Indexed InsideFill InsideColorFill" data-item-index="4" data-renderer-id="0" transform="translate(398, 218)"></g><g id="g-root-info_4lp4nfi2lerz-fill" data-item-order="1000000000" data-item-id="info_4lp4nfi2lerz" data-item-class="Icon Stroke Indexed InsideFill InsideColorFill" data-item-index="4" data-renderer-id="0" transform="translate(398, 218)"></g><g id="g-root-tx_tomadede_v4vh6zi2ldz7-fill" data-item-order="1000000000" data-item-id="tx_tomadede_v4vh6zi2ldz7" data-item-class="Label Stroke" data-item-index="none" data-renderer-id="0" transform="translate(470, 206)"><g id="tx_tomadede_v4vh6zi2ldz7-fill" stroke="none" fill="#484848"><g><text style="font: 20px &quot;Roboto&quot;, sans-serif; white-space: pre;" font-size="20px" font-family="'Roboto', sans-serif"><tspan x="12" y="34" dominant-baseline="ideographic">Toma de </tspan><tspan x="12" y="58" dominant-baseline="ideographic">Decisiones </tspan><tspan x="12" y="82" dominant-baseline="ideographic">Informadas</tspan></text></g></g></g><g id="g-root-tx_tomadede_v4vh6zi2ldz7-fill" data-item-order="1000000000" data-item-id="tx_tomadede_v4vh6zi2ldz7" data-item-class="Label Stroke" data-item-index="none" data-renderer-id="0" transform="translate(470, 206)"><g id="tx_tomadede_v4vh6zi2ldz7-fill" stroke="none" fill="#484848"><g><text style="font: 20px &quot;Roboto&quot;, sans-serif; white-space: pre;" font-size="20px" font-family="'Roboto', sans-serif"><tspan x="12" y="34" dominant-baseline="ideographic">Toma de </tspan><tspan x="12" y="58" dominant-baseline="ideographic">Decisiones </tspan><tspan x="12" y="82" dominant-baseline="ideographic">Informadas</tspan></text></g></g></g><g id="g-root-tx_anlisisd_1q88h57i2lfd1-fill" data-item-order="1000000000" data-item-id="tx_anlisisd_1q88h57i2lfd1" data-item-class="Label Stroke Indexed" data-item-index="3" data-renderer-id="0" transform="translate(284, 74.22412109375)"><g id="tx_anlisisd_1q88h57i2lfd1-fill" stroke="none" fill="#484848"><g><text style="font: 20px &quot;Roboto&quot;, sans-serif; white-space: pre;" font-size="20px" font-family="'Roboto', sans-serif"><tspan x="13.03" y="34" dominant-baseline="ideographic">Análisis de </tspan><tspan x="35.5" y="58" dominant-baseline="ideographic">Datos</tspan></text></g></g></g><g id="g-root-tx_anlisisd_1q88h57i2lfd1-fill" data-item-order="1000000000" data-item-id="tx_anlisisd_1q88h57i2lfd1" data-item-class="Label Stroke Indexed" data-item-index="3" data-renderer-id="0" transform="translate(284, 74.22412109375)"><g id="tx_anlisisd_1q88h57i2lfd1-fill" stroke="none" fill="#484848"><g><text style="font: 20px &quot;Roboto&quot;, sans-serif; white-space: pre;" font-size="20px" font-family="'Roboto', sans-serif"><tspan x="13.03" y="34" dominant-baseline="ideographic">Análisis de </tspan><tspan x="35.5" y="58" dominant-baseline="ideographic">Datos</tspan></text></g></g></g><g id="g-root-tx_integrac_141rfm3i2lekv-fill" data-item-order="1000000000" data-item-id="tx_integrac_141rfm3i2lekv" data-item-class="Label Stroke Indexed Indexed_1" data-item-index="1" data-renderer-id="0" transform="translate(122, 2)"><g id="tx_integrac_141rfm3i2lekv-fill" stroke="none" fill="#484848"><g><text style="font: 20px &quot;Roboto&quot;, sans-serif; white-space: pre;" font-size="20px" font-family="'Roboto', sans-serif"><tspan x="16.19" y="34" dominant-baseline="ideographic">Integración de </tspan><tspan x="53.49" y="58" dominant-baseline="ideographic">Datos</tspan></text></g></g></g><g id="g-root-tx_visualiz_4ikxjfi2ldz8-fill" data-item-order="1000000000" data-item-id="tx_visualiz_4ikxjfi2ldz8" data-item-class="Label Stroke Indexed" data-item-index="4" data-renderer-id="0" transform="translate(344, 326)"><g id="tx_visualiz_4ikxjfi2ldz8-fill" stroke="none" fill="#484848"><g><text style="font: 20px &quot;Roboto&quot;, sans-serif; white-space: pre;" font-size="20px" font-family="'Roboto', sans-serif"><tspan x="14.5" y="34" dominant-baseline="ideographic">Visualización </tspan><tspan x="34.08" y="58" dominant-baseline="ideographic">de Datos</tspan></text></g></g></g><g id="g-root-tx_visualiz_4ikxjfi2ldz8-fill" data-item-order="1000000000" data-item-id="tx_visualiz_4ikxjfi2ldz8" data-item-class="Label Stroke Indexed" data-item-index="4" data-renderer-id="0" transform="translate(344, 326)"><g id="tx_visualiz_4ikxjfi2ldz8-fill" stroke="none" fill="#484848"><g><text style="font: 20px &quot;Roboto&quot;, sans-serif; white-space: pre;" font-size="20px" font-family="'Roboto', sans-serif"><tspan x="14.5" y="34" dominant-baseline="ideographic">Visualización </tspan><tspan x="34.08" y="58" dominant-baseline="ideographic">de Datos</tspan></text></g></g></g><g id="g-root-tx_limpieza_1cxefuzi2lds6-fill" data-item-order="1000000000" data-item-id="tx_limpieza_1cxefuzi2lds6" data-item-class="Label Stroke Indexed" data-item-index="2" data-renderer-id="0" transform="translate(206, 386)"><g id="tx_limpieza_1cxefuzi2lds6-fill" stroke="none" fill="#484848"><g><text style="font: 20px &quot;Roboto&quot;, sans-serif; white-space: pre;" font-size="20px" font-family="'Roboto', sans-serif"><tspan x="13.8" y="34" dominant-baseline="ideographic">Limpieza de </tspan><tspan x="41.5" y="58" dominant-baseline="ideographic">Datos</tspan></text></g></g></g><g id="g-root-tx_integrac_141rfm3i2lekv-fill" data-item-order="1000000000" data-item-id="tx_integrac_141rfm3i2lekv" data-item-class="Label Stroke Indexed Indexed_1" data-item-index="1" data-renderer-id="0" transform="translate(122, 2)"><g id="tx_integrac_141rfm3i2lekv-fill" stroke="none" fill="#484848"><g><text style="font: 20px &quot;Roboto&quot;, sans-serif; white-space: pre;" font-size="20px" font-family="'Roboto', sans-serif"><tspan x="16.19" y="34" dominant-baseline="ideographic">Integración de </tspan><tspan x="53.49" y="58" dominant-baseline="ideographic">Datos</tspan></text></g></g></g><g id="g-root-1_zkozbfi2ld6y-fill" data-item-order="1000000000" data-item-id="1_zkozbfi2ld6y" data-item-class="Icon Stroke Indexed Indexed_1 InsideFill InsideColorFill" data-item-index="1" data-renderer-id="0" transform="translate(182, 218)"></g><g id="g-root-4.cu_sy_1d0ijt7i2ttzc-stroke" data-item-order="999890988" data-item-id="4.cu_sy_1d0ijt7i2ttzc" data-item-class="Part Indexed Fill Stroke" data-item-index="4" data-renderer-id="0" transform="translate(373.2734375, 195.3515625)"><g id="4.cu_sy_1d0ijt7i2ttzc-stroke" fill="none" stroke-linecap="round" stroke-linejoin="round" stroke-miterlimit="4" stroke="#e3cd09" stroke-width="2"><g><path d="M 10 103.7652C 33.297301 99.300501 57.6155 95.773501 82.7263 93.0966C 89.353701 93.0966 94.7263 76.8785 94.7263 56.872501C 94.7263 36.866401 89.353701 20.648301 82.7263 20.648301C 57.653501 17.9754 33.370901 14.455101 10.1058 10L 10.9194 10.259901C 17.576001 13.1581 22.726201 32.919501 22.726201 56.866301C 22.726201 80.898501 17.539301 100.7154 10.8481 103.503101L 10 103.7652Z"></path></g></g></g><g id="g-root-4.cu_sy_1d0ijt7i2ttzc-stroke" data-item-order="999890988" data-item-id="4.cu_sy_1d0ijt7i2ttzc" data-item-class="Part Indexed Fill Stroke" data-item-index="4" data-renderer-id="0" transform="translate(373.2734375, 195.3515625)"><g id="4.cu_sy_1d0ijt7i2ttzc-stroke" fill="none" stroke-linecap="round" stroke-linejoin="round" stroke-miterlimit="4" stroke="#e3cd09" stroke-width="2"><g><path d="M 10 103.7652C 33.297301 99.300501 57.6155 95.773501 82.7263 93.0966C 89.353701 93.0966 94.7263 76.8785 94.7263 56.872501C 94.7263 36.866401 89.353701 20.648301 82.7263 20.648301C 57.653501 17.9754 33.370901 14.455101 10.1058 10L 10.9194 10.259901C 17.576001 13.1581 22.726201 32.919501 22.726201 56.866301C 22.726201 80.898501 17.539301 100.7154 10.8481 103.503101L 10 103.7652Z"></path></g></g></g><g id="g-root-4.line_sy_18kp1ori2turl-stroke" data-item-order="999890993" data-item-id="4.line_sy_18kp1ori2turl" data-item-class="Curve Stroke Part LeaderLine Indexed" data-item-index="4" data-renderer-id="0" transform="translate(410, 283.052734375)"><g id="4.line_sy_18kp1ori2turl-stroke" fill="none" stroke-linecap="round" stroke-linejoin="round" stroke-miterlimit="4" stroke="#484848" stroke-width="2"><g><path d="M 10 11.997253L 10 40.947253"></path><path d="M 16.5 17.997253L 10 11.497253L 3.5 17.997253" stroke-dasharray="none"></path></g></g></g><g id="g-root-4.line_sy_18kp1ori2turl-stroke" data-item-order="999890993" data-item-id="4.line_sy_18kp1ori2turl" data-item-class="Curve Stroke Part LeaderLine Indexed" data-item-index="4" data-renderer-id="0" transform="translate(410, 283.052734375)"><g id="4.line_sy_18kp1ori2turl-stroke" fill="none" stroke-linecap="round" stroke-linejoin="round" stroke-miterlimit="4" stroke="#484848" stroke-width="2"><g><path d="M 10 11.997253L 10 40.947253"></path><path d="M 16.5 17.997253L 10 11.497253L 3.5 17.997253" stroke-dasharray="none"></path></g></g></g><g id="g-root-3.cu_sy_zp21fvi2tvka-stroke" data-item-order="999890996" data-item-id="3.cu_sy_zp21fvi2tvka" data-item-class="Part Indexed Fill Stroke" data-item-index="3" data-renderer-id="0" transform="translate(299.92578125, 176.99853515625)"><g id="3.cu_sy_zp21fvi2tvka-stroke" fill="none" stroke-linecap="round" stroke-linejoin="round" stroke-miterlimit="4" stroke="#93c131" stroke-width="2"><g><path d="M 10 140.5245C 32.9898 133.1592 57.5424 127.0634 83.3475 122.1181L 84.1958 121.8561C 90.8869 119.0685 96.0739 99.2516 96.0739 75.2194C 96.0739 51.2726 90.9237 31.5111 84.267 28.613L 83.4533 28.3529C 57.6957 23.4205 33.1853 17.3424 10.2305 10L 10.9277 10.2271C 18.3462 14.1622 24.0735 41.7837 24.0735 75.103C 24.0735 108.6372 18.3473 136.5934 10.8594 140.2476L 10 140.5245Z"></path></g></g></g><g id="g-root-3.cu_sy_zp21fvi2tvka-stroke" data-item-order="999890996" data-item-id="3.cu_sy_zp21fvi2tvka" data-item-class="Part Indexed Fill Stroke" data-item-index="3" data-renderer-id="0" transform="translate(299.92578125, 176.99853515625)"><g id="3.cu_sy_zp21fvi2tvka-stroke" fill="none" stroke-linecap="round" stroke-linejoin="round" stroke-miterlimit="4" stroke="#93c131" stroke-width="2"><g><path d="M 10 140.5245C 32.9898 133.1592 57.5424 127.0634 83.3475 122.1181L 84.1958 121.8561C 90.8869 119.0685 96.0739 99.2516 96.0739 75.2194C 96.0739 51.2726 90.9237 31.5111 84.267 28.613L 83.4533 28.3529C 57.6957 23.4205 33.1853 17.3424 10.2305 10L 10.9277 10.2271C 18.3462 14.1622 24.0735 41.7837 24.0735 75.103C 24.0735 108.6372 18.3473 136.5934 10.8594 140.2476L 10 140.5245Z"></path></g></g></g><g id="g-root-3.line_sy_zp21fvi2tvkb-stroke" data-item-order="999891001" data-item-id="3.line_sy_zp21fvi2tvkb" data-item-class="Curve Stroke Part LeaderLine Indexed" data-item-index="3" data-renderer-id="0" transform="translate(338, 134)"><g id="3.line_sy_zp21fvi2tvkb-stroke" fill="none" stroke-linecap="round" stroke-linejoin="round" stroke-miterlimit="4" stroke="#484848" stroke-width="2"><g><path d="M 10 10L 10 61.6"></path><path d="M 3.5 55.6L 10 62.1L 16.5 55.6" stroke-dasharray="none"></path></g></g></g><g id="g-root-3.line_sy_zp21fvi2tvkb-stroke" data-item-order="999891001" data-item-id="3.line_sy_zp21fvi2tvkb" data-item-class="Curve Stroke Part LeaderLine Indexed" data-item-index="3" data-renderer-id="0" transform="translate(338, 134)"><g id="3.line_sy_zp21fvi2tvkb-stroke" fill="none" stroke-linecap="round" stroke-linejoin="round" stroke-miterlimit="4" stroke="#484848" stroke-width="2"><g><path d="M 10 10L 10 61.6"></path><path d="M 3.5 55.6L 10 62.1L 16.5 55.6" stroke-dasharray="none"></path></g></g></g><g id="g-root-2.cu_sy_me805ni2ttzg-stroke" data-item-order="999891004" data-item-id="2.cu_sy_me805ni2ttzg" data-item-class="Part Indexed Fill Stroke" data-item-index="2" data-renderer-id="0" transform="translate(227.01953125, 146.15087890625)"><g id="2.cu_sy_me805ni2ttzg-stroke" fill="none" stroke-linecap="round" stroke-linejoin="round" stroke-miterlimit="4" stroke="#3bc482" stroke-width="2"><g><path d="M 10.0608 202.1131C 31.9453 190.0548 56.3858 179.8689 82.9059 171.3724L 83.7656 171.0952C 91.2535 167.441 96.9798 139.4849 96.9798 105.9507C 96.9798 72.6314 91.2525 45.0099 83.834 41.0747L 83.1364 40.8479C 56.5028 32.3288 31.9634 22.1079 10 10L 10.6127 10.3488C 18.7295 16.396 24.9797 56.9585 24.9797 106.0054C 24.9797 155.1719 18.7741 195.9028 10.6285 201.7964L 10.0608 202.1131Z"></path></g></g></g><g id="g-root-2.cu_sy_me805ni2ttzg-stroke" data-item-order="999891004" data-item-id="2.cu_sy_me805ni2ttzg" data-item-class="Part Indexed Fill Stroke" data-item-index="2" data-renderer-id="0" transform="translate(227.01953125, 146.15087890625)"><g id="2.cu_sy_me805ni2ttzg-stroke" fill="none" stroke-linecap="round" stroke-linejoin="round" stroke-miterlimit="4" stroke="#3bc482" stroke-width="2"><g><path d="M 10.0608 202.1131C 31.9453 190.0548 56.3858 179.8689 82.9059 171.3724L 83.7656 171.0952C 91.2535 167.441 96.9798 139.4849 96.9798 105.9507C 96.9798 72.6314 91.2525 45.0099 83.834 41.0747L 83.1364 40.8479C 56.5028 32.3288 31.9634 22.1079 10 10L 10.6127 10.3488C 18.7295 16.396 24.9797 56.9585 24.9797 106.0054C 24.9797 155.1719 18.7741 195.9028 10.6285 201.7964L 10.0608 202.1131Z"></path></g></g></g><g id="g-root-2.line_sy_me805ni2ttzh-stroke" data-item-order="999891009" data-item-id="2.line_sy_me805ni2ttzh" data-item-class="Curve Stroke Part LeaderLine Indexed" data-item-index="2" data-renderer-id="0" transform="translate(266, 320.00048828125)"><g id="2.line_sy_me805ni2ttzh-stroke" fill="none" stroke-linecap="round" stroke-linejoin="round" stroke-miterlimit="4" stroke="#484848" stroke-width="2"><g><path d="M 10 11.999512L 10 64.159512"></path><path d="M 16.5 17.999512L 10 11.499512L 3.5 17.999512" stroke-dasharray="none"></path></g></g></g><g id="g-root-2.line_sy_me805ni2ttzh-stroke" data-item-order="999891009" data-item-id="2.line_sy_me805ni2ttzh" data-item-class="Curve Stroke Part LeaderLine Indexed" data-item-index="2" data-renderer-id="0" transform="translate(266, 320.00048828125)"><g id="2.line_sy_me805ni2ttzh-stroke" fill="none" stroke-linecap="round" stroke-linejoin="round" stroke-miterlimit="4" stroke="#484848" stroke-width="2"><g><path d="M 10 11.999512L 10 64.159512"></path><path d="M 16.5 17.999512L 10 11.499512L 3.5 17.999512" stroke-dasharray="none"></path></g></g></g><g id="g-root-1.cu_sy_hyei17i2turq-stroke" data-item-order="999891012" data-item-id="1.cu_sy_hyei17i2turq" data-item-class="Part Indexed Indexed_1 Fill Stroke" data-item-index="1" data-renderer-id="0" transform="translate(134, 86.22412109375)"><g id="1.cu_sy_hyei17i2turq-stroke" fill="none" stroke-linecap="round" stroke-linejoin="round" stroke-miterlimit="4" stroke="#17b0e3" stroke-width="2"><g><path d="M 10 166C 10 252.156423 18.058875 322.000002 28 322.000002C 37.941126 322.000002 46 252.156423 46 166.000002C 46 79.843581 37.941126 10.000002 28 10.000002C 18.058875 10.000002 10 79.843581 10 166.000002M 30.074219 320.97261C 46.413519 301.16501 71.289219 279.13801 103.506119 261.89621C 110.763319 256.38241 118.000519 223.07031 118.000519 166.01021C 118.000519 108.75101 110.388119 73.68591 102.969319 69.74051C 68.386719 51.34911 43.199319 27.21381 30.096419 11.04541"></path></g></g></g><g id="g-root-1.cu_sy_hyei17i2turq-stroke" data-item-order="999891012" data-item-id="1.cu_sy_hyei17i2turq" data-item-class="Part Indexed Indexed_1 Fill Stroke" data-item-index="1" data-renderer-id="0" transform="translate(134, 86.22412109375)"><g id="1.cu_sy_hyei17i2turq-stroke" fill="none" stroke-linecap="round" stroke-linejoin="round" stroke-miterlimit="4" stroke="#17b0e3" stroke-width="2"><g><path d="M 10 166C 10 252.156423 18.058875 322.000002 28 322.000002C 37.941126 322.000002 46 252.156423 46 166.000002C 46 79.843581 37.941126 10.000002 28 10.000002C 18.058875 10.000002 10 79.843581 10 166.000002M 30.074219 320.97261C 46.413519 301.16501 71.289219 279.13801 103.506119 261.89621C 110.763319 256.38241 118.000519 223.07031 118.000519 166.01021C 118.000519 108.75101 110.388119 73.68591 102.969319 69.74051C 68.386719 51.34911 43.199319 27.21381 30.096419 11.04541"></path></g></g></g><g id="g-root-1.line_sy_92rhsbi2tvkf-stroke" data-item-order="999891017" data-item-id="1.line_sy_92rhsbi2tvkf" data-item-class="Curve Stroke Part LeaderLine Indexed Indexed_1" data-item-index="1" data-renderer-id="0" transform="translate(194, 61.75)"><g id="1.line_sy_92rhsbi2tvkf-stroke" fill="none" stroke-linecap="round" stroke-linejoin="round" stroke-miterlimit="4" stroke="#484848" stroke-width="2"><g><path d="M 10 10L 10 71.23"></path><path d="M 3.5 65.2L 10 71.7L 16.5 65.2" stroke-dasharray="none"></path></g></g></g><g id="g-root-1.line_sy_92rhsbi2tvkf-stroke" data-item-order="999891017" data-item-id="1.line_sy_92rhsbi2tvkf" data-item-class="Curve Stroke Part LeaderLine Indexed Indexed_1" data-item-index="1" data-renderer-id="0" transform="translate(194, 61.75)"><g id="1.line_sy_92rhsbi2tvkf-stroke" fill="none" stroke-linecap="round" stroke-linejoin="round" stroke-miterlimit="4" stroke="#484848" stroke-width="2"><g><path d="M 10 10L 10 71.23"></path><path d="M 3.5 65.2L 10 71.7L 16.5 65.2" stroke-dasharray="none"></path></g></g></g><g id="g-root-tx_recopila_v64fd7i2lg5c-stroke" data-item-order="1000000000" data-item-id="tx_recopila_v64fd7i2lg5c" data-item-class="Label Stroke" data-item-index="none" data-renderer-id="0" transform="translate(2, 206)"></g><g id="g-root-tx_recopila_v64fd7i2lg5c-stroke" data-item-order="1000000000" data-item-id="tx_recopila_v64fd7i2lg5c" data-item-class="Label Stroke" data-item-index="none" data-renderer-id="0" transform="translate(2, 206)"></g><g id="g-root-1_zkozbfi2ld6y-stroke" data-item-order="1000000000" data-item-id="1_zkozbfi2ld6y" data-item-class="Icon Stroke Indexed Indexed_1 InsideFill InsideColorFill" data-item-index="1" data-renderer-id="0" transform="translate(182, 218)"><g id="1_zkozbfi2ld6y-stroke" fill="none" stroke-linecap="round" stroke-linejoin="round" stroke-miterlimit="4" stroke="#17b0e3" stroke-width="2"><g><path d="M 17.644001 17.133999C 17.643053 20.522383 20.389614 23.269712 23.778 23.269712C 27.166382 23.269712 29.912945 20.522383 29.911999 17.133999C 29.912945 13.745616 27.166382 10.998286 23.778 10.998286C 20.389614 10.998286 17.643053 13.745616 17.643999 17.133999M 17.644001 50.866001C 17.643053 54.254379 20.389614 57.001709 23.778 57.001709C 27.166382 57.001709 29.912945 54.254379 29.911999 50.865997C 29.912945 47.477615 27.166382 44.730286 23.778 44.730286C 20.389614 44.730286 17.643053 47.477615 17.643999 50.865997M 38.087997 37.066002C 38.087051 40.454384 40.833614 43.20171 44.221996 43.20171C 47.610382 43.20171 50.356945 40.454384 50.355999 37.065998C 50.356945 33.677612 47.610382 30.930285 44.221996 30.930285C 40.833614 30.930285 38.087051 33.677612 38.087997 37.065998M 23.778 23.265999L 23.778 44.734001M 23.778 24.799999C 24.799999 34 29.912001 37.066002 38.087997 37.066002"></path></g></g></g><g id="g-root-tx_limpieza_1cxefuzi2lds6-stroke" data-item-order="1000000000" data-item-id="tx_limpieza_1cxefuzi2lds6" data-item-class="Label Stroke Indexed" data-item-index="2" data-renderer-id="0" transform="translate(206, 386)"></g><g id="g-root-1_18n74cri2wmis-stroke" data-item-order="1000000000" data-item-id="1_18n74cri2wmis" data-item-class="Icon Stroke Indexed InsideFill InsideColorFill" data-item-index="2" data-renderer-id="0" transform="translate(254, 218)"><g id="1_18n74cri2wmis-stroke" fill="none" stroke-linecap="round" stroke-linejoin="round" stroke-miterlimit="4" stroke="#3bc482" stroke-width="2"><g><path d="M 21.362 16.507999C 21.362 19.269424 23.600576 21.507999 26.362 21.507999C 29.123425 21.507999 31.362 19.269424 31.362 16.507999C 31.362 13.746576 29.123425 11.508 26.362 11.508C 23.600576 11.508 21.362 13.746576 21.362 16.507999M 35.057999 52.653999C 32.961998 51.754002 29.950001 50.537998 29.362 47.944C 28.92786 46.588257 27.871035 45.522213 26.519112 45.076321C 25.167191 44.630428 23.683517 44.858559 22.528 45.689999C 19.683819 47.467632 18.820408 51.215046 20.6 54.058002L 22.032 56.341999C 28.218 56.897999 33.563999 55.948002 35.057999 52.653999ZM 20.362 29.986C 20.362 31.642855 19.018854 32.986 17.362 32.986L 13.362 32.986C 11.705146 32.986 10.362 31.642855 10.362 29.986C 10.362 28.329145 11.705146 26.986 13.362 26.986L 17.362 26.986C 19.018854 26.986 20.362 28.329145 20.362 29.986ZM 17.58 32.978001C 19.15 38.262001 21.540001 44.638 22.528 45.689999M 15.362 22.216C 15.639999 23.790001 15.894 25.389999 16.15 26.986M 32.362 35.014L 32.362 42.509998M 23.362 24.51L 30.362 24.51C 33.676003 24.51 35.362 27.195999 35.362 30.51L 35.362 30.51C 35.013718 32.833191 33.437195 34.786827 31.24 35.618C 29.554001 36.327999 22.458 38.531998 22.458 38.531998C 20.885094 39.053909 19.186909 38.201904 18.665001 36.628998C 18.143091 35.056091 18.995094 33.35791 20.568001 32.835999L 26.146 30.986M 46.362 47.009998C 46.362 47.562286 46.809715 48.009998 47.362 48.009998C 47.914284 48.009998 48.362 47.562286 48.362 47.009998C 48.362 46.457714 47.914284 46.009998 47.362 46.009998C 46.809715 46.009998 46.362 46.457714 46.362 47.009998M 36.650002 47.009998C 36.650002 47.562286 37.097717 48.009998 37.650002 48.009998C 38.202286 48.009998 38.650002 47.562286 38.650002 47.009998C 38.650002 46.457714 38.202286 46.009998 37.650002 46.009998C 37.097717 46.009998 36.650002 46.457714 36.650002 47.009998M 41.931999 54.816002C 41.931999 55.368286 42.379715 55.816002 42.931999 55.816002C 43.484283 55.816002 43.931999 55.368286 43.931999 54.816002C 43.931999 54.263714 43.484283 53.816002 42.931999 53.816002C 42.379715 53.816002 41.931999 54.263714 41.931999 54.816002M 55.638 47.009998C 55.638 47.562286 56.085716 48.009998 56.638 48.009998C 57.190285 48.009998 57.638 47.562286 57.638 47.009998C 57.638 46.457714 57.190285 46.009998 56.638 46.009998C 56.085716 46.009998 55.638 46.457714 55.638 47.009998M 52.411999 54.816002C 52.411999 55.368286 52.859715 55.816002 53.411999 55.816002C 53.964283 55.816002 54.411999 55.368286 54.411999 54.816002C 54.411999 54.263714 53.964283 53.816002 53.411999 53.816002C 52.859715 53.816002 52.411999 54.263714 52.411999 54.816002"></path></g></g></g><g id="g-root-1_18n74cri2wmis-stroke" data-item-order="1000000000" data-item-id="1_18n74cri2wmis" data-item-class="Icon Stroke Indexed InsideFill InsideColorFill" data-item-index="2" data-renderer-id="0" transform="translate(254, 218)"><g id="1_18n74cri2wmis-stroke" fill="none" stroke-linecap="round" stroke-linejoin="round" stroke-miterlimit="4" stroke="#3bc482" stroke-width="2"><g><path d="M 21.362 16.507999C 21.362 19.269424 23.600576 21.507999 26.362 21.507999C 29.123425 21.507999 31.362 19.269424 31.362 16.507999C 31.362 13.746576 29.123425 11.508 26.362 11.508C 23.600576 11.508 21.362 13.746576 21.362 16.507999M 35.057999 52.653999C 32.961998 51.754002 29.950001 50.537998 29.362 47.944C 28.92786 46.588257 27.871035 45.522213 26.519112 45.076321C 25.167191 44.630428 23.683517 44.858559 22.528 45.689999C 19.683819 47.467632 18.820408 51.215046 20.6 54.058002L 22.032 56.341999C 28.218 56.897999 33.563999 55.948002 35.057999 52.653999ZM 20.362 29.986C 20.362 31.642855 19.018854 32.986 17.362 32.986L 13.362 32.986C 11.705146 32.986 10.362 31.642855 10.362 29.986C 10.362 28.329145 11.705146 26.986 13.362 26.986L 17.362 26.986C 19.018854 26.986 20.362 28.329145 20.362 29.986ZM 17.58 32.978001C 19.15 38.262001 21.540001 44.638 22.528 45.689999M 15.362 22.216C 15.639999 23.790001 15.894 25.389999 16.15 26.986M 32.362 35.014L 32.362 42.509998M 23.362 24.51L 30.362 24.51C 33.676003 24.51 35.362 27.195999 35.362 30.51L 35.362 30.51C 35.013718 32.833191 33.437195 34.786827 31.24 35.618C 29.554001 36.327999 22.458 38.531998 22.458 38.531998C 20.885094 39.053909 19.186909 38.201904 18.665001 36.628998C 18.143091 35.056091 18.995094 33.35791 20.568001 32.835999L 26.146 30.986M 46.362 47.009998C 46.362 47.562286 46.809715 48.009998 47.362 48.009998C 47.914284 48.009998 48.362 47.562286 48.362 47.009998C 48.362 46.457714 47.914284 46.009998 47.362 46.009998C 46.809715 46.009998 46.362 46.457714 46.362 47.009998M 36.650002 47.009998C 36.650002 47.562286 37.097717 48.009998 37.650002 48.009998C 38.202286 48.009998 38.650002 47.562286 38.650002 47.009998C 38.650002 46.457714 38.202286 46.009998 37.650002 46.009998C 37.097717 46.009998 36.650002 46.457714 36.650002 47.009998M 41.931999 54.816002C 41.931999 55.368286 42.379715 55.816002 42.931999 55.816002C 43.484283 55.816002 43.931999 55.368286 43.931999 54.816002C 43.931999 54.263714 43.484283 53.816002 42.931999 53.816002C 42.379715 53.816002 41.931999 54.263714 41.931999 54.816002M 55.638 47.009998C 55.638 47.562286 56.085716 48.009998 56.638 48.009998C 57.190285 48.009998 57.638 47.562286 57.638 47.009998C 57.638 46.457714 57.190285 46.009998 56.638 46.009998C 56.085716 46.009998 55.638 46.457714 55.638 47.009998M 52.411999 54.816002C 52.411999 55.368286 52.859715 55.816002 53.411999 55.816002C 53.964283 55.816002 54.411999 55.368286 54.411999 54.816002C 54.411999 54.263714 53.964283 53.816002 53.411999 53.816002C 52.859715 53.816002 52.411999 54.263714 52.411999 54.816002"></path></g></g></g><g id="g-root-sear_zkoszvi2qzus-stroke" data-item-order="1000000000" data-item-id="sear_zkoszvi2qzus" data-item-class="Icon Stroke Indexed InsideFill InsideColorFill" data-item-index="3" data-renderer-id="0" transform="translate(326, 218)"><g id="sear_zkoszvi2qzus-stroke" fill="none" stroke-linecap="round" stroke-linejoin="round" stroke-miterlimit="4" stroke="#93c131" stroke-width="2"><g><path d="M 11.714286 30.297144C 11.712329 40.561554 20.03273 48.883545 30.297144 48.883545C 40.561554 48.883545 48.881958 40.561554 48.880001 30.297144C 48.881958 20.03273 40.561554 11.710742 30.297144 11.710742C 20.03273 11.710742 11.712329 20.03273 11.714286 30.297144M 56.285713 56.285713L 43.428574 43.428574"></path></g></g></g><g id="g-root-sear_zkoszvi2qzus-stroke" data-item-order="1000000000" data-item-id="sear_zkoszvi2qzus" data-item-class="Icon Stroke Indexed InsideFill InsideColorFill" data-item-index="3" data-renderer-id="0" transform="translate(326, 218)"><g id="sear_zkoszvi2qzus-stroke" fill="none" stroke-linecap="round" stroke-linejoin="round" stroke-miterlimit="4" stroke="#93c131" stroke-width="2"><g><path d="M 11.714286 30.297144C 11.712329 40.561554 20.03273 48.883545 30.297144 48.883545C 40.561554 48.883545 48.881958 40.561554 48.880001 30.297144C 48.881958 20.03273 40.561554 11.710742 30.297144 11.710742C 20.03273 11.710742 11.712329 20.03273 11.714286 30.297144M 56.285713 56.285713L 43.428574 43.428574"></path></g></g></g><g id="g-root-info_4lp4nfi2lerz-stroke" data-item-order="1000000000" data-item-id="info_4lp4nfi2lerz" data-item-class="Icon Stroke Indexed InsideFill InsideColorFill" data-item-index="4" data-renderer-id="0" transform="translate(398, 218)"><g id="info_4lp4nfi2lerz-stroke" fill="none" stroke-linecap="round" stroke-linejoin="round" stroke-miterlimit="4" stroke="#e3cd09" stroke-width="2"><g><path d="M 29 57L 13 57C 11.895431 57 11 56.104568 11 55L 11 13C 11 11.895431 11.895431 11 13 11L 39.580002 11C 40.114494 11.002219 40.625854 11.218288 41 11.6L 48.400002 19C 48.775097 19.374985 48.985886 19.88361 48.986 20.414L 48.986 27M 16.993999 41.006001L 28.993999 41.006001M 20 31L 22 31C 22.552284 31 23 31.447716 23 32L 23 41L 23 41L 19 41L 19 41L 19 32C 19 31.447716 19.447716 31 20 31ZM 31 35L 31 26C 31 25.447716 30.552284 25 30 25L 28 25C 27.447716 25 27 25.447716 27 26L 27 41M 32.993999 45.006001C 32.994003 51.633419 38.366585 57.006001 44.993999 57.006001C 51.621418 57.006001 56.993999 51.633419 56.993999 45.006001C 56.993999 38.378586 51.621418 33.006001 44.993999 33.006001C 38.366585 33.006001 32.994003 38.378586 32.994003 45.006001ZM 45 51L 45 44C 45 43.447716 44.552284 43 44 43L 42 43M 43.493999 38C 43.770142 38 43.993999 38.223858 43.993999 38.5C 43.993999 38.776142 43.770142 39 43.493999 39C 43.217857 39 42.993999 38.776142 42.993999 38.5C 42.993999 38.223858 43.217857 38 43.493999 38M 41.993999 51.006001L 47.993999 51.006001"></path></g></g></g><g id="g-root-info_4lp4nfi2lerz-stroke" data-item-order="1000000000" data-item-id="info_4lp4nfi2lerz" data-item-class="Icon Stroke Indexed InsideFill InsideColorFill" data-item-index="4" data-renderer-id="0" transform="translate(398, 218)"><g id="info_4lp4nfi2lerz-stroke" fill="none" stroke-linecap="round" stroke-linejoin="round" stroke-miterlimit="4" stroke="#e3cd09" stroke-width="2"><g><path d="M 29 57L 13 57C 11.895431 57 11 56.104568 11 55L 11 13C 11 11.895431 11.895431 11 13 11L 39.580002 11C 40.114494 11.002219 40.625854 11.218288 41 11.6L 48.400002 19C 48.775097 19.374985 48.985886 19.88361 48.986 20.414L 48.986 27M 16.993999 41.006001L 28.993999 41.006001M 20 31L 22 31C 22.552284 31 23 31.447716 23 32L 23 41L 23 41L 19 41L 19 41L 19 32C 19 31.447716 19.447716 31 20 31ZM 31 35L 31 26C 31 25.447716 30.552284 25 30 25L 28 25C 27.447716 25 27 25.447716 27 26L 27 41M 32.993999 45.006001C 32.994003 51.633419 38.366585 57.006001 44.993999 57.006001C 51.621418 57.006001 56.993999 51.633419 56.993999 45.006001C 56.993999 38.378586 51.621418 33.006001 44.993999 33.006001C 38.366585 33.006001 32.994003 38.378586 32.994003 45.006001ZM 45 51L 45 44C 45 43.447716 44.552284 43 44 43L 42 43M 43.493999 38C 43.770142 38 43.993999 38.223858 43.993999 38.5C 43.993999 38.776142 43.770142 39 43.493999 39C 43.217857 39 42.993999 38.776142 42.993999 38.5C 42.993999 38.223858 43.217857 38 43.493999 38M 41.993999 51.006001L 47.993999 51.006001"></path></g></g></g><g id="g-root-tx_tomadede_v4vh6zi2ldz7-stroke" data-item-order="1000000000" data-item-id="tx_tomadede_v4vh6zi2ldz7" data-item-class="Label Stroke" data-item-index="none" data-renderer-id="0" transform="translate(470, 206)"></g><g id="g-root-tx_tomadede_v4vh6zi2ldz7-stroke" data-item-order="1000000000" data-item-id="tx_tomadede_v4vh6zi2ldz7" data-item-class="Label Stroke" data-item-index="none" data-renderer-id="0" transform="translate(470, 206)"></g><g id="g-root-tx_anlisisd_1q88h57i2lfd1-stroke" data-item-order="1000000000" data-item-id="tx_anlisisd_1q88h57i2lfd1" data-item-class="Label Stroke Indexed" data-item-index="3" data-renderer-id="0" transform="translate(284, 74.22412109375)"></g><g id="g-root-tx_anlisisd_1q88h57i2lfd1-stroke" data-item-order="1000000000" data-item-id="tx_anlisisd_1q88h57i2lfd1" data-item-class="Label Stroke Indexed" data-item-index="3" data-renderer-id="0" transform="translate(284, 74.22412109375)"></g><g id="g-root-tx_integrac_141rfm3i2lekv-stroke" data-item-order="1000000000" data-item-id="tx_integrac_141rfm3i2lekv" data-item-class="Label Stroke Indexed Indexed_1" data-item-index="1" data-renderer-id="0" transform="translate(122, 2)"></g><g id="g-root-tx_visualiz_4ikxjfi2ldz8-stroke" data-item-order="1000000000" data-item-id="tx_visualiz_4ikxjfi2ldz8" data-item-class="Label Stroke Indexed" data-item-index="4" data-renderer-id="0" transform="translate(344, 326)"></g><g id="g-root-tx_visualiz_4ikxjfi2ldz8-stroke" data-item-order="1000000000" data-item-id="tx_visualiz_4ikxjfi2ldz8" data-item-class="Label Stroke Indexed" data-item-index="4" data-renderer-id="0" transform="translate(344, 326)"></g><g id="g-root-tx_limpieza_1cxefuzi2lds6-stroke" data-item-order="1000000000" data-item-id="tx_limpieza_1cxefuzi2lds6" data-item-class="Label Stroke Indexed" data-item-index="2" data-renderer-id="0" transform="translate(206, 386)"></g><g id="g-root-tx_integrac_141rfm3i2lekv-stroke" data-item-order="1000000000" data-item-id="tx_integrac_141rfm3i2lekv" data-item-class="Label Stroke Indexed Indexed_1" data-item-index="1" data-renderer-id="0" transform="translate(122, 2)"></g><g id="g-root-1_zkozbfi2ld6y-stroke" data-item-order="1000000000" data-item-id="1_zkozbfi2ld6y" data-item-class="Icon Stroke Indexed Indexed_1 InsideFill InsideColorFill" data-item-index="1" data-renderer-id="0" transform="translate(182, 218)"><g id="1_zkozbfi2ld6y-stroke" fill="none" stroke-linecap="round" stroke-linejoin="round" stroke-miterlimit="4" stroke="#17b0e3" stroke-width="2"><g><path d="M 17.644001 17.133999C 17.643053 20.522383 20.389614 23.269712 23.778 23.269712C 27.166382 23.269712 29.912945 20.522383 29.911999 17.133999C 29.912945 13.745616 27.166382 10.998286 23.778 10.998286C 20.389614 10.998286 17.643053 13.745616 17.643999 17.133999M 17.644001 50.866001C 17.643053 54.254379 20.389614 57.001709 23.778 57.001709C 27.166382 57.001709 29.912945 54.254379 29.911999 50.865997C 29.912945 47.477615 27.166382 44.730286 23.778 44.730286C 20.389614 44.730286 17.643053 47.477615 17.643999 50.865997M 38.087997 37.066002C 38.087051 40.454384 40.833614 43.20171 44.221996 43.20171C 47.610382 43.20171 50.356945 40.454384 50.355999 37.065998C 50.356945 33.677612 47.610382 30.930285 44.221996 30.930285C 40.833614 30.930285 38.087051 33.677612 38.087997 37.065998M 23.778 23.265999L 23.778 44.734001M 23.778 24.799999C 24.799999 34 29.912001 37.066002 38.087997 37.066002"></path></g></g></g></g></g></svg>