<?xml version="1.0" encoding="utf-8" standalone="yes"?>
<!DOCTYPE svg PUBLIC "-//W3C//DTD SVG 1.1//EN" "http://www.w3.org/Graphics/SVG/1.1/DTD/svg11.dtd">
<svg width="709" height="373" viewBox="0 0 709 373" style="fill:none;stroke:none;fill-rule:evenodd;clip-rule:evenodd;stroke-linecap:round;stroke-linejoin:round;stroke-miterlimit:1.5;" version="1.1" xmlns="http://www.w3.org/2000/svg" xmlns:xlink="http://www.w3.org/1999/xlink"><style id="fontImports">@import url("https://fonts.googleapis.com/css2?family=Roboto:wght@400;700&amp;display=block");</style><g id="items" style="isolation: isolate"><g id="blend" style="mix-blend-mode:normal"><g id="g-root-3.cu_sy_1uljgpr795eyx-fill" data-item-order="999896326" data-item-id="3.cu_sy_1uljgpr795eyx" data-item-class="Part Indexed Fill Stroke" data-item-index="3" data-renderer-id="0" transform="translate(398, 62)"><g id="3.cu_sy_1uljgpr795eyx-fill" stroke="none" fill="#e6efff"><g><path d="M 298 154C 298 233.529 233.529 298 154 298C 74.471 298 10 233.529 10 154C 10 74.471 74.471 10 154 10C 233.529 10 298 74.471 298 154ZM 154 250C 207.019 250 250 207.019 250 154C 250 100.9807 207.019 58 154 58C 100.9807 58 58 100.9807 58 154C 58 207.019 100.9807 250 154 250Z"></path></g></g></g><g id="g-root-3.cu_sy_1uljgpr795eyx-fill" data-item-order="999896326" data-item-id="3.cu_sy_1uljgpr795eyx" data-item-class="Part Indexed Fill Stroke" data-item-index="3" data-renderer-id="0" transform="translate(398, 62)"><g id="3.cu_sy_1uljgpr795eyx-fill" stroke="none" fill="#e6efff"><g><path d="M 298 154C 298 233.529 233.529 298 154 298C 74.471 298 10 233.529 10 154C 10 74.471 74.471 10 154 10C 233.529 10 298 74.471 298 154ZM 154 250C 207.019 250 250 207.019 250 154C 250 100.9807 207.019 58 154 58C 100.9807 58 58 100.9807 58 154C 58 207.019 100.9807 250 154 250Z"></path></g></g></g><g id="g-root-3.line_sy_1ha2ycf795gju-fill" data-item-order="999896331" data-item-id="3.line_sy_1ha2ycf795gju" data-item-class="Curve Stroke Part LeaderLine Indexed" data-item-index="3" data-renderer-id="0" transform="translate(326, 122.0001220703125)"></g><g id="g-root-3.line_sy_1ha2ycf795gju-fill" data-item-order="999896331" data-item-id="3.line_sy_1ha2ycf795gju" data-item-class="Curve Stroke Part LeaderLine Indexed" data-item-index="3" data-renderer-id="0" transform="translate(326, 122.0001220703125)"></g><g id="g-root-2.cu_sy_1cu9g7z795hc3-fill" data-item-order="999896334" data-item-id="2.cu_sy_1cu9g7z795hc3" data-item-class="Part Indexed Fill Stroke" data-item-index="2" data-renderer-id="0" transform="translate(446, 110)"><g id="2.cu_sy_1cu9g7z795hc3-fill" stroke="none" fill="#e6f9ff"><g><path d="M 202 106C 202 159.019 159.019 202 106 202C 52.9807 202 10 159.019 10 106C 10 52.9807 52.9807 10 106 10C 159.019 10 202 52.9807 202 106ZM 106 154C 132.51 154 154 132.51 154 106C 154 79.4903 132.51 58 106 58C 79.4903 58 58 79.4903 58 106C 58 132.51 79.4903 154 106 154Z"></path></g></g></g><g id="g-root-2.cu_sy_1cu9g7z795hc3-fill" data-item-order="999896334" data-item-id="2.cu_sy_1cu9g7z795hc3" data-item-class="Part Indexed Fill Stroke" data-item-index="2" data-renderer-id="0" transform="translate(446, 110)"><g id="2.cu_sy_1cu9g7z795hc3-fill" stroke="none" fill="#e6f9ff"><g><path d="M 202 106C 202 159.019 159.019 202 106 202C 52.9807 202 10 159.019 10 106C 10 52.9807 52.9807 10 106 10C 159.019 10 202 52.9807 202 106ZM 106 154C 132.51 154 154 132.51 154 106C 154 79.4903 132.51 58 106 58C 79.4903 58 58 79.4903 58 106C 58 132.51 79.4903 154 106 154Z"></path></g></g></g><g id="g-root-2.line_sy_13z8x27795ez0-fill" data-item-order="999896339" data-item-id="2.line_sy_13z8x27795ez0" data-item-class="Curve Stroke Part LeaderLine Indexed" data-item-index="2" data-renderer-id="0" transform="translate(326, 206.00970458984375)"></g><g id="g-root-2.line_sy_13z8x27795ez0-fill" data-item-order="999896339" data-item-id="2.line_sy_13z8x27795ez0" data-item-class="Curve Stroke Part LeaderLine Indexed" data-item-index="2" data-renderer-id="0" transform="translate(326, 206.00970458984375)"></g><g id="g-root-1.cu_sy_zjfexr795fr9-fill" data-item-order="999896342" data-item-id="1.cu_sy_zjfexr795fr9" data-item-class="Part Indexed Indexed_1 Fill Stroke" data-item-index="1" data-renderer-id="0" transform="translate(494, 158)"><g id="1.cu_sy_zjfexr795fr9-fill" stroke="none" fill="#e9fbf3"><g><path d="M 106 58C 106 84.5097 84.5097 106 58 106C 31.4903 106 10 84.5097 10 58C 10 31.4903 31.4903 10 58 10C 84.5097 10 106 31.4903 106 58Z"></path></g></g></g><g id="g-root-1.cu_sy_zjfexr795fr9-fill" data-item-order="999896342" data-item-id="1.cu_sy_zjfexr795fr9" data-item-class="Part Indexed Indexed_1 Fill Stroke" data-item-index="1" data-renderer-id="0" transform="translate(494, 158)"><g id="1.cu_sy_zjfexr795fr9-fill" stroke="none" fill="#e9fbf3"><g><path d="M 106 58C 106 84.5097 84.5097 106 58 106C 31.4903 106 10 84.5097 10 58C 10 31.4903 31.4903 10 58 10C 84.5097 10 106 31.4903 106 58Z"></path></g></g></g><g id="g-root-1.line_sy_qnseov795gjy-fill" data-item-order="999896347" data-item-id="1.line_sy_qnseov795gjy" data-item-class="Curve Stroke Part LeaderLine Indexed Indexed_1" data-item-index="1" data-renderer-id="0" transform="translate(326, 223.501953125)"></g><g id="g-root-1.line_sy_qnseov795gjy-fill" data-item-order="999896347" data-item-id="1.line_sy_qnseov795gjy" data-item-class="Curve Stroke Part LeaderLine Indexed Indexed_1" data-item-index="1" data-renderer-id="0" transform="translate(326, 223.501953125)"></g><g id="g-root-tx_capasdea_qnseov795gjz-fill" data-item-order="1000000000" data-item-id="tx_capasdea_qnseov795gjz" data-item-class="Label Stroke Title" data-item-index="none" data-renderer-id="0" transform="translate(164, 2)"><g id="tx_capasdea_qnseov795gjz-fill" stroke="none" fill="#484848"><g><text style="font: 20px &quot;Roboto&quot;, sans-serif; white-space: pre;" font-size="20px" font-family="'Roboto', sans-serif"><tspan x="14.27" y="34" dominant-baseline="ideographic">Arquitectura de Backend API Rest </tspan></text></g></g></g><g id="g-root-tx_controla_1hbydlr795fka-fill" data-item-order="1000000000" data-item-id="tx_controla_1hbydlr795fka" data-item-class="Label Stroke Indexed" data-item-index="3" data-renderer-id="0" transform="translate(86, 110)"><g id="tx_controla_1hbydlr795fka-fill" stroke="none" fill="#484848"><g><text style="font: 20px &quot;Roboto&quot;, sans-serif; white-space: pre;" font-size="20px" font-family="'Roboto', sans-serif"><tspan x="14.08" y="34" dominant-baseline="ideographic">Controladores API</tspan></text></g></g></g><g id="g-root-tx_controla_1hbydlr795fka-fill" data-item-order="1000000000" data-item-id="tx_controla_1hbydlr795fka" data-item-class="Label Stroke Indexed" data-item-index="3" data-renderer-id="0" transform="translate(86, 110)"><g id="tx_controla_1hbydlr795fka-fill" stroke="none" fill="#484848"><g><text style="font: 20px &quot;Roboto&quot;, sans-serif; white-space: pre;" font-size="20px" font-family="'Roboto', sans-serif"><tspan x="14.08" y="34" dominant-baseline="ideographic">Controladores API</tspan></text></g></g></g><g id="g-root-2_hzn6n37988hx-fill" data-item-order="1000000000" data-item-id="2_hzn6n37988hx" data-item-class="Icon Stroke Indexed" data-item-index="3" data-renderer-id="0" transform="translate(266, 98)"></g><g id="g-root-2_hzn6n37988hx-fill" data-item-order="1000000000" data-item-id="2_hzn6n37988hx" data-item-class="Icon Stroke Indexed" data-item-index="3" data-renderer-id="0" transform="translate(266, 98)"></g><g id="g-root-pyra_v2zfq779dudq-fill" data-item-order="1000000000" data-item-id="pyra_v2zfq779dudq" data-item-class="Icon Stroke Indexed Indexed_1" data-item-index="1" data-renderer-id="0" transform="translate(266, 266)"></g><g id="g-root-tx_capadelg_1umsevz795h55-fill" data-item-order="1000000000" data-item-id="tx_capadelg_1umsevz795h55" data-item-class="Label Stroke Indexed" data-item-index="2" data-renderer-id="0" transform="translate(2, 194)"><g id="tx_capadelg_1umsevz795h55-fill" stroke="none" fill="#484848"><g><text style="font: 20px &quot;Roboto&quot;, sans-serif; white-space: pre;" font-size="20px" font-family="'Roboto', sans-serif"><tspan x="16.67" y="34" dominant-baseline="ideographic">Capa de Lógica de Negocio</tspan></text></g></g></g><g id="g-root-tx_capadelg_1umsevz795h55-fill" data-item-order="1000000000" data-item-id="tx_capadelg_1umsevz795h55" data-item-class="Label Stroke Indexed" data-item-index="2" data-renderer-id="0" transform="translate(2, 194)"><g id="tx_capadelg_1umsevz795h55-fill" stroke="none" fill="#484848"><g><text style="font: 20px &quot;Roboto&quot;, sans-serif; white-space: pre;" font-size="20px" font-family="'Roboto', sans-serif"><tspan x="16.67" y="34" dominant-baseline="ideographic">Capa de Lógica de Negocio</tspan></text></g></g></g><g id="g-root-lock_zlaxcv78ye4i-fill" data-item-order="1000000000" data-item-id="lock_zlaxcv78ye4i" data-item-class="Icon Stroke Indexed" data-item-index="2" data-renderer-id="0" transform="translate(266, 182)"></g><g id="g-root-lock_zlaxcv78ye4i-fill" data-item-order="1000000000" data-item-id="lock_zlaxcv78ye4i" data-item-class="Icon Stroke Indexed" data-item-index="2" data-renderer-id="0" transform="translate(266, 182)"></g><g id="g-root-tx_capadeen_8x4va7795frc-fill" data-item-order="1000000000" data-item-id="tx_capadeen_8x4va7795frc" data-item-class="Label Stroke Indexed Indexed_1" data-item-index="1" data-renderer-id="0" transform="translate(74, 278)"><g id="tx_capadeen_8x4va7795frc-fill" stroke="none" fill="#484848"><g><text style="font: 20px &quot;Roboto&quot;, sans-serif; white-space: pre;" font-size="20px" font-family="'Roboto', sans-serif"><tspan x="22.07" y="34" dominant-baseline="ideographic">Capa de Entidades</tspan></text></g></g></g><g id="g-root-tx_capadeen_8x4va7795frc-fill" data-item-order="1000000000" data-item-id="tx_capadeen_8x4va7795frc" data-item-class="Label Stroke Indexed Indexed_1" data-item-index="1" data-renderer-id="0" transform="translate(74, 278)"><g id="tx_capadeen_8x4va7795frc-fill" stroke="none" fill="#484848"><g><text style="font: 20px &quot;Roboto&quot;, sans-serif; white-space: pre;" font-size="20px" font-family="'Roboto', sans-serif"><tspan x="22.07" y="34" dominant-baseline="ideographic">Capa de Entidades</tspan></text></g></g></g><g id="g-root-pyra_v2zfq779dudq-fill" data-item-order="1000000000" data-item-id="pyra_v2zfq779dudq" data-item-class="Icon Stroke Indexed Indexed_1" data-item-index="1" data-renderer-id="0" transform="translate(266, 266)"></g><g id="g-root-tx_capasdea_qnseov795gjz-fill" data-item-order="1000000000" data-item-id="tx_capasdea_qnseov795gjz" data-item-class="Label Stroke Title" data-item-index="none" data-renderer-id="0" transform="translate(164, 2)"><g id="tx_capasdea_qnseov795gjz-fill" stroke="none" fill="#484848"><g><text style="font: 20px &quot;Roboto&quot;, sans-serif; white-space: pre;" font-size="20px" font-family="'Roboto', sans-serif"><tspan x="14.27" y="34" dominant-baseline="ideographic">Arquitectura de Backend API Rest </tspan></text></g></g></g><g id="g-root-3.cu_sy_1uljgpr795eyx-stroke" data-item-order="999896326" data-item-id="3.cu_sy_1uljgpr795eyx" data-item-class="Part Indexed Fill Stroke" data-item-index="3" data-renderer-id="0" transform="translate(398, 62)"><g id="3.cu_sy_1uljgpr795eyx-stroke" fill="none" stroke-linecap="round" stroke-linejoin="round" stroke-miterlimit="4" stroke="#4682e3" stroke-width="2"><g><path d="M 298 154C 298 233.529 233.529 298 154 298C 74.471 298 10 233.529 10 154C 10 74.471 74.471 10 154 10C 233.529 10 298 74.471 298 154ZM 154 250C 207.0193 250 250 207.0193 250 154C 250 100.9807 207.0193 58 154 58C 100.9807 58 58 100.9807 58 154C 58 207.0193 100.9807 250 154 250Z"></path></g></g></g><g id="g-root-3.cu_sy_1uljgpr795eyx-stroke" data-item-order="999896326" data-item-id="3.cu_sy_1uljgpr795eyx" data-item-class="Part Indexed Fill Stroke" data-item-index="3" data-renderer-id="0" transform="translate(398, 62)"><g id="3.cu_sy_1uljgpr795eyx-stroke" fill="none" stroke-linecap="round" stroke-linejoin="round" stroke-miterlimit="4" stroke="#4682e3" stroke-width="2"><g><path d="M 298 154C 298 233.529 233.529 298 154 298C 74.471 298 10 233.529 10 154C 10 74.471 74.471 10 154 10C 233.529 10 298 74.471 298 154ZM 154 250C 207.0193 250 250 207.0193 250 154C 250 100.9807 207.0193 58 154 58C 100.9807 58 58 100.9807 58 154C 58 207.0193 100.9807 250 154 250Z"></path></g></g></g><g id="g-root-3.line_sy_1ha2ycf795gju-stroke" data-item-order="999896331" data-item-id="3.line_sy_1ha2ycf795gju" data-item-class="Curve Stroke Part LeaderLine Indexed" data-item-index="3" data-renderer-id="0" transform="translate(326, 122.0001220703125)"><g id="3.line_sy_1ha2ycf795gju-stroke" fill="none" stroke-linecap="round" stroke-linejoin="round" stroke-miterlimit="4" stroke="#484848" stroke-width="2"><g><path d="M 10 9.999878L 89.64 40.969878"></path><path d="M 81.7 44.899878L 90.1 41.199878L 86.4 32.699878" stroke-dasharray="none"></path></g></g></g><g id="g-root-3.line_sy_1ha2ycf795gju-stroke" data-item-order="999896331" data-item-id="3.line_sy_1ha2ycf795gju" data-item-class="Curve Stroke Part LeaderLine Indexed" data-item-index="3" data-renderer-id="0" transform="translate(326, 122.0001220703125)"><g id="3.line_sy_1ha2ycf795gju-stroke" fill="none" stroke-linecap="round" stroke-linejoin="round" stroke-miterlimit="4" stroke="#484848" stroke-width="2"><g><path d="M 10 9.999878L 89.64 40.969878"></path><path d="M 81.7 44.899878L 90.1 41.199878L 86.4 32.699878" stroke-dasharray="none"></path></g></g></g><g id="g-root-2.cu_sy_1cu9g7z795hc3-stroke" data-item-order="999896334" data-item-id="2.cu_sy_1cu9g7z795hc3" data-item-class="Part Indexed Fill Stroke" data-item-index="2" data-renderer-id="0" transform="translate(446, 110)"><g id="2.cu_sy_1cu9g7z795hc3-stroke" fill="none" stroke-linecap="round" stroke-linejoin="round" stroke-miterlimit="4" stroke="#17b0e3" stroke-width="2"><g><path d="M 202 106C 202 159.0193 159.0193 202 106 202C 52.9807 202 10 159.0193 10 106C 10 52.9807 52.9807 10 106 10C 159.0193 10 202 52.9807 202 106ZM 106 154C 132.5097 154 154 132.5097 154 106C 154 79.4903 132.5097 58 106 58C 79.4903 58 58 79.4903 58 106C 58 132.5097 79.4903 154 106 154Z"></path></g></g></g><g id="g-root-2.cu_sy_1cu9g7z795hc3-stroke" data-item-order="999896334" data-item-id="2.cu_sy_1cu9g7z795hc3" data-item-class="Part Indexed Fill Stroke" data-item-index="2" data-renderer-id="0" transform="translate(446, 110)"><g id="2.cu_sy_1cu9g7z795hc3-stroke" fill="none" stroke-linecap="round" stroke-linejoin="round" stroke-miterlimit="4" stroke="#17b0e3" stroke-width="2"><g><path d="M 202 106C 202 159.0193 159.0193 202 106 202C 52.9807 202 10 159.0193 10 106C 10 52.9807 52.9807 10 106 10C 159.0193 10 202 52.9807 202 106ZM 106 154C 132.5097 154 154 132.5097 154 106C 154 79.4903 132.5097 58 106 58C 79.4903 58 58 79.4903 58 106C 58 132.5097 79.4903 154 106 154Z"></path></g></g></g><g id="g-root-2.line_sy_13z8x27795ez0-stroke" data-item-order="999896339" data-item-id="2.line_sy_13z8x27795ez0" data-item-class="Curve Stroke Part LeaderLine Indexed" data-item-index="2" data-renderer-id="0" transform="translate(326, 206.00970458984375)"><g id="2.line_sy_13z8x27795ez0-stroke" fill="none" stroke-linecap="round" stroke-linejoin="round" stroke-miterlimit="4" stroke="#484848" stroke-width="2"><g><path d="M 10 10.000305L 128 10.000305"></path><path d="M 122 16.500305L 128.5 10.000305L 122 3.500305" stroke-dasharray="none"></path></g></g></g><g id="g-root-2.line_sy_13z8x27795ez0-stroke" data-item-order="999896339" data-item-id="2.line_sy_13z8x27795ez0" data-item-class="Curve Stroke Part LeaderLine Indexed" data-item-index="2" data-renderer-id="0" transform="translate(326, 206.00970458984375)"><g id="2.line_sy_13z8x27795ez0-stroke" fill="none" stroke-linecap="round" stroke-linejoin="round" stroke-miterlimit="4" stroke="#484848" stroke-width="2"><g><path d="M 10 10.000305L 128 10.000305"></path><path d="M 122 16.500305L 128.5 10.000305L 122 3.500305" stroke-dasharray="none"></path></g></g></g><g id="g-root-1.cu_sy_zjfexr795fr9-stroke" data-item-order="999896342" data-item-id="1.cu_sy_zjfexr795fr9" data-item-class="Part Indexed Indexed_1 Fill Stroke" data-item-index="1" data-renderer-id="0" transform="translate(494, 158)"><g id="1.cu_sy_zjfexr795fr9-stroke" fill="none" stroke-linecap="round" stroke-linejoin="round" stroke-miterlimit="4" stroke="#3bc482" stroke-width="2"><g><path d="M 106 58C 106 84.5097 84.5097 106 58 106C 31.4903 106 10 84.5097 10 58C 10 31.4903 31.4903 10 58 10C 84.5097 10 106 31.4903 106 58Z"></path></g></g></g><g id="g-root-1.cu_sy_zjfexr795fr9-stroke" data-item-order="999896342" data-item-id="1.cu_sy_zjfexr795fr9" data-item-class="Part Indexed Indexed_1 Fill Stroke" data-item-index="1" data-renderer-id="0" transform="translate(494, 158)"><g id="1.cu_sy_zjfexr795fr9-stroke" fill="none" stroke-linecap="round" stroke-linejoin="round" stroke-miterlimit="4" stroke="#3bc482" stroke-width="2"><g><path d="M 106 58C 106 84.5097 84.5097 106 58 106C 31.4903 106 10 84.5097 10 58C 10 31.4903 31.4903 10 58 10C 84.5097 10 106 31.4903 106 58Z"></path></g></g></g><g id="g-root-1.line_sy_qnseov795gjy-stroke" data-item-order="999896347" data-item-id="1.line_sy_qnseov795gjy" data-item-class="Curve Stroke Part LeaderLine Indexed Indexed_1" data-item-index="1" data-renderer-id="0" transform="translate(326, 223.501953125)"><g id="1.line_sy_qnseov795gjy-stroke" fill="none" stroke-linecap="round" stroke-linejoin="round" stroke-miterlimit="4" stroke="#484848" stroke-width="2"><g><path d="M 10 76.498027L 179.14 10.728027"></path><path d="M 175.9 18.928027L 179.6 10.528027L 171.2 6.828027" stroke-dasharray="none"></path></g></g></g><g id="g-root-1.line_sy_qnseov795gjy-stroke" data-item-order="999896347" data-item-id="1.line_sy_qnseov795gjy" data-item-class="Curve Stroke Part LeaderLine Indexed Indexed_1" data-item-index="1" data-renderer-id="0" transform="translate(326, 223.501953125)"><g id="1.line_sy_qnseov795gjy-stroke" fill="none" stroke-linecap="round" stroke-linejoin="round" stroke-miterlimit="4" stroke="#484848" stroke-width="2"><g><path d="M 10 76.498027L 179.14 10.728027"></path><path d="M 175.9 18.928027L 179.6 10.528027L 171.2 6.828027" stroke-dasharray="none"></path></g></g></g><g id="g-root-tx_capasdea_qnseov795gjz-stroke" data-item-order="1000000000" data-item-id="tx_capasdea_qnseov795gjz" data-item-class="Label Stroke Title" data-item-index="none" data-renderer-id="0" transform="translate(164, 2)"></g><g id="g-root-tx_controla_1hbydlr795fka-stroke" data-item-order="1000000000" data-item-id="tx_controla_1hbydlr795fka" data-item-class="Label Stroke Indexed" data-item-index="3" data-renderer-id="0" transform="translate(86, 110)"></g><g id="g-root-tx_controla_1hbydlr795fka-stroke" data-item-order="1000000000" data-item-id="tx_controla_1hbydlr795fka" data-item-class="Label Stroke Indexed" data-item-index="3" data-renderer-id="0" transform="translate(86, 110)"></g><g id="g-root-2_hzn6n37988hx-stroke" data-item-order="1000000000" data-item-id="2_hzn6n37988hx" data-item-class="Icon Stroke Indexed" data-item-index="3" data-renderer-id="0" transform="translate(266, 98)"><g id="2_hzn6n37988hx-stroke" fill="none" stroke-linecap="round" stroke-linejoin="round" stroke-miterlimit="4" stroke="#484848" stroke-width="2"><g><path d="M 40 32L 35 42L 30 32M 57 38C 57.00251 35.285614 55.899284 32.687309 53.944599 30.803944C 51.98991 28.920576 49.352413 27.914644 46.639999 28.018C 43.916706 22.235401 37.61792 19.036705 31.342236 20.249374C 25.066551 21.462044 20.412907 26.777115 20.040001 33.158001C 17.828627 32.694801 15.526266 33.252914 13.772458 34.677299C 12.01865 36.101685 11.000196 38.240639 11 40.5C 11 48.119999 19 48 19 48L 48 48C 48 48 57 46.827999 57 38Z"></path></g></g></g><g id="g-root-2_hzn6n37988hx-stroke" data-item-order="1000000000" data-item-id="2_hzn6n37988hx" data-item-class="Icon Stroke Indexed" data-item-index="3" data-renderer-id="0" transform="translate(266, 98)"><g id="2_hzn6n37988hx-stroke" fill="none" stroke-linecap="round" stroke-linejoin="round" stroke-miterlimit="4" stroke="#484848" stroke-width="2"><g><path d="M 40 32L 35 42L 30 32M 57 38C 57.00251 35.285614 55.899284 32.687309 53.944599 30.803944C 51.98991 28.920576 49.352413 27.914644 46.639999 28.018C 43.916706 22.235401 37.61792 19.036705 31.342236 20.249374C 25.066551 21.462044 20.412907 26.777115 20.040001 33.158001C 17.828627 32.694801 15.526266 33.252914 13.772458 34.677299C 12.01865 36.101685 11.000196 38.240639 11 40.5C 11 48.119999 19 48 19 48L 48 48C 48 48 57 46.827999 57 38Z"></path></g></g></g><g id="g-root-pyra_v2zfq779dudq-stroke" data-item-order="1000000000" data-item-id="pyra_v2zfq779dudq" data-item-class="Icon Stroke Indexed Indexed_1" data-item-index="1" data-renderer-id="0" transform="translate(266, 266)"><g id="pyra_v2zfq779dudq-stroke" fill="none" stroke-linecap="round" stroke-linejoin="round" stroke-miterlimit="4" stroke="#484848" stroke-width="2"><g><path d="M 29 46.956001L 15 46.956001C 12.790861 46.956001 11 45.165138 11 42.956001L 11 14.972C 11 12.762861 12.790861 10.972 15 10.972L 43 10.972C 45.209141 10.972 47 12.762861 47 14.972L 47 28.972M 10.994 22.972L 46.993999 22.972M 10.994 34.956001L 30.993999 34.956001M 34.993999 10.972L 34.993999 30.972M 22.993999 10.972L 22.993999 46.956001M 32.993999 44.972C 32.994003 51.599419 38.366585 56.972 44.993999 56.972C 51.621418 56.972 56.993999 51.599419 56.993999 44.972C 56.993999 38.344582 51.621418 32.972 44.993999 32.972C 38.366585 32.972 32.994003 38.344582 32.994003 44.972ZM 44.993999 38.972L 44.993999 50.972M 44.993999 50.972L 40.493999 46.472M 44.993999 50.972L 49.493999 46.472"></path></g></g></g><g id="g-root-tx_capadelg_1umsevz795h55-stroke" data-item-order="1000000000" data-item-id="tx_capadelg_1umsevz795h55" data-item-class="Label Stroke Indexed" data-item-index="2" data-renderer-id="0" transform="translate(2, 194)"></g><g id="g-root-tx_capadelg_1umsevz795h55-stroke" data-item-order="1000000000" data-item-id="tx_capadelg_1umsevz795h55" data-item-class="Label Stroke Indexed" data-item-index="2" data-renderer-id="0" transform="translate(2, 194)"></g><g id="g-root-lock_zlaxcv78ye4i-stroke" data-item-order="1000000000" data-item-id="lock_zlaxcv78ye4i" data-item-class="Icon Stroke Indexed" data-item-index="2" data-renderer-id="0" transform="translate(266, 182)"><g id="lock_zlaxcv78ye4i-stroke" fill="none" stroke-linecap="round" stroke-linejoin="round" stroke-miterlimit="4" stroke="#484848" stroke-width="2"><g><path d="M 28.445999 45.495998L 15.368 45.495998C 13.058346 45.496002 11.186 43.623657 11.186 41.314003L 11.186 15.182C 11.186 12.872345 13.058346 11 15.368 11L 46.728001 11C 49.036877 11.001104 50.908001 12.873126 50.908001 15.182L 50.908001 29.41M 11.186 19.166L 50.908001 19.166M 11.186 36.515999L 30.348 36.515999M 11.186 27.854L 50.908001 27.854M 27.41 19.166L 27.41 45.495998M 39.042 19.166L 39.042 29.41M 44.916 57C 51.487606 57.001106 56.815632 51.674271 56.815998 45.102669C 56.816368 38.531063 51.488937 33.203636 44.917332 33.204002C 38.34573 33.204369 33.018898 38.532394 33.02 45.104C 33.021103 51.673523 38.346478 56.998898 44.916 57ZM 41.348 41.5C 41.331833 40.018806 42.195976 38.669167 43.548 38.064003C 44.883984 37.487103 46.438091 37.806717 47.438 38.863998C 48.462574 39.948944 48.764542 41.5298 48.212002 42.916C 47.688679 44.286137 46.3806 45.196796 44.914001 45.212002L 44.914001 47.799999M 44.916 51.051998C 44.612652 51.039761 44.332291 51.213062 44.207623 51.489883C 44.082954 51.766705 44.138988 52.091503 44.349205 52.310551C 44.559418 52.529598 44.881638 52.598946 45.163353 52.485767C 45.445065 52.372593 45.629753 52.099598 45.630001 51.796001C 45.633404 51.600883 45.561817 51.4119 45.43 51.268002C 45.297482 51.130535 45.114933 51.052612 44.924 51.051998L 44.924 51.051998"></path></g></g></g><g id="g-root-lock_zlaxcv78ye4i-stroke" data-item-order="1000000000" data-item-id="lock_zlaxcv78ye4i" data-item-class="Icon Stroke Indexed" data-item-index="2" data-renderer-id="0" transform="translate(266, 182)"><g id="lock_zlaxcv78ye4i-stroke" fill="none" stroke-linecap="round" stroke-linejoin="round" stroke-miterlimit="4" stroke="#484848" stroke-width="2"><g><path d="M 28.445999 45.495998L 15.368 45.495998C 13.058346 45.496002 11.186 43.623657 11.186 41.314003L 11.186 15.182C 11.186 12.872345 13.058346 11 15.368 11L 46.728001 11C 49.036877 11.001104 50.908001 12.873126 50.908001 15.182L 50.908001 29.41M 11.186 19.166L 50.908001 19.166M 11.186 36.515999L 30.348 36.515999M 11.186 27.854L 50.908001 27.854M 27.41 19.166L 27.41 45.495998M 39.042 19.166L 39.042 29.41M 44.916 57C 51.487606 57.001106 56.815632 51.674271 56.815998 45.102669C 56.816368 38.531063 51.488937 33.203636 44.917332 33.204002C 38.34573 33.204369 33.018898 38.532394 33.02 45.104C 33.021103 51.673523 38.346478 56.998898 44.916 57ZM 41.348 41.5C 41.331833 40.018806 42.195976 38.669167 43.548 38.064003C 44.883984 37.487103 46.438091 37.806717 47.438 38.863998C 48.462574 39.948944 48.764542 41.5298 48.212002 42.916C 47.688679 44.286137 46.3806 45.196796 44.914001 45.212002L 44.914001 47.799999M 44.916 51.051998C 44.612652 51.039761 44.332291 51.213062 44.207623 51.489883C 44.082954 51.766705 44.138988 52.091503 44.349205 52.310551C 44.559418 52.529598 44.881638 52.598946 45.163353 52.485767C 45.445065 52.372593 45.629753 52.099598 45.630001 51.796001C 45.633404 51.600883 45.561817 51.4119 45.43 51.268002C 45.297482 51.130535 45.114933 51.052612 44.924 51.051998L 44.924 51.051998"></path></g></g></g><g id="g-root-tx_capadeen_8x4va7795frc-stroke" data-item-order="1000000000" data-item-id="tx_capadeen_8x4va7795frc" data-item-class="Label Stroke Indexed Indexed_1" data-item-index="1" data-renderer-id="0" transform="translate(74, 278)"></g><g id="g-root-tx_capadeen_8x4va7795frc-stroke" data-item-order="1000000000" data-item-id="tx_capadeen_8x4va7795frc" data-item-class="Label Stroke Indexed Indexed_1" data-item-index="1" data-renderer-id="0" transform="translate(74, 278)"></g><g id="g-root-pyra_v2zfq779dudq-stroke" data-item-order="1000000000" data-item-id="pyra_v2zfq779dudq" data-item-class="Icon Stroke Indexed Indexed_1" data-item-index="1" data-renderer-id="0" transform="translate(266, 266)"><g id="pyra_v2zfq779dudq-stroke" fill="none" stroke-linecap="round" stroke-linejoin="round" stroke-miterlimit="4" stroke="#484848" stroke-width="2"><g><path d="M 29 46.956001L 15 46.956001C 12.790861 46.956001 11 45.165138 11 42.956001L 11 14.972C 11 12.762861 12.790861 10.972 15 10.972L 43 10.972C 45.209141 10.972 47 12.762861 47 14.972L 47 28.972M 10.994 22.972L 46.993999 22.972M 10.994 34.956001L 30.993999 34.956001M 34.993999 10.972L 34.993999 30.972M 22.993999 10.972L 22.993999 46.956001M 32.993999 44.972C 32.994003 51.599419 38.366585 56.972 44.993999 56.972C 51.621418 56.972 56.993999 51.599419 56.993999 44.972C 56.993999 38.344582 51.621418 32.972 44.993999 32.972C 38.366585 32.972 32.994003 38.344582 32.994003 44.972ZM 44.993999 38.972L 44.993999 50.972M 44.993999 50.972L 40.493999 46.472M 44.993999 50.972L 49.493999 46.472"></path></g></g></g><g id="g-root-tx_capasdea_qnseov795gjz-stroke" data-item-order="1000000000" data-item-id="tx_capasdea_qnseov795gjz" data-item-class="Label Stroke Title" data-item-index="none" data-renderer-id="0" transform="translate(164, 2)"></g></g></g></svg>